<?xml version="1.0" encoding="UTF-8" standalone="no"?><!DOCTYPE svg PUBLIC "-//W3C//DTD SVG 1.1//EN" "http://www.w3.org/Graphics/SVG/1.1/DTD/svg11.dtd"><svg width="100%" height="100%" viewBox="0 0 151 126" version="1.1" xmlns="http://www.w3.org/2000/svg" xmlns:xlink="http://www.w3.org/1999/xlink" xml:space="preserve" xmlns:serif="http://www.serif.com/" style="fill-rule:evenodd;clip-rule:evenodd;stroke-linecap:round;stroke-linejoin:round;stroke-miterlimit:1.5;"><g id="bee-sight"><path d="M87.036,65.358c-2.971,-4.183 -5.004,-11.259 -6.099,-21.228c-9.408,-4.65 -19.04,-8.717 -28.852,-12.315c-1.642,-0.97 -0.793,-1.541 1.525,-1.877c9.795,3.575 19.491,7.483 29.086,11.729c1.039,6.448 2.465,12.819 5.269,18.985l-0.929,4.706Z" style="fill:#1c0a06;"/><path d="M89.755,98.692l9.568,5.898c-2.775,2.77 -4.633,6.983 -3.833,11.314c-2.485,2.613 -4.599,2.222 -6.304,-1.466c-1.669,-4.904 -0.722,-10.427 0.569,-15.746Z" style="fill:#1c0a06;"/><path d="M117.077,35.201c11.258,3.182 16.005,21.312 10.593,40.461c-5.412,19.148 -18.947,32.111 -30.205,28.929c-11.259,-3.182 -16.006,-21.312 -10.594,-40.46c5.413,-19.149 18.947,-32.112 30.206,-28.93Z" style="fill:#f8d104;"/><path d="M89.726,73.752c-3.741,-2.928 -6.605,-6.4 -7.184,-11.288c-12.867,6.466 -25.048,15.426 -36.798,25.949c-3.39,-3.063 5.076,-10 15.1,-17.446c9.292,-6.849 17.795,-12.437 22.724,-12.315c2.618,3.326 4.988,7.272 7.037,12.022l-0.879,3.078Z" style="fill:#1c0a06;"/><path d="M149.7,17.527c-27.885,22.473 -29.386,45.927 0.825,69.5l-0.825,-69.5Z" style="fill:#f8d104;"/><path d="M115.424,45.328c5.645,1.982 6.838,13.245 2.663,25.136c-4.174,11.891 -12.146,19.936 -17.791,17.954c-5.645,-1.982 -6.838,-13.245 -2.663,-25.136c4.175,-11.891 12.147,-19.936 17.791,-17.954Z" style="fill:#1c0a06;"/><path d="M90.573,64.66l-89.143,-0.11" style="fill:none;stroke:#f96700;stroke-width:2.86px;stroke-dasharray:5.72,5.72,0,0;"/><path d="M91.124,83.743l-66.574,40.808" style="fill:none;stroke:#f96700;stroke-width:2.86px;stroke-dasharray:5.72,5.72,0,0;"/><path d="M99.748,48.88l-75.382,-47.45" style="fill:none;stroke:#f96700;stroke-width:2.86px;stroke-dasharray:5.72,5.72,0,0;"/></g></svg>