<?xml version="1.0" encoding="UTF-8" standalone="no"?><!DOCTYPE svg PUBLIC "-//W3C//DTD SVG 1.1//EN" "http://www.w3.org/Graphics/SVG/1.1/DTD/svg11.dtd"><svg width="100%" height="100%" viewBox="0 0 218 219" version="1.1" xmlns="http://www.w3.org/2000/svg" xmlns:xlink="http://www.w3.org/1999/xlink" xml:space="preserve" xmlns:serif="http://www.serif.com/" style="fill-rule:evenodd;clip-rule:evenodd;stroke-linejoin:round;stroke-miterlimit:1.41421;"><g id="Layer1"><path d="M42.727,29.471c-3.874,-15.18 1.32,-25.259 17.958,-29.471l100.672,0c13.048,6.279 19.581,15.568 15.751,29.471l-134.353,0" style="fill:#fbc12c;"/><path d="M42.727,29.471c-13.072,5.794 -18.476,15.427 -14.57,29.727l162.349,0c4.112,-13.938 -1.412,-23.445 -13.398,-29.727l-134.381,0Z" style="fill:#fde149;"/><path d="M28.157,59.198c-13.332,5.1 -18.587,14.238 -14.23,28.707l192.525,0c3.041,-15.02 -2.905,-24.718 -15.946,-28.707l-162.349,0Z" style="fill:#fbc12c;"/><path d="M13.927,87.905c-19.37,14.123 -17.751,32.962 0,43.059l192.525,0c15.609,-13.861 13.991,-28.265 0,-43.059l-192.525,0Z" style="fill:#fde149;"/><path d="M13.927,130.964c-4.082,16.253 0.885,25.93 13.912,29.426l163.671,0c12.171,-5.179 16.328,-15.374 14.942,-29.426l-192.525,0Z" style="fill:#fbc12c;"/><path d="M27.839,160.39c-3.39,14.776 1.152,24.752 14.142,29.398l134.978,0c11.68,-4.755 16.769,-14.542 14.551,-29.398l-163.671,0Z" style="fill:#fde149;"/><path d="M41.981,189.788c-1.839,16.994 3.485,26.796 15.687,28.858l104.473,0c12.541,-5.181 17.184,-15.434 14.818,-28.858l-134.978,0Z" style="fill:#fbc12c;"/><path d="M80.522,189.788l57.786,0l0,-33.857c-19.688,-32.086 -38.953,-32.338 -57.786,0l0,33.857Z" style="fill:#a46836;"/></g></svg>