<?xml version="1.0" encoding="UTF-8" standalone="no"?><!DOCTYPE svg PUBLIC "-//W3C//DTD SVG 1.1//EN" "http://www.w3.org/Graphics/SVG/1.1/DTD/svg11.dtd"><svg width="100%" height="100%" viewBox="0 0 334 145" version="1.1" xmlns="http://www.w3.org/2000/svg" xmlns:xlink="http://www.w3.org/1999/xlink" xml:space="preserve" xmlns:serif="http://www.serif.com/" style="fill-rule:evenodd;clip-rule:evenodd;stroke-linecap:round;stroke-linejoin:round;stroke-miterlimit:1.5;"><g id="development"><g><rect x="0" y="0" width="333.233" height="144.251" style="fill:#ebe3cd;"/><g><rect x="8.193" y="15.875" width="54.533" height="112.915" style="fill:#e6cf9d;stroke:#c5ad85;stroke-width:1px;"/><path d="M35.729,27.843l-0.197,87.972" style="fill:none;stroke:#cfb487;stroke-width:1px;"/><path d="M35.452,115.977l27.283,5.965l0,11.931l-27.283,5.965l-27.284,-5.965l0,-11.931l27.284,-5.965Z" style="fill:#e6cf9d;stroke:#cfb487;stroke-width:1px;"/><path d="M35.452,3.977l27.283,5.965l0,11.931l-27.283,5.965l-27.284,-5.965l0,-11.931l27.284,-5.965Z" style="fill:#e6cf9d;stroke:#cfb487;stroke-width:1px;"/></g><g><rect x="74.193" y="15.875" width="54.533" height="112.915" style="fill:#e6cf9d;stroke:#c5ad85;stroke-width:1px;"/><path d="M101.729,27.843l-0.197,87.972" style="fill:none;stroke:#cfb487;stroke-width:1px;"/><path d="M101.452,115.977l27.283,5.965l0,11.931l-27.283,5.965l-27.284,-5.965l0,-11.931l27.284,-5.965Z" style="fill:#e6cf9d;stroke:#cfb487;stroke-width:1px;"/><path d="M101.452,3.977l27.283,5.965l0,11.931l-27.283,5.965l-27.284,-5.965l0,-11.931l27.284,-5.965Z" style="fill:#e6cf9d;stroke:#cfb487;stroke-width:1px;"/></g><g><rect x="140.193" y="15.875" width="54.533" height="112.915" style="fill:#e6cf9d;stroke:#c5ad85;stroke-width:1px;"/><path d="M167.729,27.843l-0.197,87.972" style="fill:none;stroke:#cfb487;stroke-width:1px;"/><path d="M167.452,115.977l27.283,5.965l0,11.931l-27.283,5.965l-27.284,-5.965l0,-11.931l27.284,-5.965Z" style="fill:#e6cf9d;stroke:#cfb487;stroke-width:1px;"/><path d="M167.452,3.977l27.283,5.965l0,11.931l-27.283,5.965l-27.284,-5.965l0,-11.931l27.284,-5.965Z" style="fill:#e6cf9d;stroke:#cfb487;stroke-width:1px;"/></g><g><rect x="206.193" y="15.875" width="54.533" height="112.915" style="fill:#e6cf9d;stroke:#c5ad85;stroke-width:1px;"/><path d="M233.729,27.843l-0.197,87.972" style="fill:none;stroke:#cfb487;stroke-width:1px;"/><path d="M233.452,115.977l27.283,5.965l0,11.931l-27.283,5.965l-27.284,-5.965l0,-11.931l27.284,-5.965Z" style="fill:#e6cf9d;stroke:#cfb487;stroke-width:1px;"/><path d="M233.452,3.977l27.283,5.965l0,11.931l-27.283,5.965l-27.284,-5.965l0,-11.931l27.284,-5.965Z" style="fill:#e6cf9d;stroke:#cfb487;stroke-width:1px;"/></g><g><rect x="272.193" y="15.875" width="54.533" height="112.915" style="fill:#e6cf9d;stroke:#c5ad85;stroke-width:1px;"/><path d="M299.729,27.843l-0.197,87.972" style="fill:none;stroke:#cfb487;stroke-width:1px;"/><path d="M299.452,115.977l27.283,5.965l0,11.931l-27.283,5.965l-27.284,-5.965l0,-11.931l27.284,-5.965Z" style="fill:#e6cf9d;stroke:#cfb487;stroke-width:1px;"/><path d="M299.452,3.977l27.283,5.965l0,11.931l-27.283,5.965l-27.284,-5.965l0,-11.931l27.284,-5.965Z" style="fill:#e6cf9d;stroke:#cfb487;stroke-width:1px;"/></g></g><path d="M32.199,117.804c1.989,-2.421 3.645,-2.617 4.817,0.438c-0.908,5.562 -1.208,10.58 1.251,13.135c1.145,2.784 0.002,3.357 -2.815,2.315c-3.855,-4.137 -4.999,-9.408 -3.253,-15.888Z" style="fill:#e2e3de;"/><g><ellipse cx="88.538" cy="119.357" rx="6.908" ry="3.329" style="fill:#e8e5dc;"/><path d="M84.187,116.955c-0.608,-1.548 -0.8,-3.256 0.824,-4.456c-0.46,-1.839 0.202,-3.025 1.826,-3.651c0.824,-2.53 2.817,-3.824 6.437,-3.394c1.517,-1.667 3.24,-1.948 5.18,-0.785c1.568,-1.346 3.028,-1.413 4.356,0.064c2.058,-1.17 3.849,-0.773 5.348,1.345c1.636,-0.154 3.048,0.316 4.131,1.698c1.464,0.652 2.572,1.798 3.171,3.651c1.066,0.984 1.714,2.149 1.954,3.49c0.555,2.478 0.576,4.882 -0.224,7.174c-0.566,1.207 -1.41,2.456 -2.787,2.851c-0.665,1.912 -1.685,3.411 -3.427,4.067c-1.832,1.652 -3.872,2.46 -6.141,2.343c-1.561,0.541 -3.122,0.751 -4.684,0.4c-1.727,0.61 -3.377,0.648 -4.884,-0.36c-1.225,0.174 -2.359,0.012 -3.363,-0.641c-1.635,-0.004 -3.182,-0.419 -4.564,-1.601c-1.765,-0.726 -2.866,-1.86 -3.042,-3.563c-1.292,-1.297 -1.981,-2.685 -2.082,-4.163c-1.566,-3.161 -0.702,-5.361 3.483,-4.164c0.836,-0.019 1.622,0.216 2.322,0.881c1.574,0.297 3.139,0.603 4.243,1.401c1.294,-0.187 2.556,-0.155 3.723,0.52c1.671,-0.933 3.638,-1.442 6.045,-1.321c0.69,-1.309 2.018,-2.261 3.723,-3.002c-1.126,0.337 -2.258,0.435 -3.402,-0.04c-1.053,0.641 -2.175,1.162 -3.483,1.361c-0.269,0.558 -3.815,2.303 -4.57,2.434c-3.431,-0.71 -6.675,-1.33 -10.113,-2.539Z" style="fill:#e8e5dc;stroke:#dcdcdc;stroke-width:1px;"/><path d="M87.792,118.156c-1.649,1.938 -3.438,3.053 -5.365,3.363" style="fill:none;stroke:#dcdcdc;stroke-width:1px;"/><path d="M92.435,119.598c-2.35,2.521 -5.087,4.548 -8.206,6.085" style="fill:none;stroke:#dcdcdc;stroke-width:1px;"/><path d="M96.078,120.478c-0.866,3.949 -2.218,7.332 -4.003,10.209" style="fill:none;stroke:#dcdcdc;stroke-width:1px;"/><path d="M101.923,119.037c1.805,4.242 2.589,8.369 2.602,12.41" style="fill:none;stroke:#dcdcdc;stroke-width:1px;"/><path d="M106.046,116.115c5.508,3.281 7.985,6.103 8.367,8.607" style="fill:none;stroke:#dcdcdc;stroke-width:1px;"/><path d="M105.886,115.474c3.226,-1.848 6.516,-2.994 9.848,-3.683" style="fill:none;stroke:#dcdcdc;stroke-width:1px;"/><path d="M105.446,115.634c0.106,-3.367 0.935,-6.494 2.522,-9.367" style="fill:none;stroke:#dcdcdc;stroke-width:1px;"/><path d="M102.243,115.394c-0.248,-3.477 -0.046,-6.824 0.441,-10.088" style="fill:none;stroke:#dcdcdc;stroke-width:1px;"/><path d="M98.32,105.386c0.687,3.929 0.999,7.788 0.681,11.529" style="fill:none;stroke:#dcdcdc;stroke-width:1px;"/><path d="M92.876,105.866c1.479,4.428 2.181,8.686 2.081,12.771" style="fill:none;stroke:#dcdcdc;stroke-width:1px;"/><path d="M86.911,109.189c3.104,2.931 5.538,6.205 7.566,9.688" style="fill:none;stroke:#dcdcdc;stroke-width:1px;"/><path d="M85.189,112.792c3.065,1.564 5.994,3.718 8.848,6.205" style="fill:none;stroke:#dcdcdc;stroke-width:1px;"/></g><g><path d="M176.915,129.889c5.697,2.014 9.2,-0.506 10.843,-6.872c0.533,-1.296 0.331,-2.565 -0.306,-3.818c1.447,-3.665 0.907,-7.33 -1.221,-10.995c0.509,-2.647 -0.204,-5.498 -2.138,-8.552c0.26,-3.175 -0.235,-6.333 -1.833,-9.468c0.409,-3.074 0.032,-6.421 -1.68,-10.232c1.122,-3.31 1.117,-6.754 -0.458,-10.384c1.515,-3.111 1.738,-6.215 1.527,-9.316c1.326,-2.757 1.778,-5.504 1.833,-8.246c0.63,-3.202 0.592,-6.409 0,-9.621c1.57,-2.45 1.84,-4.949 1.222,-7.483c1.436,-2.781 1.921,-5.584 1.832,-8.399c-0.715,-1.858 -2.159,-2.829 -5.345,-1.68c-4.257,0.559 -7.743,2 -10.232,4.581c-4.466,1.356 -7.734,3.436 -9.01,6.72c-4.27,2.372 -6.815,5.447 -7.788,9.162c-3.043,3.118 -5.088,6.6 -5.039,10.843c-2.54,3.462 -3.779,7.283 -3.207,11.606c-1.954,5.488 -2.444,10.944 -0.153,16.34c-1.585,4.469 -1.689,8.576 1.985,11.759c-0.231,5.838 0.848,9.837 4.276,10.538c0.287,6.095 2.317,10.034 6.261,11.606c2.183,4.305 5.251,7.24 9.469,8.399c2.363,3.459 5.499,4.36 9.162,3.512Z" style="fill:#e5e6e0;stroke:#dcdcdc;stroke-width:1px;"/><path d="M170.959,29.404c4.97,0.825 9.537,2.694 13.745,5.498" style="fill:none;stroke:#dcdcdc;stroke-width:1px;"/><path d="M161.949,36.124c8.667,-0.836 15.817,1.305 21.533,6.261" style="fill:none;stroke:#dcdcdc;stroke-width:1px;"/><path d="M154.161,45.286c11.88,-3.399 21.863,-1.72 29.321,6.72" style="fill:none;stroke:#dcdcdc;stroke-width:1px;"/><path d="M149.122,56.129c12.301,-5.993 23.159,-4.698 32.527,4.123" style="fill:none;stroke:#dcdcdc;stroke-width:1px;"/><path d="M145.915,67.735c12.548,-8.618 23.968,-8.152 34.207,1.833" style="fill:none;stroke:#dcdcdc;stroke-width:1px;"/><path d="M145.762,84.075c10.397,-9.473 21.972,-11.055 34.818,-4.123" style="fill:none;stroke:#dcdcdc;stroke-width:1px;"/><path d="M147.747,95.834c10.48,-9.26 21.954,-11.364 34.513,-5.65" style="fill:none;stroke:#dcdcdc;stroke-width:1px;"/><path d="M152.023,106.372c9.497,-8.971 20.146,-11.445 32.07,-6.72" style="fill:none;stroke:#dcdcdc;stroke-width:1px;"/><path d="M158.284,117.978c7.569,-8.546 16.804,-12.048 27.947,-9.774" style="fill:none;stroke:#dcdcdc;stroke-width:1px;"/><path d="M167.753,126.377c5.075,-7.557 11.588,-11.686 20.451,-10.211" style="fill:none;stroke:#dcdcdc;stroke-width:1px;"/><path d="M176.915,129.889c2.744,-3.153 6.203,-5.597 10.843,-6.872" style="fill:none;stroke:#dcdcdc;stroke-width:1px;"/></g><g><path d="M251.163,35.038c-10.796,-14.866 -21.282,-23.158 -30.807,-11.102c-0.74,4.55 0.553,7.539 4.457,8.522c-9.502,1.778 -14.948,6.184 -15.012,14.074c-2.166,19.655 2.37,24.476 11.806,18.453c-1.6,1.507 -2.823,3.106 -2.502,5.082c-8.715,12.007 -14.776,22.584 -7.74,26.115c-0.962,5.58 0.219,9.441 3.753,11.416c0.499,6.842 2.911,10.077 7.115,9.93c1.386,3.318 3.55,5.902 7.741,6.568c4.76,3.801 9.415,4.781 13.995,3.831c4.058,0.35 7.7,-0.059 10.869,-1.329c-1.126,-2.182 -2.582,-3.881 -4.535,-4.848c0.889,-2.065 1.064,-4.291 0.312,-6.724c0.615,-2.619 0.116,-5.224 -1.251,-7.819c1.075,-2.48 1.247,-4.955 0.626,-7.428c-0.14,-3.003 -1.268,-5.554 -3.362,-7.663l-3.206,-6.568c1.809,2.517 3.894,4.568 6.333,6.021c0.935,2.51 2.268,4.024 3.91,4.769c-0.53,2.097 -0.882,4.186 -0.704,6.256c0.94,0.841 1.708,0.773 2.268,-0.391c1.148,-2.174 1.357,-4.506 0.86,-6.959c-0.762,-2.045 -2.052,-3.993 -3.753,-5.864c-2.737,-2.905 -5.618,-5.347 -8.758,-6.959c-0.04,-0.729 -0.184,-1.481 -0.45,-2.258c3.825,-1.618 5.362,-4.881 5.004,-9.508c0.079,2.453 0.243,4.875 1.051,7.056c0.788,0.563 1.41,0.694 1.601,-0.3c0.273,-3.411 0.032,-6.83 -0.8,-10.259c-0.221,-0.803 -0.753,-1.509 -1.548,-2.052c0.366,-2.867 0.301,-5.756 -0.154,-8.657c-0.289,-1.082 -0.758,-2.14 -1.534,-3.157c1.328,-1.498 1.537,-3.314 0.601,-5.455c-0.784,-3.562 -1.964,-7.13 -3.703,-10.708c2.415,-0.08 4.489,-0.622 6.333,-1.477c0.405,-0.188 0.799,-0.391 1.184,-0.608Z" style="fill:#eeeeec;stroke:#dcdcdc;stroke-width:1px;"/><path d="M225.133,45.336c5.671,3.81 10.854,8.245 15.093,13.891l-19.124,-19.612c-3.277,6.421 -4.529,12.839 -3.03,19.254" style="fill:none;stroke:#dcdcdc;stroke-width:1px;"/><path d="M219.105,70.067c6.71,8.473 14.846,13.563 24.317,15.481l-14.682,-6.273c-0.77,3.994 -0.013,7.888 2.871,11.641c2.642,4.273 4.315,7.925 4.887,10.873c2.647,3.548 3.347,6.719 2.81,9.652c2.615,2.005 3.573,4.418 1.68,7.529c1.301,1.609 2.139,3.306 1.87,5.216c2.61,-0.156 5.103,0.279 7.507,1.173" style="fill:none;stroke:#dcdcdc;stroke-width:1px;"/><path d="M242.858,124.186c1.979,-1.988 4.496,-2.717 7.445,-2.436" style="fill:none;stroke:#dcdcdc;stroke-width:1px;"/><path d="M242.858,124.186c-0.204,1.284 0.068,2.537 1.111,3.741" style="fill:none;stroke:#dcdcdc;stroke-width:1px;"/><path d="M240.988,118.97c2.763,-2.057 5.88,-3.525 9.627,-3.944" style="fill:none;stroke:#dcdcdc;stroke-width:1px;"/><path d="M229.974,124.096c2.725,-2.794 6.344,-4.563 11.014,-5.126" style="fill:none;stroke:#dcdcdc;stroke-width:1px;"/><path d="M236.498,101.789c-5.841,4.574 -12.94,6.568 -21.38,5.809" style="fill:none;stroke:#dcdcdc;stroke-width:1px;"/><path d="M236.498,101.789c5.172,0.105 9.601,-0.644 13.492,-2.01" style="fill:none;stroke:#dcdcdc;stroke-width:1px;"/><path d="M222.233,117.528c5.035,-2.869 10.778,-4.832 17.075,-6.087" style="fill:none;stroke:#dcdcdc;stroke-width:1px;"/><path d="M239.308,111.441c2.869,-2.293 6.241,-3.669 10.056,-4.234" style="fill:none;stroke:#dcdcdc;stroke-width:1px;"/><path d="M231.611,90.916c-2.963,5.654 -9.982,7.13 -20.246,5.266" style="fill:none;stroke:#dcdcdc;stroke-width:1px;"/><path d="M231.611,90.916c5.138,0.925 9.98,1.019 14.616,0.532" style="fill:none;stroke:#dcdcdc;stroke-width:1px;"/><path d="M227.921,39.326c17.438,7.706 23.021,13.685 10.634,17.045" style="fill:none;stroke:#dcdcdc;stroke-width:1px;"/><path d="M221.275,53.478c4.817,7.091 10.885,12.561 18.922,15.482" style="fill:none;stroke:#dcdcdc;stroke-width:1px;"/><path d="M226.983,69.429c9.587,7.171 15.377,6.503 17.28,-2.189" style="fill:none;stroke:#dcdcdc;stroke-width:1px;"/><path d="M224.813,32.458c5.822,2.503 12.193,3.862 18.833,4.665" style="fill:none;stroke:#dcdcdc;stroke-width:1px;"/><path d="M236.552,22.318c3.885,1.964 6.357,4.911 5.515,6.577c-0.842,1.666 -4.681,1.424 -8.566,-0.54c-3.886,-1.964 -6.357,-4.911 -5.515,-6.577c0.842,-1.666 4.68,-1.424 8.566,0.54Z" style="fill:#fde1e4;"/></g><g><path d="M320.23,33.053c-11.729,-16.152 -23.121,-25.161 -33.469,-12.063c-0.804,4.944 0.6,8.191 4.842,9.26c-10.324,1.932 -16.24,6.717 -16.31,15.29c-2.353,21.353 2.575,26.592 12.827,20.048c-1.739,1.637 -3.068,3.375 -2.718,5.521c-9.469,13.045 -16.054,24.537 -8.41,28.373c-1.045,6.062 0.238,10.257 4.077,12.402c0.543,7.434 3.163,10.949 7.73,10.789c1.507,3.605 3.858,6.412 8.41,7.135c5.173,4.13 10.229,5.195 15.206,4.163c4.408,0.38 8.365,-0.064 11.808,-1.445c-1.224,-2.37 -2.805,-4.216 -4.927,-5.266c0.966,-2.244 1.156,-4.662 0.339,-7.306c0.668,-2.844 0.126,-5.675 -1.359,-8.495c1.167,-2.693 1.354,-5.383 0.68,-8.07c-0.152,-3.262 -1.378,-6.033 -3.653,-8.324l-3.483,-7.136c1.966,2.734 4.231,4.963 6.881,6.541c1.015,2.727 2.464,4.372 4.247,5.182c-0.575,2.277 -0.957,4.548 -0.764,6.796c1.021,0.913 1.855,0.84 2.463,-0.425c1.248,-2.361 1.475,-4.896 0.935,-7.561c-0.828,-2.221 -2.229,-4.337 -4.078,-6.371c-2.973,-3.155 -6.103,-5.808 -9.514,-7.56c-0.044,-0.792 -0.201,-1.608 -0.489,-2.453c4.155,-1.758 5.825,-5.303 5.436,-10.33c0.086,2.666 0.264,5.297 1.142,7.666c0.856,0.611 1.532,0.754 1.74,-0.326c0.296,-3.705 -0.113,-7.42 -1.018,-11.145c-0.239,-0.873 -0.565,-1.64 -1.429,-2.229c0.398,-3.116 0.222,-6.255 -0.271,-9.406c-0.315,-1.176 -0.825,-2.326 -1.667,-3.43c1.442,-1.628 1.669,-3.6 0.652,-5.926c-0.852,-3.87 -2.134,-7.747 -4.023,-11.635c1.402,-0.046 2.738,-0.197 3.946,-0.505c1.042,-0.265 1.979,-0.659 2.903,-1.084c0.452,-0.209 0.89,-0.434 1.318,-0.675Z" style="fill:#d4d49d;stroke:#96916c;stroke-width:1px;"/><path d="M291.951,44.24c6.16,4.14 11.792,8.958 16.397,15.092l-20.777,-21.307c-3.56,6.976 -4.92,13.949 -3.292,20.918" style="fill:none;stroke:#96916c;stroke-width:1px;"/><path d="M285.402,71.109c7.29,9.205 16.128,14.735 26.418,16.82l-15.951,-6.816c-0.836,4.34 -0.014,8.57 3.119,12.648c2.87,4.642 4.688,8.61 5.309,11.813c2.877,3.854 3.637,7.3 3.053,10.485c2.842,2.18 3.882,4.8 1.826,8.181c1.413,1.747 2.323,3.591 2.032,5.666c2.835,-0.169 5.544,0.303 8.155,1.274" style="fill:none;stroke:#96916c;stroke-width:1px;"/><path d="M311.208,129.906c2.149,-2.159 4.884,-2.952 8.088,-2.646" style="fill:none;stroke:#96916c;stroke-width:1px;"/><path d="M311.208,129.906c-0.223,1.396 0.073,2.757 1.207,4.065" style="fill:none;stroke:#96916c;stroke-width:1px;"/><path d="M309.176,124.24c3.001,-2.235 6.388,-3.83 10.459,-4.286" style="fill:none;stroke:#96916c;stroke-width:1px;"/><path d="M297.209,129.808c2.961,-3.034 6.893,-4.957 11.967,-5.568" style="fill:none;stroke:#96916c;stroke-width:1px;"/><path d="M304.297,105.574c-6.345,4.969 -14.057,7.135 -23.228,6.31" style="fill:none;stroke:#96916c;stroke-width:1px;"/><path d="M304.297,105.574c5.619,0.113 10.431,-0.7 14.659,-2.185" style="fill:none;stroke:#96916c;stroke-width:1px;"/><path d="M288.799,122.673c5.471,-3.117 11.71,-5.25 18.551,-6.614" style="fill:none;stroke:#96916c;stroke-width:1px;"/><path d="M307.35,116.059c3.117,-2.491 6.781,-3.985 10.926,-4.6" style="fill:none;stroke:#96916c;stroke-width:1px;"/><path d="M298.988,93.761c-3.219,6.142 -10.845,7.746 -21.996,5.721" style="fill:none;stroke:#96916c;stroke-width:1px;"/><path d="M298.988,93.761c5.582,1.005 10.843,1.106 15.879,0.577" style="fill:none;stroke:#96916c;stroke-width:1px;"/><path d="M294.979,37.711c18.945,8.372 25.011,14.868 11.553,18.519" style="fill:none;stroke:#96916c;stroke-width:1px;"/><path d="M287.759,53.087c5.233,7.703 11.825,13.646 20.557,16.819" style="fill:none;stroke:#96916c;stroke-width:1px;"/><path d="M293.96,70.416c10.416,7.791 16.706,7.065 18.774,-2.378" style="fill:none;stroke:#96916c;stroke-width:1px;"/><path d="M291.603,30.25c6.324,2.719 13.247,4.195 20.46,5.067" style="fill:none;stroke:#96916c;stroke-width:1px;"/><path d="M304.356,19.233c4.222,2.133 6.906,5.335 5.991,7.145c-0.914,1.81 -5.084,1.547 -9.306,-0.586c-4.221,-2.134 -6.906,-5.335 -5.991,-7.145c0.914,-1.81 5.084,-1.548 9.306,0.586Z" style="fill:#ba8286;"/><path d="M296.431,14.479c2.435,-0.641 4.853,-0.869 7.256,-0.7c2.372,2.124 4.597,3.653 6.655,4.503" style="fill:none;stroke:#96916c;stroke-width:1px;"/><path d="M296.431,14.479c2.621,-1.023 5.43,-1.557 8.407,-1.651c1.887,1.572 3.788,2.666 5.704,3.202" style="fill:none;stroke:#96916c;stroke-width:1px;"/></g></g></svg>