<?xml version="1.0" encoding="UTF-8" standalone="no"?><!DOCTYPE svg PUBLIC "-//W3C//DTD SVG 1.1//EN" "http://www.w3.org/Graphics/SVG/1.1/DTD/svg11.dtd"><svg width="100%" height="100%" viewBox="0 0 177 255" version="1.1" xmlns="http://www.w3.org/2000/svg" xmlns:xlink="http://www.w3.org/1999/xlink" xml:space="preserve" xmlns:serif="http://www.serif.com/" style="fill-rule:evenodd;clip-rule:evenodd;stroke-linecap:round;stroke-linejoin:round;stroke-miterlimit:1.5;"><g id="drone"><g id="legs"><path id="front-right" d="M115.08,65.322c2.845,-3.657 6.081,-6.748 10.122,-8.676l0.698,-1.396l-0.299,-0.698c-0.097,-2.215 5.356,-3.387 14.111,-3.939c4.661,-4.287 9.139,-8.821 13.463,-13.563c1.75,-0.958 2.645,-0.693 2.194,1.496c-4.796,5.087 -9.203,10.633 -12.914,17.003c-0.618,0.908 -1.337,1.043 -2.194,0.1l-1.646,-0.299c-2.429,1.863 -5.135,2.851 -8.077,3.091l-0.898,0.748c0.668,3.909 -2.824,8.067 -8.676,12.366c-2.116,0.609 -3.867,0.094 -5.285,-1.446c-1.065,-1.694 -1.186,-3.28 -0.599,-4.787Z" style="fill:#1d1f23;"/><path id="front-left" d="M60.638,64.714c-2.845,-3.657 -6.08,-6.749 -10.122,-8.677l-0.698,-1.396l0.299,-0.698c0.098,-2.214 -5.355,-3.387 -14.111,-3.939c-4.66,-4.287 -9.139,-8.82 -13.462,-13.562c-1.751,-0.959 -2.645,-0.693 -2.194,1.495c4.795,5.087 9.203,10.633 12.914,17.004c0.618,0.907 1.336,1.042 2.194,0.099l1.645,-0.299c2.43,1.863 5.136,2.851 8.078,3.092l0.898,0.747c-0.668,3.909 2.824,8.067 8.676,12.366c2.115,0.61 3.866,0.094 5.285,-1.446c1.065,-1.693 1.186,-3.28 0.598,-4.786Z" style="fill:#1d1f23;"/><path id="mid-right" d="M116.216,111.629c10.814,1.244 20.117,4.189 27.658,9.115l1.386,1.02c4.402,-0.167 6.392,4.782 8.201,10.116l0.383,1.053c7.069,5.072 14.177,9.752 21.334,13.952c1.642,2.14 1.164,3.241 -1.433,3.303c-7.605,-5.094 -15.391,-10.093 -23.436,-14.958l-0.872,-2.057c-3.183,0.147 -5.353,-2.705 -7.168,-6.607l-0.872,-0.873c-4.982,3.869 -14.153,-1.097 -23.373,-6.17l-5.485,-1.683l-0.125,-3.927l3.802,-2.284Z" style="fill:#1d1f23;"/><path id="mid-left" d="M59.916,110.868c-10.815,1.244 -20.117,4.189 -27.658,9.115l-1.386,1.02c-4.402,-0.167 -6.392,4.783 -8.202,10.116l-0.382,1.053c-7.069,5.072 -14.177,9.752 -21.335,13.952c-1.641,2.14 -1.163,3.241 1.434,3.303c7.605,-5.094 15.391,-10.093 23.435,-14.958l0.873,-2.057c3.183,0.147 5.353,-2.705 7.168,-6.607l0.872,-0.872c4.982,3.868 14.152,-1.098 23.373,-6.171l5.485,-1.683l0.125,-3.926l-3.802,-2.285Z" style="fill:#1d1f23;"/><path id="back-right" d="M120.822,151.771l7.304,1.339c14.251,9.691 25.226,22.174 28.73,41.024l0.112,1.507c4.91,12.338 10.914,24.771 6.334,36.283l-0.972,2.097c0.282,5.341 0.876,10.744 1.715,16.195c-0.639,2.702 -1.81,2.847 -3.471,0.638c-3.463,-7.156 -7.682,-14.982 -5.465,-17.112l0.399,-2.194c-3.036,-2.947 -3.763,-18.65 -4.745,-32.951l-0.487,-2.435c-7.503,-14.14 -14.152,-24.95 -21.522,-32.624l-8.181,-1.753l-5.064,-4.87l5.313,-5.144Z" style="fill:#1d1f23;"/><path id="back-left" d="M49.96,151.078l-7.201,1.812c-13.589,10.6 -23.728,23.771 -25.996,42.809l-0.014,1.511c-4.095,12.631 -9.277,25.429 -3.957,36.619l1.107,2.028c0.066,5.349 -0.174,10.779 -0.657,16.273c0.814,2.654 1.992,2.723 3.505,0.411c2.989,-7.367 6.69,-15.451 4.339,-17.433l-0.541,-2.163c2.838,-3.138 2.54,-18.855 2.588,-33.189l0.327,-2.462c6.566,-14.599 12.498,-25.819 19.352,-33.957l8.049,-2.282l4.736,-5.189l-5.637,-4.788Z" style="fill:#1d1f23;"/></g><g id="body"><path id="head-outline" d="M67.836,29.822c13.955,-9.334 26.618,-9.223 38.098,-0.468c12.564,8.565 15.05,17.516 8.881,26.801c-17.815,5.59 -35.528,5.755 -53.134,0.234c-3.919,-9.996 -1.758,-18.831 6.155,-26.567Z" style="fill:url(#_Radial1);"/><path id="butt-outline" d="M59.199,112.612c-21.335,41.835 -22.861,81.558 -0.267,118.708c18.657,20.545 36.646,19.142 54.103,0.304c20.628,-43.718 22.204,-82.926 1.521,-116.865c-17.693,-22.973 -36.044,-26.656 -55.357,-2.147Z" style="fill:url(#_Radial2);"/><path id="middle-outline" d="M56.456,60.07c21.22,-10.997 42.12,-10.761 62.693,0.974c11.02,15.475 12.801,32.202 1.948,50.641c-22.585,24.745 -45.506,25.052 -68.78,-0.365c-9.711,-17.557 -7.629,-34.61 4.139,-51.25Z" style="fill:url(#_Radial3);"/></g><g id="higher-body"><path id="back" d="M61.164,71.58c16.186,-13.953 34.059,-12.988 53.369,0.681c4.912,10.816 4.958,22.211 -0.682,34.281c-15.569,21.043 -33.046,23.466 -53.076,0.974c-5.764,-12.81 -6.633,-24.929 0.389,-35.936Z" style="fill:#12100e;"/><path id="left-eye" d="M78.697,35.018c8.608,4.924 12.548,14.248 8.796,20.808c-3.753,6.561 -13.788,7.89 -22.395,2.966c-8.607,-4.923 -12.548,-14.247 -8.795,-20.808c3.753,-6.56 13.787,-7.889 22.394,-2.966Z"/><path id="right-eye" d="M99.098,35.018c-8.607,4.924 -12.548,14.248 -8.795,20.808c3.753,6.561 13.787,7.89 22.394,2.966c8.608,-4.923 12.548,-14.247 8.796,-20.808c-3.753,-6.56 -13.788,-7.889 -22.395,-2.966Z"/><path id="right-antenna" d="M96.906,30.677c6.125,-3.828 12.23,-6.753 18.308,-8.57c4.726,-9.899 16.834,-17.295 36.565,-22.107c2.371,0.418 2.651,1.361 1.157,2.749c-18.065,4.74 -30.18,11.534 -35.153,20.793l-1.038,0.648c-6.407,2.34 -12.526,4.941 -18.549,7.629l-2.094,-0.1l0.804,-1.042Z" style="fill:#0a0a0d;"/><path id="left-antenna" d="M80.464,31.021c-5.463,-3.286 -11.321,-6.36 -17.85,-9.075l-1.197,-1.097c-4.356,-8.259 -15.241,-15.356 -35.327,-20.817c-2.255,-0.075 -3.068,0.578 -1.87,2.244c16.731,4.519 29.243,10.902 35.028,20.256l1.06,1.122c5.627,2.928 11.511,5.512 17.576,7.854l1.683,0.56l0.897,-1.047Z" style="fill:#0a0a0d;"/><path id="stripe-1" d="M55.3,120.722c21.384,9.23 42.749,9.479 62.828,0.373c0.495,0.938 0.962,1.879 1.41,2.821c-21.973,8.804 -43.947,8.9 -65.273,-0.855c0.333,-0.774 0.678,-1.553 1.035,-2.339Z" style="fill:#1a1715;"/><path id="stripe-2" d="M51.99,128.569c24.66,8.033 47.745,7.923 69.549,-0.218c0.322,0.751 0.629,1.505 0.922,2.26c-22.335,9.188 -45.995,9.762 -71.454,0.528c0.317,-0.859 0.646,-1.716 0.983,-2.57Z" style="fill:#1a1715;"/><path id="stripe-3" d="M44.702,153.331c27.847,5.592 55.754,5.774 83.628,-0.333c0.353,2.323 0.581,4.705 0.74,7.177c-28.11,6.316 -56.758,6.612 -85.556,0.531c0.229,-2.375 0.725,-4.93 1.188,-7.375Z" style="fill:#1a1715;"/><path id="stripe-4" d="M42.592,176.096c30.107,12.318 59.493,11.559 86.274,1.208c-0.026,3.004 -0.615,6.037 -1.2,9.448c-28.423,12.62 -56.799,13.119 -84.587,-1.642c-0.255,-2.899 -0.661,-5.875 -0.487,-9.014Z" style="fill:#1a1715;"/><path id="stripe-5" d="M45.777,200.503c27.419,11.385 53.683,11.054 78.395,1.8c-0.838,3.012 -1.772,6.028 -2.837,9.049c-23.71,8.84 -48.258,7.81 -72.933,-2.147c-1.176,-2.826 -1.851,-5.672 -2.625,-8.702Z" style="fill:#1a1715;"/><path id="stripe-6" d="M50.969,215.85c23.255,8.148 45.943,9.053 67.767,2.571c-1.135,3.031 -2.384,6.011 -3.744,8.941c-18.72,5.165 -38.877,4.373 -59.686,-2.413c-1.613,-2.97 -3.077,-5.997 -4.337,-9.099Z" style="fill:#1a1715;"/><path id="stripe-7" d="M58.932,231.32c18.852,4.59 37.15,4.266 54.103,0.304c-17.249,19.485 -35.598,20.115 -54.103,-0.304Z" style="fill:#1a1715;"/></g><g id="wings"><g id="left-wing"><path id="left-wing-joint" d="M47.18,80.901c1.503,-0.523 3.517,1.333 4.494,4.142c0.977,2.808 0.55,5.513 -0.953,6.036c-1.504,0.523 -3.518,-1.333 -4.495,-4.142c-0.977,-2.808 -0.549,-5.513 0.954,-6.036Z" style="fill:#030304;"/><path id="left-wing-outline" d="M50.582,86.184c0.131,16.571 6.335,28.071 17.525,35.407c5.195,4.88 9.159,10.347 10.179,17.22c1.059,16.507 -1.516,28.469 -6.821,37.019l-1.552,1.766c1.135,9.123 1.765,18.199 1.25,27.17c-3.565,8.005 -9.182,14.764 -16.988,20.196c-5.67,5.569 -10.091,12.773 -14.027,20.612c-1.446,2.488 -3.17,4.496 -5.331,5.748c-2.782,1.844 -5.046,1.737 -6.458,-1.591c-7.873,-15.664 -9.223,-33.524 -6.06,-52.905c0.026,-12.461 1.901,-24.483 5.551,-36.081c-0.148,-11.266 2.254,-22.926 8.049,-35.11c2.124,-14.808 4.815,-29.105 9.159,-41.91l3.192,-0.277l2.332,2.736Z" style="fill:#ecf0f4;fill-opacity:0.447059;stroke:#382000;stroke-opacity:0.403922;stroke-width:0.6px;"/><path d="M48.25,83.448c-6.825,30.145 -11.294,60.983 -5.712,83.688c7.85,13.943 17.082,18.646 27.375,10.46" style="fill:none;stroke:#382000;stroke-opacity:0.403922;stroke-width:0.6px;"/><path d="M52.649,100.938c-5.364,17.136 -8.705,39.784 -10.553,64.288" style="fill:none;stroke:#382000;stroke-opacity:0.403922;stroke-width:0.6px;"/><path d="M54.742,106.418c-2.142,25.83 -1.497,47.666 2.673,63.716" style="fill:none;stroke:#382000;stroke-opacity:0.403922;stroke-width:0.6px;"/><path d="M59.132,113.494c-0.583,9.654 0.643,19.405 5.61,26.776c1.972,8.06 3.202,16.126 2.886,24.202" style="fill:none;stroke:#382000;stroke-opacity:0.403922;stroke-width:0.6px;"/><path d="M52.649,100.938c3.818,31.323 9.789,59.597 17.264,76.658" style="fill:none;stroke:#382000;stroke-opacity:0.403922;stroke-width:0.6px;"/><path d="M27.853,158.614c4.318,5.721 8.851,2.004 12.537,-5.264" style="fill:none;stroke:#382000;stroke-opacity:0.403922;stroke-width:0.6px;"/><path d="M31.091,161.22c-0.462,24.951 -1.982,52.915 -9.871,63.728" style="fill:none;stroke:#382000;stroke-opacity:0.403922;stroke-width:0.6px;"/><path d="M35.872,159.781c-2.551,24.922 -3.903,50.095 -4.782,75.036" style="fill:none;stroke:#382000;stroke-opacity:0.403922;stroke-width:0.6px;"/><path d="M42.096,165.226c-3.679,19.21 -2.697,42.988 0.586,62.485" style="fill:none;stroke:#382000;stroke-opacity:0.403922;stroke-width:0.6px;"/><path d="M49.629,176.769c-1.455,11.905 0.03,23.113 4.71,33.401" style="fill:none;stroke:#382000;stroke-opacity:0.403922;stroke-width:0.6px;"/></g><g id="right-wing"><path id="right-wing-joint" d="M126.721,80.901c-1.504,-0.523 -3.518,1.333 -4.495,4.142c-0.977,2.808 -0.549,5.513 0.954,6.036c1.503,0.523 3.517,-1.333 4.494,-4.142c0.977,-2.808 0.55,-5.513 -0.953,-6.036Z" style="fill:#030304;"/><path id="right-wing-outline" d="M123.653,86.184c-0.132,16.571 -6.335,28.071 -17.525,35.407c-5.195,4.88 -9.16,10.347 -10.179,17.22c-1.06,16.507 1.516,28.469 6.821,37.019l1.552,1.766c-1.135,9.123 -1.765,18.199 -1.25,27.17c3.565,8.005 9.182,14.764 16.988,20.196c5.67,5.569 10.09,12.773 14.027,20.612c1.446,2.488 3.17,4.496 5.331,5.748c2.782,1.844 5.046,1.737 6.458,-1.591c7.873,-15.664 9.222,-33.524 6.06,-52.905c-0.026,-12.461 -1.901,-24.483 -5.551,-36.081c0.147,-11.266 -2.254,-22.926 -8.049,-35.11c-2.124,-14.808 -4.815,-29.105 -9.159,-41.91l-3.192,-0.277l-2.332,2.736Z" style="fill:#ecf0f4;fill-opacity:0.447059;stroke:#382000;stroke-opacity:0.403922;stroke-width:0.6px;"/><path d="M125.985,83.448c6.825,30.145 11.294,60.983 5.712,83.688c-7.85,13.943 -17.082,18.646 -27.375,10.46" style="fill:none;stroke:#382000;stroke-opacity:0.403922;stroke-width:0.6px;"/><path d="M121.586,100.938c5.364,17.136 8.705,39.784 10.553,64.288" style="fill:none;stroke:#382000;stroke-opacity:0.403922;stroke-width:0.6px;"/><path d="M119.493,106.418c2.142,25.83 1.497,47.666 -2.673,63.716" style="fill:none;stroke:#382000;stroke-opacity:0.403922;stroke-width:0.6px;"/><path d="M115.103,113.494c0.583,9.654 -0.643,19.405 -5.61,26.776c-1.972,8.06 -3.202,16.126 -2.886,24.202" style="fill:none;stroke:#382000;stroke-opacity:0.403922;stroke-width:0.6px;"/><path d="M121.586,100.938c-3.818,31.323 -9.789,59.597 -17.264,76.658" style="fill:none;stroke:#382000;stroke-opacity:0.403922;stroke-width:0.6px;"/><path d="M146.382,158.614c-4.318,5.721 -8.851,2.004 -12.537,-5.264" style="fill:none;stroke:#382000;stroke-opacity:0.403922;stroke-width:0.6px;"/><path d="M143.144,161.22c0.462,24.951 1.982,52.915 9.871,63.728" style="fill:none;stroke:#382000;stroke-opacity:0.403922;stroke-width:0.6px;"/><path d="M138.363,159.781c2.551,24.922 3.903,50.095 4.782,75.036" style="fill:none;stroke:#382000;stroke-opacity:0.403922;stroke-width:0.6px;"/><path d="M132.139,165.226c3.679,19.21 2.696,42.988 -0.586,62.485" style="fill:none;stroke:#382000;stroke-opacity:0.403922;stroke-width:0.6px;"/><path d="M124.606,176.769c1.455,11.905 -0.03,23.113 -4.71,33.401" style="fill:none;stroke:#382000;stroke-opacity:0.403922;stroke-width:0.6px;"/></g></g></g><defs><radialGradient id="_Radial1" cx="0" cy="0" r="1" gradientUnits="userSpaceOnUse" gradientTransform="matrix(43.3618,0,0,111.72,85.9472,134.524)"><stop offset="0" style="stop-color:#ffa000;stop-opacity:1"/><stop offset="0.5" style="stop-color:#ffcb00;stop-opacity:1"/><stop offset="1" style="stop-color:#ffd900;stop-opacity:1"/></radialGradient><radialGradient id="_Radial2" cx="0" cy="0" r="1" gradientUnits="userSpaceOnUse" gradientTransform="matrix(43.3618,0,0,111.72,85.9472,134.524)"><stop offset="0" style="stop-color:#ffa000;stop-opacity:1"/><stop offset="0.5" style="stop-color:#ffcb00;stop-opacity:1"/><stop offset="1" style="stop-color:#ffd900;stop-opacity:1"/></radialGradient><radialGradient id="_Radial3" cx="0" cy="0" r="1" gradientUnits="userSpaceOnUse" gradientTransform="matrix(43.3618,0,0,111.72,85.9472,134.524)"><stop offset="0" style="stop-color:#ffa000;stop-opacity:1"/><stop offset="0.5" style="stop-color:#ffcb00;stop-opacity:1"/><stop offset="1" style="stop-color:#ffd900;stop-opacity:1"/></radialGradient></defs></svg>