<?xml version="1.0" encoding="UTF-8" standalone="no"?><!DOCTYPE svg PUBLIC "-//W3C//DTD SVG 1.1//EN" "http://www.w3.org/Graphics/SVG/1.1/DTD/svg11.dtd"><svg width="100%" height="100%" viewBox="0 0 76 226" version="1.1" xmlns="http://www.w3.org/2000/svg" xmlns:xlink="http://www.w3.org/1999/xlink" xml:space="preserve" xmlns:serif="http://www.serif.com/" style="fill-rule:evenodd;clip-rule:evenodd;stroke-linejoin:round;stroke-miterlimit:1.41421;"><g id="female-beekeeper"><g id="main-body"><path d="M21.307,17.63c-0.355,-9.744 4.299,-16.069 15.181,-17.63c10.381,0.504 16.704,5.698 16.766,17.775l10.066,0.06l2.06,2.491l0.093,1.199l-2.337,3.228c1.054,13.581 1.611,26.257 -2.603,30.234c-1.255,1.3 -3.01,2.149 -5.182,2.62c-2.2,7.996 -2.572,15.144 -1.415,21.581c-0.68,11.367 0.902,24.674 4.391,39.775c0.754,11.692 0.729,23.471 0.47,35.293c-7.617,10.143 -14.864,12.387 -21.714,6.149c-0.167,-11.037 -0.221,-22.069 -0.24,-33.099c-8.747,0.175 -16.231,-3.058 -22.378,-9.893c1.201,-11.62 1.846,-23.361 2.027,-35.203c-0.453,-8.182 0.441,-16.743 1.576,-25.371c-4.904,-0.389 -6.958,-12.133 -6.981,-31.976l-2.311,-3.411l0,-1.141l2.027,-2.558l10.504,-0.123Z" style="fill:#e1ddd4;"/></g><path d="M55.288,57.561c1.335,-0.158 2.39,-0.662 3.386,-1.159c7.267,14.251 11.996,28.862 13.278,43.632c-4.17,0.31 -8.343,0.558 -12.523,0.691c-1.821,-7.727 -3.826,-15.406 -6.107,-23.013c-0.605,-6.725 -0.41,-13.445 1.966,-20.151Z" style="fill:#ece8df;"/><path id="right-cuff" d="M59.558,102.053l12.443,-0.805c1.17,7.176 1.445,14.38 0.753,21.615c-3.632,0.319 -7.287,0.53 -10.973,0.6c-2.467,-4.637 -2.761,-12.421 -2.223,-21.41Z" style="fill:#f5f1e6;"/><g id="right-cuff-dots"><path d="M67.304,119.917l0.075,1.649l0.731,-0.038l0.057,-1.761l-0.863,0.15Z" style="fill:#eee7e1;"/><path d="M64.494,119.935l0.037,1.687l0.768,0.037l-0.018,-1.817l-0.787,0.093Z" style="fill:#ede6e0;"/><path d="M70.19,119.842l0.094,1.892l0.956,-0.075l-0.038,-1.892l-1.012,0.075Z" style="fill:#ede6e0;"/><path d="M69.216,102.732l0.094,1.837l0.993,-0.113l-0.244,-1.855l-0.843,0.131Z" style="fill:#ede6e0;"/><path d="M66.349,102.62l0.15,2.361l1.143,-0.037l-0.263,-2.193l-1.03,-0.131Z" style="fill:#ede6e0;"/><path d="M63.088,103.107l0.094,1.855l1.03,-0.018l-0.15,-1.912l-0.974,0.075Z" style="fill:#ede6e0;"/></g><path id="right-hand" d="M72.8,124.394c-0.103,1.983 0.112,3.639 0.78,4.827c0.848,3.232 1.621,6.461 2.159,9.685c-0.212,1.298 -0.835,1.323 -1.754,0.435c-0.925,-1.379 -1.914,-3.643 -2.579,-5.697c0.36,2.196 0.672,4.374 0.825,6.492c-0.271,1.19 -0.964,1.41 -2.204,0.374c-0.714,-1.212 -1.486,-3.745 -2.264,-6.416c0.366,2.454 0.677,4.87 0.854,7.194c-0.244,1.464 -0.988,1.858 -2.458,0.69c-1.111,-2.153 -1.837,-6.373 -2.459,-11.154c-1.55,1.031 -3.181,2.211 -4.904,3.208c-1.997,0.123 -2.25,-0.94 -1.424,-2.736c1.401,-1.795 2.892,-3.517 4.516,-5.135c-0.103,-0.451 -0.094,-0.9 -0.037,-1.349l10.949,-0.418Z" style="fill:#ece8df;"/><path id="left-sleeve" d="M16.32,56.136c0.517,0.364 1.101,0.608 1.748,0.703c-1.167,10.971 -1.51,21.948 -1.611,32.866c-0.199,3.616 -0.372,7.146 -0.618,10.567c-4.176,-0.059 -8.401,-0.178 -12.579,-0.377c1.707,-15.414 5.942,-30.066 13.06,-43.759Z" style="fill:#d8d4c9;"/><path id="left-cuff" d="M3.267,101.204l12.296,1.029c-0.972,6.656 -1.867,13.727 -1.986,20.539l-10.784,-0.05c-1.053,-7.021 -0.675,-14.508 0.474,-21.518Z" style="fill:#e1ddd2;"/><g id="left-cuff-dots"><path d="M5.534,102.697l-0.047,1.968l1.359,0.07l0.117,-2.202l-1.429,0.164Z" style="fill:#d6d2c7;"/><path d="M9.095,102.674l-0.164,2.225l1.429,-0.07l-0.024,-2.202l-1.241,0.047Z" style="fill:#d6d2c7;"/><path d="M12.046,102.767l-0.257,1.968l1.124,0.047l0.211,-2.108l-1.078,0.093Z" style="fill:#d6d2c7;"/><path d="M10.781,119.797l-0.023,2.062l1.429,0l0.094,-2.085l-1.5,0.023Z" style="fill:#d6d2c7;"/><path d="M7.76,119.844l0.023,1.757l1.124,0.07l0.024,-1.803l-1.171,-0.024Z" style="fill:#d6d2c7;"/><path d="M4.995,119.657l-0.046,1.663l1.288,0.187l0.047,-1.874l-1.289,0.024" style="fill:#d6d2c7;"/></g><path id="left-hand" d="M2.709,123.903c-0.126,1.08 -0.14,2.163 0.058,3.25c-1.217,3.374 -2.172,6.791 -2.746,10.272c-0.136,1.842 0.404,2.245 1.405,1.663c0.955,-1.387 1.971,-3.759 2.811,-6.395c-0.46,2.991 -0.836,5.634 -0.89,6.934c0.427,1.48 1.114,1.523 1.991,0.515c1.075,-1.941 1.834,-4.234 2.53,-6.887c-0.059,2.422 -0.293,4.813 -0.726,7.168c0.162,1.738 0.977,1.839 2.248,0.796c1.075,-0.722 1.754,-5.759 2.39,-11.267c0.465,0.372 0.912,0.682 1.335,0.914l2.886,-0.294l0.445,-2.53l-1.241,-2.155l-1.757,-0.305c0.055,-0.394 0.016,-0.867 -0.07,-1.382l-10.669,-0.297Z" style="fill:#d8d4c9;"/><path id="left-thigh" d="M14.465,117.413c4.902,5.337 10.966,8.784 19.062,9.791l-1.088,34.046c-7.204,5.463 -14.03,7.045 -20.016,0c-0.145,-14.51 0.71,-29.146 2.042,-43.837Z" style="fill:#dad6cd;"/><path id="left-leg" d="M12.423,161.25c5.946,6.924 12.716,5.384 20.016,0c-0.326,9.056 -0.028,18.307 0.601,27.378c-0.016,2.998 -0.641,5.74 -2.026,7.848l-14.256,0.139c-3.387,-4.499 -3.817,-20.315 -4.335,-35.365Z" style="fill:#d0ccc1;"/><path id="right-leg" d="M37.083,160.405c7.544,6.66 14.666,2.874 21.714,-6.149c-0.179,12.338 -0.258,24.614 -0.286,36.831c-0.516,2.446 -1.509,4.329 -2.878,5.533l-14.048,-0.03c-1.529,-1.188 -2.425,-3.487 -2.672,-5.931c0.103,-1.99 0.002,-3.995 -0.184,-6.007c-1.176,-7.916 -1.554,-16.026 -1.646,-24.247Z" style="fill:#dad6cd;"/><path id="left-boot-sole" d="M30.913,219.468l-0.002,5.469l-1.424,-0.018l-0.019,-0.675l-1.405,-0.075l0.037,0.75l-1.724,0.075l0.019,-0.881l-1.237,-0.038l-0.038,0.919l-1.592,-0.075l0.037,-1.312c-1.351,1.027 -3.187,1.644 -6.165,1.293l-0.15,-0.731l-1.256,0.037l-0.075,0.9l-1.555,-0.075l0,-0.75l-1.424,-0.112l-0.057,0.787l-1.605,-0.037l-0.038,-0.694l-1.087,-0.056l-0.018,0.768c-2.673,0.499 -4.308,-0.467 -4.522,-3.624c6.039,1.741 12.1,1.408 18.172,-0.283c2.436,-1 4.886,-1.717 7.128,-1.562Z" style="fill:#4f6479;"/><path id="left-boot" d="M16.728,196.576l14.318,-0.15c-0.489,7.945 -1.162,16.488 -0.284,19.99c-0.026,1.081 0.032,2.146 0.384,3.161c-3.514,0.279 -6.568,1.036 -9.229,2.202c-5.67,1.313 -11.138,1.371 -16.304,-0.466c0.135,-3.112 1.782,-4.797 4.905,-5.087c4.497,-0.175 7.161,-1.386 7.518,-3.902c-0.102,-5.166 -0.631,-10.439 -1.308,-15.748Z" style="fill:#de6c90;"/><path id="right-boot-sole" serif:id="right-boot sole" d="M55.632,220.437l0.071,4.512l-1.464,0.036l-0.11,-0.695l-1.208,-0.037l-0.036,0.586l-1.787,0.036l-0.075,-0.705l-1.259,0l0.015,0.705l-1.574,0.03l0,-1.289c-1.162,1.136 -3.176,1.619 -6.252,1.289l0.015,-0.69l-1.229,-0.015l-0.015,0.66l-1.784,-0.015l0.03,-0.615l-1.35,-0.015l-0.014,0.615l-1.622,0.07l-0.036,-0.696l-1.164,-0.024l-0.036,0.768c-2.588,0.22 -4.367,-0.705 -4.551,-3.766c6.744,2.423 12.683,1.518 18.337,-0.351c1.982,-1.042 4.531,-0.977 7.098,-0.394Z" style="fill:#73889b;"/><path id="right-boot" d="M41.505,196.525l14.129,0.094c-0.637,8.593 -1.271,17.176 -0.106,20.361c0.133,1.152 0.164,2.306 0.104,3.461c-2.877,-0.479 -5.365,-0.232 -7.464,0.741c-5.991,2.085 -11.982,2.503 -17.971,0c0.067,-2.97 1.885,-4.556 5.271,-4.904c4.707,-0.408 7.198,-1.723 7.1,-4.099c0.198,-5.227 -0.263,-10.443 -1.063,-15.654Z" style="fill:#fa91b5;"/><path id="hair-light" d="M20.625,24.199c-0.504,8.455 -1.309,18.161 -2.082,26.522l37.022,0.086c-0.871,-8.507 -1.948,-18.154 -2.507,-26.655l-32.433,0.047Z" style="fill:#e5a656;"/><path id="hair-dark" d="M23.013,29.045l0.229,20.862l28.411,1.098l-0.686,-23.013l-27.954,1.053Z" style="fill:#d99d55;"/><path id="shirt" d="M21.128,50.691c10.17,-5.002 21.026,-4.938 31.531,0.049l-31.531,-0.049Z" style="fill:#d0d0ce;"/><path id="neck" d="M33.596,43.962l0,4.483c2.209,2.702 4.27,2.413 6.237,0.205l0.045,-4.787c-2.078,0.819 -3.972,0.846 -6.282,0.099Z" style="fill:#ddc0ae;"/><path id="face" d="M23.735,24.437l0.01,0.765c-1.629,0.368 -2.748,1.065 -2.699,2.516c0.245,1.543 1.05,2.182 2.47,1.83c-0.206,8.138 3.131,12.996 9.791,14.778c2.426,0.766 4.714,0.689 6.908,0.045c6.63,-1.968 9.812,-6.883 9.883,-14.457c1.855,-0.156 2.768,-1.009 2.644,-2.626c-0.104,-1.272 -0.998,-1.966 -2.525,-2.196l0.006,-0.75l-26.488,0.095Z" style="fill:#e1caba;"/><path id="left-eyelashes" d="M29.795,25.445l-0.619,0.937c-0.614,0.031 -1.137,-0.493 -1.368,-1.255c0.66,0.416 1.525,0.647 1.987,0.318" style="fill:#6a6b73;"/><ellipse id="left-eye" cx="30.377" cy="27.065" rx="1.344" ry="2.059" style="fill:#526585;"/><path id="right-eyelashes" d="M43.874,25.579c0.618,0.179 1.253,-0.162 1.788,-0.451c-0.248,0.618 -0.725,1.164 -1.276,1.401l-0.512,-0.95Z" style="fill:#6a6b73;"/><ellipse id="right-eye" cx="43.187" cy="27.18" rx="1.344" ry="2.059" style="fill:#526585;"/><path id="nose" d="M35.73,25.565l-1.759,8.715l2.586,0.08l-0.08,-0.427l-1.919,-0.106l1.705,-8.316l-0.533,0.054Z" style="fill:#cfb5a6;"/><path id="mouth" d="M32.559,37.798l8.555,-0.053c-0.353,2.504 -1.502,4.257 -4.504,4.264c-2.421,-0.291 -3.755,-1.712 -4.051,-4.211Z" style="fill:#ece8e9;"/><path id="left-head-gap" d="M17.42,24.486l3.203,-0.002c-0.312,8.351 -1.285,18.196 -2.058,26.547c-0.501,-8.343 -0.926,-18.21 -1.145,-26.545Z" style="fill:#e8e9ee;"/><path id="right-head-gap" d="M53.036,24.442l3.937,-0.066l-0.905,26.777l-0.591,-0.252c-0.967,-8.384 -1.891,-17.863 -2.441,-26.459Z" style="fill:#e8e9ee;"/><path id="hat-brim" d="M8.776,20.311l0,1.141l56.697,0.073l-0.093,-1.199l-56.604,-0.015Z" style="fill:#f9f5ec;"/><path id="zipper" d="M35.4,60.155l-1.952,57.586l3.709,0.26l0.13,0.976l-5.076,-0.195l2.346,-58.7l0.843,0.073Z" style="fill:#ebe7de;"/><g id="blue-lines"><path d="M21.292,16.158l31.914,-0.005c0.033,0.544 0.049,1.084 0.048,1.622l-31.947,-0.145c-0.022,-0.488 -0.028,-0.979 -0.015,-1.472Z" style="fill:#bfc5d3;"/><path d="M16.591,23.645l41.084,0l-0.807,27.978l-39.162,0l-1.115,-27.978l0.884,0.923l1.076,25.902l37.471,0.154l0.846,-26.056l-39.393,0" style="fill:#bfc5d3;"/><path d="M59.429,100.725c4.258,-0.208 8.399,-0.441 12.523,-0.691c0.047,0.365 0.093,0.858 0.049,1.214c-4.131,0.335 -8.238,0.666 -12.443,0.805c-0.094,-0.379 -0.129,-1.328 -0.129,-1.328Z" style="fill:#bfc5d3;"/><path d="M61.781,123.463c-0.057,0.394 -0.065,0.955 0.07,1.349c3.625,-0.094 7.293,-0.231 10.949,-0.418c0.05,-0.441 0.009,-1.058 -0.046,-1.531c-3.52,0.329 -7.184,0.477 -10.973,0.6Z" style="fill:#bfc5d3;"/><path d="M3.26,99.895c4.141,0.178 8.398,0.282 12.579,0.377c0.004,0.461 -0.219,1.6 -0.276,1.961c-4.137,-0.14 -8.109,-0.647 -12.296,-1.029c-0.041,-0.344 -0.07,-0.993 -0.007,-1.309Z" style="fill:#bfc5d3;"/><path d="M2.793,122.722c3.695,0.021 7.131,-0.165 10.784,0.05c0.041,0.401 -0.137,0.995 -0.199,1.428c-3.637,-0.09 -6.979,-0.1 -10.669,-0.297c-0.079,-0.419 0.084,-1.181 0.084,-1.181Z" style="fill:#bfc5d3;"/><path d="M10.904,21.805l1.066,1.759l1.247,-0.029l-0.833,-1.754l-1.48,0.024Z" style="fill:#bfc5d3;"/><path d="M13.83,21.804l0.888,1.717l1.433,-0.013l-0.953,-1.715l-1.368,0.011Z" style="fill:#bfc5d3;"/><path d="M16.797,21.856l0.705,1.634l1.101,-0.008l-0.563,-1.628l-1.243,0.002Z" style="fill:#bfc5d3;"/><path d="M19.571,21.841l0.577,1.629l1.064,-0.017l-0.643,-1.624l-0.998,0.012Z" style="fill:#bfc5d3;"/><path d="M22.267,21.812l0.468,1.634l1.184,-0.002l-0.482,-1.63l-1.17,-0.002Z" style="fill:#bfc5d3;"/><path d="M25.025,21.801l0.557,1.627l1.124,0.002l-0.391,-1.636l-1.29,0.007Z" style="fill:#bfc5d3;"/><path d="M28.007,21.877l0.32,1.574l1.048,0.009l-0.092,-1.597l-1.276,0.014Z" style="fill:#bfc5d3;"/><path d="M30.862,21.821l0.111,1.646l1.016,-0.036l-0.124,-1.614l-1.003,0.004Z" style="fill:#bfc5d3;"/><path d="M33.746,21.865l0.012,1.598l1.029,-0.028l-0.025,-1.604l-1.016,0.034Z" style="fill:#bfc5d3;"/><path d="M36.451,21.832l0.018,1.583l1.028,-0.005l-0.014,-1.549l-1.032,-0.029Z" style="fill:#bfc5d3;"/><path d="M39.341,21.882l0.015,1.543l1.089,-0.02l0.014,-1.551l-1.118,0.028Z" style="fill:#bfc5d3;"/><path d="M42.067,21.842l0,1.619l1.163,0l0.036,-1.62l-1.199,0.001Z" style="fill:#bfc5d3;"/><path d="M45.001,21.839l-0.344,1.598l1.068,0l0.294,-1.609l-1.018,0.011Z" style="fill:#bfc5d3;"/><path d="M47.843,21.868l-0.473,1.538l1.158,-0.008l0.51,-1.52l-1.195,-0.01Z" style="fill:#bfc5d3;"/><path d="M50.747,21.849l-0.636,1.503l1.136,-0.019l0.729,-1.515l-1.229,0.031Z" style="fill:#bfc5d3;"/><path d="M53.616,21.795l-0.738,1.563l1.216,0.022l0.634,-1.605l-1.112,0.02Z" style="fill:#bfc5d3;"/><path d="M56.43,21.818l-0.819,1.502l1.255,0.009l0.688,-1.509l-1.124,-0.002Z" style="fill:#bfc5d3;"/><path d="M59.072,21.818l-0.834,1.533l1.089,0.029l0.828,-1.572l-1.083,0.01Z" style="fill:#bfc5d3;"/><path d="M61.998,21.846l-0.892,1.551l1.286,0.04l0.758,-1.607l-1.152,0.016Z" style="fill:#bfc5d3;"/></g></g></svg>