<?xml version="1.0" encoding="UTF-8" standalone="no"?><!DOCTYPE svg PUBLIC "-//W3C//DTD SVG 1.1//EN" "http://www.w3.org/Graphics/SVG/1.1/DTD/svg11.dtd"><svg width="100%" height="100%" viewBox="0 0 650 750" version="1.1" xmlns="http://www.w3.org/2000/svg" xmlns:xlink="http://www.w3.org/1999/xlink" xml:space="preserve" xmlns:serif="http://www.serif.com/" style="fill-rule:evenodd;clip-rule:evenodd;stroke-linejoin:round;stroke-miterlimit:1.41421;"><path id="forest" d="M324.76,0l324.759,187.5l0,375l-324.759,187.5l-324.76,-187.5l0,-375l324.76,-187.5Z" style="fill:none;"/><clipPath id="_clip1"><path d="M324.76,0l324.759,187.5l0,375l-324.759,187.5l-324.76,-187.5l0,-375l324.76,-187.5Z"/></clipPath><g clip-path="url(#_clip1)"><path d="M-55.23,-56.717l0,859.849l761.282,0l0,-859.849l-761.282,0Z" style="fill:url(#_Linear2);"/><path d="M660.852,366.016c4.654,11.728 6.322,20.871 -3.527,20.046c3.086,11.879 2.021,20.42 -4.825,24.314c-3.774,0.186 -6.682,-1.979 -8.724,-6.496c-4.206,-0.453 -6.16,-2.896 -5.754,-7.424c-8.959,2.573 -17.187,0.259 -24.5,-8.167c-0.872,6.007 -4.817,11.254 -11.693,15.777c-2.26,3.646 -5.375,6.024 -10.023,6.125c3.61,-4.01 1.357,-5.573 -7.041,-4.572c-0.952,-0.734 -1.544,-1.561 -1.806,-2.471c-2.4,4.876 -6.053,8.957 -12.798,11.077c-8.779,-17.091 -16.651,-19.613 -23.572,-6.867c-1.018,0.428 -2.015,0.52 -2.784,-2.784c-3.207,0.773 -3.968,3.313 -2.042,7.795c1.852,0.131 2.789,-0.861 2.97,-2.784c0.66,4.354 0.309,8.347 -1.856,11.693c-26.676,-2.961 -49.203,-1.092 -67.932,5.197c-2.8,0.103 -5.23,-1.038 -7.425,-2.97l2.042,-2.969c-10.767,-2.934 -10.866,-7.466 -5.568,-12.807l8.538,-33.038l15.591,-38.235l23.572,-10.58l46.031,4.455l46.03,1.299l42.504,3.526l14.592,30.86Z" style="fill:#7fc593;"/><path d="M549.329,461.649c-5.406,-10.604 -8.081,-29.008 -10.191,-40.729c-1.026,-12.961 -2.371,-25.875 -4.467,-38.677l1.616,-2.091l1.045,3.991c2.563,12.448 4.796,24.785 5.987,36.777c1.912,5.257 4.058,10.107 6.937,13.685c1.563,-15.182 1.937,-31.535 1.438,-48.751l-10.169,-23.568c3.107,6.02 6.312,11.66 9.789,16.251l2.322,-18.06l2.608,4.157c1.757,30.997 2.1,67.485 2.071,97.938" style="fill:#8f9ca2;"/><path d="M573.152,471.125c-1.216,-18.098 -1.969,-36.076 -1.113,-53.64c-7.583,-15 -16.822,-44.899 -19.396,-60.462l4.315,3.712c3.685,13.334 11.109,35.797 15.638,49.325l3.341,-55.311l7.053,2.367c-1.731,34.139 -2.653,74.042 -1.856,108.07l0,7.981l-7.982,-2.042Z" style="fill:#9a999f;"/><path d="M608.789,475.023c0.334,-10.442 0.236,-20.602 -0.928,-30.069l-12.807,-80.739l2.784,-5.382l13.735,76.284c3.463,-21.52 6.741,-42.811 7.424,-60.879c-4.689,-5.788 -8.154,-12.338 -10.95,-19.303l3.712,-2.413c2.353,6.575 5.269,12.253 8.723,17.076l6.357,-25.707l3.109,-1.949c-4.99,38.352 -9.976,92.997 -11.507,133.266l-9.652,-0.185Z" style="fill:#909e9e;"/><path d="M-138.399,453.764c3.614,-8.856 11.038,-15.275 24.625,-17.753c3.1,-11.892 11.699,-21.862 28.634,-28.92c8.82,-10.511 18.425,-20.37 28.92,-29.493c5.232,-4.959 8.896,-3.605 11.634,1.476c9.841,9.804 18.617,21.494 26.734,34.351l69.278,41.016l21.923,8.501c2.096,-8.59 8.233,-14.954 19.092,-18.715c7.168,3.858 13.088,9.117 17.445,16.126c16.147,-2.328 32.064,-2.489 47.72,-0.183c33.83,7.452 66.287,18.837 97.75,33.07c24.103,11.916 46.471,15.514 68.363,16.822l173.994,34.284l-70.401,96.002l-364.807,-27.734l-200.904,-158.85Z" style="fill:#a9e3e4;"/><path d="M-141.605,425.202c8.571,2.164 16.667,12.658 24.58,24.524c11.399,-0.333 19.157,3.549 24.178,10.599c22.572,-21.727 35.387,-7.208 45.623,16.889c19.899,-3.535 34.901,3.692 47.834,15.467l74.089,7.159c12.454,-5.556 22.666,-6.991 27.845,0.827c12.714,0.513 21.924,5.804 28.054,15.293c20.694,-5.484 36.515,0.853 45.55,23.652c2.01,4.377 -7.042,6.588 -19.703,8.093c-16.099,3.274 -31.885,4.233 -47.383,3.049c-3.782,0.838 -7.887,1.199 -13.293,-0.363c-9.37,7.359 -20.128,11.736 -33.133,11.288l-145.453,13.506l-37.469,-5.593l-40.826,-18.455l19.507,-125.935Z" style="fill:#83969d;"/><path d="M-112.233,599.573c46.542,-15.046 93.128,-34.869 161.668,-41.907c10.186,0.688 21.053,-5.865 29.812,-8.972c5.939,-8.299 30.88,-9.014 49.363,-7.149c19.507,-0.323 30.794,1.27 47.215,-3.182c74.047,3.319 131.394,7.627 146.391,-1.664c10.242,-1.474 20.448,-1.141 30.629,0.427c17.462,-11.66 37.494,-13.758 57.725,-15.118l161.304,-24.256l54.582,0.447l68.9,10.291l-1.873,204.657l-813.71,20.972l7.994,-134.546Z" style="fill:#a0c748;"/><path d="M394.254,517.328c-28.052,11.383 -52.789,22.135 -31.211,24.052c14.9,0.865 30.207,4.445 45.814,10.022c4.053,7.746 15.95,8.052 30.924,5.44c58.183,0.03 115.414,2.727 171.516,8.591c8.594,2.506 14.492,1.745 18.364,-1.47c-4.267,-5.267 -9.442,-8.616 -15.943,-9.162c23.727,-2.507 44.532,-8.375 63.223,-16.677l30.586,-47.775l-15.748,-11.453l-297.525,38.432Z" style="fill:#8dab51;"/><path d="M686.41,485.696c-32.149,-8.102 -64.977,-13.961 -99.144,-15.39c-13.912,-12.332 -28.767,-15.974 -45.091,-6.075l-54.185,-7.037l-21.013,11.567c-7.734,2.237 -13.733,7.085 -17.067,15.949l-1.898,22.921l169.224,2.863l26.401,8.258c13.357,-4.162 27.705,-3.186 42.515,0.184l0.258,-33.24Z" style="fill:#578c22;"/><path d="M454.258,490.454c6.484,-16.929 14.766,-33.435 24.686,-49.558c1.055,-36.091 2.81,-72.165 5.33,-108.221c1.216,-16.03 0.784,-32.055 -2.413,-48.072l-5.001,-27.202l28.888,7.93l33.985,-3.399c-9.32,16.35 -15.576,33.686 -14.951,53.235c-1.902,31.268 -2.178,62.513 -0.696,93.732c0.141,20.076 6.227,27.908 15.822,28.515c2.659,3.947 5.107,8.077 7.246,12.473c6.969,7.027 13.631,11.851 19.956,14.254c-6.7,-0.154 -11.879,0.806 -18.65,-1.9c1.823,4.113 1.341,6.197 1.901,10.097l-0.594,3.207c-5.497,-4.773 -11.563,-8.578 -19.6,-9.028c-0.991,6.934 -0.591,13.656 0.237,20.313l0.832,6.415l-8.196,1.425c-1.993,-8.776 -5.112,-15.859 -10.692,-19.244c-2.581,8.038 -3.354,16.076 -2.613,24.115c-7.332,-5.845 -13.502,-12.088 -18.056,-18.888c-6.349,-11.944 -12.728,-9.732 -19.125,0.832l-9.028,7.365l-9.268,1.604Z" style="fill:#655932;"/><path d="M371.356,523.842c-5.964,8.696 -5.471,14.852 2.815,17.945c9.489,-0.412 18.944,-2.442 28.382,-5.278c11.33,0.025 22.241,0.768 31.432,4.457c2.171,-2.314 4.916,-4.104 8.21,-5.395c8.285,7.318 19.546,3.766 31.314,-1.642c20.585,1.054 36.728,-0.276 43.83,-6.46c28.507,8.578 57.049,7.86 85.616,0.645c0.686,-4.087 0.105,-8.336 -0.931,-12.642c4.724,2.129 10.107,2.83 15.95,2.534c6.436,2.383 13.138,3.009 20.079,2.064c5.091,-5.083 0.549,-10.034 -6.715,-14.948c-15.758,-7.141 -29.975,-12.162 -36.687,-6.849c-5.346,-6.105 -11.362,-9.094 -18.202,-8.257c-7.171,-21.652 -20.14,-29.295 -42.752,-13.639c-6.51,4.369 -11.583,9.487 -14.924,15.508c-8.988,-3.356 -17.474,-7.732 -25.556,-12.927c-11.813,0.644 -23.621,0.808 -35.42,0.234c-10.725,5.529 -21.04,7.097 -30.493,0.352c-9.306,2.787 -18.728,3.783 -28.258,3.124c-4.151,6.883 -10.794,12.486 -21.32,16.097c-9.159,5.496 -10.334,14.24 -6.37,25.077Z" style="fill:#838986;"/><path d="M571.155,478.357l-0.619,1.543c-2.09,-0.129 -3.915,-1.001 -5.571,-2.346c-2.368,0.91 -5.581,1.482 -10.995,1.173c0.329,11.065 -3.35,17.834 -12.608,18.618c6.952,7.15 12.035,14.589 14.514,22.431c-8.364,-7.15 -18.291,-9.889 -30.201,-7.037c2.925,-7.15 0.671,-13.491 -7.477,-18.912c-1.875,-2.089 -4.471,-3.124 -8.266,-2.405c1.258,10.719 1.963,21.055 1.877,30.845c-1.198,4.731 -3.664,5.403 -7.624,1.291c-17.72,-11.784 -31.675,-14.879 -35.654,5.043c-41.74,-5.596 -48.909,-3.224 -33.431,4.367c-8.387,2.119 -18.995,1.745 -30.929,-0.12c-12.717,3.354 -25.723,3.373 -36.197,-2.561c-2.322,5.119 -0.93,9.857 6.185,11.376c10.348,0.085 19.958,-0.827 28.43,-4.316c13.604,-0.189 24.431,0.911 31.338,4.372c2.128,-2.296 4.209,-4.304 6.849,-4.747c11.022,5.386 23.35,3.68 33.525,-2.809c23.474,1.859 38.12,0.818 43.541,-6.01c28.763,9.547 58.174,8.099 85.701,0.191c0.843,-21.42 -5.793,-36.55 -25.257,-40.178c0.067,-5.163 -4.285,-7.263 -7.131,-9.809Z" style="fill:#706f75;"/><path d="M685.075,694.677c-78.05,-20.638 -155.134,-32.386 -230.492,-28.235c-97.466,-5.979 -193.976,-14.164 -288.88,-26.056l-155.769,-8.496l-70.804,2.266l-82.699,-5.665l-19.825,49.28l31.296,199.949l753.354,23.649l63.819,-206.692Z" style="fill:#308800;"/><path d="M-134.45,521.74c0.651,-2.484 1.869,-4.768 4.106,-6.691c1.507,1.324 2.757,3.113 3.649,5.55c1.544,-4.561 2.794,-9.147 3.725,-13.76c1.703,1.063 2.729,2.799 2.813,5.474c0.845,-2.388 2.58,-4.019 4.789,-5.246c0.983,0.778 1.554,1.779 1.217,3.269c0.621,-1.875 1.667,-2.955 3.041,-3.421c0.676,1.106 1.068,2.218 0.836,3.345c0.908,-3.199 2.762,-5.329 5.094,-6.918c0.837,1.16 1.207,2.374 1.064,3.649c1.011,-1.522 2.47,-2.708 4.258,-3.649c0.669,0.279 1.062,0.826 0.988,1.824c2.238,-4.081 5.941,-6.522 10.111,-8.439c-1.274,1.68 -2.376,3.407 -2.813,5.322c-0.585,0.502 -0.746,1.1 -0.684,1.749c1.476,0.066 2.222,0.978 2.433,2.509c3.025,-1.189 4.609,-0.454 4.865,2.052c1.757,-1.469 3.944,-1.841 6.463,-1.368c-4.302,3.99 -7.664,7.908 -9.504,11.708c1.456,1.046 2.348,2.401 2.662,4.071c2.573,1.834 1.363,5.127 -3.347,9.77c5.462,-2.518 7.984,-1.507 6.485,4.332c-0.409,5.869 4.038,6.664 9.62,6.272c-0.23,1.212 -0.828,2.727 -2.413,5.06c3.96,5.473 6.961,7.423 7.629,0.817c1.182,-1.017 2.264,-0.638 3.27,0.818c0.29,-1.547 1.229,-2.555 2.569,-3.231c2.299,0.276 4.527,1.47 6.721,3.115c0.349,-2.271 1.504,-3.881 3.066,-5.158c1.786,0.932 3.482,2.28 5.109,3.941c1.432,-1.114 3.456,-1.602 5.936,-1.605c0.39,1.631 0.341,3.204 -0.575,4.662c1.913,0.412 3.715,0.688 5.474,0.912c0.703,1.615 0.91,3.236 0.365,4.866c1.783,1.671 3.444,1.357 4.987,-0.851c2.5,-0.004 4.126,0.984 5.291,2.493c1.912,-2.031 4.431,-1.931 7.299,-0.608c2.931,-1.02 5.767,-0.791 8.515,0.608c-0.9,0.979 -1.512,2.119 -1.539,3.589c3.258,-0.223 6.574,0.09 9.926,0.74c-1.626,2.776 -3.87,5.421 -6.89,7.901c2.799,-0.157 5.547,0.09 8.253,0.662c-0.474,1.295 -1.289,2.518 -2.492,3.659c2.878,1.415 5.097,3.665 6.581,6.846c8,1.848 12.553,5.704 10.556,13.38c7.447,-1.647 11.684,3.827 14.492,12.473c1.8,2.573 2.436,4.87 1.136,6.707c2.017,2.632 3.111,5.428 3.421,8.362c3.199,1.069 3.699,2.82 1.235,5.322c4.008,1.024 7.525,3.362 10.538,7.047c2.73,-2.799 5.859,-5.303 9.184,-7.663c-0.641,4.688 -2.08,9.161 -4.683,13.319c1.725,-1.752 3.936,-3.15 7.299,-3.71c1.269,3.381 1.932,6.628 1.946,9.731c8.142,-3.858 13.234,-1.304 15.396,7.406c6.833,-2.663 8.577,-7.092 9.361,-11.854c2.677,8.637 3.391,17.219 1.812,25.738c10.751,-0.31 20.143,2.492 27.708,9.479c-4.078,0.3 -8.019,1.111 -10.81,6.177c3.908,0.779 6.955,2.93 8.197,7.959c5.088,-2.704 10.155,-2.224 15.205,0.712l6.058,6.415l-21.382,7.721l-137.35,14.088l-111.02,-9.516l-44.408,-54.378c0,0 22.204,-87.456 23.11,-92.894c0.907,-5.438 24.046,-42.661 24.046,-42.661Z" style="fill:#187400;"/><path d="M-131.67,549.407c0.501,-1.631 1.44,-3.131 3.163,-4.394c1.162,0.869 2.125,2.044 2.813,3.645c1.19,-2.996 2.153,-6.008 2.871,-9.038c1.312,0.698 2.103,1.839 2.167,3.595c0.652,-1.568 1.989,-2.639 3.692,-3.445c0.757,0.511 1.197,1.168 0.937,2.147c0.479,-1.232 1.285,-1.941 2.344,-2.247c0.52,0.726 0.823,1.457 0.644,2.197c0.7,-2.101 2.128,-3.5 3.926,-4.544c0.645,0.762 0.93,1.56 0.82,2.397c0.779,-0.999 1.904,-1.779 3.281,-2.397c0.515,0.184 0.818,0.543 0.761,1.199c1.725,-2.681 4.579,-4.284 7.793,-5.543c-0.983,1.103 -1.832,2.238 -2.168,3.495c-0.451,0.33 -0.575,0.723 -0.527,1.149c1.137,0.043 1.712,0.642 1.875,1.648c2.331,-0.781 3.552,-0.298 3.749,1.348c1.354,-0.965 3.039,-1.21 4.98,-0.899c-3.315,2.621 -5.905,5.194 -7.323,7.69c1.121,0.687 1.809,1.577 2.051,2.674c1.983,1.204 1.05,3.367 -2.58,6.417c4.21,-1.654 6.153,-0.99 4.998,2.845c-0.315,3.855 3.112,4.377 7.414,4.119c-0.178,0.796 -0.638,1.792 -1.86,3.324c3.052,3.595 5.365,4.876 5.88,0.537c0.911,-0.668 1.745,-0.42 2.519,0.537c0.224,-1.016 0.947,-1.678 1.98,-2.122c1.772,0.181 3.49,0.965 5.18,2.045c0.269,-1.491 1.159,-2.549 2.363,-3.387c1.376,0.612 2.683,1.497 3.937,2.589c1.104,-0.733 2.664,-1.053 4.575,-1.055c0.3,1.071 0.263,2.104 -0.443,3.062c1.474,0.271 2.863,0.452 4.218,0.599c0.542,1.061 0.701,2.125 0.282,3.196c1.374,1.098 2.654,0.891 3.843,-0.559c1.927,-0.003 3.18,0.646 4.078,1.638c1.473,-1.334 3.415,-1.268 5.624,-0.4c2.259,-0.67 4.445,-0.52 6.562,0.4c-0.693,0.642 -1.164,1.391 -1.185,2.357c2.51,-0.147 5.066,0.059 7.649,0.486c-1.253,1.823 -2.983,3.56 -5.309,5.19c2.157,-0.104 4.274,0.059 6.359,0.434c-0.365,0.851 -0.992,1.654 -1.92,2.403c2.218,0.93 3.928,2.407 5.072,4.497c6.165,1.213 9.674,3.746 8.135,8.788c5.739,-1.082 9.004,2.514 11.168,8.192c1.387,1.69 1.877,3.199 0.875,4.405c1.555,1.729 2.398,3.565 2.637,5.493c2.465,0.702 2.851,1.852 0.952,3.495c3.089,0.672 5.799,2.208 8.121,4.628c2.104,-1.838 4.515,-3.483 7.078,-5.033c-0.494,3.079 -1.603,6.017 -3.609,8.749c1.329,-1.151 3.033,-2.07 5.625,-2.437c0.978,2.22 1.489,4.353 1.499,6.391c6.276,-2.534 10.199,-0.857 11.866,4.864c5.266,-1.749 6.609,-4.658 7.213,-7.786c2.064,5.673 2.614,11.31 1.397,16.905c8.286,-0.203 15.524,1.637 21.354,6.226c-3.143,0.197 -6.18,0.73 -8.331,4.057c3.011,0.512 5.36,1.925 6.317,5.227c3.921,-1.775 7.826,-1.46 11.718,0.469l4.668,4.213l-16.478,5.071l-105.85,9.253l-85.558,-6.25l-34.224,-35.716c0,0 17.112,-57.441 17.81,-61.013c0.699,-3.571 18.532,-28.02 18.532,-28.02Z" style="fill:#1c5c06;"/><path d="M-124.539,576.596c0.394,-1.632 1.13,-3.131 2.483,-4.394c0.912,0.869 1.668,2.044 2.207,3.645c0.934,-2.996 1.69,-6.008 2.253,-9.038c1.03,0.698 1.65,1.838 1.701,3.595c0.511,-1.568 1.561,-2.64 2.897,-3.445c0.594,0.511 0.939,1.168 0.736,2.147c0.375,-1.232 1.008,-1.941 1.839,-2.247c0.408,0.726 0.646,1.457 0.505,2.197c0.549,-2.101 1.671,-3.5 3.081,-4.544c0.506,0.762 0.73,1.56 0.644,2.397c0.611,-1 1.494,-1.779 2.575,-2.397c0.404,0.184 0.642,0.543 0.597,1.198c1.354,-2.68 3.593,-4.284 6.115,-5.542c-0.77,1.102 -1.437,2.237 -1.701,3.495c-0.354,0.33 -0.451,0.723 -0.414,1.148c0.893,0.044 1.344,0.643 1.472,1.648c1.829,-0.78 2.787,-0.298 2.942,1.348c1.063,-0.964 2.385,-1.209 3.909,-0.898c-2.602,2.62 -4.635,5.194 -5.748,7.689c0.881,0.688 1.42,1.577 1.61,2.674c1.556,1.205 0.824,3.368 -2.024,6.417c3.303,-1.654 4.828,-0.989 3.921,2.846c-0.247,3.855 2.443,4.377 5.819,4.119c-0.14,0.796 -0.501,1.792 -1.46,3.323c2.396,3.595 4.21,4.876 4.614,0.537c0.715,-0.668 1.37,-0.419 1.978,0.537c0.175,-1.015 0.743,-1.678 1.553,-2.122c1.391,0.181 2.739,0.966 4.066,2.046c0.21,-1.491 0.909,-2.549 1.853,-3.387c1.081,0.611 2.106,1.497 3.09,2.588c0.867,-0.732 2.09,-1.052 3.59,-1.054c0.236,1.071 0.207,2.104 -0.347,3.062c1.157,0.27 2.246,0.452 3.31,0.599c0.425,1.061 0.55,2.125 0.221,3.196c1.078,1.097 2.083,0.891 3.016,-0.559c1.512,-0.003 2.495,0.646 3.2,1.637c1.156,-1.334 2.68,-1.268 4.414,-0.399c1.773,-0.67 3.488,-0.52 5.15,0.399c-0.544,0.643 -0.914,1.392 -0.931,2.358c1.971,-0.147 3.976,0.058 6.003,0.485c-0.983,1.824 -2.34,3.561 -4.166,5.19c1.692,-0.103 3.354,0.059 4.99,0.435c-0.286,0.85 -0.779,1.654 -1.506,2.403c1.74,0.93 3.082,2.407 3.979,4.496c4.839,1.214 7.593,3.747 6.384,8.788c4.504,-1.081 7.067,2.514 8.765,8.192c1.089,1.691 1.473,3.199 0.687,4.406c1.22,1.728 1.882,3.565 2.069,5.492c1.935,0.702 2.237,1.853 0.747,3.496c2.424,0.672 4.551,2.208 6.374,4.628c1.65,-1.838 3.543,-3.483 5.554,-5.033c-0.388,3.079 -1.258,6.017 -2.833,8.748c1.043,-1.151 2.381,-2.069 4.414,-2.437c0.768,2.221 1.169,4.353 1.177,6.392c4.925,-2.535 8.004,-0.857 9.312,4.864c4.132,-1.749 5.187,-4.658 5.661,-7.786c1.619,5.673 2.051,11.31 1.096,16.905c6.502,-0.203 12.182,1.637 16.757,6.226c-2.466,0.197 -4.849,0.73 -6.537,4.057c2.363,0.512 4.206,1.924 4.957,5.227c3.077,-1.776 6.142,-1.461 9.196,0.468l3.664,4.213l-12.932,5.072l-83.067,9.252l-67.143,-6.25l-26.857,-35.715c0,0 13.429,-57.442 13.977,-61.013c0.548,-3.572 14.542,-28.02 14.542,-28.02Z" style="fill:#0c492b;"/><path d="M108.644,712.022l-7.338,-34.572l-4.404,13.719c-0.445,-7.073 -3.034,-13.362 -7.338,-19.024c-0.752,5.86 -1.755,11.661 -3.119,17.378c-4.877,-8.249 -7.784,-17.211 -9.724,-26.524c-1.123,10.027 -1.03,19.936 3.119,29.45c-3.628,-6.587 -7.151,-14.94 -10.457,-26.889c1.135,6.824 1.567,13.549 -0.367,19.938c-3.124,-3.131 -5.443,-8.366 -7.155,-15.182l-2.385,12.804c-2.743,-12.274 -3.722,-24.525 -3.853,-36.766c-4.574,13.394 -6.516,27.465 -4.954,42.437c-2.758,-16.58 -9.01,-31.642 -18.346,-45.364c2.969,13.167 6.699,26.024 12.475,38.047c-8.96,-8.149 -17.956,-21.224 -26.969,-36.584c1.456,14.943 6,29.46 13.76,43.535c-6.768,-10.925 -15.01,-20.983 -24.401,-30.365c4.97,12.308 10.285,24.268 17.429,34.389c-7.624,-10.024 -16.252,-18.204 -25.502,-25.243c5.833,11.255 10.121,22.42 12.476,33.475c-11.955,-6.97 -25.789,-12.228 -40.546,-16.646c18.936,10.752 36.383,21.65 36.877,34.206c-21.179,-15.347 -36.843,-20.352 -48.252,-17.377c20.507,4.557 32.26,14.26 34.675,29.45c-17.912,-12.605 -36.471,-15.594 -55.406,-12.988c28.79,1.907 42.48,13.208 38.528,35.487c-21.273,-5.258 -36.019,7.707 -47.063,31.015l-12.842,22.179c0,0 87.604,2.972 89.668,2.744c2.064,-0.229 110.767,-3.43 110.767,-3.43c0,0 24.998,-43.672 25.686,-50.76c0.688,-7.088 -35.039,-42.539 -35.039,-42.539Z" style="fill:#215517;"/><path d="M81.868,670.771c-1.762,-16.962 -5.768,-34.319 -12.76,-52.202c8.182,3.947 14.516,12.215 19.488,23.665c-4.321,-16.972 -10.793,-33.749 -19.256,-50.346c12.998,11.291 24.82,26.776 34.569,49.65c1.843,-23.54 0.494,-43.763 -3.712,-61.018c-1.332,-2.596 -1.349,-5.153 0.464,-7.657c4.803,15.113 9.984,26.015 15.313,35.266c1.731,9.82 1.476,19.371 -1.624,28.537c12.472,-12.656 17.883,-27.04 17.168,-42.922c8.72,15.12 8.409,32.428 -9.744,54.058c13.143,-11.402 28.028,-21.664 44.546,-30.857c3.468,7.318 -11.875,24.571 -55.219,56.61l-12.76,4.409l-13.689,2.784l-2.784,-9.977Z" style="fill:#365c00;"/><path d="M200.063,711.605c1.762,-16.963 5.768,-34.32 12.76,-52.202c-8.183,3.946 -14.516,12.215 -19.489,23.665c4.322,-16.972 10.794,-33.749 19.257,-50.346c-12.998,11.291 -24.82,26.775 -34.569,49.65c-1.844,-23.541 -0.494,-43.764 3.712,-61.019c1.331,-2.595 1.349,-5.152 -0.464,-7.656c-4.804,15.113 -9.984,26.015 -15.313,35.265c-1.732,9.82 -1.476,19.371 1.624,28.538c-12.472,-12.656 -17.883,-27.04 -17.168,-42.922c-8.72,15.12 -8.409,32.428 9.744,54.058c-13.144,-11.402 -28.028,-21.664 -44.546,-30.857c-3.469,7.318 11.874,24.571 55.218,56.61l12.761,4.408l13.688,2.784l2.785,-9.976Z" style="fill:#4f7400;"/><path d="M382.404,502.017c-18.841,-31.991 -34.684,-71.029 -45.608,-121.629l-0.15,-13.367l3.267,-0.446l3.861,6.831c5.962,32.626 14.712,63.097 29.251,89.091c-2.851,-16.494 -5.123,-32.961 -4.603,-49.297c-10.872,-13.687 -22.72,-23.459 -35.042,-31.331l-7.425,-12.918l17.373,-2.376l2.97,13.067c8.418,8.913 16.832,16.857 25.243,23.312c-2.499,-6.419 -4.853,-12.851 -6.979,-19.303l4.751,-2.227l6.979,13.661l3.118,-3.267l4.9,0.445c-1.104,4.767 -2.291,9.538 -2.672,14.255c-5.21,13.268 -3.177,35.345 4.751,64.592c-0.129,-14.347 -0.563,-28.701 -1.336,-43.061l-5.918,-10.626l1.559,-8.143c2.485,3.257 4.877,6.694 7.18,10.305c4.114,-4.649 8.947,-8.576 14.106,-12.176l5.197,-1.485c-3.974,8.447 -8.342,16.954 -13.215,25.54c-1.339,20.737 -1.358,41.476 -0.742,62.215l-10.816,8.338Z" style="fill:#5e6635;"/><path d="M308.684,278.931c0.834,-7.449 10.966,-16.273 24.742,-20.681c13.777,-4.407 27.149,-3.102 32.152,2.48c10.255,-6.387 25.435,-9.199 35.904,-6.071c10.469,3.127 13.151,11.275 7.33,18.987c11.955,-0.516 20.752,4.802 20.03,13.11c-0.721,8.307 -10.75,17.163 -23.01,21.197c4.652,5.744 0.441,15.187 -10.927,22.419c-11.369,7.231 -26.556,10.126 -36.024,7.446c-6.154,7.677 -20.201,14.135 -33.656,14.845c-13.456,0.711 -22.365,-4.536 -21.911,-11.913c-12.326,3.831 -25.632,2.44 -31.041,-3.906c-5.41,-6.346 -1.333,-15.782 8.701,-22.301c-9.215,-2.901 -11.761,-11.093 -5.051,-19.717c6.71,-8.623 20.703,-15.144 32.761,-15.895Z" style="fill:#60a65e;"/><path d="M251.52,366.691c2.455,-4.456 12.331,-7.915 23.906,-7.907c11.575,0.008 21.447,3.481 23.895,7.941c9.375,-1.922 21.63,-0.644 28.844,3.381c7.214,4.026 7.267,9.616 0.948,13.243c9.236,2.06 14.641,7.112 12.061,12.123c-2.579,5.012 -12.384,8.51 -22.712,8.573c2.141,4.49 -3.374,9.512 -13.804,11.736c-10.43,2.224 -22.71,0.996 -29.27,-2.552c-6.565,3.539 -18.847,4.749 -29.274,2.511c-10.427,-2.239 -15.935,-7.268 -13.787,-11.756c-10.328,-0.077 -20.129,-3.589 -22.701,-8.605c-2.572,-5.015 2.84,-10.059 12.079,-12.106c-6.314,-3.636 -6.253,-9.226 0.967,-13.241c7.219,-4.015 19.476,-5.276 28.848,-3.341Z" style="fill:#60a65e;"/><path d="M367.088,321.572c5.206,-7.191 22.271,-10.778 41.181,-7.87c18.91,2.909 34.108,11.459 36.913,19.881c15.833,-1.02 35.514,4.281 46.221,13.135c10.707,8.853 9.295,18.658 -2.002,23.429c14.537,5.917 22.013,16.116 16.455,24.248c-5.558,8.131 -22.517,11.807 -39.409,9.334c2.295,8.4 -8.063,15.816 -25.701,17.102c-17.638,1.287 -37.374,-3.934 -47.141,-11.789c-11.676,4.557 -32.068,3.605 -48.504,-2.922c-16.437,-6.528 -24.087,-16.713 -19.374,-24.035c-16.855,-2.718 -31.926,-11.32 -34.783,-20.746c-2.858,-9.426 7.338,-16.907 22.982,-18.182c-9.342,-7.946 -7.742,-17.721 5.131,-22.948c12.873,-5.227 33.236,-4.369 48.031,1.363Z" style="fill:#64c872;"/><path d="M203.874,332.664c0.931,-5.535 9.437,-12.209 20.742,-15.651c11.305,-3.442 22.087,-2.643 25.945,1.434c8.522,-4.866 20.909,-7.143 29.277,-4.955c8.369,2.188 10.26,8.198 5.283,13.991c9.696,-0.533 16.635,3.3 15.765,9.471c-0.869,6.171 -9.293,12.866 -19.357,16.013c3.568,4.201 -0.165,11.259 -9.618,16.766c-9.453,5.507 -21.848,7.845 -29.421,5.976c-5.247,5.772 -16.841,10.739 -27.759,11.436c-10.918,0.696 -17.951,-3.083 -17.33,-8.561c-10.111,2.997 -20.836,2.133 -24.997,-2.506c-4.161,-4.639 -0.536,-11.689 7.811,-16.651c-7.361,-2.036 -9.14,-8.08 -3.412,-14.56c5.729,-6.481 17.283,-11.494 27.071,-12.203Z" style="fill:#66c682;"/><path d="M307.145,284.334c6.318,0.978 13.25,9.647 16.185,21.136c2.935,11.488 1.01,22.42 -4.064,26.309c4.84,8.675 6.326,21.253 3.019,29.729c-3.308,8.475 -10.437,10.357 -16.679,5.273c-0.282,9.839 -5.362,16.855 -12.421,15.935c-7.06,-0.92 -14.025,-9.505 -16.733,-19.733c-5.193,3.594 -13.013,-0.236 -18.508,-9.858c-5.495,-9.623 -7.052,-22.21 -4.187,-29.881c-6.193,-5.357 -10.865,-17.148 -10.658,-28.227c0.207,-11.08 5.231,-18.191 11.512,-17.528c-2.53,-10.274 -0.536,-21.148 5.217,-25.341c5.754,-4.193 13.576,-0.473 18.542,8.025c3.039,-7.455 10.197,-9.223 17.165,-3.373c6.967,5.851 11.696,17.601 11.61,27.534Z" style="fill:#66c682;"/><path d="M265.127,315.052c2.849,-4.215 12.998,-6.763 24.525,-5.705c11.526,1.059 21.042,5.413 23.076,10.076c9.51,-1.062 21.598,1.322 28.417,5.986c6.819,4.663 6.365,10.235 -0.257,13.274c9.01,2.89 13.934,8.411 10.911,13.168c-3.023,4.756 -13.105,7.351 -23.397,6.476c1.725,4.666 -4.223,9.167 -14.812,10.435c-10.588,1.268 -22.706,-1.069 -28.917,-5.199c-6.86,2.929 -19.201,3.02 -29.382,-0.155c-10.18,-3.176 -15.209,-8.685 -12.663,-12.959c-10.278,-1.014 -19.719,-5.401 -21.826,-10.629c-2.106,-5.228 3.741,-9.76 13.127,-10.96c-5.958,-4.194 -5.389,-9.756 2.165,-13.099c7.554,-3.344 19.874,-3.486 29.033,-0.709Z" style="fill:#60a65e;"/><path d="M547.997,311.983c0.342,-3.232 7.831,-5.093 16.713,-4.153c8.883,0.94 15.816,4.327 15.474,7.56c4.738,-2.33 14.69,-2.248 22.212,0.182c7.521,2.43 9.781,6.295 5.044,8.624c7.863,-0.802 17.612,1.201 21.757,4.47c4.145,3.269 1.126,6.575 -6.737,7.377c8.882,0.94 15.816,4.327 15.474,7.559c-0.342,3.233 -7.831,5.094 -16.714,4.154c7.522,2.43 9.782,6.294 5.044,8.623c-4.737,2.33 -14.689,2.248 -22.211,-0.182c4.145,3.269 1.126,6.574 -6.737,7.377c-7.863,0.802 -17.613,-1.201 -21.757,-4.47c-0.343,3.232 -7.832,5.093 -16.714,4.153c-8.882,-0.94 -15.816,-4.327 -15.474,-7.56c-4.737,2.33 -14.69,2.248 -22.211,-0.182c-7.521,-2.43 -9.782,-6.295 -5.044,-8.624c-7.863,0.802 -17.613,-1.201 -21.758,-4.47c-4.145,-3.269 -1.126,-6.575 6.738,-7.377c-8.883,-0.94 -15.816,-4.327 -15.474,-7.559c0.342,-3.233 7.831,-5.094 16.713,-4.154c-7.521,-2.43 -9.781,-6.294 -5.044,-8.623c4.737,-2.33 14.69,-2.248 22.211,0.182c-4.145,-3.269 -1.126,-6.574 6.737,-7.377c7.864,-0.802 17.613,1.201 21.758,4.47Z" style="fill:#699002;"/><path d="M332.408,138.879c-3.012,-4.092 0.383,-11.713 7.577,-17.007c7.194,-5.294 15.479,-6.27 18.491,-2.178c0.989,-6.191 8.072,-13.279 15.808,-15.818c7.736,-2.538 13.214,0.427 12.225,6.618c4.724,-6.631 13.597,-11.286 19.802,-10.389c6.206,0.896 7.408,7.008 2.684,13.64c7.194,-5.295 15.479,-6.271 18.491,-2.178c3.012,4.092 -0.383,11.713 -7.577,17.007c7.736,-2.538 13.214,0.427 12.226,6.618c-0.989,6.191 -8.072,13.279 -15.808,15.818c6.205,0.897 7.408,7.009 2.684,13.64c-4.724,6.631 -13.597,11.287 -19.803,10.39c3.012,4.092 -0.383,11.713 -7.577,17.007c-7.193,5.294 -15.479,6.27 -18.491,2.178c-0.988,6.191 -8.071,13.279 -15.807,15.818c-7.736,2.538 -13.214,-0.427 -12.226,-6.618c-4.724,6.631 -13.597,11.287 -19.802,10.39c-6.205,-0.897 -7.408,-7.009 -2.684,-13.64c-7.193,5.294 -15.479,6.27 -18.491,2.177c-3.012,-4.092 0.383,-11.713 7.577,-17.007c-7.736,2.539 -13.214,-0.427 -12.225,-6.618c0.988,-6.191 8.072,-13.279 15.807,-15.818c-6.205,-0.897 -7.407,-7.009 -2.683,-13.64c4.724,-6.631 13.597,-11.286 19.802,-10.39Z" style="fill:#699002;"/><path d="M351.684,180.718c2.531,-2.894 10.044,-0.469 16.767,5.412c6.723,5.88 10.126,13.004 7.595,15.898c5.553,0.434 13.762,6.096 18.318,12.636c4.557,6.539 3.747,11.496 -1.806,11.062c7.088,3.646 13.791,11.028 14.961,16.474c1.169,5.447 -3.636,6.909 -10.724,3.263c6.723,5.88 10.126,13.004 7.595,15.898c-2.532,2.894 -10.045,0.469 -16.768,-5.412c4.557,6.54 3.747,11.497 -1.806,11.063c-5.554,-0.435 -13.762,-6.096 -18.319,-12.636c1.17,5.446 -3.636,6.908 -10.723,3.262c-7.088,-3.646 -13.792,-11.027 -14.961,-16.474c-2.532,2.894 -10.045,0.469 -16.768,-5.412c-6.723,-5.88 -10.126,-13.004 -7.594,-15.898c-5.554,-0.434 -13.762,-6.096 -18.319,-12.636c-4.556,-6.539 -3.747,-11.496 1.807,-11.062c-7.088,-3.646 -13.792,-11.028 -14.961,-16.474c-1.169,-5.447 3.636,-6.909 10.724,-3.263c-6.723,-5.88 -10.126,-13.004 -7.595,-15.898c2.531,-2.894 10.045,-0.469 16.767,5.412c-4.556,-6.54 -3.747,-11.497 1.807,-11.063c5.554,0.435 13.762,6.097 18.318,12.636c-1.169,-5.446 3.636,-6.908 10.724,-3.262c7.088,3.646 13.792,11.027 14.961,16.474Z" style="fill:#699002;"/><path d="M470.653,272.047c-0.372,-4.571 6.554,-8.871 15.457,-9.594c8.902,-0.724 16.432,2.399 16.804,6.971c4.129,-4.321 13.892,-6.482 21.788,-4.824c7.895,1.659 10.953,6.514 6.824,10.835c7.524,-2.913 17.507,-2.357 22.281,1.24c4.773,3.597 2.54,8.882 -4.984,11.795c8.902,-0.724 16.432,2.4 16.803,6.971c0.372,4.572 -6.554,8.871 -15.456,9.595c7.895,1.659 10.953,6.514 6.824,10.835c-4.13,4.321 -13.892,6.482 -21.788,4.823c4.773,3.597 2.54,8.882 -4.984,11.795c-7.524,2.913 -17.508,2.357 -22.281,-1.24c0.372,4.571 -6.554,8.871 -15.457,9.595c-8.902,0.724 -16.432,-2.4 -16.804,-6.972c-4.129,4.321 -13.892,6.483 -21.787,4.824c-7.896,-1.659 -10.954,-6.514 -6.825,-10.835c-7.524,2.913 -17.507,2.357 -22.28,-1.24c-4.774,-3.597 -2.54,-8.882 4.984,-11.795c-8.903,0.724 -16.433,-2.4 -16.804,-6.971c-0.372,-4.572 6.554,-8.871 15.456,-9.595c-7.895,-1.659 -10.953,-6.514 -6.824,-10.835c4.13,-4.321 13.892,-6.482 21.788,-4.823c-4.773,-3.597 -2.54,-8.882 4.984,-11.795c7.524,-2.913 17.508,-2.357 22.281,1.24Z" style="fill:#699002;"/><path d="M464.37,212.564c-0.536,-6.59 7.154,-12.601 17.16,-13.415c10.007,-0.814 18.567,3.876 19.102,10.466c4.54,-6.114 15.478,-8.975 24.413,-6.384c8.934,2.59 12.502,9.658 7.962,15.772c8.399,-4 19.656,-2.944 25.123,2.357c5.468,5.3 3.088,12.851 -5.31,16.851c10.007,-0.814 18.566,3.876 19.102,10.466c0.536,6.591 -7.153,12.602 -17.16,13.416c8.934,2.59 12.502,9.657 7.963,15.772c-4.539,6.114 -15.478,8.975 -24.412,6.384c5.467,5.301 3.088,12.852 -5.31,16.852c-8.398,3.999 -19.656,2.943 -25.123,-2.357c0.536,6.59 -7.153,12.601 -17.16,13.415c-10.007,0.814 -18.566,-3.876 -19.102,-10.466c-4.54,6.114 -15.478,8.975 -24.412,6.384c-8.935,-2.59 -12.503,-9.658 -7.963,-15.772c-8.398,4 -19.656,2.944 -25.123,-2.357c-5.468,-5.3 -3.088,-12.851 5.31,-16.851c-10.007,0.814 -18.566,-3.876 -19.102,-10.466c-0.536,-6.591 7.153,-12.602 17.16,-13.416c-8.934,-2.59 -12.502,-9.657 -7.963,-15.772c4.539,-6.114 15.478,-8.975 24.412,-6.384c-5.467,-5.301 -3.088,-12.852 5.31,-16.852c8.399,-3.999 19.656,-2.943 25.123,2.357Z" style="fill:#638606;"/><path d="M599.013,259.755c2.226,-3.909 11.117,-3.05 19.841,1.918c8.725,4.968 14.001,12.176 11.774,16.085c6.291,-0.901 16.628,3.447 23.07,9.704c6.443,6.257 6.567,12.069 0.276,12.971c8.669,2.347 17.683,9.019 20.118,14.889c2.434,5.869 -2.628,8.729 -11.296,6.381c8.724,4.968 14,12.175 11.774,16.085c-2.226,3.909 -11.117,3.05 -19.841,-1.918c6.442,6.257 6.566,12.069 0.276,12.971c-6.291,0.901 -16.628,-3.447 -23.07,-9.704c2.434,5.87 -2.628,8.729 -11.296,6.381c-8.669,-2.347 -17.683,-9.019 -20.118,-14.889c-2.226,3.91 -11.116,3.05 -19.841,-1.918c-8.724,-4.968 -14,-12.175 -11.774,-16.085c-6.29,0.902 -16.628,-3.446 -23.07,-9.703c-6.443,-6.257 -6.566,-12.07 -0.276,-12.971c-8.669,-2.348 -17.683,-9.019 -20.117,-14.889c-2.435,-5.87 2.627,-8.729 11.296,-6.381c-8.725,-4.969 -14.001,-12.176 -11.775,-16.085c2.227,-3.91 11.117,-3.05 19.842,1.918c-6.443,-6.257 -6.567,-12.07 -0.276,-12.971c6.29,-0.902 16.627,3.446 23.07,9.703c-2.435,-5.869 2.627,-8.729 11.296,-6.381c8.668,2.348 17.683,9.019 20.117,14.889Z" style="fill:#638606;"/><path d="M609.948,242.37c-0.536,-4.467 7.123,-9.063 17.092,-10.258c9.968,-1.194 18.496,1.463 19.031,5.93c4.521,-4.466 15.417,-7.118 24.318,-5.919c8.901,1.199 12.456,5.798 7.936,10.263c8.365,-3.268 19.58,-3.265 25.027,0.006c5.448,3.271 3.08,8.58 -5.286,11.848c9.969,-1.194 18.497,1.463 19.032,5.929c0.535,4.467 -7.124,9.064 -17.092,10.258c8.901,1.199 12.456,5.798 7.936,10.264c-4.521,4.466 -15.417,7.118 -24.318,5.919c5.448,3.271 3.079,8.58 -5.286,11.848c-8.366,3.268 -19.58,3.265 -25.028,-0.006c0.535,4.467 -7.123,9.063 -17.092,10.258c-9.969,1.194 -18.496,-1.463 -19.032,-5.93c-4.52,4.466 -15.417,7.118 -24.317,5.919c-8.901,-1.199 -12.457,-5.798 -7.936,-10.263c-8.366,3.268 -19.58,3.265 -25.028,-0.006c-5.448,-3.271 -3.079,-8.58 5.286,-11.848c-9.968,1.194 -18.496,-1.463 -19.031,-5.929c-0.535,-4.467 7.123,-9.064 17.092,-10.258c-8.901,-1.199 -12.457,-5.798 -7.936,-10.264c4.521,-4.466 15.417,-7.118 24.318,-5.919c-5.448,-3.271 -3.079,-8.58 5.286,-11.848c8.365,-3.268 19.58,-3.265 25.028,0.006Z" style="fill:#638606;"/><path d="M498.41,117.718c0.842,-6.893 9.616,-11.501 19.582,-10.284c9.966,1.218 17.373,7.802 16.532,14.695c5.712,-5.361 17.014,-6.059 25.224,-1.559c8.21,4.501 10.237,12.507 4.525,17.868c9.052,-2.393 19.854,1.006 24.108,7.584c4.254,6.578 0.359,13.861 -8.693,16.253c9.966,1.217 17.373,7.801 16.531,14.694c-0.841,6.893 -9.616,11.501 -19.582,10.284c8.21,4.501 10.238,12.507 4.526,17.868c-5.712,5.36 -17.015,6.059 -25.224,1.558c4.253,6.578 0.358,13.861 -8.693,16.253c-9.052,2.393 -19.854,-1.005 -24.108,-7.583c-0.842,6.892 -9.616,11.5 -19.582,10.283c-9.966,-1.217 -17.373,-7.801 -16.532,-14.694c-5.712,5.361 -17.014,6.059 -25.224,1.558c-8.21,-4.5 -10.237,-12.506 -4.525,-17.867c-9.052,2.392 -19.854,-1.006 -24.108,-7.584c-4.254,-6.578 -0.359,-13.861 8.693,-16.253c-9.966,-1.218 -17.373,-7.802 -16.531,-14.695c0.841,-6.893 9.616,-11.501 19.582,-10.283c-8.21,-4.501 -10.238,-12.507 -4.526,-17.868c5.712,-5.361 17.015,-6.059 25.224,-1.559c-4.253,-6.578 -0.358,-13.861 8.693,-16.253c9.052,-2.392 19.854,1.006 24.108,7.584Z" style="fill:#638606;"/><path d="M420.469,88.255c0.842,-6.893 9.617,-11.501 19.583,-10.284c9.965,1.217 17.373,7.802 16.531,14.694c5.712,-5.36 17.014,-6.059 25.224,-1.558c8.21,4.5 10.238,12.507 4.526,17.867c9.051,-2.392 19.854,1.006 24.107,7.584c4.254,6.578 0.359,13.861 -8.693,16.253c9.966,1.218 17.374,7.802 16.532,14.695c-0.842,6.893 -9.617,11.501 -19.582,10.284c8.209,4.5 10.237,12.506 4.525,17.867c-5.712,5.361 -17.014,6.059 -25.224,1.559c4.254,6.578 0.358,13.861 -8.693,16.253c-9.052,2.392 -19.854,-1.006 -24.108,-7.584c-0.842,6.893 -9.616,11.501 -19.582,10.284c-9.966,-1.217 -17.373,-7.802 -16.531,-14.695c-5.712,5.361 -17.015,6.06 -25.225,1.559c-8.209,-4.501 -10.237,-12.507 -4.525,-17.868c-9.052,2.393 -19.854,-1.006 -24.108,-7.584c-4.254,-6.578 -0.358,-13.86 8.693,-16.253c-9.966,-1.217 -17.373,-7.801 -16.531,-14.694c0.842,-6.893 9.616,-11.501 19.582,-10.284c-8.21,-4.5 -10.238,-12.507 -4.526,-17.867c5.712,-5.361 17.015,-6.06 25.225,-1.559c-4.254,-6.578 -0.359,-13.861 8.693,-16.253c9.051,-2.393 19.854,1.006 24.107,7.584Z" style="fill:#68941b;"/><path d="M577.128,184.222c-2.525,-5.991 2.936,-14.021 12.187,-17.921c9.251,-3.9 18.813,-2.202 21.338,3.788c2.439,-7.138 11.948,-13.243 21.223,-13.625c9.275,-0.382 14.825,5.103 12.386,12.241c6.749,-6.373 17.76,-8.918 24.573,-5.68c6.813,3.238 6.864,11.041 0.115,17.414c9.252,-3.9 18.813,-2.203 21.338,3.788c2.526,5.991 -2.935,14.021 -12.186,17.921c9.274,-0.382 14.824,5.103 12.386,12.241c-2.439,7.138 -11.948,13.244 -21.223,13.626c6.813,3.238 6.864,11.041 0.115,17.414c-6.749,6.373 -17.76,8.918 -24.573,5.679c2.526,5.991 -2.935,14.021 -12.186,17.921c-9.252,3.9 -18.813,2.203 -21.338,-3.788c-2.439,7.138 -11.949,13.244 -21.223,13.626c-9.275,0.382 -14.825,-5.103 -12.386,-12.241c-6.75,6.373 -17.76,8.918 -24.573,5.68c-6.813,-3.239 -6.865,-11.042 -0.115,-17.414c-9.252,3.9 -18.813,2.202 -21.339,-3.789c-2.525,-5.99 2.936,-14.02 12.187,-17.92c-9.275,0.382 -14.825,-5.103 -12.386,-12.241c2.439,-7.139 11.948,-13.244 21.223,-13.626c-6.813,-3.238 -6.865,-11.041 -0.115,-17.414c6.749,-6.373 17.76,-8.918 24.572,-5.68Z" style="fill:#587700;"/><path d="M580.867,81.291c1.859,-7.923 12.601,-12.188 23.973,-9.52c11.371,2.669 19.094,11.268 17.235,19.19c7.296,-5.527 20.46,-4.921 29.379,1.351c8.918,6.273 10.235,15.852 2.94,21.379c10.777,-1.65 22.836,3.664 26.912,11.859c4.076,8.196 -1.365,16.19 -12.143,17.84c11.371,2.668 19.094,11.267 17.235,19.19c-1.859,7.923 -12.601,12.188 -23.973,9.52c8.919,6.272 10.236,15.852 2.94,21.379c-7.296,5.527 -20.46,4.922 -29.378,-1.351c4.075,8.196 -1.366,16.189 -12.144,17.84c-10.778,1.65 -22.837,-3.664 -26.912,-11.86c-1.86,7.923 -12.601,12.189 -23.973,9.52c-11.372,-2.669 -19.095,-11.267 -17.235,-19.19c-7.296,5.527 -20.46,4.922 -29.379,-1.351c-8.918,-6.272 -10.236,-15.852 -2.94,-21.379c-10.778,1.65 -22.837,-3.664 -26.912,-11.859c-4.076,-8.196 1.365,-16.189 12.143,-17.84c-11.372,-2.668 -19.095,-11.267 -17.235,-19.19c1.859,-7.922 12.601,-12.188 23.972,-9.519c-8.918,-6.273 -10.235,-15.853 -2.939,-21.379c7.296,-5.527 20.46,-4.922 29.378,1.35c-4.076,-8.195 1.366,-16.189 12.143,-17.839c10.778,-1.651 22.837,3.663 26.913,11.859Z" style="fill:#587700;"/><path d="M369.616,191.764c-2.348,-4.751 2.882,-12.135 11.671,-16.479c8.79,-4.343 17.832,-4.012 20.18,0.739c2.361,-6.286 11.411,-12.515 20.197,-13.901c8.785,-1.386 14.001,2.592 11.64,8.879c6.438,-6.137 16.883,-9.543 23.311,-7.6c6.428,1.943 6.42,8.503 -0.017,14.641c8.789,-4.344 17.831,-4.013 20.179,0.738c2.348,4.752 -2.882,12.135 -11.671,16.479c8.786,-1.386 14.002,2.592 11.64,8.879c-2.361,6.286 -11.411,12.515 -20.197,13.901c6.428,1.943 6.42,8.503 -0.017,14.64c-6.438,6.138 -16.884,9.543 -23.312,7.6c2.348,4.751 -2.881,12.135 -11.671,16.478c-8.789,4.344 -17.831,4.013 -20.179,-0.738c-2.361,6.286 -11.411,12.515 -20.197,13.901c-8.786,1.386 -14.002,-2.593 -11.64,-8.879c-6.438,6.137 -16.883,9.542 -23.312,7.599c-6.428,-1.943 -6.42,-8.503 0.018,-14.64c-8.789,4.344 -17.831,4.013 -20.179,-0.739c-2.348,-4.751 2.881,-12.135 11.671,-16.478c-8.786,1.386 -14.002,-2.593 -11.641,-8.879c2.362,-6.286 11.412,-12.515 20.197,-13.901c-6.428,-1.943 -6.42,-8.503 0.018,-14.641c6.438,-6.137 16.883,-9.542 23.311,-7.599Z" style="fill:#68941b;"/><path d="M-60.933,591.752c9.148,-26.765 19.407,-49.632 30.161,-70.763c2.36,-13.972 -0.149,-27.309 -5.22,-40.312c-0.523,-7.808 1.105,-15.281 4.84,-22.428c1.514,-21.176 0.735,-43.566 -2.447,-67.228c-7.397,-8.181 -13.032,-18.893 -16.148,-33.223c-11.465,-9.872 -13.417,-22.001 -8.349,-35.796c0.789,-20.898 0.864,-39.819 -3.041,-47.706c-0.095,-8.996 0.253,-18.119 1.045,-27.369c-3.129,-4.278 -5.436,-8.848 -6.462,-13.875c-2.703,2.54 -7.176,-0.403 -13.114,-7.887c-2.838,-0.266 -5.439,0.053 -7.709,1.186c-1.559,0.328 -2.288,-1.2 -2.376,-4.158c1.194,-16.236 -2.816,-27.764 -11.523,-35.043c-0.045,-17.137 -10.407,-35.468 -25.836,-54.386l1.16,-7.541l3.481,-4.93l10.73,6.671c5.524,7.734 9.967,15.322 10.151,22.331c7.121,6.458 10.785,16.655 10.199,31.445c6.424,5.631 11.141,13.209 13.138,23.891c2.679,5.137 5.897,4.454 9.266,2.138c1.454,-0.045 2.641,0.976 3.706,2.481c1.766,2.46 3.139,2.657 4.333,1.824c-0.23,-14.585 -1.777,-29.33 -5.83,-44.381c-0.006,-15.197 -0.466,-29.009 -3.713,-34.338l0,-13.178l17.076,-7.424l18.004,3.155l8.538,2.413l-2.041,14.106c2.878,10.547 1.962,19.781 -5.569,26.728c-1.009,10.155 -0.453,18.036 2.228,22.83c-0.475,14.047 -0.25,26.585 2.969,32.667c0.412,6.302 0.097,12.411 -1.187,18.264c3.388,7.456 4.117,15.864 0.89,25.688c0.113,17.164 2.921,33.336 5.494,49.594c0.645,14.71 9.273,31.236 21.383,48.556c3.734,11.812 5.638,24.168 6.533,36.824l4.455,7.276c3.742,-5.808 6.869,-12.526 9.354,-20.194c-0.699,-3.657 0.184,-7.094 3.118,-10.246c0.979,-40.955 5.719,-73.795 16.605,-93.372c1.914,-8.218 2.285,-16.435 -0.58,-24.651c-0.2,-13.052 0.254,-26.618 0.87,-40.312c-7.492,-24.583 -14.798,-50.705 -21.751,-79.754l0.943,-58.365l31.321,-2.465l35.164,3.988l19.069,-9.425l11.528,66.557c-4.024,14.922 -5.182,28.808 0.336,40.277c0.781,12.394 0.278,24.66 -3.898,36.565c1.474,10.305 2.744,20.526 3.713,30.626c8.795,-6.428 15.347,-13.337 17.632,-21.16c6.165,-10.131 18.297,-18.357 32.43,-25.944c4.574,-20.679 10.999,-40.937 19.362,-60.753l15.6,-12.863c0.733,-24.222 5.601,-47.323 11.854,-70.049l10.637,6.116c-2.029,19.647 -2.356,39.246 -0.248,58.775l4.64,6.671l-3.19,11.89c-4.189,6.51 -7.663,13.355 -10.276,20.605c-8.45,7.202 -10.152,18.345 -9.206,31.034c5.38,-4.32 10.99,-2.384 16.712,2.589c13.334,4.911 23.962,1.447 33.385,-5.746c11.152,-8.66 21.148,-17.731 30.735,-26.949c9.002,-8.563 20.823,-14.382 33.261,-19.601c-10.264,5.789 -20.176,11.717 -28.153,18.413c2.92,1.933 5.853,2.046 8.79,1.782c3.902,3.852 7.893,7.079 11.998,9.503c9.421,-0.896 17.501,-0.509 24.708,0.712c-8.251,0.026 -15.381,0.663 -19.006,3.208c-0.234,4.203 6.259,4.299 12.948,4.276c3.964,3.049 6.853,7.778 8.69,14.15c-2.594,-4.383 -5.281,-8.454 -8.438,-10.947c-7.538,-0.712 -14.616,-1.888 -18.931,-5.854c-3.547,-3.802 -7.435,-7.399 -12.164,-10.492c-7.258,-0.884 -13.722,-0.178 -18.474,3.954c-9.315,11.361 -20.006,21.041 -31.997,29.131c-7.979,7.499 -16.421,10.519 -25.834,4.141c-10.961,-2.465 -18.362,1.006 -22.346,10.176c-24.072,14.525 -44.926,31.017 -50.285,56.983c-4.397,4.677 -8.548,9.385 -10.207,14.412c-15.691,18.833 -23.725,38.714 -23.201,59.766c-11.052,17.592 -16.269,38.885 -15.405,64.034c-1.423,11.761 -4.036,22.445 -7.982,31.925c-5.58,19.988 -8.52,40.367 -9.171,61.085c-5.542,21.542 -12.175,42.208 -19.361,62.431c0.89,10.496 1.216,20.749 -0.186,30.255c2.405,13.295 4.122,26.596 4.64,39.905c8.414,12.562 15.133,24.958 19.489,37.122l-133.358,-6.895l-29.206,-4.425l14.107,-60.697Z" style="fill:#332e16;"/></g><defs><linearGradient id="_Linear2" x1="0" y1="0" x2="1" y2="0" gradientUnits="userSpaceOnUse" gradientTransform="matrix(2.92325e-13,-859.849,761.282,1.81271e-13,325.411,803.132)"><stop offset="0" style="stop-color:#fff;stop-opacity:1"/><stop offset="1" style="stop-color:#3de0f7;stop-opacity:1"/></linearGradient></defs></svg>