<?xml version="1.0" encoding="UTF-8" standalone="no"?><!DOCTYPE svg PUBLIC "-//W3C//DTD SVG 1.1//EN" "http://www.w3.org/Graphics/SVG/1.1/DTD/svg11.dtd"><svg width="100%" height="100%" viewBox="0 0 719 830" version="1.1" xmlns="http://www.w3.org/2000/svg" xmlns:xlink="http://www.w3.org/1999/xlink" xml:space="preserve" xmlns:serif="http://www.serif.com/" style="fill-rule:evenodd;clip-rule:evenodd;stroke-linejoin:round;stroke-miterlimit:1.41421;"><path id="grassland" d="M359.401,0l359.4,207.5l0,415l-359.4,207.5l-359.401,-207.5l0,-415l359.401,-207.5Z" style="fill:none;"/><clipPath id="_clip1"><path d="M359.401,0l359.4,207.5l0,415l-359.4,207.5l-359.401,-207.5l0,-415l359.401,-207.5Z"/></clipPath><g clip-path="url(#_clip1)"><path id="sky" d="M-31.244,-119.636l803.791,5.673l27.847,784.721l-848.093,18.909l16.455,-809.303Z" style="fill:#ddf0fd;"/><g id="mountains"><path d="M-2.465,447.285c33.372,0.407 66.741,1.977 100.106,5.033c25.388,-1.67 52.692,1.011 81.244,6.523c20.761,1.156 40.259,0.686 58.699,-1.145c16.987,-4.134 34.723,-7.05 53.831,-7.731c10.063,1.467 18.17,4.38 24.911,8.304c18.626,-10.618 40.152,-17.32 63.567,-21.476c22.041,-15.506 48.564,-27.921 78.454,-38.013c15.762,-10.97 34.425,-21.042 55.549,-30.352c24.63,-13.313 50.559,-20.203 78.404,-17.62c19.242,1.995 36.841,0.636 52.972,-3.722c14.632,4.444 28.811,11.928 42.711,21.293c16.993,5.397 34.025,13.277 51.082,22.678c10.375,6.466 20.358,9.661 30.009,10.079l9.027,123.479l-785.049,16.079l4.483,-93.409Z" style="fill:#b6c9d6;"/><path d="M-5.408,455.3c10.018,1.038 19.548,0 28.588,-3.115c11.796,5.104 23.06,6.689 33.902,5.497c13.397,-1.465 26.122,-0.793 38.118,2.199c14.559,-2.82 27.578,-1.577 39.216,3.299c23.912,-2.113 49.859,-1.746 77.116,0.218c18.791,-0.485 36.7,1.382 54.081,4.661c20.096,-5.07 43.567,-7.785 71.515,-7.376c41.947,-16.034 79.284,-15.44 113.373,-3.125c11.068,2.327 20.109,-1.204 28.782,-5.799c29.057,-11.031 59.968,-12.959 92.069,-9.048c17.524,-5.935 38.087,-2.814 61.047,7.453c21.174,-5.138 41.245,-4.759 60.149,1.453c33.452,4.696 53.767,1.037 73.936,-2.716l24.013,142.019l-830.488,3.495l34.583,-139.115Z" style="fill:#b0bdc7;"/><path d="M406.625,464.295c16.926,-14.422 39.269,-23.864 70.466,-25.166c21.68,-6.015 45.133,-8.285 69.347,-8.948c23.028,-12.092 38.61,-17.505 43.541,-13.36c5.319,13.44 22.748,17.415 41.461,20.387c19.437,5.077 38.919,-0.606 58.413,-9.163c23.308,-4.174 35.719,-10.578 42.283,-18.179c-19.499,6.181 -37.712,5.234 -50.968,-23.193c-11.6,-9.469 -25.041,-17.667 -41.519,-23.766c-2.822,3.129 -11.754,0.908 -26.056,-6.013c-9.116,-0.294 -17.562,-0.046 -25.198,0.859c-13.887,-3.124 -26.531,-4.516 -33.501,2.004c-7.267,-2.092 -14.943,-0.091 -22.811,3.817c25.388,4.934 42.477,5.738 51.886,2.721c13.492,-2.789 25.875,-3.941 35.876,-1.582c-7.129,3.986 -12.828,7.682 -13.011,10.263c-20.392,1.63 -36.658,7.141 -47.28,17.959c-52.447,11.736 -90.797,18.713 -102.052,16.545c-16.741,6.991 -32.781,14.345 -46.344,22.985c-22.74,1.362 -44.37,4.04 -61.619,11.912c-7.289,4.309 -15.719,8.103 -27.552,10.358l8.948,7.159l75.69,2.401Z" style="fill:#c4d6e7;"/></g><g id="field-background"><path d="M-8.615,459.887c209.305,15.853 417.951,20.199 625.802,10.626l154.912,0.559l8.843,188.572l-791.689,-8.738l2.132,-191.019Z" style="fill:#fde97f;"/><path d="M-5.546,473.224c151.387,19.439 299.861,26.07 445.468,20.097c108.601,-6.843 218.923,-9.801 331.288,-8.15l-6.83,172.486l-776.834,-6.991l6.908,-177.442Z" style="fill:#fdf48d;"/><path d="M-8.748,483.716c173.527,20.931 349.353,35.443 529.051,39.148c84.779,-1.124 167.382,-0.026 247.748,3.355l0,134.78l-779.036,-7.271l2.237,-170.012Z" style="fill:#fdea7d;"/></g><g id="trees"><path d="M405.318,365.646c0.042,0.031 0.085,0.062 0.127,0.093c1.526,0.24 2.748,0.861 3.583,1.972c0.835,3.749 -0.025,6.55 -2.056,8.694l-0.826,3.528l3.191,-2.684c2.447,-4.369 3.59,-10.004 4.316,-16.045l6.286,-13.417c3.091,-4.334 6.554,-8.869 10.04,-13.417l-1.992,4.787c-2.877,3.063 -5.308,6.18 -7.037,9.383l-5.278,13.253c-0.785,6.011 -2.136,11.781 -4.222,17.24l-44.724,26.038c-4.321,0.511 -7.987,2.547 -10.989,6.125c4.764,7.826 3.297,15.468 -3.871,22.943c23.522,-5.346 45.16,-15.997 65.285,-30.909l7.474,-21.534c3.082,-7.274 3.241,-13.095 0.225,-17.34l3.152,-16.663c0.21,-5.455 2.712,-9.35 5.705,-12.911l-1.276,4.429c-2.201,5.721 -2.445,11.724 -2.777,17.714l2.843,-11.211c4.013,-6.964 10.138,-11.795 16.185,-16.706l-9.194,10.255c-2.616,2.276 -4.252,4.864 -5.479,7.582l-3.232,21.112c0.27,8.127 -1.116,15.61 -3.014,22.895l12.097,-9.292c1.624,-1.087 1.801,-2.277 0.461,-3.574c-2.066,-3.33 -4.623,-6.583 -7.39,-9.804l-0.751,-4.054l4.25,2.681c2.129,3.368 4.256,6.354 6.38,8.686l0.384,-0.961c0.846,-3.253 2.521,-5.622 4.266,-7.917l-1.191,3.767c-0.479,1.028 -0.828,2.087 -1,3.189l0.961,-0.73c1.983,-1.187 6.134,-0.761 10.992,0.192c1.989,1.026 3.787,1.086 5.38,0.116c2.655,-1.083 5.203,-3.387 7.725,-5.996l-2.96,4.228c-2.356,2.327 -4.827,4.41 -8.685,3.535c-3.389,-1.134 -6.939,-1.657 -10.722,-1.306c-2.451,0.874 -3.793,2.315 -3.897,4.392c2.126,1.973 -1.523,6.334 -7.389,11.611l-19.02,20.001c-25.114,19.454 -54.488,32.008 -88.124,37.662c-0.823,4.72 -1.379,9.539 -1.629,14.471c-1.701,4.976 -2.573,10.214 -1.584,16.044c4.332,11.987 2.87,20.039 -6.662,22.612c-4.013,3.615 -9.111,5.975 -16.138,6.099c-21.314,2.63 -30.687,12.238 -32.651,26.177l-16.107,3.757c7.719,-17.423 13.722,-35.856 17.687,-55.487c-0.244,-4.089 0.806,-7.79 3.533,-10.987c8.043,-5.271 13.157,-11.433 16.409,-18.163c-0.092,-4.127 2.112,-6.569 5.278,-8.308c2.607,-5.897 0.863,-19.858 -0.696,-33.476c-0.258,-4.427 5.789,-7.73 17.576,-10.009c1.255,-4.61 3.67,-8.757 7.246,-12.44c3.682,-5.836 3.053,-11.915 -1.564,-18.218l-17.743,-2.001l7.794,-8.99l-0.321,-0.391l1.717,-1.219l2.134,-2.462c4.09,-0.781 6.976,-1.964 6.726,-4.195c-0.388,-1.552 -1.457,-3.068 -2.626,-4.58l1.411,0.262l1.185,1.666c1.234,1.114 2.118,2.316 1.825,3.811c-2.603,2.549 -5.986,4.132 -9.948,4.996l-0.707,0.502l-1.396,1.61l2.572,3.127l9.617,4.848l3.022,-3.944c1.788,-3.991 2.088,-9.116 1.902,-14.612l1.701,-1.201l1.976,3.102l0,8.301c-1.524,4.29 -1.708,6.946 1.281,5.739c1.339,-2.836 3.359,-5.483 5.867,-7.993l1.424,-0.559c-0.204,-0.155 -0.409,-0.309 -0.616,-0.463c-1.636,-1.295 -2.905,-2.962 -3.953,-4.854l3.148,-1.81c0.442,1.599 0.929,3.181 2.049,4.509c0.926,-1.051 1.797,-2.522 2.665,-4.022l3.433,-5.637l3.818,0.538l-2.025,4.125l-2.997,4.484c3.276,-0.3 6.64,-1.605 10.082,-3.792l0.703,-2.658l5.552,-1.72l-5.448,6.074c-3.888,1.596 -7.77,3.021 -11.642,4.181l-0.433,2.07c2.4,1.541 3.914,3.905 3.675,7.897c-4.308,5.233 -10.791,8.993 -17.749,12.432c-1.176,2.975 -1.589,6.513 -1.955,10.086c-2.279,3.906 -4.391,7.814 -5.629,11.728c0.2,4.759 -6.509,8.691 -18.062,12.041c1.91,12.02 3.129,24.058 3.477,36.119c3.572,-3.328 9.086,-5.558 15.847,-7.083c-0.111,-11.966 1.943,-21.318 5.666,-28.652c3.644,-5.631 12.452,-9.663 23.189,-13.097c0.704,-0.848 1.492,-1.667 2.356,-2.459c6.244,-11.439 19.279,-18.153 33.178,-24.266c2.356,-0.92 3.769,-2.886 4.676,-5.412c0.537,-2.82 0.018,-5.908 -0.769,-9.063l1.346,-1.249l0.864,1.056c-0.097,2.032 -0.091,4.063 0.641,6.085c1.148,-0.961 2.143,-2.472 3.067,-4.242l-0.556,-4.493l1.375,2.826c-0.268,0.574 -0.541,1.132 -0.819,1.667l0.044,0.361c0.132,0.283 0.265,0.558 0.399,0.825l-0.212,0.686c-1.241,3.537 -2.901,6.944 -4.925,10.238c5.105,0.139 8.198,-1.806 9.807,-5.287c-0.088,-0.053 -0.176,-0.105 -0.265,-0.157c-1.605,-1.027 -3.075,-2.844 -4.405,-5.48l0.685,-2.217l-0.309,-0.636c0.575,-1.23 1.129,-2.532 1.686,-3.827l-1.377,4.463l1.018,2.092c0.973,1.817 2.098,3.398 3.387,4.725c-0.127,0.359 -0.266,0.705 -0.42,1.037c0.789,0.469 1.541,0.944 2.208,1.434c-1.727,5.505 -6.995,7.835 -14.079,8.536l-19.782,10.008l-14.189,17.924c-2.038,0.876 -3.039,2.573 -2.295,5.651c2.601,-2.897 6.18,-4.853 9.945,-6.631l36.976,-21.216c2.524,-1.818 4.63,-4.972 6.055,-10.309c0.122,-1.483 -0.998,-2.765 -2.631,-3.963c0.074,-0.236 0.141,-0.477 0.202,-0.724c-0.703,-0.522 -1.365,-1.104 -1.99,-1.747c1.222,-3.458 1.237,-8.166 0.454,-13.701l2.814,3.284l-0.938,10.086c-0.066,0.735 -0.18,1.427 -0.34,2.078Zm-82.923,83.614c-4.555,1.836 -8.941,3.751 -9.419,7.516c-1.374,5.935 -8.477,10.938 -19.942,15.232c-7.518,3.497 -11.1,7.83 -8.718,13.428c0.058,5.358 -0.623,10.701 -1.904,16.033c10.506,-3.811 21.709,-6.709 33.67,-8.618c2.554,-2.141 3.112,-5.473 2.305,-9.62c-2.459,-7.074 -1.543,-12.925 0.3,-18.438c0.46,-1.512 1.241,-2.81 2.369,-3.876c-0.129,-4.066 0.253,-7.935 1.339,-11.657Zm26.704,-45.49l8.492,-3.076l-0.684,-4.398c-1.521,0.446 -3.014,0.901 -4.471,1.367c-1.559,1.88 -2.704,3.904 -3.337,6.107l-0.763,0.277c-14.555,4.926 -20.314,13.69 -18.008,33.338c3.388,-1.269 7.045,-1.756 10.843,-1.833c1.938,-3.712 5.151,-7.171 8.674,-10.567c2.614,-2.879 2.061,-7.099 -0.581,-12.203c-0.95,-3.316 -0.945,-6.299 -0.165,-9.012Zm-9.458,-48.603c1.11,0.845 2.152,1.706 3.003,2.61l0.084,1.23c-1.545,3.804 -5.167,6.917 -9.758,9.708c-0.664,0.615 -0.691,1.154 0.05,1.601c3.874,-1.38 7.758,-3.567 11.659,-7.055c0.425,-2.075 -0.493,-3.849 -2.035,-5.484l-0.25,-3.691l-2.753,1.081Z" style="fill:#261810;"/><path d="M248.729,534.28c-3.083,-20.397 -3.003,-34.411 2.192,-38.1c3.987,-7.61 5.701,-15.126 5.115,-22.547c0.542,-8.469 -1.054,-15.69 -4.567,-21.79c-1.418,-5.58 -3.271,-11.1 -5.872,-16.517c4.817,-5.051 3.729,-13.808 0.107,-24.157c-1.031,-8.158 3.588,-13.485 10.132,-17.846c7.191,-6.672 12.243,-12.163 12.637,-15.081c0.36,-4.922 2.704,-9.039 5.659,-12.909l5.934,-23.469c-3.487,-3.632 -2.924,-6.555 1.503,-8.802l8.002,-8.074l-9.099,6.225c-1.382,0.958 -2.668,1.965 -3.283,3.318l0.992,-6.944l-1.95,1.027l-0.513,3.112l0.103,2.566l-0.171,1.402c-0.684,-0.463 -1.023,-1.166 -1.198,-1.984l-1.402,-2.121l-0.479,1.745c0.622,1.83 1.495,3.345 2.805,4.31l0.204,1.276c-1.762,-0.996 -3.505,-2.424 -5.232,-4.181l-1.576,0.263l0.438,1.707c2.721,1.125 4.957,2.86 6.895,4.969l-10.766,25.517l-3.34,5.094c-0.425,0.871 -0.688,1.746 -0.581,2.626c-1.44,0.151 -1.654,-2.355 -1.334,-6.02l-3.456,-14.582l-2.855,6.728l0.612,7.339l1.28,2.237c0.258,3.023 1.067,5.938 2.886,8.658c-3.194,1.777 -6.129,3.965 -8.498,7.055c-4.414,-7.739 -13.345,-7.642 -24.307,-4.02c-3.306,-3.378 -4.34,-6.455 -2.464,-9.148c0.166,-1.302 -0.242,-2.254 -1.198,-2.873c2.268,-2.469 4.129,-5.034 4.964,-7.845c3.861,-6.236 11.654,-9.086 21.88,-9.842l10.194,-3.916l1.044,-3.393c-0.89,-5.895 0.035,-9.361 2.897,-10.236l1.443,-3.528l-3.527,0.321l-1.817,3.741c-1.296,3.024 -1.955,6.134 -1.817,9.353c-1.532,0.333 -2.789,0.887 -3.581,1.817c1.502,-2.847 2.054,-5.629 1.496,-8.337l-2.458,-2.245l-1.764,0.16l1.871,4.169c0.184,2.836 -0.655,5.306 -2.619,7.375c-3.835,0.342 -7.465,1.098 -10.796,2.459c0.988,-3.346 0.973,-6.696 0.535,-10.048l-2.192,0.054l-0.106,1.977c0.692,3.047 0.473,6.057 -1.924,8.979c-7.487,2.714 -12.527,6.472 -13.423,12.001c-1.795,1.363 -3.374,2.801 -4.709,4.29c-2.244,-1.75 -3.783,-3.858 -4.942,-6.159c-1.513,-2.236 -0.472,-4.914 1.493,-7.753c0.958,-3.492 2.702,-6.093 4.874,-8.209l0.404,-3.218l-3.675,2.254l-0.584,3.1c-1.903,3.144 -3.589,6.339 -4.843,9.632c-0.83,5.727 2.789,9.315 6.211,12.998c1.47,1.344 1.852,3.011 0.614,5.157c-0.034,2.838 0.772,4.927 2.298,6.376l-1.122,0.356c-3.013,-2.916 -6.583,-5.136 -10.675,-6.704c-1.635,-2.472 -1.506,-6.97 -0.866,-12.055c-0.69,-2.857 -0.873,-5.65 -0.868,-8.419l0.834,-6.004l-2.338,0.868l-0.134,5.812c0.502,3.596 0.73,7.134 0.211,10.515c-0.619,9.024 0.853,12.119 3.425,12.095c6.641,3.452 12.881,7.486 18.638,12.222c4.664,2.785 8.101,6.8 10.739,11.614c-2.256,6.114 -1.058,13.162 1.545,20.59l-0.507,1.039c-7.277,-1.639 -12.819,-5.763 -16.568,-12.453c-0.993,-1.287 -1.926,-5.692 -2.824,-11.985c-1.214,-4.028 -2.619,-7.471 -4.062,-10.796c-1.528,-3.699 -1.734,-9.143 -0.722,-16.193c-0.033,-3.718 -1.507,-5.589 -4.175,-5.929c-2.818,0.084 -5.682,-0.02 -8.625,-0.445c-0.908,-3.971 -0.696,-7.89 -0.448,-11.808l-1.148,-1.565l-0.626,3.757l0.104,9.499c0.813,1.995 1.929,2.591 3.236,2.297c6.888,-1.557 10.231,0.262 9.296,6.158c-1.138,8.509 -0.301,14.839 2.191,19.347c1.645,4.093 2.993,8.926 3.711,15.331c2.611,9.522 8.343,14.865 16.514,16.942c1.821,1.323 3.054,2.691 2.191,4.222c-2.479,3.906 -1.27,10.125 2.085,17.69c0.81,6.975 1.765,13.547 4.115,16.248c-0.601,5.145 -0.767,10.347 -0.107,15.659c-2.704,4.589 -5.229,9.377 -6.726,15.297c-3.802,-3.635 -7.515,-6.893 -10.606,-7.516c-3.41,-2.608 -6.133,-5.369 -7.849,-8.35c-0.76,-4.199 0.216,-8.404 1.586,-12.61c-0.454,-6.35 -2.039,-11.066 -4.258,-14.864c0.471,-6.485 -0.505,-12.114 -2.609,-17.075c0.186,-11.657 -3.085,-17.933 -9.022,-20.055c-6.267,-1.675 -12.416,-3.585 -18.366,-5.894c-10.205,-1.062 -20.867,0.593 -31.804,3.873c-3.453,0.037 -6.796,-1.52 -9.988,-5.259l-5.011,-0.167l4.51,3.758l1.002,1.587c-4.806,1.11 -9.19,2.336 -12.86,3.757c-1.71,2.006 -1.169,2.805 1.419,2.506c7.517,-2.134 13.519,-3.272 16.117,-2.172c4.471,1.329 10.815,0.021 17.787,-2.171c12.849,-1.175 22.367,1.207 30.396,5.178c3.058,1.171 5.331,3.814 6.597,8.35c0.397,3.535 1.194,7.02 2.616,10.425c-10.133,-9.465 -20.504,-15.715 -31.334,-15.787c-5.634,0.178 -8.272,-6.211 -9.333,-16.055c-1.487,-6.619 -1.443,-13.464 -0.799,-20.396c7.46,1.862 11.847,0.484 14.509,-2.714c2.61,-3.411 5.712,-5.928 9.499,-7.203c2.906,-1.289 7.329,4.46 12.004,11.378c0.822,2.998 9.84,2.04 20.668,0.209l9.499,-1.357c4.115,2.361 7.19,5.44 9.604,8.977c0.87,-2.192 2.405,-3.972 4.801,-5.219c-1.409,-4.523 -6.157,-5.529 -13.048,-4.28l-12.317,-2.401c-5.785,0.304 -11.06,0.842 -15.24,1.879c-5.307,-6.191 -10.34,-11.509 -13.987,-12.422c-4.165,0.041 -9.523,3.856 -15.658,10.125c-1.071,1.376 -3.93,1.934 -9.499,1.253c2.527,-11.289 5.454,-17.619 8.901,-17.519c5.128,-1.744 10.023,-0.763 14.85,1.036l-1.784,-1.874c-2.31,-0.929 -4.607,-1.51 -6.881,-1.47l-4.543,0.201l10.555,-4.15l-1.252,-1.357l-8.664,3.236l-2.262,0.51c0.318,-2.933 -0.28,-5.744 -1.403,-8.484l-3.073,-2.339l0.268,2.272c2.446,2.751 3.22,6.04 2.471,9.82c-4.009,2.296 -7.536,8.532 -10.445,19.811c-2.055,-4.89 -2.684,-10.231 -2.801,-15.735c-0.382,-3.33 -1.214,-6.532 -2.506,-9.603c-0.279,-4.083 0.276,-8.112 1.337,-12.108l-2.088,-3.925l-2.923,2.422l-0.751,7.933c-0.268,5.432 0.626,10.548 2.438,15.415c-0.125,5.386 0.053,10.783 1.432,16.219c-2.872,-2.847 -5.148,-6.483 -7.057,-10.601l-6.432,-13.808c-0.853,-2.238 -2.167,-3.846 -4.342,-4.275c-2.58,0.334 -5.013,1.306 -7.215,3.273l-1.737,2.472l0.935,1.403c6.007,-5.826 9.276,-6.56 10.021,-2.605c3.42,9.433 7.089,17.922 11.423,23.882c4.667,5.856 7.291,13.795 7.529,24.168c0.986,16.457 8.209,23.774 21.281,22.522c18.42,9.095 27.928,21.586 27.761,37.765c-3.461,9.804 -0.945,18.421 8.785,25.607c10.603,7.545 16.348,19.815 16.179,37.839l15.877,2.064Z" style="fill:#261610;"/><path d="M403.392,363.769l1.933,1.872l-0.202,0.732l-1.758,-0.206l-0.58,-1.469l0.607,-0.929Z" style="fill:#261810;"/><path d="M398.504,356.399l0.458,0.246l-0.155,2.932l-1.13,-0.498l0.137,-1.643l0.69,-1.037Z" style="fill:#261810;"/><path d="M355.109,396.111l2.062,-0.118l0.575,5.617l-10.98,2.829l4.967,-6.401l3.376,-1.927Z" style="fill:#261810;"/><path d="M224.888,383.653l6.962,1.496l-1.151,3.223l-12.15,-1.124l-1.045,-4.452l7.384,0.857Z" style="fill:#261610;"/><path d="M213.846,383.727l1.217,4.899l-2.837,0.373l-1.602,-1.909l0.795,-3.078l2.427,-0.285Z" style="fill:#261610;"/><path d="M219.707,382.431l0.155,2.167l-1.53,1.05l-1.882,-0.776l0.9,-1.981l2.357,-0.46Z" style="fill:#261610;"/><path d="M213.069,376.775l2.051,5.049l-2.387,-0.61l-2.594,-2.053l1.046,-1.926l1.884,-0.46Z" style="fill:#261610;"/><path d="M206.47,365.76l0.237,1.38l-0.736,1.4l-1.803,-0.896l0.15,-1.372l2.152,-0.512Z" style="fill:#261610;"/><path d="M164.313,409.042l5.208,2.544l-7.212,6.439l-3.422,-2.788l0.219,-7.962l5.207,1.767Z" style="fill:#261610;"/></g><path id="field-foreground" d="M-7.591,502.48c96.415,34.522 192.244,55.841 287.296,59.665c118.299,8.888 233.656,37.525 347.294,77.704c57.087,7.054 108.997,21.601 155.288,44.279l6.991,163.815l-810.913,-4.349l14.044,-341.114Z" style="fill:#fddf6e;"/><g id="leaves"><path d="M145.767,339.162c-0.22,-3.23 5.262,-10.732 11.532,-14.847c6.27,-4.114 11.485,-3.631 14.361,-2.144c4.408,-4.352 16.228,-9.929 21.534,-10.367c5.305,-0.437 2.535,4.393 0.375,8.56c5.717,-2.197 11.006,-0.38 11.352,3.188c0.346,3.569 -4.354,7.84 -9.924,11.549c2.72,1.613 -1.884,10.893 -6.758,15.781c-4.875,4.887 -8.586,3.945 -13.371,4.403c-2.325,4.208 -7.151,8.618 -13.574,11.144c-6.424,2.526 -12.558,2.426 -12.955,-0.712c-5.618,3.634 -12.21,5.879 -15.346,4.142c-3.136,-1.738 -1.895,-6.947 2.395,-11.317c-4.682,0.323 -4.851,-3.673 -2.338,-8.366c2.513,-4.692 6.97,-8.702 12.717,-11.014Z" style="fill:url(#_Linear2);"/><path d="M32.498,379.18c0.468,-4.742 8.321,-12.333 16.312,-14.633c7.99,-2.299 13.771,1.369 16.688,5.138c5.941,-3.703 20.523,-4.923 26.61,-2.518c6.086,2.404 1.889,7.727 -1.474,12.448c6.941,0.125 12.51,5.743 12.109,11.041c-0.401,5.297 -6.654,8.718 -13.765,10.836c2.714,3.86 -4.542,14.494 -11.129,18.696c-6.586,4.201 -10.568,0.735 -16.071,-1.344c-3.557,4.687 -9.984,8.233 -17.796,8.175c-7.812,-0.058 -14.715,-3.705 -14.467,-8.416c-7.149,1.985 -15.089,1.429 -18.244,-2.845c-3.155,-4.274 -0.599,-11.011 5.214,-14.807c-5.358,-2.212 -4.664,-8.02 -0.786,-13.292c3.878,-5.271 9.799,-8.457 16.799,-8.479Z" style="fill:url(#_Linear3);"/><path d="M89.817,337.963c1.184,-3.246 9.871,-8.267 17.87,-9.651c7.998,-1.383 12.957,1.278 15.162,3.938c6.257,-2.397 20.392,-2.878 25.839,-1.077c5.448,1.801 0.608,5.353 -3.341,8.514c6.618,0.256 11.073,4.251 9.867,7.88c-1.205,3.629 -7.716,5.825 -14.845,7.106c1.996,2.717 -6.593,9.844 -13.544,12.568c-6.951,2.724 -10.221,0.246 -15.162,-1.317c-4.129,3.132 -10.825,5.411 -18.287,5.179c-7.462,-0.232 -13.497,-2.905 -12.529,-6.135c-7.145,1.188 -14.652,0.612 -17.006,-2.402c-2.355,-3.013 1.135,-7.577 7.283,-10.042c-4.781,-1.65 -3.215,-5.623 1.311,-9.149c4.527,-3.525 10.684,-5.568 17.382,-5.412Z" style="fill:url(#_Linear4);"/><path d="M130.688,296.463c0.508,-3.969 7.688,-10.464 14.894,-12.542c7.205,-2.079 12.318,0.869 14.862,3.957c5.395,-3.209 18.488,-4.518 23.899,-2.631c5.41,1.887 1.548,6.414 -1.554,10.423c6.219,-0.033 11.106,4.547 10.647,8.978c-0.458,4.432 -6.127,7.412 -12.54,9.322c2.36,3.169 -4.342,12.192 -10.325,15.831c-5.982,3.64 -9.486,0.825 -14.38,-0.802c-3.276,3.984 -9.102,7.073 -16.104,7.18c-7.001,0.106 -13.12,-2.801 -12.81,-6.74c-6.445,1.8 -13.551,1.494 -16.3,-2.013c-2.748,-3.506 -0.331,-9.182 4.95,-12.467c-4.761,-1.74 -4.03,-6.604 -0.455,-11.082c3.574,-4.479 8.941,-7.257 15.216,-7.414Z" style="fill:url(#_Linear5);"/><path d="M191.059,342.857c0.78,-3.028 8.274,-8.434 15.479,-10.512c7.206,-2.079 12.004,-0.22 14.277,1.928c5.512,-2.803 18.43,-4.719 23.596,-3.681c5.166,1.038 1.062,4.725 -2.262,7.968c6.094,-0.467 10.555,2.639 9.792,6.012c-0.764,3.373 -6.528,6.023 -12.946,7.918c2.087,2.221 -5.119,9.499 -11.237,12.668c-6.118,3.168 -9.35,1.295 -14.029,0.416c-3.492,3.236 -9.418,5.978 -16.283,6.556c-6.866,0.577 -12.653,-1.18 -12.07,-4.171c-6.441,1.814 -13.379,2.088 -15.822,-0.36c-2.443,-2.448 0.327,-6.899 5.733,-9.75c-4.54,-0.974 -3.478,-4.692 0.341,-8.322c3.819,-3.63 9.273,-6.105 15.431,-6.67Z" style="fill:url(#_Linear6);"/><path d="M211.338,315.079c1.647,-2.658 10.412,-5.584 17.909,-5.42c7.498,0.165 11.524,3.37 13.053,6.098c6.097,-1.032 18.999,0.991 23.62,3.522c4.621,2.531 -0.396,4.826 -4.535,6.93c5.956,1.372 9.289,5.667 7.554,8.659c-1.735,2.992 -8.027,3.802 -14.718,3.698c1.33,2.742 -7.718,7.541 -14.503,8.741c-6.784,1.199 -9.311,-1.552 -13.515,-3.786c-4.297,2.048 -10.772,2.899 -17.497,1.403c-6.725,-1.496 -11.725,-4.899 -10.277,-7.58c-6.689,-0.189 -13.394,-1.996 -14.996,-5.061c-1.602,-3.065 2.37,-6.487 8.38,-7.597c-4.043,-2.283 -1.921,-5.516 2.807,-7.842c4.727,-2.326 10.671,-3.063 16.718,-1.765Z" style="fill:url(#_Linear7);"/><path d="M266.882,299.171c2.218,-2.972 11.51,-5.057 18.862,-3.578c7.352,1.478 10.603,6.086 11.5,9.684c6.239,-0.223 18.501,4.45 22.489,8.334c3.988,3.884 -1.47,5.838 -6.02,7.706c5.563,2.694 7.887,8.516 5.508,11.881c-2.379,3.365 -8.761,3.284 -15.332,2.016c0.697,3.582 -9.293,7.911 -16.248,8.222c-6.954,0.312 -8.829,-3.485 -12.472,-6.934c-4.694,1.773 -11.265,1.71 -17.558,-1.266c-6.293,-2.976 -10.459,-7.991 -8.432,-11.025c-6.549,-1.371 -12.753,-4.725 -13.646,-8.748c-0.893,-4.022 3.787,-7.532 9.958,-7.866c-3.474,-3.482 -0.659,-7.075 4.52,-9.116c5.18,-2.04 11.203,-1.928 16.871,0.69Z" style="fill:url(#_Linear8);"/><path d="M267.967,345.961c1.968,-2.774 12.088,-5.564 20.658,-5.105c8.57,0.458 13.072,4.031 14.734,6.999c7.007,-0.87 21.699,1.776 26.903,4.652c5.205,2.875 -0.607,5.135 -5.409,7.224c6.769,1.689 10.443,6.397 8.363,9.524c-2.079,3.127 -9.303,3.754 -16.952,3.389c1.433,2.977 -9.07,7.755 -16.868,8.779c-7.798,1.024 -10.6,-2.008 -15.337,-4.551c-4.981,2.023 -12.414,2.686 -20.058,0.835c-7.645,-1.85 -13.255,-5.67 -11.512,-8.476c-7.645,-0.455 -15.256,-2.637 -16.99,-5.968c-1.734,-3.331 2.918,-6.832 9.828,-7.789c-4.551,-2.589 -2.02,-5.959 3.461,-8.262c5.482,-2.303 12.305,-2.864 19.179,-1.251Z" style="fill:url(#_Linear9);"/><path d="M307.821,283.439c1.565,-3.02 11.201,-7.185 19.752,-7.918c8.551,-0.733 13.505,2.181 15.561,4.891c6.819,-1.833 21.736,-1.247 27.289,0.879c5.553,2.127 0.11,5.171 -4.356,7.904c6.937,0.735 11.228,4.889 9.602,8.274c-1.627,3.385 -8.694,5.006 -16.32,5.705c1.832,2.749 -7.908,8.937 -15.489,11.031c-7.581,2.094 -10.776,-0.52 -15.82,-2.382c-4.653,2.693 -11.922,4.379 -19.749,3.606c-7.827,-0.774 -13.912,-3.78 -12.575,-6.8c-7.634,0.609 -15.474,-0.498 -17.653,-3.557c-2.178,-3.058 1.944,-7.17 8.655,-9.075c-4.867,-1.934 -2.827,-5.621 2.283,-8.662c5.11,-3.041 11.789,-4.541 18.82,-3.896Z" style="fill:url(#_Linear10);"/><path d="M320.925,313.732c2.036,-3.596 12.23,-7.288 20.797,-6.777c8.567,0.512 12.99,5.076 14.584,8.888c7.033,-1.188 21.676,2.086 26.819,5.745c5.142,3.659 -0.728,6.628 -5.583,9.365c6.735,2.115 10.302,8.152 8.148,12.203c-2.155,4.051 -9.4,4.927 -17.048,4.529c1.365,3.824 -9.259,10.084 -17.088,11.477c-7.829,1.393 -10.563,-2.49 -15.245,-5.724c-5.033,2.655 -12.488,3.579 -20.096,1.265c-7.608,-2.314 -13.133,-7.187 -11.323,-10.822c-7.641,-0.514 -15.208,-3.257 -16.866,-7.536c-1.658,-4.279 3.08,-8.837 10.019,-10.135c-4.495,-3.296 -1.883,-7.664 3.658,-10.685c5.541,-3.022 12.382,-3.809 19.224,-1.793Z" style="fill:url(#_Linear11);"/><path d="M375.374,291.51c2.649,-2.965 13.314,-4.419 21.62,-2.261c8.306,2.159 11.814,7.297 12.684,11.177c7.111,0.268 20.873,6.204 25.249,10.636c4.377,4.433 -1.917,6.058 -7.174,7.667c6.219,3.3 8.62,9.648 5.771,13.016c-2.848,3.367 -10.109,2.765 -17.535,0.893c0.643,3.845 -10.91,7.618 -18.839,7.385c-7.928,-0.232 -9.903,-4.401 -13.906,-8.346c-5.416,1.496 -12.893,0.899 -19.932,-2.759c-7.038,-3.658 -11.57,-9.301 -9.136,-12.347c-7.397,-1.98 -14.318,-6.03 -15.166,-10.359c-0.848,-4.328 4.625,-7.663 11.664,-7.517c-3.809,-3.965 -0.454,-7.54 5.527,-9.279c5.981,-1.74 12.831,-1.135 19.173,2.094Z" style="fill:url(#_Linear12);"/><path d="M385.777,332.73c1.831,-2.035 9.752,-3.169 16.093,-1.834c6.342,1.335 9.24,4.747 10.095,7.347c5.347,0.079 15.976,3.88 19.49,6.803c3.513,2.923 -1.121,4.109 -4.979,5.269c4.835,2.133 6.968,6.376 5.008,8.686c-1.96,2.31 -7.436,2.009 -13.102,0.854c0.683,2.581 -7.783,5.289 -13.74,5.247c-5.958,-0.043 -7.656,-2.823 -10.864,-5.423c-3.983,1.086 -9.621,0.791 -15.09,-1.572c-5.469,-2.363 -9.162,-6.1 -7.496,-8.187c-5.651,-1.228 -11.052,-3.857 -11.914,-6.761c-0.862,-2.904 3.068,-5.23 8.353,-5.232c-3.063,-2.617 -0.734,-5.073 3.659,-6.332c4.394,-1.258 9.563,-0.949 14.487,1.135Z" style="fill:url(#_Linear13);"/><path d="M449.536,318.802c2.671,-2.397 14.722,-3.285 24.515,-1.223c9.793,2.062 14.45,6.466 15.928,9.737c8.189,0.444 24.705,5.833 30.273,9.674c5.567,3.841 -1.45,5.007 -7.28,6.19c7.541,2.951 11.08,8.334 8.23,11.062c-2.85,2.728 -11.252,2.001 -20,0.206c1.214,3.236 -11.569,6.034 -20.69,5.595c-9.122,-0.44 -11.903,-3.987 -16.981,-7.409c-6.026,1.084 -14.675,0.354 -23.199,-2.922c-8.525,-3.276 -14.42,-8.135 -12.005,-10.606c-8.729,-1.885 -17.166,-5.485 -18.675,-9.131c-1.508,-3.646 4.357,-6.266 12.447,-5.926c-4.858,-3.434 -1.454,-6.319 5.19,-7.59c6.644,-1.27 14.575,-0.552 22.247,2.343Z" style="fill:url(#_Linear14);"/><path d="M368.498,379.72c0.779,-3.084 7.271,-7.664 13.381,-8.77c6.111,-1.106 10.045,1.587 11.855,4.203c4.725,-2.128 15.605,-2.196 19.88,-0.315c4.275,1.88 0.689,5.157 -2.225,8.082c5.114,0.43 8.714,4.391 7.934,7.842c-0.78,3.451 -5.71,5.379 -11.154,6.41c1.651,2.665 -4.678,9.269 -9.925,11.692c-5.247,2.422 -7.871,-0.048 -11.746,-1.687c-3.054,2.893 -8.124,4.894 -13.887,4.464c-5.764,-0.43 -10.528,-3.165 -9.915,-6.24c-5.461,0.942 -11.273,0.18 -13.213,-2.779c-1.94,-2.959 0.563,-7.245 5.202,-9.44c-3.755,-1.718 -2.711,-5.489 0.634,-8.749c3.344,-3.259 8.008,-5.05 13.179,-4.713Z" style="fill:url(#_Linear15);"/><path d="M427.796,383.138c2.307,-2.355 11.521,-3.217 18.673,-1.182c7.153,2.034 10.141,6.368 10.864,9.585c6.135,0.443 17.967,5.754 21.712,9.535c3.744,3.781 -1.699,4.921 -6.248,6.079c5.343,2.908 7.368,8.202 4.886,10.882c-2.483,2.68 -8.745,1.958 -15.139,0.186c0.527,3.182 -9.47,5.922 -16.311,5.483c-6.84,-0.439 -8.514,-3.928 -11.939,-7.297c-4.685,1.061 -11.133,0.336 -17.18,-2.891c-6.047,-3.228 -9.917,-8.009 -7.794,-10.437c-6.369,-1.86 -12.312,-5.406 -13.012,-8.992c-0.7,-3.585 4.047,-6.156 10.12,-5.816c-3.257,-3.379 -0.337,-6.213 4.837,-7.457c5.174,-1.243 11.082,-0.531 16.531,2.322Z" style="fill:url(#_Linear16);"/><path d="M70.892,314.585c0.661,-3.447 8.019,-9.333 15.226,-11.407c7.207,-2.073 12.144,0.274 14.536,2.843c5.462,-2.98 18.459,-4.617 23.733,-3.197c5.274,1.42 1.275,5.479 -1.953,9.06c6.15,-0.269 10.798,3.497 10.168,7.341c-0.63,3.845 -6.354,6.638 -12.771,8.535c2.207,2.645 -4.78,10.696 -10.84,14.07c-6.06,3.374 -9.412,1.079 -14.186,-0.137c-3.398,3.567 -9.281,6.46 -16.207,6.823c-6.927,0.363 -12.86,-1.911 -12.396,-5.324c-6.444,1.803 -13.458,1.814 -16.035,-1.107c-2.577,-2.922 0.04,-7.917 5.392,-10.957c-4.638,-1.319 -3.72,-5.547 -0.007,-9.553c3.712,-4.005 9.129,-6.611 15.34,-6.99Z" style="fill:url(#_Linear17);"/><path d="M93.755,371.001c0.889,-2.653 8.512,-7.62 15.719,-9.694c7.207,-2.073 11.879,-0.645 14.043,1.13c5.561,-2.637 18.41,-4.786 23.478,-4.083c5.068,0.704 0.865,4.054 -2.549,6.989c6.045,-0.635 10.335,1.886 9.448,4.837c-0.887,2.951 -6.692,5.465 -13.112,7.35c1.977,1.845 -5.434,8.424 -11.609,11.4c-6.174,2.976 -9.297,1.476 -13.889,0.892c-3.58,2.936 -9.548,5.536 -16.36,6.296c-6.811,0.761 -12.465,-0.542 -11.772,-3.156c-6.44,1.816 -13.313,2.316 -15.633,0.288c-2.32,-2.029 0.594,-5.989 6.052,-8.664c-4.451,-0.672 -3.256,-3.933 0.663,-7.223c3.919,-3.289 9.409,-5.64 15.521,-6.362Z" style="fill:url(#_Linear18);"/><path d="M103.99,389.312c0.643,-3.932 8.463,-10.517 16.198,-12.742c7.734,-2.226 13.11,0.562 15.744,3.55c5.833,-3.298 19.825,-4.905 25.545,-3.172c5.721,1.733 1.488,6.296 -1.922,10.329c6.631,-0.182 11.725,4.223 11.124,8.609c-0.602,4.387 -6.721,7.466 -13.607,9.506c2.436,3.072 -4.94,12.143 -11.41,15.88c-6.47,3.737 -10.134,1.042 -15.311,-0.447c-3.593,4.013 -9.884,7.203 -17.35,7.476c-7.467,0.274 -13.917,-2.45 -13.486,-6.347c-6.917,1.932 -14.485,1.8 -17.326,-1.596c-2.841,-3.396 -0.12,-9.058 5.594,-12.428c-5.032,-1.604 -4.128,-6.424 -0.204,-10.932c3.925,-4.509 9.717,-7.38 16.411,-7.686Z" style="fill:url(#_Linear19);"/><path d="M441.089,343.895c1.689,-2.225 8.689,-3.737 14.205,-2.576c5.515,1.161 7.925,4.654 8.573,7.371c4.692,-0.128 13.875,3.472 16.845,6.425c2.97,2.952 -1.147,4.39 -4.58,5.769c4.162,2.065 5.866,6.467 4.054,8.988c-1.813,2.52 -6.609,2.419 -11.539,1.421c0.498,2.704 -7.043,5.902 -12.273,6.093c-5.229,0.19 -6.611,-2.683 -9.325,-5.306c-3.54,1.306 -8.479,1.217 -13.188,-1.066c-4.709,-2.283 -7.804,-6.089 -6.259,-8.362c-4.913,-1.075 -9.552,-3.642 -10.194,-6.679c-0.642,-3.037 2.901,-5.652 7.542,-5.864c-2.586,-2.647 -0.445,-5.337 3.463,-6.841c3.909,-1.505 8.435,-1.382 12.676,0.627Z" style="fill:url(#_Linear20);"/></g></g><defs><linearGradient id="_Linear2" x1="0" y1="0" x2="1" y2="0" gradientUnits="userSpaceOnUse" gradientTransform="matrix(72.1956,-47.3747,21.7063,33.0788,129.947,365.925)"><stop offset="0" style="stop-color:#d2cd27;stop-opacity:1"/><stop offset="1" style="stop-color:#4b6a00;stop-opacity:1"/></linearGradient><linearGradient id="_Linear3" x1="0" y1="0" x2="1" y2="0" gradientUnits="userSpaceOnUse" gradientTransform="matrix(92.0109,-26.4761,17.1714,59.6747,8.70486,408.395)"><stop offset="0" style="stop-color:#d2cd27;stop-opacity:1"/><stop offset="1" style="stop-color:#4b6a00;stop-opacity:1"/></linearGradient><linearGradient id="_Linear4" x1="0" y1="0" x2="1" y2="0" gradientUnits="userSpaceOnUse" gradientTransform="matrix(92.1025,-15.9299,7.16201,41.4088,62.5289,357.447)"><stop offset="0" style="stop-color:#d2cd27;stop-opacity:1"/><stop offset="1" style="stop-color:#4b6a00;stop-opacity:1"/></linearGradient><linearGradient id="_Linear5" x1="0" y1="0" x2="1" y2="0" gradientUnits="userSpaceOnUse" gradientTransform="matrix(82.9678,-23.9359,14.2764,49.4855,108.815,321.33)"><stop offset="0" style="stop-color:#d2cd27;stop-opacity:1"/><stop offset="1" style="stop-color:#4b6a00;stop-opacity:1"/></linearGradient><linearGradient id="_Linear6" x1="0" y1="0" x2="1" y2="0" gradientUnits="userSpaceOnUse" gradientTransform="matrix(82.9678,-23.9359,10.4698,36.291,167.868,363.157)"><stop offset="0" style="stop-color:#d2cd27;stop-opacity:1"/><stop offset="1" style="stop-color:#4b6a00;stop-opacity:1"/></linearGradient><linearGradient id="_Linear7" x1="0" y1="0" x2="1" y2="0" gradientUnits="userSpaceOnUse" gradientTransform="matrix(86.3308,1.89023,-0.826807,37.762,183.149,327.54)"><stop offset="0" style="stop-color:#d2cd27;stop-opacity:1"/><stop offset="1" style="stop-color:#4b6a00;stop-opacity:1"/></linearGradient><linearGradient id="_Linear8" x1="0" y1="0" x2="1" y2="0" gradientUnits="userSpaceOnUse" gradientTransform="matrix(84.6565,17.0253,-9.26293,46.059,236.314,309.613)"><stop offset="0" style="stop-color:#d2cd27;stop-opacity:1"/><stop offset="1" style="stop-color:#4b6a00;stop-opacity:1"/></linearGradient><linearGradient id="_Linear9" x1="0" y1="0" x2="1" y2="0" gradientUnits="userSpaceOnUse" gradientTransform="matrix(98.6833,5.28227,-2.15515,40.2624,235.326,358.192)"><stop offset="0" style="stop-color:#d2cd27;stop-opacity:1"/><stop offset="1" style="stop-color:#4b6a00;stop-opacity:1"/></linearGradient><linearGradient id="_Linear10" x1="0" y1="0" x2="1" y2="0" gradientUnits="userSpaceOnUse" gradientTransform="matrix(98.4635,-8.44014,3.44354,40.1727,277.189,300.074)"><stop offset="0" style="stop-color:#d2cd27;stop-opacity:1"/><stop offset="1" style="stop-color:#4b6a00;stop-opacity:1"/></linearGradient><linearGradient id="_Linear11" x1="0" y1="0" x2="1" y2="0" gradientUnits="userSpaceOnUse" gradientTransform="matrix(98.6491,5.88636,-3.09891,51.9345,287.969,329.808)"><stop offset="0" style="stop-color:#d2cd27;stop-opacity:1"/><stop offset="1" style="stop-color:#4b6a00;stop-opacity:1"/></linearGradient><linearGradient id="_Linear12" x1="0" y1="0" x2="1" y2="0" gradientUnits="userSpaceOnUse" gradientTransform="matrix(95.6466,24.8602,-12.4715,47.9826,340.144,300.085)"><stop offset="0" style="stop-color:#d2cd27;stop-opacity:1"/><stop offset="1" style="stop-color:#4b6a00;stop-opacity:1"/></linearGradient><linearGradient id="_Linear13" x1="0" y1="0" x2="1" y2="0" gradientUnits="userSpaceOnUse" gradientTransform="matrix(73.0196,15.3726,-6.84347,32.5065,359.808,339.015)"><stop offset="0" style="stop-color:#d2cd27;stop-opacity:1"/><stop offset="1" style="stop-color:#4b6a00;stop-opacity:1"/></linearGradient><linearGradient id="_Linear14" x1="0" y1="0" x2="1" y2="0" gradientUnits="userSpaceOnUse" gradientTransform="matrix(112.764,23.7399,-8.36631,39.74,410.195,324.886)"><stop offset="0" style="stop-color:#d2cd27;stop-opacity:1"/><stop offset="1" style="stop-color:#4b6a00;stop-opacity:1"/></linearGradient><linearGradient id="_Linear15" x1="0" y1="0" x2="1" y2="0" gradientUnits="userSpaceOnUse" gradientTransform="matrix(70.3631,-12.7338,7.23204,39.962,348.26,397.67)"><stop offset="0" style="stop-color:#d2cd27;stop-opacity:1"/><stop offset="1" style="stop-color:#4b6a00;stop-opacity:1"/></linearGradient><linearGradient id="_Linear16" x1="0" y1="0" x2="1" y2="0" gradientUnits="userSpaceOnUse" gradientTransform="matrix(82.3567,23.4309,-11.113,39.061,397.331,389.087)"><stop offset="0" style="stop-color:#d2cd27;stop-opacity:1"/><stop offset="1" style="stop-color:#4b6a00;stop-opacity:1"/></linearGradient><linearGradient id="_Linear17" x1="0" y1="0" x2="1" y2="0" gradientUnits="userSpaceOnUse" gradientTransform="matrix(82.9843,-23.8787,12.1369,42.1786,48.2728,336.904)"><stop offset="0" style="stop-color:#d2cd27;stop-opacity:1"/><stop offset="1" style="stop-color:#4b6a00;stop-opacity:1"/></linearGradient><linearGradient id="_Linear18" x1="0" y1="0" x2="1" y2="0" gradientUnits="userSpaceOnUse" gradientTransform="matrix(82.9843,-23.8787,8.93267,31.0432,70.0266,389.465)"><stop offset="0" style="stop-color:#d2cd27;stop-opacity:1"/><stop offset="1" style="stop-color:#4b6a00;stop-opacity:1"/></linearGradient><linearGradient id="_Linear19" x1="0" y1="0" x2="1" y2="0" gradientUnits="userSpaceOnUse" gradientTransform="matrix(89.0618,-25.6275,13.9614,48.5192,80.0383,414.391)"><stop offset="0" style="stop-color:#d2cd27;stop-opacity:1"/><stop offset="1" style="stop-color:#4b6a00;stop-opacity:1"/></linearGradient><linearGradient id="_Linear20" x1="0" y1="0" x2="1" y2="0" gradientUnits="userSpaceOnUse" gradientTransform="matrix(63.5109,13.3707,-7.29479,34.6502,418.037,351.569)"><stop offset="0" style="stop-color:#d2cd27;stop-opacity:1"/><stop offset="1" style="stop-color:#4b6a00;stop-opacity:1"/></linearGradient></defs></svg>