<?xml version="1.0" encoding="UTF-8" standalone="no"?><!DOCTYPE svg PUBLIC "-//W3C//DTD SVG 1.1//EN" "http://www.w3.org/Graphics/SVG/1.1/DTD/svg11.dtd"><svg width="100%" height="100%" viewBox="0 0 518 445" version="1.1" xmlns="http://www.w3.org/2000/svg" xmlns:xlink="http://www.w3.org/1999/xlink" xml:space="preserve" xmlns:serif="http://www.serif.com/" style="fill-rule:evenodd;clip-rule:evenodd;stroke-linecap:round;stroke-linejoin:round;stroke-miterlimit:1.5;"><path d="M513.981,20.077c0,-9.677 -7.857,-17.534 -17.534,-17.534l-151.896,-1.543l-171.662,5.127l-151.462,-3.584c-9.677,0 -17.534,7.857 -17.534,17.534l2.24,115.865l-5.133,155.688l2.893,131.722c0,9.677 7.857,17.534 17.534,17.534l141.362,-5.6l212.282,8.061l121.376,-2.461c9.677,0 17.534,-7.857 17.534,-17.534l2.239,-62.848l-3.013,-202.698l3.743,-67.75l-2.969,-69.979Z" style="fill:#fcca7f;stroke:#cb8d2d;stroke-width:2px;"/><path d="M4.6,56.63l4.654,9.317l-4.394,4.144" style="fill:#cb8e2c;stroke:#cb8e2c;stroke-width:2px;"/><path d="M277.738,439.651l9.172,-6.711l3.097,7.177" style="fill:#cb8e2c;stroke:#cb8e2c;stroke-width:2px;"/><path d="M515.851,64.142l-6.682,2.524l7.022,5.498" style="fill:#cb8e2c;stroke:#cb8e2c;stroke-width:2px;"/><path d="M213.196,4.923l4.234,5.618l0.184,-5.688" style="fill:#cb8e2c;stroke:#cb8e2c;stroke-width:2px;"/><g id="hives"><path d="M238.05,97.424c21.523,-9.46 47.162,-8.199 75.718,0.657l0.281,7.506c-3.192,3.265 -7.797,5.335 -14.168,5.911c-20.898,1.626 -41.57,1.097 -61.738,-4.222l-0.093,-9.852Z" style="fill:none;stroke:#cb8d2d;stroke-width:2px;"/><path d="M237.205,127.355c27.24,-6.064 53.499,-7.064 78.252,-0.281c4.043,3.505 2.726,6.799 -4.692,9.851c-23.395,4.58 -47.882,3.9 -72.997,0.188l-0.563,-9.758Z" style="fill:none;stroke:#cb8d2d;stroke-width:2px;"/><path d="M238.706,157.38c23.612,-8.635 46.614,-9.829 69.151,-5.348c11.934,5.725 12.219,11.07 1.126,16.044c-23.517,6.329 -47.166,5.074 -70.933,-3.003l0.656,-7.693Z" style="fill:none;stroke:#cb8d2d;stroke-width:2px;"/><path d="M230.919,191.72c38.089,-8.657 70.067,-11.114 88.666,0c-16.002,17.696 -47.83,17.711 -88.385,7.976l-0.281,-7.976Z" style="fill:none;stroke:#cb8d2d;stroke-width:2px;"/><path d="M230.45,229.345c30.597,-10.314 60.321,-10.333 89.135,0.375c2.293,4.265 1.428,7.105 -2.346,8.632c-26.837,10.207 -55.393,9.934 -85.288,1.501l-1.501,-10.508Z" style="fill:none;stroke:#cb8d2d;stroke-width:2px;"/><path d="M231.106,272.599c31.387,-13.413 60.871,-12.873 88.291,2.815l-0.187,6.474c-29.778,9.609 -59.19,9.457 -88.197,-1.501l0.093,-7.788Z" style="fill:none;stroke:#cb8d2d;stroke-width:2px;"/><path d="M225.101,315.29c40.05,-13.581 70.987,-11.996 92.514,5.255c-7.348,13.939 -40.936,14.247 -92.607,5.16l0.093,-10.415" style="fill:none;stroke:#cb8d2d;stroke-width:2px;"/><path d="M223.788,365.957c55.22,-10.972 91.007,-10.955 98.987,4.785c-14.155,14.869 -50.161,15.237 -99.644,6.662l0.657,-11.447Z" style="fill:none;stroke:#cb8d2d;stroke-width:2px;"/></g><path id="person" d="M70.974,126.483c0.064,-14.163 7.58,-23.285 22.907,-27.121c17.553,-1.183 30.02,0.563 34.086,7.147c3.98,7.28 6.638,14.74 6.78,22.54l5.423,9.419c-0.983,1.87 -2.474,3.226 -4.879,3.66l-1.032,5.254c-0.134,4.151 -1.673,6.137 -4.222,6.568c-11.835,1.715 -21.723,4.546 -19.61,14.261c16.494,2.461 29.347,6.496 37.906,12.386c4.522,-3.187 6.603,-7.23 6.849,-11.916l18.484,-25.052c3.218,1.78 5.935,3.947 8.069,6.568c-1.136,2.481 -2.637,4.931 -4.879,7.318c1.234,4.865 0.55,9.396 -2.533,13.511c0.766,5.484 -1.069,9.97 -6.099,13.23c-4.54,5.828 -8.392,11.811 -11.259,18.015c4.307,7.906 9.63,15.181 16.513,21.486c6.327,-10.172 14.331,-20.293 22.8,-30.4c-2.437,-17.542 4.612,-31.824 18.049,-43.911c4.926,-0.162 5.284,4.461 3.566,11.259c-3.357,2.582 -5.925,5.421 -5.63,9.195c2.996,-0.117 4.239,1.213 4.129,3.66c0.362,10.812 -1.922,19.978 -8.07,26.74c-9.778,22.251 -20.212,40.245 -31.525,52.543c-11.277,-4.353 -21.401,-14.435 -30.588,-29.18c-5.567,10.351 -11.816,19.806 -18.841,28.242c-1.088,1.234 -2.561,1.155 -4.598,-0.844l-5.63,-5.818c-2.998,7.459 -6.193,14.382 -9.664,20.548c-1.445,10.612 -3.778,20.805 -7.975,30.119c39.188,26.206 73.573,54.321 95.02,87.573c1.522,15.449 -3.752,23.077 -19.048,19.169c-36.259,-16.445 -74.785,-29.878 -115.67,-40.181c-2.703,0.504 -4.716,1.848 -5.147,5.118c-0.948,7.808 -1.148,14.806 -1.313,21.767c1.439,4.115 3.599,7.521 6.849,9.852l6.38,-1.313c0.015,3.765 -1.031,6.023 -3.284,6.568c-10.309,2.611 -18.227,-0.297 -23.55,-9.196c-0.684,-20.011 -2.777,-37.232 -9.102,-46.068c-0.863,-7.461 3.338,-11.031 10.791,-12.104l15.199,0.657c-8.17,-4.509 -12.536,-10.723 -14.074,-18.203c-2.837,-15.246 -0.455,-29.274 5.349,-42.503c4.424,-22.61 6.781,-46.603 8.35,-71.121c2.56,-14.452 8.285,-29.469 20.267,-45.6c3.048,-11.159 -0.54,-22.483 -5.544,-33.842Z" style="fill:none;"/><clipPath id="_clip1"><path id="person1" serif:id="person" d="M70.974,126.483c0.064,-14.163 7.58,-23.285 22.907,-27.121c17.553,-1.183 30.02,0.563 34.086,7.147c3.98,7.28 6.638,14.74 6.78,22.54l5.423,9.419c-0.983,1.87 -2.474,3.226 -4.879,3.66l-1.032,5.254c-0.134,4.151 -1.673,6.137 -4.222,6.568c-11.835,1.715 -21.723,4.546 -19.61,14.261c16.494,2.461 29.347,6.496 37.906,12.386c4.522,-3.187 6.603,-7.23 6.849,-11.916l18.484,-25.052c3.218,1.78 5.935,3.947 8.069,6.568c-1.136,2.481 -2.637,4.931 -4.879,7.318c1.234,4.865 0.55,9.396 -2.533,13.511c0.766,5.484 -1.069,9.97 -6.099,13.23c-4.54,5.828 -8.392,11.811 -11.259,18.015c4.307,7.906 9.63,15.181 16.513,21.486c6.327,-10.172 14.331,-20.293 22.8,-30.4c-2.437,-17.542 4.612,-31.824 18.049,-43.911c4.926,-0.162 5.284,4.461 3.566,11.259c-3.357,2.582 -5.925,5.421 -5.63,9.195c2.996,-0.117 4.239,1.213 4.129,3.66c0.362,10.812 -1.922,19.978 -8.07,26.74c-9.778,22.251 -20.212,40.245 -31.525,52.543c-11.277,-4.353 -21.401,-14.435 -30.588,-29.18c-5.567,10.351 -11.816,19.806 -18.841,28.242c-1.088,1.234 -2.561,1.155 -4.598,-0.844l-5.63,-5.818c-2.998,7.459 -6.193,14.382 -9.664,20.548c-1.445,10.612 -3.778,20.805 -7.975,30.119c39.188,26.206 73.573,54.321 95.02,87.573c1.522,15.449 -3.752,23.077 -19.048,19.169c-36.259,-16.445 -74.785,-29.878 -115.67,-40.181c-2.703,0.504 -4.716,1.848 -5.147,5.118c-0.948,7.808 -1.148,14.806 -1.313,21.767c1.439,4.115 3.599,7.521 6.849,9.852l6.38,-1.313c0.015,3.765 -1.031,6.023 -3.284,6.568c-10.309,2.611 -18.227,-0.297 -23.55,-9.196c-0.684,-20.011 -2.777,-37.232 -9.102,-46.068c-0.863,-7.461 3.338,-11.031 10.791,-12.104l15.199,0.657c-8.17,-4.509 -12.536,-10.723 -14.074,-18.203c-2.837,-15.246 -0.455,-29.274 5.349,-42.503c4.424,-22.61 6.781,-46.603 8.35,-71.121c2.56,-14.452 8.285,-29.469 20.267,-45.6c3.048,-11.159 -0.54,-22.483 -5.544,-33.842Z"/></clipPath><g clip-path="url(#_clip1)"><g id="clothes"><path d="M47.901,277.046c18.66,5.3 35.943,11.533 51.6,18.864" style="fill:none;stroke:#cb8e2c;stroke-width:2px;"/><path d="M168.79,370.542c-33.582,-17.084 -70.849,-28.209 -112.164,-32.79" style="fill:none;stroke:#cb8e2c;stroke-width:2px;"/><path d="M42.207,296.046c18.76,1.517 37.567,2.819 57.294,-0.136" style="fill:none;stroke:#cb8e2c;stroke-width:2px;"/><path d="M178.645,362.331l-9.855,8.211" style="fill:none;stroke:#cb8e2c;stroke-width:2px;"/></g><g id="ear"><path d="M99.899,127.104c-4.289,-4.049 -7.877,-3.236 -10.747,2.555c1.179,8.312 4.388,12.897 9.545,13.904c3.089,0.445 4.953,-0.444 5.486,-2.781" style="fill:none;stroke:#cb8e2c;stroke-width:2px;"/><path d="M98.847,128.833c-3.685,-2.429 -5.567,-1.103 -5.787,3.682c1.314,2.921 3.036,5.037 5.562,5.562" style="fill:none;stroke:#cb8e2c;stroke-width:2px;"/></g><g id="mouth"><path d="M134.483,146.241c-3.363,-1.354 -6.242,-1.446 -8.598,-0.171l8.297,2.451" style="fill:none;stroke:#cb8e2c;stroke-width:2px;"/><path d="M133.647,150.898c-3.237,-1.062 -5.843,-2.657 -7.762,-4.828" style="fill:none;stroke:#cb8e2c;stroke-width:2px;"/></g><path id="eye" d="M130.921,129.235c-4.624,-3.442 -9.339,-3.88 -14.13,-1.804c4.38,2.841 9.112,3.294 14.13,1.804" style="fill:none;stroke:#cb8e2c;stroke-width:2px;"/></g><path id="person2" serif:id="person" d="M70.974,126.483c0.064,-14.163 7.58,-23.285 22.907,-27.121c17.553,-1.183 30.02,0.563 34.086,7.147c3.98,7.28 6.638,14.74 6.78,22.54l5.423,9.419c-0.983,1.87 -2.474,3.226 -4.879,3.66l-1.032,5.254c-0.134,4.151 -1.673,6.137 -4.222,6.568c-11.835,1.715 -21.723,4.546 -19.61,14.261c16.494,2.461 29.347,6.496 37.906,12.386c4.522,-3.187 6.603,-7.23 6.849,-11.916l18.484,-25.052c3.218,1.78 5.935,3.947 8.069,6.568c-1.136,2.481 -2.637,4.931 -4.879,7.318c1.234,4.865 0.55,9.396 -2.533,13.511c0.766,5.484 -1.069,9.97 -6.099,13.23c-4.54,5.828 -8.392,11.811 -11.259,18.015c4.307,7.906 9.63,15.181 16.513,21.486c6.327,-10.172 14.331,-20.293 22.8,-30.4c-2.437,-17.542 4.612,-31.824 18.049,-43.911c4.926,-0.162 5.284,4.461 3.566,11.259c-3.357,2.582 -5.925,5.421 -5.63,9.195c2.996,-0.117 4.239,1.213 4.129,3.66c0.362,10.812 -1.922,19.978 -8.07,26.74c-9.778,22.251 -20.212,40.245 -31.525,52.543c-11.277,-4.353 -21.401,-14.435 -30.588,-29.18c-5.567,10.351 -11.816,19.806 -18.841,28.242c-1.088,1.234 -2.561,1.155 -4.598,-0.844l-5.63,-5.818c-2.998,7.459 -6.193,14.382 -9.664,20.548c-1.445,10.612 -3.778,20.805 -7.975,30.119c39.188,26.206 73.573,54.321 95.02,87.573c1.522,15.449 -3.752,23.077 -19.048,19.169c-36.259,-16.445 -74.785,-29.878 -115.67,-40.181c-2.703,0.504 -4.716,1.848 -5.147,5.118c-0.948,7.808 -1.148,14.806 -1.313,21.767c1.439,4.115 3.599,7.521 6.849,9.852l6.38,-1.313c0.015,3.765 -1.031,6.023 -3.284,6.568c-10.309,2.611 -18.227,-0.297 -23.55,-9.196c-0.684,-20.011 -2.777,-37.232 -9.102,-46.068c-0.863,-7.461 3.338,-11.031 10.791,-12.104l15.199,0.657c-8.17,-4.509 -12.536,-10.723 -14.074,-18.203c-2.837,-15.246 -0.455,-29.274 5.349,-42.503c4.424,-22.61 6.781,-46.603 8.35,-71.121c2.56,-14.452 8.285,-29.469 20.267,-45.6c3.048,-11.159 -0.54,-22.483 -5.544,-33.842Z" style="fill:none;stroke:#cb8d2d;stroke-width:2px;"/><path d="M84.456,207.806c9.359,15.084 20.069,27.877 32.684,37.437" style="fill:none;stroke:#cb8e2c;stroke-width:2px;"/><path d="M150.884,178.458c-9.832,12.952 -19.398,26.004 -25.51,40.357c-8.342,-6.614 -16.734,-17.217 -25.138,-28.807c1.424,-11.477 -4.642,-16.317 -14.496,-17.798" style="fill:none;stroke:#cb8e2c;stroke-width:2px;"/><g id="bees"><path id="bee" d="M85.158,55.496c0.261,-8.491 2.187,-15.795 5.412,-22.171c2.997,-0.451 4.895,0.76 5.261,4.284c1.748,8.911 0.616,17.359 -2.556,25.478c2.714,1.751 4.738,3.724 6.013,5.937c8.286,-4.796 14.348,-11.81 19.766,-19.465c-2.338,3.807 -3.888,6.922 -14.806,18.263l0.902,0.676c6.438,-3.763 12.054,-9.02 16.76,-15.933c-4.844,7.85 -10.35,13.704 -16.61,17.286c-0.824,2.157 -2.332,3.751 -4.584,4.735c-1.268,0.722 -2.546,0.527 -3.833,-0.676c-1.063,0.959 -2.476,1.524 -4.209,1.728c-0.639,1.773 -1.462,3.386 -2.562,4.757c-0.587,0.429 -0.992,0.372 -1.143,-0.361c0.635,-1.158 0.718,-2.383 0.301,-3.667c-1.064,0.333 -2.126,0.413 -3.187,0.12c-1.125,2.214 -0.947,4.766 -0.24,7.456c8.634,0.714 17.558,0.206 26.696,-1.203c1.784,0.722 1.121,1.292 -0.481,1.804c-11.304,1.626 -23.013,2.537 -35.414,2.224c-0.799,-0.637 -1.166,-1.312 -0.181,-2.104c2.461,-0.681 4.926,-0.97 7.396,-0.902c-0.541,-2.726 -0.325,-5.451 0.361,-8.177l-1.263,-0.24c-1.468,1.673 -2.403,3.554 -2.165,5.892c-0.396,0.573 -0.823,0.872 -1.382,0c-0.261,-1.924 -0.081,-3.688 0.541,-5.291c-1.691,-0.011 -3.119,-0.541 -4.209,-1.744c-5.611,5.922 -11.459,11.087 -17.557,15.452c-12.029,1.223 -15.486,-1.413 -8.838,-8.598c6.883,-8.161 14.409,-12.045 22.667,-11.063c2.793,-2.952 5.981,-4.284 9.44,-4.509c-13.111,-6.367 -19.823,-15.795 -21.826,-27.477c0.051,-1.598 0.623,-2.38 2.526,-1.082c9.022,4.644 17.006,10.475 23.004,18.571Z" style="fill:none;stroke:#cb8d2d;stroke-width:2px;"/><path id="bee1" serif:id="bee" d="M190.158,100.496c0.261,-8.491 2.187,-15.795 5.412,-22.171c2.997,-0.451 4.895,0.76 5.261,4.284c1.748,8.911 0.616,17.359 -2.556,25.478c2.714,1.751 4.738,3.724 6.013,5.937c8.286,-4.796 14.348,-11.81 19.766,-19.465c-2.338,3.807 -3.888,6.922 -14.806,18.263l0.902,0.676c6.438,-3.763 12.054,-9.02 16.76,-15.933c-4.844,7.85 -10.35,13.704 -16.61,17.286c-0.824,2.157 -2.332,3.751 -4.584,4.735c-1.268,0.722 -2.546,0.527 -3.833,-0.676c-1.063,0.959 -2.476,1.524 -4.209,1.728c-0.639,1.773 -1.462,3.386 -2.562,4.757c-0.587,0.429 -0.992,0.372 -1.143,-0.361c0.635,-1.158 0.718,-2.383 0.301,-3.667c-1.064,0.333 -2.126,0.413 -3.187,0.12c-1.125,2.214 -0.947,4.766 -0.24,7.456c8.634,0.714 17.558,0.206 26.696,-1.203c1.784,0.722 1.121,1.292 -0.481,1.804c-11.304,1.626 -23.013,2.537 -35.414,2.224c-0.799,-0.637 -1.166,-1.312 -0.181,-2.104c2.461,-0.681 4.926,-0.97 7.396,-0.902c-0.541,-2.726 -0.325,-5.451 0.361,-8.177l-1.263,-0.24c-1.468,1.673 -2.403,3.554 -2.165,5.892c-0.396,0.573 -0.823,0.872 -1.382,0c-0.261,-1.924 -0.081,-3.688 0.541,-5.291c-1.691,-0.011 -3.119,-0.541 -4.209,-1.744c-5.611,5.922 -11.459,11.087 -17.557,15.452c-12.029,1.223 -15.486,-1.413 -8.838,-8.598c6.883,-8.161 14.409,-12.045 22.667,-11.063c2.793,-2.952 5.981,-4.284 9.44,-4.509c-13.111,-6.367 -19.823,-15.795 -21.826,-27.477c0.051,-1.598 0.623,-2.38 2.526,-1.082c9.022,4.644 17.006,10.475 23.004,18.571Z" style="fill:none;stroke:#cb8d2d;stroke-width:2px;"/><path id="bee2" serif:id="bee" d="M352.158,89.496c0.261,-8.491 2.187,-15.795 5.412,-22.171c2.997,-0.451 4.895,0.76 5.261,4.284c1.748,8.911 0.616,17.359 -2.556,25.478c2.714,1.751 4.738,3.724 6.013,5.937c8.286,-4.796 14.348,-11.81 19.766,-19.465c-2.338,3.807 -3.888,6.922 -14.806,18.263l0.902,0.676c6.438,-3.763 12.054,-9.02 16.76,-15.933c-4.844,7.85 -10.35,13.704 -16.61,17.286c-0.824,2.157 -2.332,3.751 -4.584,4.735c-1.268,0.722 -2.546,0.527 -3.833,-0.676c-1.063,0.959 -2.476,1.524 -4.209,1.728c-0.639,1.773 -1.462,3.386 -2.562,4.757c-0.587,0.429 -0.992,0.372 -1.143,-0.361c0.635,-1.158 0.718,-2.383 0.301,-3.667c-1.064,0.333 -2.126,0.413 -3.187,0.12c-1.125,2.214 -0.947,4.766 -0.24,7.456c8.634,0.714 17.558,0.206 26.696,-1.203c1.784,0.722 1.121,1.292 -0.481,1.804c-11.304,1.626 -23.013,2.537 -35.414,2.224c-0.799,-0.637 -1.166,-1.312 -0.181,-2.104c2.461,-0.681 4.926,-0.97 7.396,-0.902c-0.541,-2.726 -0.325,-5.451 0.361,-8.177l-1.263,-0.24c-1.468,1.673 -2.403,3.554 -2.165,5.892c-0.396,0.573 -0.823,0.872 -1.382,0c-0.261,-1.924 -0.081,-3.688 0.541,-5.291c-1.691,-0.011 -3.119,-0.541 -4.209,-1.744c-5.611,5.922 -11.459,11.087 -17.557,15.452c-12.029,1.223 -15.486,-1.413 -8.838,-8.598c6.883,-8.161 14.409,-12.045 22.667,-11.063c2.793,-2.952 5.981,-4.284 9.44,-4.509c-13.111,-6.367 -19.823,-15.795 -21.826,-27.477c0.051,-1.598 0.623,-2.38 2.526,-1.082c9.022,4.644 17.006,10.475 23.004,18.571Z" style="fill:none;stroke:#cb8d2d;stroke-width:2px;"/><path id="bee3" serif:id="bee" d="M431.158,86.496c0.261,-8.491 2.187,-15.795 5.412,-22.171c2.997,-0.451 4.895,0.76 5.261,4.284c1.748,8.911 0.616,17.359 -2.556,25.478c2.714,1.751 4.738,3.724 6.013,5.937c8.286,-4.796 14.348,-11.81 19.766,-19.465c-2.338,3.807 -3.888,6.922 -14.806,18.263l0.902,0.676c6.438,-3.763 12.054,-9.02 16.76,-15.933c-4.844,7.85 -10.35,13.704 -16.61,17.286c-0.824,2.157 -2.332,3.751 -4.584,4.735c-1.268,0.722 -2.546,0.527 -3.833,-0.676c-1.063,0.959 -2.476,1.524 -4.209,1.728c-0.639,1.773 -1.462,3.386 -2.562,4.757c-0.587,0.429 -0.992,0.372 -1.143,-0.361c0.635,-1.158 0.718,-2.383 0.301,-3.667c-1.064,0.333 -2.126,0.413 -3.187,0.12c-1.125,2.214 -0.947,4.766 -0.24,7.456c8.634,0.714 17.558,0.206 26.696,-1.203c1.784,0.722 1.121,1.292 -0.481,1.804c-11.304,1.626 -23.013,2.537 -35.414,2.224c-0.799,-0.637 -1.166,-1.312 -0.181,-2.104c2.461,-0.681 4.926,-0.97 7.396,-0.902c-0.541,-2.726 -0.325,-5.451 0.361,-8.177l-1.263,-0.24c-1.468,1.673 -2.403,3.554 -2.165,5.892c-0.396,0.573 -0.823,0.872 -1.382,0c-0.261,-1.924 -0.081,-3.688 0.541,-5.291c-1.691,-0.011 -3.119,-0.541 -4.209,-1.744c-5.611,5.922 -11.459,11.087 -17.557,15.452c-12.029,1.223 -15.486,-1.413 -8.838,-8.598c6.883,-8.161 14.409,-12.045 22.667,-11.063c2.793,-2.952 5.981,-4.284 9.44,-4.509c-13.111,-6.367 -19.823,-15.795 -21.826,-27.477c0.051,-1.598 0.623,-2.38 2.526,-1.082c9.022,4.644 17.006,10.475 23.004,18.571Z" style="fill:none;stroke:#cb8d2d;stroke-width:2px;"/><path id="bee4" serif:id="bee" d="M362.158,158.496c0.261,-8.491 2.187,-15.795 5.412,-22.171c2.997,-0.451 4.895,0.76 5.261,4.284c1.748,8.911 0.616,17.359 -2.556,25.478c2.714,1.751 4.738,3.724 6.013,5.937c8.286,-4.796 14.348,-11.81 19.766,-19.465c-2.338,3.807 -3.888,6.922 -14.806,18.263l0.902,0.676c6.438,-3.763 12.054,-9.02 16.76,-15.933c-4.844,7.85 -10.35,13.704 -16.61,17.286c-0.824,2.157 -2.332,3.751 -4.584,4.735c-1.268,0.722 -2.546,0.527 -3.833,-0.676c-1.063,0.959 -2.476,1.524 -4.209,1.728c-0.639,1.773 -1.462,3.386 -2.562,4.757c-0.587,0.429 -0.992,0.372 -1.143,-0.361c0.635,-1.158 0.718,-2.383 0.301,-3.667c-1.064,0.333 -2.126,0.413 -3.187,0.12c-1.125,2.214 -0.947,4.766 -0.24,7.456c8.634,0.714 17.558,0.206 26.696,-1.203c1.784,0.722 1.121,1.292 -0.481,1.804c-11.304,1.626 -23.013,2.537 -35.414,2.224c-0.799,-0.637 -1.166,-1.312 -0.181,-2.104c2.461,-0.681 4.926,-0.97 7.396,-0.902c-0.541,-2.726 -0.325,-5.451 0.361,-8.177l-1.263,-0.24c-1.468,1.673 -2.403,3.554 -2.165,5.892c-0.396,0.573 -0.823,0.872 -1.382,0c-0.261,-1.924 -0.081,-3.688 0.541,-5.291c-1.691,-0.011 -3.119,-0.541 -4.209,-1.744c-5.611,5.922 -11.459,11.087 -17.557,15.452c-12.029,1.223 -15.486,-1.413 -8.838,-8.598c6.883,-8.161 14.409,-12.045 22.667,-11.063c2.793,-2.952 5.981,-4.284 9.44,-4.509c-13.111,-6.367 -19.823,-15.795 -21.826,-27.477c0.051,-1.598 0.623,-2.38 2.526,-1.082c9.022,4.644 17.006,10.475 23.004,18.571Z" style="fill:none;stroke:#cb8d2d;stroke-width:2px;"/><path id="bee5" serif:id="bee" d="M437.158,158.496c0.261,-8.491 2.187,-15.795 5.412,-22.171c2.997,-0.451 4.895,0.76 5.261,4.284c1.748,8.911 0.616,17.359 -2.556,25.478c2.714,1.751 4.738,3.724 6.013,5.937c8.286,-4.796 14.348,-11.81 19.766,-19.465c-2.338,3.807 -3.888,6.922 -14.806,18.263l0.902,0.676c6.438,-3.763 12.054,-9.02 16.76,-15.933c-4.844,7.85 -10.35,13.704 -16.61,17.286c-0.824,2.157 -2.332,3.751 -4.584,4.735c-1.268,0.722 -2.546,0.527 -3.833,-0.676c-1.063,0.959 -2.476,1.524 -4.209,1.728c-0.639,1.773 -1.462,3.386 -2.562,4.757c-0.587,0.429 -0.992,0.372 -1.143,-0.361c0.635,-1.158 0.718,-2.383 0.301,-3.667c-1.064,0.333 -2.126,0.413 -3.187,0.12c-1.125,2.214 -0.947,4.766 -0.24,7.456c8.634,0.714 17.558,0.206 26.696,-1.203c1.784,0.722 1.121,1.292 -0.481,1.804c-11.304,1.626 -23.013,2.537 -35.414,2.224c-0.799,-0.637 -1.166,-1.312 -0.181,-2.104c2.461,-0.681 4.926,-0.97 7.396,-0.902c-0.541,-2.726 -0.325,-5.451 0.361,-8.177l-1.263,-0.24c-1.468,1.673 -2.403,3.554 -2.165,5.892c-0.396,0.573 -0.823,0.872 -1.382,0c-0.261,-1.924 -0.081,-3.688 0.541,-5.291c-1.691,-0.011 -3.119,-0.541 -4.209,-1.744c-5.611,5.922 -11.459,11.087 -17.557,15.452c-12.029,1.223 -15.486,-1.413 -8.838,-8.598c6.883,-8.161 14.409,-12.045 22.667,-11.063c2.793,-2.952 5.981,-4.284 9.44,-4.509c-13.111,-6.367 -19.823,-15.795 -21.826,-27.477c0.051,-1.598 0.623,-2.38 2.526,-1.082c9.022,4.644 17.006,10.475 23.004,18.571Z" style="fill:none;stroke:#cb8d2d;stroke-width:2px;"/><path id="bee6" serif:id="bee" d="M368.158,224.496c0.261,-8.491 2.187,-15.795 5.412,-22.171c2.997,-0.451 4.895,0.76 5.261,4.284c1.748,8.911 0.616,17.359 -2.556,25.478c2.714,1.751 4.738,3.724 6.013,5.937c8.286,-4.796 14.348,-11.81 19.766,-19.465c-2.338,3.807 -3.888,6.922 -14.806,18.263l0.902,0.676c6.438,-3.763 12.054,-9.02 16.76,-15.933c-4.844,7.85 -10.35,13.704 -16.61,17.286c-0.824,2.157 -2.332,3.751 -4.584,4.735c-1.268,0.722 -2.546,0.527 -3.833,-0.676c-1.063,0.959 -2.476,1.524 -4.209,1.728c-0.639,1.773 -1.462,3.386 -2.562,4.757c-0.587,0.429 -0.992,0.372 -1.143,-0.361c0.635,-1.158 0.718,-2.383 0.301,-3.667c-1.064,0.333 -2.126,0.413 -3.187,0.12c-1.125,2.214 -0.947,4.766 -0.24,7.456c8.634,0.714 17.558,0.206 26.696,-1.203c1.784,0.722 1.121,1.292 -0.481,1.804c-11.304,1.626 -23.013,2.537 -35.414,2.224c-0.799,-0.637 -1.166,-1.312 -0.181,-2.104c2.461,-0.681 4.926,-0.97 7.396,-0.902c-0.541,-2.726 -0.325,-5.451 0.361,-8.177l-1.263,-0.24c-1.468,1.673 -2.403,3.554 -2.165,5.892c-0.396,0.573 -0.823,0.872 -1.382,0c-0.261,-1.924 -0.081,-3.688 0.541,-5.291c-1.691,-0.011 -3.119,-0.541 -4.209,-1.744c-5.611,5.922 -11.459,11.087 -17.557,15.452c-12.029,1.223 -15.486,-1.413 -8.838,-8.598c6.883,-8.161 14.409,-12.045 22.667,-11.063c2.793,-2.952 5.981,-4.284 9.44,-4.509c-13.111,-6.367 -19.823,-15.795 -21.826,-27.477c0.051,-1.598 0.623,-2.38 2.526,-1.082c9.022,4.644 17.006,10.475 23.004,18.571Z" style="fill:none;stroke:#cb8d2d;stroke-width:2px;"/><path id="bee7" serif:id="bee" d="M440.158,223.496c0.261,-8.491 2.187,-15.795 5.412,-22.171c2.997,-0.451 4.895,0.76 5.261,4.284c1.748,8.911 0.616,17.359 -2.556,25.478c2.714,1.751 4.738,3.724 6.013,5.937c8.286,-4.796 14.348,-11.81 19.766,-19.465c-2.338,3.807 -3.888,6.922 -14.806,18.263l0.902,0.676c6.438,-3.763 12.054,-9.02 16.76,-15.933c-4.844,7.85 -10.35,13.704 -16.61,17.286c-0.824,2.157 -2.332,3.751 -4.584,4.735c-1.268,0.722 -2.546,0.527 -3.833,-0.676c-1.063,0.959 -2.476,1.524 -4.209,1.728c-0.639,1.773 -1.462,3.386 -2.562,4.757c-0.587,0.429 -0.992,0.372 -1.143,-0.361c0.635,-1.158 0.718,-2.383 0.301,-3.667c-1.064,0.333 -2.126,0.413 -3.187,0.12c-1.125,2.214 -0.947,4.766 -0.24,7.456c8.634,0.714 17.558,0.206 26.696,-1.203c1.784,0.722 1.121,1.292 -0.481,1.804c-11.304,1.626 -23.013,2.537 -35.414,2.224c-0.799,-0.637 -1.166,-1.312 -0.181,-2.104c2.461,-0.681 4.926,-0.97 7.396,-0.902c-0.541,-2.726 -0.325,-5.451 0.361,-8.177l-1.263,-0.24c-1.468,1.673 -2.403,3.554 -2.165,5.892c-0.396,0.573 -0.823,0.872 -1.382,0c-0.261,-1.924 -0.081,-3.688 0.541,-5.291c-1.691,-0.011 -3.119,-0.541 -4.209,-1.744c-5.611,5.922 -11.459,11.087 -17.557,15.452c-12.029,1.223 -15.486,-1.413 -8.838,-8.598c6.883,-8.161 14.409,-12.045 22.667,-11.063c2.793,-2.952 5.981,-4.284 9.44,-4.509c-13.111,-6.367 -19.823,-15.795 -21.826,-27.477c0.051,-1.598 0.623,-2.38 2.526,-1.082c9.022,4.644 17.006,10.475 23.004,18.571Z" style="fill:none;stroke:#cb8d2d;stroke-width:2px;"/><path id="bee8" serif:id="bee" d="M443.158,290.496c0.261,-8.491 2.187,-15.795 5.412,-22.171c2.997,-0.451 4.895,0.76 5.261,4.284c1.748,8.911 0.616,17.359 -2.556,25.478c2.714,1.751 4.738,3.724 6.013,5.937c8.286,-4.796 14.348,-11.81 19.766,-19.465c-2.338,3.807 -3.888,6.922 -14.806,18.263l0.902,0.676c6.438,-3.763 12.054,-9.02 16.76,-15.933c-4.844,7.85 -10.35,13.704 -16.61,17.286c-0.824,2.157 -2.332,3.751 -4.584,4.735c-1.268,0.722 -2.546,0.527 -3.833,-0.676c-1.063,0.959 -2.476,1.524 -4.209,1.728c-0.639,1.773 -1.462,3.386 -2.562,4.757c-0.587,0.429 -0.992,0.372 -1.143,-0.361c0.635,-1.158 0.718,-2.383 0.301,-3.667c-1.064,0.333 -2.126,0.413 -3.187,0.12c-1.125,2.214 -0.947,4.766 -0.24,7.456c8.634,0.714 17.558,0.206 26.696,-1.203c1.784,0.722 1.121,1.292 -0.481,1.804c-11.304,1.626 -23.013,2.537 -35.414,2.224c-0.799,-0.637 -1.166,-1.312 -0.181,-2.104c2.461,-0.681 4.926,-0.97 7.396,-0.902c-0.541,-2.726 -0.325,-5.451 0.361,-8.177l-1.263,-0.24c-1.468,1.673 -2.403,3.554 -2.165,5.892c-0.396,0.573 -0.823,0.872 -1.382,0c-0.261,-1.924 -0.081,-3.688 0.541,-5.291c-1.691,-0.011 -3.119,-0.541 -4.209,-1.744c-5.611,5.922 -11.459,11.087 -17.557,15.452c-12.029,1.223 -15.486,-1.413 -8.838,-8.598c6.883,-8.161 14.409,-12.045 22.667,-11.063c2.793,-2.952 5.981,-4.284 9.44,-4.509c-13.111,-6.367 -19.823,-15.795 -21.826,-27.477c0.051,-1.598 0.623,-2.38 2.526,-1.082c9.022,4.644 17.006,10.475 23.004,18.571Z" style="fill:none;stroke:#cb8d2d;stroke-width:2px;"/><path id="bee9" serif:id="bee" d="M362.158,290.496c0.261,-8.491 2.187,-15.795 5.412,-22.171c2.997,-0.451 4.895,0.76 5.261,4.284c1.748,8.911 0.616,17.359 -2.556,25.478c2.714,1.751 4.738,3.724 6.013,5.937c8.286,-4.796 14.348,-11.81 19.766,-19.465c-2.338,3.807 -3.888,6.922 -14.806,18.263l0.902,0.676c6.438,-3.763 12.054,-9.02 16.76,-15.933c-4.844,7.85 -10.35,13.704 -16.61,17.286c-0.824,2.157 -2.332,3.751 -4.584,4.735c-1.268,0.722 -2.546,0.527 -3.833,-0.676c-1.063,0.959 -2.476,1.524 -4.209,1.728c-0.639,1.773 -1.462,3.386 -2.562,4.757c-0.587,0.429 -0.992,0.372 -1.143,-0.361c0.635,-1.158 0.718,-2.383 0.301,-3.667c-1.064,0.333 -2.126,0.413 -3.187,0.12c-1.125,2.214 -0.947,4.766 -0.24,7.456c8.634,0.714 17.558,0.206 26.696,-1.203c1.784,0.722 1.121,1.292 -0.481,1.804c-11.304,1.626 -23.013,2.537 -35.414,2.224c-0.799,-0.637 -1.166,-1.312 -0.181,-2.104c2.461,-0.681 4.926,-0.97 7.396,-0.902c-0.541,-2.726 -0.325,-5.451 0.361,-8.177l-1.263,-0.24c-1.468,1.673 -2.403,3.554 -2.165,5.892c-0.396,0.573 -0.823,0.872 -1.382,0c-0.261,-1.924 -0.081,-3.688 0.541,-5.291c-1.691,-0.011 -3.119,-0.541 -4.209,-1.744c-5.611,5.922 -11.459,11.087 -17.557,15.452c-12.029,1.223 -15.486,-1.413 -8.838,-8.598c6.883,-8.161 14.409,-12.045 22.667,-11.063c2.793,-2.952 5.981,-4.284 9.44,-4.509c-13.111,-6.367 -19.823,-15.795 -21.826,-27.477c0.051,-1.598 0.623,-2.38 2.526,-1.082c9.022,4.644 17.006,10.475 23.004,18.571Z" style="fill:none;stroke:#cb8d2d;stroke-width:2px;"/><path id="bee10" serif:id="bee" d="M363.158,359.496c0.261,-8.491 2.187,-15.795 5.412,-22.171c2.997,-0.451 4.895,0.76 5.261,4.284c1.748,8.911 0.616,17.359 -2.556,25.478c2.714,1.751 4.738,3.724 6.013,5.937c8.286,-4.796 14.348,-11.81 19.766,-19.465c-2.338,3.807 -3.888,6.922 -14.806,18.263l0.902,0.676c6.438,-3.763 12.054,-9.02 16.76,-15.933c-4.844,7.85 -10.35,13.704 -16.61,17.286c-0.824,2.157 -2.332,3.751 -4.584,4.735c-1.268,0.722 -2.546,0.527 -3.833,-0.676c-1.063,0.959 -2.476,1.524 -4.209,1.728c-0.639,1.773 -1.462,3.386 -2.562,4.757c-0.587,0.429 -0.992,0.372 -1.143,-0.361c0.635,-1.158 0.718,-2.383 0.301,-3.667c-1.064,0.333 -2.126,0.413 -3.187,0.12c-1.125,2.214 -0.947,4.766 -0.24,7.456c8.634,0.714 17.558,0.206 26.696,-1.203c1.784,0.722 1.121,1.292 -0.481,1.804c-11.304,1.626 -23.013,2.537 -35.414,2.224c-0.799,-0.637 -1.166,-1.312 -0.181,-2.104c2.461,-0.681 4.926,-0.97 7.396,-0.902c-0.541,-2.726 -0.325,-5.451 0.361,-8.177l-1.263,-0.24c-1.468,1.673 -2.403,3.554 -2.165,5.892c-0.396,0.573 -0.823,0.872 -1.382,0c-0.261,-1.924 -0.081,-3.688 0.541,-5.291c-1.691,-0.011 -3.119,-0.541 -4.209,-1.744c-5.611,5.922 -11.459,11.087 -17.557,15.452c-12.029,1.223 -15.486,-1.413 -8.838,-8.598c6.883,-8.161 14.409,-12.045 22.667,-11.063c2.793,-2.952 5.981,-4.284 9.44,-4.509c-13.111,-6.367 -19.823,-15.795 -21.826,-27.477c0.051,-1.598 0.623,-2.38 2.526,-1.082c9.022,4.644 17.006,10.475 23.004,18.571Z" style="fill:none;stroke:#cb8d2d;stroke-width:2px;"/><path id="bee11" serif:id="bee" d="M452.158,359.496c0.261,-8.491 2.187,-15.795 5.412,-22.171c2.997,-0.451 4.895,0.76 5.261,4.284c1.748,8.911 0.616,17.359 -2.556,25.478c2.714,1.751 4.738,3.724 6.013,5.937c8.286,-4.796 14.348,-11.81 19.766,-19.465c-2.338,3.807 -3.888,6.922 -14.806,18.263l0.902,0.676c6.438,-3.763 12.054,-9.02 16.76,-15.933c-4.844,7.85 -10.35,13.704 -16.61,17.286c-0.824,2.157 -2.332,3.751 -4.584,4.735c-1.268,0.722 -2.546,0.527 -3.833,-0.676c-1.063,0.959 -2.476,1.524 -4.209,1.728c-0.639,1.773 -1.462,3.386 -2.562,4.757c-0.587,0.429 -0.992,0.372 -1.143,-0.361c0.635,-1.158 0.718,-2.383 0.301,-3.667c-1.064,0.333 -2.126,0.413 -3.187,0.12c-1.125,2.214 -0.947,4.766 -0.24,7.456c8.634,0.714 17.558,0.206 26.696,-1.203c1.784,0.722 1.121,1.292 -0.481,1.804c-11.304,1.626 -23.013,2.537 -35.414,2.224c-0.799,-0.637 -1.166,-1.312 -0.181,-2.104c2.461,-0.681 4.926,-0.97 7.396,-0.902c-0.541,-2.726 -0.325,-5.451 0.361,-8.177l-1.263,-0.24c-1.468,1.673 -2.403,3.554 -2.165,5.892c-0.396,0.573 -0.823,0.872 -1.382,0c-0.261,-1.924 -0.081,-3.688 0.541,-5.291c-1.691,-0.011 -3.119,-0.541 -4.209,-1.744c-5.611,5.922 -11.459,11.087 -17.557,15.452c-12.029,1.223 -15.486,-1.413 -8.838,-8.598c6.883,-8.161 14.409,-12.045 22.667,-11.063c2.793,-2.952 5.981,-4.284 9.44,-4.509c-13.111,-6.367 -19.823,-15.795 -21.826,-27.477c0.051,-1.598 0.623,-2.38 2.526,-1.082c9.022,4.644 17.006,10.475 23.004,18.571Z" style="fill:none;stroke:#cb8d2d;stroke-width:2px;"/></g></svg>