<?xml version="1.0" encoding="UTF-8" standalone="no"?><!DOCTYPE svg PUBLIC "-//W3C//DTD SVG 1.1//EN" "http://www.w3.org/Graphics/SVG/1.1/DTD/svg11.dtd"><svg width="100%" height="100%" viewBox="0 0 527 599" version="1.1" xmlns="http://www.w3.org/2000/svg" xmlns:xlink="http://www.w3.org/1999/xlink" xml:space="preserve" xmlns:serif="http://www.serif.com/" style="fill-rule:evenodd;clip-rule:evenodd;stroke-linejoin:round;stroke-miterlimit:1.41421;"><path d="M113.084,599c16.529,-8.179 33.441,-30.352 43.602,-49.426c3.825,-6.884 10.863,-12.453 19.095,-17.535c10.629,-5.238 19.895,-10.986 24.981,-18.296c7.725,-11.542 11.494,-24.448 12.21,-38.406l11.082,-46.329c1.934,-8.541 5.237,-16.718 10.02,-24.501c0.618,-23.783 0.208,-48.685 -1.866,-75.396c-1.818,-4.701 -1.847,-9.36 0,-13.974c-21.024,-69.67 -63.428,-111.903 -129.195,-124.155c-11.664,-0.768 -22.88,-0.806 -33.581,0c-12.363,4.239 -24.803,8.897 -37.296,13.835l-5.278,-1.055c11.576,-6.116 23.125,-11.974 34.599,-17.123c-11.091,-1.701 -21.716,0.241 -31.902,5.629c-9.581,2.181 -19.43,2.198 -29.555,0l0,-8.092c6.041,2.344 12.814,2.637 20.173,1.29c-2.755,-6.067 -2.876,-11.977 0,-17.71c1.793,4.999 4.301,8.425 8.092,9.031c8.228,1.352 15.986,1.776 22.636,0c-1.861,-0.399 -2.708,-1.378 -3.167,-2.581c19.13,0.267 37.796,1.338 55.279,4.457c1.479,0.285 2.601,0.022 2.659,-1.876c-14.496,-19.509 -27.734,-40.106 -39.29,-62.16c-22.133,-5.981 -44.263,-12.453 -66.382,-20.602l0,-12.667c23.964,10.638 46.974,17.496 69.432,22.167c20.271,21.214 37.657,45.006 51.185,72.246c17.99,4.889 35.24,11.131 50.987,20.119c2.189,-18.009 2.688,-36.029 1.649,-54.06c-17.868,-22.94 -39.174,-41.622 -62.856,-57.359l3.665,-6.414c21.296,12.934 41.951,26.587 61.719,41.233c7.753,-8.886 13.583,-18.008 17.997,-27.305l6.984,-1.65c-3.866,10.525 -7.203,21.178 -9.55,32.07c3.151,25.692 5.143,51.728 5.498,78.25c14.704,16.077 28.274,28.606 38.649,31.123c8.288,-66.844 10.092,-124.946 -7.122,-157.407l4.532,-0.531l0,-27.953c9.211,-6.084 9.104,-25.645 8.527,-45.887l117.878,0c-13.815,32.905 -20.733,64.913 -5.368,94.025c5.275,5.922 10.673,4.18 16.169,-3.69c13.48,-30.393 29.46,-60.506 47.972,-90.335l24.776,0c-20.332,24.154 -36.614,49.073 -43.542,75.757c15.802,11.85 30.024,8.595 43.542,-1.386c20.066,-12.972 40.649,-24.873 61.801,-35.591l1.501,3.978l-1.501,3.129c-17.366,10.379 -34.258,21.018 -50.216,32.17c29.822,2.035 53.977,-3.01 72.62,-14.942c-19.874,19.242 -49.731,27.947 -91.2,24.395c-40.89,7.983 -72.554,19.513 -73.157,42.984c-6.227,51.311 -6.907,102.628 0,153.954l4.238,44.663c-0.239,3.27 -0.761,6.525 -2.117,9.734c3.04,5.131 5.337,10.332 6.192,15.669l2.064,0c1.314,10.242 0.767,20.034 -2.064,29.274c-4.579,24.873 -2.112,46.922 6.873,66.357c1.355,30.678 2.945,61.168 6.014,90.483c21.149,34.921 50.446,52.233 84.745,58.372l-355.432,0Z" style="fill:url(#_Linear1);"/><path id="Layer1" d="M259.03,282.45c-18.827,14.447 -23.751,33.282 -16.127,56.076c8.264,22.067 19.485,34.242 33.353,37.567c22.134,-0.823 36.126,-13.289 44.164,-34.269c3.481,-16.41 1.598,-32.78 -5.314,-49.112c-14.362,-17.996 -33.024,-21.517 -56.076,-10.262Z" style="fill:#b29576;"/><g id="Layer2"><path d="M268.009,281.533c-17.191,8.876 -25.271,22.477 -22.357,41.782c2.054,16.906 8.561,30.458 19.242,40.866c16.268,10.807 29.364,6.222 40.499,-7.88c10.492,-10.997 13.372,-24.861 11.545,-40.499c-1.469,-10.993 -5.725,-21.058 -13.194,-30.054c-10.703,-6.205 -22.624,-7.572 -35.735,-4.215Z" style="fill:#9c8566;"/><path d="M283.219,287.764c-15.534,5.326 -23.507,15.898 -22.357,32.803c1.339,23.489 7.039,38.187 19.792,38.666c13.349,-0.738 22.393,-9.767 27.305,-26.755c3.447,-10.383 3.394,-20.768 0,-31.153c-6.062,-9.603 -14.239,-14.285 -24.74,-13.561Z" style="fill:#483725;"/></g><defs><linearGradient id="_Linear1" x1="0" y1="0" x2="1" y2="0" gradientUnits="userSpaceOnUse" gradientTransform="matrix(95.7716,1.39812,-1.39812,95.7716,254.357,220.418)"><stop offset="0" style="stop-color:#978267;stop-opacity:1"/><stop offset="1" style="stop-color:#6d5d49;stop-opacity:1"/></linearGradient></defs></svg>