<?xml version="1.0" encoding="UTF-8" standalone="no"?><!DOCTYPE svg PUBLIC "-//W3C//DTD SVG 1.1//EN" "http://www.w3.org/Graphics/SVG/1.1/DTD/svg11.dtd"><svg width="100%" height="100%" viewBox="0 0 402 441" version="1.1" xmlns="http://www.w3.org/2000/svg" xmlns:xlink="http://www.w3.org/1999/xlink" xml:space="preserve" xmlns:serif="http://www.serif.com/" style="fill-rule:evenodd;clip-rule:evenodd;stroke-linejoin:round;stroke-miterlimit:1.41421;"><g><ellipse cx="200.512" cy="419.752" rx="200.512" ry="21.158" style="fill:#6b965b;"/><g><path d="M85.938,417.121c11.511,-5.696 23.287,-21.136 30.363,-34.419c2.664,-4.793 7.565,-8.671 13.297,-12.21c7.402,-3.648 13.854,-7.651 17.396,-12.741c5.379,-8.037 8.004,-17.025 8.503,-26.744l7.717,-32.262c1.346,-5.948 3.646,-11.642 6.977,-17.062c0.431,-16.561 0.145,-33.902 -1.299,-52.503c-1.266,-3.273 -1.286,-6.518 0,-9.731c-14.641,-48.515 -44.169,-77.925 -89.967,-86.456c-8.122,-0.535 -15.932,-0.562 -23.384,0c-8.609,2.951 -17.272,6.195 -25.972,9.634l-3.675,-0.735c8.061,-4.259 16.103,-8.338 24.093,-11.924c-7.723,-1.184 -15.122,0.168 -22.215,3.92c-6.672,1.519 -13.53,1.531 -20.581,0l0,-5.635c4.207,1.632 8.923,1.836 14.048,0.898c-1.919,-4.224 -2.003,-8.34 0,-12.332c1.248,3.481 2.995,5.867 5.635,6.289c5.729,0.941 11.132,1.236 15.762,0c-1.295,-0.278 -1.885,-0.96 -2.205,-1.798c13.322,0.186 26.32,0.932 38.494,3.104c1.03,0.199 1.812,0.015 1.852,-1.306c-10.095,-13.586 -19.313,-27.929 -27.36,-43.286c-15.413,-4.165 -30.823,-8.672 -46.226,-14.347l0,-8.82c16.688,7.408 32.711,12.183 48.35,15.436c14.116,14.772 26.223,31.34 35.643,50.309c12.528,3.405 24.54,7.751 35.505,14.01c1.525,-12.54 1.872,-25.089 1.149,-37.645c-12.443,-15.975 -27.28,-28.984 -43.771,-39.943l2.552,-4.466c14.83,9.007 29.213,18.514 42.979,28.713c5.399,-6.188 9.459,-12.54 12.533,-19.014l4.863,-1.149c-2.692,7.329 -5.016,14.747 -6.65,22.332c2.194,17.891 3.581,36.022 3.828,54.49c10.24,11.196 19.689,19.921 26.914,21.673c5.771,-46.547 7.028,-87.007 -4.959,-109.612l3.155,-0.37l0,-19.465c6.415,-4.237 6.34,-17.858 5.938,-31.954l82.086,0c-9.62,22.914 -14.438,45.203 -3.738,65.475c3.673,4.124 7.432,2.911 11.259,-2.569c9.387,-21.165 20.515,-42.134 33.406,-62.906l17.253,0c-14.158,16.82 -25.496,34.173 -30.321,52.754c11.004,8.252 20.908,5.986 30.321,-0.965c13.974,-9.033 28.307,-17.32 43.036,-24.784l1.045,2.77l-1.045,2.179c-12.093,7.227 -23.856,14.636 -34.968,22.402c20.767,1.417 37.587,-2.096 50.57,-10.405c-13.84,13.399 -34.631,19.461 -63.509,16.988c-28.474,5.559 -50.524,13.588 -50.943,29.932c-4.337,35.731 -4.81,71.466 0,107.208l2.951,31.101c-0.167,2.277 -0.53,4.544 -1.474,6.779c2.116,3.573 3.716,7.195 4.311,10.911l1.438,0c0.915,7.132 0.534,13.951 -1.438,20.385c-3.188,17.321 -1.47,32.675 4.787,46.209c0.943,21.363 2.05,42.595 4.187,63.009c14.728,24.317 35.129,36.373 59.014,40.648c-19.415,1.211 -21.931,11.511 -59.31,4.271c-5.229,-1.013 -10.697,-0.072 -15.973,0.705c-35.045,5.16 -71.302,-6.191 -106.042,-0.279c-24.741,4.21 -45.719,1.931 -66.185,-4.697Z" style="fill:url(#_Linear1);"/><path id="Layer1" d="M187.57,196.687c-13.111,10.061 -16.54,23.177 -11.231,39.05c5.755,15.366 13.569,23.844 23.226,26.16c15.413,-0.573 25.157,-9.254 30.754,-23.864c2.424,-11.427 1.113,-22.827 -3.7,-34.2c-10.001,-12.531 -22.997,-14.983 -39.049,-7.146Z" style="fill:#b29576;"/><g id="Layer2"><path d="M193.822,196.049c-11.971,6.181 -17.598,15.652 -15.568,29.095c1.43,11.773 5.961,21.21 13.399,28.458c11.328,7.525 20.448,4.333 28.202,-5.488c7.306,-7.657 9.312,-17.312 8.039,-28.202c-1.022,-7.655 -3.986,-14.664 -9.187,-20.928c-7.453,-4.321 -15.755,-5.273 -24.885,-2.935Z" style="fill:#9c8566;"/><path d="M204.414,200.388c-10.817,3.709 -16.37,11.071 -15.569,22.843c0.933,16.356 4.902,26.592 13.783,26.925c9.295,-0.514 15.593,-6.801 19.014,-18.631c2.4,-7.23 2.363,-14.462 0,-21.694c-4.221,-6.687 -9.916,-9.947 -17.228,-9.443Z" style="fill:#483725;"/></g></g></g><defs><linearGradient id="_Linear1" x1="0" y1="0" x2="1" y2="0" gradientUnits="userSpaceOnUse" gradientTransform="matrix(66.6917,0.973597,-0.973597,66.6917,184.315,153.491)"><stop offset="0" style="stop-color:#978267;stop-opacity:1"/><stop offset="1" style="stop-color:#6d5d49;stop-opacity:1"/></linearGradient></defs></svg>