<?xml version="1.0" encoding="UTF-8" standalone="no"?><!DOCTYPE svg PUBLIC "-//W3C//DTD SVG 1.1//EN" "http://www.w3.org/Graphics/SVG/1.1/DTD/svg11.dtd"><svg width="100%" height="100%" viewBox="0 0 696 289" version="1.1" xmlns="http://www.w3.org/2000/svg" xmlns:xlink="http://www.w3.org/1999/xlink" xml:space="preserve" xmlns:serif="http://www.serif.com/" style="fill-rule:evenodd;clip-rule:evenodd;stroke-linecap:round;stroke-linejoin:round;stroke-miterlimit:1.5;"><g id="flowers"><g id="stems"><path d="M19.114,199.161c19.611,25.958 34.257,54.489 38.483,88.42" style="fill:none;stroke:#a0be04;stroke-width:1.5px;"/><path d="M52.1,214.508c1.588,22.7 5.248,45.745 11.224,69.179" style="fill:none;stroke:#a0be04;stroke-width:1.5px;"/><path d="M65.615,238.102c2.431,15.582 4.186,30.589 4.581,44.44" style="fill:none;stroke:#a0be04;stroke-width:1.5px;"/><path d="M49.809,145.559c-4.772,48.033 1.371,94.17 17.409,138.586" style="fill:none;stroke:#a0be04;stroke-width:1.5px;"/><path d="M48.434,102.952c14.6,62.142 22.528,122.025 24.282,179.819" style="fill:none;stroke:#a0be04;stroke-width:1.5px;"/><path d="M90.583,211.301c5.826,26.275 7.724,50.783 3.665,72.615" style="fill:none;stroke:#a0be04;stroke-width:1.5px;"/><path d="M75.465,191.601c-3.048,2.544 6.273,88.644 7.788,87.963" style="fill:none;stroke:#a0be04;stroke-width:1.5px;"/><path d="M93.332,153.576c5.547,43.428 10.398,86.723 12.141,129.424" style="fill:none;stroke:#a0be04;stroke-width:1.5px;"/><path d="M84.627,78.212c-3.125,67.634 -1.908,135.585 3.894,203.872" style="fill:none;stroke:#a0be04;stroke-width:1.5px;"/><path d="M58.972,54.389c1.189,77.537 8.839,152.792 18.783,227.236" style="fill:none;stroke:#a0be04;stroke-width:1.5px;"/><path d="M113.261,48.892c2.634,72.775 11.987,145.539 22.449,218.302" style="fill:none;stroke:#a0be04;stroke-width:1.5px;"/><path d="M123.798,19.8c5.614,80.224 14.084,160.478 24.281,240.751" style="fill:none;stroke:#a0be04;stroke-width:1.5px;"/><path d="M114.635,168.466c2.016,33.367 7.513,66.369 16.951,98.957" style="fill:none;stroke:#a0be04;stroke-width:1.5px;"/><path d="M123.34,191.372c0.6,30.688 5.712,57.657 10.308,83.152" style="fill:none;stroke:#a0be04;stroke-width:1.5px;"/><path d="M136.626,219.09c2.055,19.464 2.439,36.938 1.374,52.685" style="fill:none;stroke:#a0be04;stroke-width:1.5px;"/><path d="M136.855,140.061c-0.014,41.755 1.499,83.361 6.643,124.613" style="fill:none;stroke:#a0be04;stroke-width:1.5px;"/><path d="M157.013,101.577c0.42,54.993 -1.146,109.468 -5.956,163.097" style="fill:none;stroke:#a0be04;stroke-width:1.5px;"/><path d="M168.466,159.99c-1.342,34.679 -4.435,69.082 -10.079,103.081" style="fill:none;stroke:#a0be04;stroke-width:1.5px;"/><path d="M177.4,199.39c-3.314,22.159 -4.005,44.303 -1.603,66.43" style="fill:none;stroke:#a0be04;stroke-width:1.5px;"/><path d="M182.898,235.583c1.014,11.537 1.789,23.359 2.29,35.505" style="fill:none;stroke:#a0be04;stroke-width:1.5px;"/><path d="M218.861,245.433c-1.676,8.949 -1.897,18.111 0.917,27.717" style="fill:none;stroke:#a0be04;stroke-width:1.5px;"/><path d="M178.545,66.759c3.4,65.842 3.689,130.463 0.688,193.792" style="fill:none;stroke:#a0be04;stroke-width:1.5px;"/><path d="M209.699,133.647c-2.499,48.277 -2.715,96.874 -1.375,145.688" style="fill:none;stroke:#a0be04;stroke-width:1.5px;"/><path d="M205.117,179.003c1.154,33.531 0.045,64.947 -3.436,94.147" style="fill:none;stroke:#a0be04;stroke-width:1.5px;"/><path d="M216.571,207.865c2.566,23.978 1.716,47.343 0,70.553" style="fill:none;stroke:#a0be04;stroke-width:1.5px;"/><path d="M245.892,199.619c-2.293,25.618 -1.101,50.879 3.207,75.822" style="fill:none;stroke:#a0be04;stroke-width:1.5px;"/><path d="M244.975,133.876c1.462,41.058 4.471,82.134 10.079,123.239" style="fill:none;stroke:#a0be04;stroke-width:1.5px;"/><path d="M254.367,158.845c0.883,32.951 -0.935,65.111 -4.81,96.667" style="fill:none;stroke:#a0be04;stroke-width:1.5px;"/><path d="M273.609,226.649c-1.807,18.654 -2.145,36.688 -0.916,54.06" style="fill:none;stroke:#a0be04;stroke-width:1.5px;"/><path d="M276.358,195.725c3.964,27.496 6.318,54.691 6.872,81.548" style="fill:none;stroke:#a0be04;stroke-width:1.5px;"/><path d="M306.824,240.393c1.454,16.029 0.974,31.291 -2.52,45.356" style="fill:none;stroke:#a0be04;stroke-width:1.5px;"/><path d="M306.595,209.927c-4.064,24.228 -6.648,48.5 -6.872,72.844" style="fill:none;stroke:#a0be04;stroke-width:1.5px;"/><path d="M300.868,160.677c5.62,42.515 9.094,84.745 10.308,126.675" style="fill:none;stroke:#a0be04;stroke-width:1.5px;"/><path d="M342.263,178.024c-2.591,29.552 -3.052,59.141 -1.432,88.764" style="fill:none;stroke:#a0be04;stroke-width:1.5px;"/><path d="M348.562,227.273c2.038,16.082 3.027,31.009 2.864,44.669" style="fill:none;stroke:#a0be04;stroke-width:1.5px;"/><path d="M377.482,197.208c-3.092,25.827 -4.506,51.686 -3.149,77.597" style="fill:none;stroke:#a0be04;stroke-width:1.5px;"/><path d="M388.363,225.842c2.427,19.218 2.792,38.153 0.286,56.694" style="fill:none;stroke:#a0be04;stroke-width:1.5px;"/><path d="M412.988,242.163c-2.707,12.557 -3.402,25.358 0,38.655" style="fill:none;stroke:#a0be04;stroke-width:1.5px;"/><path d="M391.799,163.42c4.858,40.181 7.262,79.935 8.017,119.402" style="fill:none;stroke:#a0be04;stroke-width:1.5px;"/><path d="M430.168,190.336c-2.342,30.043 -2.505,60.434 0.573,91.341" style="fill:none;stroke:#a0be04;stroke-width:1.5px;"/><path d="M442.48,233.859c4.834,17.732 7.196,34.092 6.873,48.963" style="fill:none;stroke:#a0be04;stroke-width:1.5px;"/><path d="M434.463,138.509c-2.148,48.283 -1.828,96.076 0.573,143.454" style="fill:none;stroke:#a0be04;stroke-width:1.5px;"/><path d="M471.114,172.869c3.234,36.431 2.476,69.916 -1.432,101.077" style="fill:none;stroke:#a0be04;stroke-width:1.5px;"/><path d="M491.73,226.128c-5.919,19.193 -8.94,37.977 -9.449,56.408" style="fill:none;stroke:#a0be04;stroke-width:1.5px;"/><path d="M502.897,257.052c7.408,8.13 11.101,18.455 11.167,30.924" style="fill:none;stroke:#a0be04;stroke-width:1.5px;"/><path d="M496.598,130.778c5.819,51.571 6.456,102.328 2.291,152.331" style="fill:none;stroke:#a0be04;stroke-width:1.5px;"/><path d="M513.205,162.848c0.377,38.434 1.67,76.9 3.723,115.393" style="fill:none;stroke:#a0be04;stroke-width:1.5px;"/><path d="M521.509,190.909c6.531,30.719 8.046,61.859 5.44,93.345" style="fill:none;stroke:#a0be04;stroke-width:1.5px;"/><path d="M512.919,106.44l7.445,178.673" style="fill:none;stroke:#a0be04;stroke-width:1.5px;"/><path d="M541.266,124.192c6.143,53.925 4.404,105.095 -2.863,154.335" style="fill:none;stroke:#a0be04;stroke-width:1.5px;"/><path d="M555.869,182.605c-0.774,32.481 0.943,64.936 6.3,97.354" style="fill:none;stroke:#a0be04;stroke-width:1.5px;"/><path d="M553.865,222.406c-3.849,20.886 -4.966,42.148 -2.863,63.852" style="fill:none;stroke:#a0be04;stroke-width:1.5px;"/><path d="M573.909,210.952c4.274,22.91 4.489,45.398 1.718,67.575" style="fill:none;stroke:#a0be04;stroke-width:1.5px;"/><path d="M586.507,159.984c-2.827,40.277 -0.556,80.438 4.009,120.548" style="fill:none;stroke:#a0be04;stroke-width:1.5px;"/><path d="M554.151,79.238c-1.773,60.746 2.995,121.44 10.881,182.109" style="fill:none;stroke:#a0be04;stroke-width:1.5px;"/><path d="M600.806,24.941c-2.298,88.152 -8.094,173.629 -19.471,254.839" style="fill:none;stroke:#a0be04;stroke-width:1.5px;"/><path d="M613.629,228.961c1.627,17.588 1.645,34.602 -0.733,50.761" style="fill:none;stroke:#a0be04;stroke-width:1.5px;"/><path d="M595.12,198.54c2.696,27.82 3.705,54.729 1.832,80.083" style="fill:none;stroke:#a0be04;stroke-width:1.5px;"/><path d="M601.408,106.289c2.212,58.943 3.205,117.262 1.649,174.275" style="fill:none;stroke:#a0be04;stroke-width:1.5px;"/><path d="M629.503,159.378c2.049,39.27 6.755,77.997 13.422,116.324" style="fill:none;stroke:#a0be04;stroke-width:1.5px;"/><path d="M671.559,189.801c3.701,31.765 2.603,60.124 -4.027,84.559" style="fill:none;stroke:#a0be04;stroke-width:1.5px;"/><path d="M674.243,137.456c-2.111,44.28 -1.739,88.573 0.895,132.877" style="fill:none;stroke:#a0be04;stroke-width:1.5px;"/><path d="M642.925,125.376c5.276,51.081 8.824,102.212 8.501,153.458" style="fill:none;stroke:#a0be04;stroke-width:1.5px;"/><path d="M636.661,84.215c-5.325,62.632 -8.097,125.267 -6.263,187.908" style="fill:none;stroke:#a0be04;stroke-width:1.5px;"/></g><g id="petals"><g><path d="M76.379,75.584c-4.064,-2.98 -3.787,-5.916 -1.021,-8.827c3.408,-2.824 5.938,-1.826 7.806,2.042c-0.552,-4.345 1.346,-6.859 6.306,-7.086c4.482,0.448 5.857,2.662 3.242,7.146c2.149,-3.253 4.692,-4.456 7.747,-3.003c2.738,3.502 2.307,5.853 -1.862,6.846c6.317,-0.149 8.889,1.568 7.086,5.465c-1.837,3.435 -5.281,4.791 -10.088,4.383c3.7,2.131 5.444,4.631 3.603,7.807c-3.432,4.024 -6.856,4.295 -10.269,-1.021c0.242,5.079 -1.721,7.82 -6.905,7.146c-3.539,-0.322 -4.475,-2.895 -3.543,-7.086c-3.131,4.116 -6.501,4.851 -10.269,0c-1.488,-3.418 0.043,-5.043 3.903,-5.285c-4.915,-2.916 -6.491,-5.798 -4.804,-8.647c1.288,-1.539 4.449,-1.373 9.068,0.12Z" style="fill:#f05f98;stroke:#cd395a;stroke-width:1px;"/><ellipse cx="85.302" cy="79.227" rx="3.603" ry="3.716" style="fill:#fcce12;"/></g><g><path d="M48.152,59.361c-4.985,0.74 -6.853,-1.542 -6.935,-5.557c0.437,-4.404 2.936,-5.474 6.986,-4.039c-3.449,-2.7 -3.869,-5.822 -0.502,-9.471c3.501,-2.835 6.036,-2.228 7.331,2.798c-0.761,-3.823 0.201,-6.467 3.395,-7.582c4.409,0.563 5.756,2.537 3.491,6.175c4.386,-4.549 7.422,-5.137 8.88,-1.099c1.111,3.733 -0.383,7.12 -4.088,10.211c4.129,-1.087 7.127,-0.537 8.052,3.015c0.391,5.275 -1.852,7.876 -8.017,6.497c3.744,3.441 4.277,6.77 0.117,9.937c-2.741,2.26 -5.217,1.089 -7.502,-2.545c0.67,5.128 -1.209,8.02 -7.299,7.222c-3.462,-1.382 -3.517,-3.614 -0.943,-6.502c-5.545,1.385 -8.692,0.444 -9.496,-2.768c-0.167,-1.999 2.196,-4.105 6.53,-6.292Z" style="fill:#f05f98;stroke:#cd395a;stroke-width:1px;"/><path d="M54.443,53.034c1.414,-1.399 3.732,-1.351 5.175,0.107c1.442,1.457 1.465,3.776 0.052,5.175c-1.414,1.399 -3.732,1.351 -5.175,-0.107c-1.442,-1.458 -1.465,-3.777 -0.052,-5.175Z" style="fill:#fcce12;"/></g><g><path d="M102.705,155.431c4.503,2.261 4.72,5.202 2.477,8.533c-2.89,3.353 -5.55,2.791 -8.037,-0.712c1.268,4.192 -0.184,6.987 -5.037,8.037c-4.494,0.305 -6.219,-1.649 -4.388,-6.506c-1.577,3.566 -3.884,5.175 -7.138,4.251c-3.283,-2.996 -3.249,-5.386 0.696,-7.06c-6.204,1.199 -9.027,-0.065 -7.898,-4.208c1.239,-3.693 4.409,-5.603 9.217,-6.003c-4.003,-1.484 -6.139,-3.658 -4.853,-7.097c2.714,-4.54 6.045,-5.377 10.295,-0.704c-1.084,-4.967 0.395,-7.998 5.619,-8.196c3.543,-0.273 4.895,2.109 4.674,6.396c2.4,-4.58 5.602,-5.866 10.125,-1.71c2.037,3.122 0.798,4.979 -2.969,5.861c5.333,2.056 7.367,4.636 6.178,7.726c-1.014,1.732 -4.158,2.095 -8.961,1.392Z" style="fill:#f05f98;stroke:#cd395a;stroke-width:1px;"/><path d="M93.919,156.989c-1.961,0.331 -3.83,-1.041 -4.171,-3.063c-0.342,-2.022 0.972,-3.933 2.933,-4.264c1.961,-0.331 3.83,1.041 4.172,3.063c0.341,2.022 -0.973,3.933 -2.934,4.264Z" style="fill:#fcce12;"/></g><g><path d="M224.052,211.885c3.598,3.528 2.906,6.395 -0.246,8.883c-3.775,2.311 -6.137,0.963 -7.436,-3.131c-0.072,4.379 -2.308,6.598 -7.249,6.117c-4.373,-1.081 -5.419,-3.469 -2.193,-7.535c-2.59,2.914 -5.279,3.743 -8.095,1.87c-2.213,-3.856 -1.451,-6.121 2.816,-6.511c-6.274,-0.751 -8.575,-2.816 -6.236,-6.417c2.306,-3.139 5.908,-3.991 10.609,-2.904c-3.359,-2.635 -4.73,-5.358 -2.456,-8.239c3.97,-3.496 7.397,-3.277 10.019,2.471c0.483,-5.062 2.816,-7.496 7.852,-6.091c3.457,0.821 4.018,3.502 2.499,7.518c3.684,-3.63 7.125,-3.878 10.164,1.46c0.987,3.595 -0.759,4.986 -4.615,4.676c4.451,3.585 5.6,6.662 3.525,9.242c-1.494,1.34 -4.599,0.727 -8.958,-1.409Z" style="fill:#f05f98;stroke:#cd395a;stroke-width:1px;"/><path d="M215.209,210.688c-1.968,-0.282 -3.329,-2.16 -3.038,-4.19c0.292,-2.03 2.127,-3.448 4.095,-3.165c1.969,0.283 3.33,2.16 3.038,4.19c-0.292,2.03 -2.127,3.448 -4.095,3.165Z" style="fill:#fcce12;"/></g><g><path d="M252.299,138.898c3.598,3.528 2.907,6.395 -0.246,8.883c-3.775,2.311 -6.137,0.963 -7.436,-3.131c-0.072,4.379 -2.307,6.598 -7.249,6.116c-4.373,-1.08 -5.419,-3.468 -2.193,-7.534c-2.59,2.914 -5.278,3.743 -8.095,1.87c-2.213,-3.856 -1.451,-6.121 2.816,-6.511c-6.274,-0.751 -8.575,-2.816 -6.236,-6.417c2.306,-3.139 5.908,-3.991 10.609,-2.904c-3.359,-2.635 -4.73,-5.358 -2.456,-8.24c3.97,-3.495 7.398,-3.276 10.019,2.472c0.484,-5.062 2.816,-7.496 7.852,-6.091c3.457,0.821 4.018,3.502 2.499,7.517c3.684,-3.629 7.125,-3.877 10.164,1.461c0.987,3.595 -0.759,4.986 -4.615,4.676c4.451,3.585 5.6,6.662 3.525,9.242c-1.494,1.34 -4.599,0.727 -8.958,-1.409Z" style="fill:#f05f98;stroke:#cd395a;stroke-width:1px;"/><path d="M243.456,137.701c-1.968,-0.283 -3.329,-2.16 -3.038,-4.19c0.292,-2.03 2.127,-3.448 4.095,-3.165c1.969,0.283 3.33,2.16 3.038,4.19c-0.292,2.03 -2.126,3.448 -4.095,3.165Z" style="fill:#fcce12;"/></g><g><path d="M396.443,223.619c4.964,0.868 6.019,3.622 4.831,7.458c-1.802,4.043 -4.512,4.271 -7.902,1.633c2.422,3.649 1.837,6.744 -2.508,9.147c-4.216,1.587 -6.431,0.212 -6.076,-4.966c-0.483,3.869 -2.229,6.075 -5.611,6.127c-4.008,-1.923 -4.663,-4.221 -1.368,-6.961c-5.595,2.936 -8.662,2.538 -8.774,-1.754c0.122,-3.894 2.607,-6.637 7.097,-8.404c-4.262,-0.268 -6.934,-1.735 -6.692,-5.398c1.291,-5.13 4.239,-6.891 9.656,-3.64c-2.469,-4.445 -1.926,-7.773 3.019,-9.468c3.314,-1.281 5.295,0.61 6.319,4.78c0.979,-5.078 3.674,-7.232 9.203,-4.555c2.85,2.403 2.198,4.538 -1.155,6.467c5.7,0.434 8.39,2.318 8.141,5.619c-0.471,1.951 -3.377,3.204 -8.18,3.915Z" style="fill:#f05f98;stroke:#cd395a;stroke-width:1px;"/><path d="M388.479,227.642c-1.782,0.882 -3.968,0.106 -4.877,-1.732c-0.91,-1.838 -0.201,-4.046 1.581,-4.928c1.782,-0.882 3.967,-0.106 4.877,1.732c0.91,1.838 0.201,4.046 -1.581,4.928Z" style="fill:#fcce12;"/></g><g><path d="M448.109,223.48c3.255,-3.848 6.165,-3.369 8.877,-0.407c2.581,3.595 1.411,6.049 -2.577,7.646c4.372,-0.25 6.749,1.817 6.632,6.781c-0.757,4.44 -3.062,5.659 -7.353,2.739c3.096,2.369 4.12,4.99 2.458,7.936c-3.683,2.49 -5.997,1.896 -6.7,-2.331c-0.289,6.312 -2.179,8.759 -5.942,6.69c-3.3,-2.07 -4.414,-5.599 -3.674,-10.367c-2.382,3.543 -4.997,5.11 -8.038,3.053c-3.777,-3.702 -3.81,-7.137 1.73,-10.173c-5.083,-0.111 -7.682,-2.258 -6.65,-7.384c0.565,-3.507 3.197,-4.263 7.314,-3.043c-3.89,-3.408 -4.39,-6.821 0.711,-10.244c3.513,-1.248 5.028,0.391 5.001,4.26c3.25,-4.702 6.234,-6.074 8.959,-4.194c1.447,1.392 1.062,4.533 -0.748,9.038Z" style="fill:#f05f98;stroke:#cd395a;stroke-width:1px;"/><path d="M447.564,232.386c-0.137,1.984 -1.91,3.479 -3.956,3.337c-2.046,-0.142 -3.595,-1.868 -3.457,-3.852c0.138,-1.983 1.911,-3.479 3.956,-3.337c2.046,0.142 3.595,1.868 3.457,3.852Z" style="fill:#fcce12;"/></g><g><path d="M591.252,103.257c-4.593,-2.073 -4.931,-5.002 -2.829,-8.424c2.749,-3.469 5.43,-3.018 8.06,0.379c-1.441,-4.136 -0.106,-6.989 4.699,-8.239c4.478,-0.491 6.282,1.39 4.654,6.318c1.428,-3.628 3.666,-5.332 6.955,-4.543c3.406,2.857 3.471,5.246 -0.401,7.082c6.148,-1.455 9.021,-0.309 8.065,3.877c-1.085,3.741 -4.173,5.782 -8.961,6.38c4.062,1.317 6.287,3.401 5.144,6.89c-2.523,4.649 -5.817,5.623 -10.257,1.13c1.289,4.919 -0.063,8.008 -5.274,8.423c-3.528,0.419 -4.978,-1.904 -4.935,-6.198c-2.209,4.677 -5.354,6.094 -10.045,2.13c-2.165,-3.035 -1.005,-4.942 2.722,-5.979c-5.413,-1.834 -7.552,-4.327 -6.492,-7.463c0.94,-1.773 4.067,-2.266 8.895,-1.763Z" style="fill:#f05f98;stroke:#cd395a;stroke-width:1px;"/><path d="M599.966,101.336c1.945,-0.413 3.87,0.881 4.295,2.887c0.425,2.006 -0.809,3.97 -2.755,4.382c-1.945,0.412 -3.869,-0.882 -4.295,-2.888c-0.425,-2.006 0.809,-3.969 2.755,-4.381Z" style="fill:#fcce12;"/></g><g><path d="M603.136,226.292c-4.593,-2.073 -4.931,-5.002 -2.829,-8.424c2.749,-3.469 5.43,-3.018 8.06,0.379c-1.441,-4.136 -0.106,-6.989 4.699,-8.239c4.478,-0.491 6.282,1.39 4.654,6.318c1.428,-3.628 3.666,-5.332 6.955,-4.543c3.406,2.857 3.471,5.246 -0.401,7.083c6.149,-1.456 9.021,-0.31 8.065,3.876c-1.085,3.741 -4.173,5.782 -8.961,6.38c4.062,1.317 6.287,3.401 5.144,6.89c-2.523,4.649 -5.816,5.624 -10.257,1.13c1.289,4.919 -0.062,8.008 -5.274,8.423c-3.528,0.419 -4.978,-1.904 -4.935,-6.198c-2.209,4.677 -5.354,6.094 -10.045,2.13c-2.165,-3.035 -1.005,-4.942 2.722,-5.979c-5.413,-1.834 -7.552,-4.327 -6.492,-7.463c0.94,-1.773 4.067,-2.266 8.895,-1.763Z" style="fill:#f05f98;stroke:#cd395a;stroke-width:1px;"/><path d="M611.85,224.371c1.945,-0.413 3.87,0.881 4.295,2.887c0.425,2.006 -0.809,3.97 -2.754,4.382c-1.946,0.412 -3.87,-0.881 -4.295,-2.888c-0.426,-2.006 0.808,-3.969 2.754,-4.381Z" style="fill:#fcce12;"/></g><g><path d="M107.988,39.435c-0.761,-4.982 1.513,-6.86 5.527,-6.958c4.407,0.418 5.487,2.913 4.069,6.968c2.685,-3.459 5.805,-3.893 9.469,-0.541c2.849,3.489 2.253,6.026 -2.768,7.342c3.821,-0.776 6.469,0.174 7.597,3.363c-0.544,4.412 -2.513,5.767 -6.16,3.518c4.567,4.366 5.169,7.399 1.136,8.875c-3.728,1.127 -7.121,-0.353 -10.228,-4.045c1.105,4.125 0.568,7.125 -2.981,8.065c-5.273,0.413 -7.884,-1.819 -6.531,-7.99c-3.424,3.758 -6.751,4.306 -9.936,0.159c-2.272,-2.731 -1.111,-5.212 2.513,-7.513c-5.124,0.692 -8.025,-1.175 -7.253,-7.268c1.368,-3.468 3.6,-3.532 6.498,-0.97c-1.408,-5.539 -0.481,-8.691 2.728,-9.508c1.999,-0.176 4.114,2.179 6.32,6.503Z" style="fill:#f05f98;stroke:#cd395a;stroke-width:1px;"/><path d="M114.342,45.7c1.404,1.407 1.366,3.726 -0.085,5.174c-1.452,1.449 -3.771,1.482 -5.175,0.074c-1.405,-1.407 -1.367,-3.726 0.085,-5.174c1.451,-1.449 3.77,-1.482 5.175,-0.074Z" style="fill:#fcce12;"/></g><g><path d="M593.589,17.407c-2.384,-4.439 -0.87,-6.97 2.88,-8.406c4.292,-1.081 6.145,0.908 6.166,5.204c1.373,-4.159 4.168,-5.611 8.742,-3.68c3.853,2.334 4.14,4.925 -0.15,7.846c3.34,-2.011 6.153,-2.001 8.284,0.626c0.964,4.339 -0.438,6.275 -4.628,5.376c5.765,2.586 7.348,5.243 4.042,7.984c-3.137,2.309 -6.829,2.05 -10.993,-0.388c2.422,3.516 2.92,6.523 -0.109,8.597c-4.831,2.154 -8.038,0.924 -8.828,-5.343c-1.969,4.688 -4.921,6.317 -9.31,3.475c-3.055,-1.813 -2.792,-4.539 -0.146,-7.92c-4.598,2.367 -7.956,1.579 -9.268,-4.422c0.128,-3.726 2.21,-4.533 5.798,-3.089c-3.18,-4.748 -3.361,-8.028 -0.612,-9.873c1.825,-0.834 4.606,0.677 8.132,4.013Z" style="fill:#fdfdfd;stroke:#e3e3e3;stroke-width:1px;"/><path d="M601.674,21.184c1.794,0.856 2.534,3.054 1.651,4.905c-0.883,1.85 -3.057,2.658 -4.851,1.802c-1.795,-0.857 -2.535,-3.055 -1.652,-4.905c0.883,-1.851 3.057,-2.659 4.852,-1.802Z" style="fill:#fcce12;"/></g><g><path d="M531.095,123.155c-4.654,-1.932 -5.082,-4.85 -3.085,-8.334c2.642,-3.552 5.336,-3.182 8.068,0.133c-1.566,-4.09 -0.319,-6.983 4.446,-8.379c4.46,-0.628 6.321,1.198 4.844,6.173c1.316,-3.669 3.502,-5.441 6.814,-4.753c3.491,2.752 3.628,5.138 -0.186,7.092c6.102,-1.643 9.008,-0.585 8.18,3.628c-0.97,3.773 -3.994,5.907 -8.762,6.651c4.1,1.193 6.387,3.207 5.351,6.729c-2.38,4.724 -5.642,5.799 -10.217,1.443c1.438,4.877 0.182,8.006 -5.015,8.58c-3.514,0.526 -5.034,-1.752 -5.122,-6.044c-2.065,4.741 -5.165,6.254 -9.975,2.434c-2.257,-2.967 -1.155,-4.909 2.539,-6.059c-5.467,-1.667 -7.681,-4.094 -6.717,-7.261c0.886,-1.801 3.996,-2.389 8.837,-2.033Z" style="fill:#fdfdfd;stroke:#e3e3e3;stroke-width:1px;"/><path d="M539.746,120.968c1.932,-0.471 3.895,0.763 4.381,2.756c0.486,1.992 -0.687,3.992 -2.619,4.463c-1.932,0.472 -3.895,-0.763 -4.381,-2.755c-0.487,-1.992 0.687,-3.992 2.619,-4.464Z" style="fill:#fcce12;"/></g><g><path d="M634.933,122.388c-3.975,-3.097 -3.612,-6.024 -0.762,-8.853c3.489,-2.724 5.988,-1.653 7.743,2.268c-0.425,-4.358 1.545,-6.817 6.509,-6.898c4.467,0.578 5.778,2.832 3.033,7.237c2.243,-3.189 4.82,-4.317 7.831,-2.775c2.635,3.58 2.135,5.917 -2.061,6.788c6.319,0.036 8.84,1.827 6.924,5.669c-1.936,3.38 -5.418,4.635 -10.212,4.088c3.636,2.237 5.307,4.787 3.373,7.908c-3.547,3.923 -6.978,4.093 -10.234,-1.32c0.093,5.083 -1.949,7.767 -7.111,6.941c-3.528,-0.424 -4.389,-3.024 -3.335,-7.186c-3.249,4.023 -6.639,4.659 -10.264,-0.3c-1.388,-3.459 0.19,-5.039 4.056,-5.168c-4.829,-3.058 -6.319,-5.985 -4.55,-8.784c1.333,-1.5 4.487,-1.242 9.06,0.385Z" style="fill:#fdfdfd;stroke:#e3e3e3;stroke-width:1px;"/><path d="M643.854,122.575c1.988,0.058 3.553,1.77 3.493,3.82c-0.059,2.049 -1.722,3.666 -3.709,3.608c-1.988,-0.058 -3.553,-1.769 -3.493,-3.819c0.06,-2.05 1.722,-3.667 3.709,-3.609Z" style="fill:#fcce12;"/></g><g><path d="M586.531,189.974c-2.806,-4.185 -1.546,-6.852 2.045,-8.647c4.167,-1.495 6.205,0.304 6.645,4.577c0.961,-4.273 3.601,-5.992 8.341,-4.516c4.062,1.947 4.602,4.498 0.617,7.823c3.127,-2.327 5.928,-2.592 8.305,-0.186c1.383,4.225 0.177,6.288 -4.081,5.803c5.991,2.01 7.825,4.5 4.803,7.55c-2.897,2.605 -6.597,2.708 -10.978,0.688c2.753,3.263 3.542,6.207 0.73,8.566c-4.597,2.616 -7.909,1.705 -9.308,-4.455c-1.502,4.857 -4.281,6.767 -8.926,4.368c-3.217,-1.507 -3.222,-4.246 -0.919,-7.869c-4.344,2.805 -7.764,2.348 -9.655,-3.496c-0.236,-3.72 1.757,-4.727 5.469,-3.64c-3.629,-4.415 -4.129,-7.661 -1.573,-9.766c1.735,-1.008 4.651,0.224 8.485,3.2Z" style="fill:#fdfdfd;stroke:#e3e3e3;stroke-width:1px;"/><path d="M594.946,192.943c1.87,0.677 2.821,2.792 2.123,4.72c-0.699,1.929 -2.783,2.944 -4.653,2.267c-1.87,-0.677 -2.821,-2.792 -2.123,-4.72c0.698,-1.928 2.783,-2.944 4.653,-2.267Z" style="fill:#fcce12;"/></g><g><path d="M478.466,176.949c3.488,3.638 2.708,6.482 -0.519,8.871c-3.845,2.193 -6.164,0.774 -7.336,-3.359c-0.207,4.375 -2.51,6.524 -7.435,5.89c-4.337,-1.215 -5.309,-3.634 -1.959,-7.598c-2.679,2.833 -5.392,3.578 -8.149,1.619c-2.093,-3.922 -1.262,-6.162 3.016,-6.421c-6.248,-0.944 -8.485,-3.08 -6.036,-6.606c2.403,-3.066 6.029,-3.807 10.694,-2.576c-3.276,-2.737 -4.563,-5.501 -2.2,-8.311c4.075,-3.371 7.495,-3.047 9.938,2.779c0.639,-5.044 3.046,-7.406 8.036,-5.846c3.429,0.928 3.907,3.625 2.265,7.592c3.795,-3.515 7.241,-3.656 10.115,1.773c0.875,3.624 -0.913,4.96 -4.758,4.531c4.338,3.721 5.392,6.832 3.239,9.347c-1.535,1.293 -4.619,0.584 -8.911,-1.685Z" style="fill:#fdfdfd;stroke:#e3e3e3;stroke-width:1px;"/><path d="M469.665,175.48c-1.959,-0.343 -3.261,-2.262 -2.907,-4.282c0.354,-2.02 2.232,-3.381 4.19,-3.037c1.959,0.343 3.262,2.262 2.907,4.282c-0.354,2.02 -2.232,3.381 -4.19,3.037Z" style="fill:#fcce12;"/></g><g><path d="M201.071,126.511c-3.19,-3.901 -2.189,-6.675 1.217,-8.802c4.006,-1.883 6.206,-0.286 7.049,3.927c0.551,-4.345 3.016,-6.306 7.875,-5.286c4.228,1.553 5.007,4.041 1.355,7.729c2.893,-2.612 5.656,-3.142 8.251,-0.972c1.777,4.075 0.771,6.243 -3.513,6.164c6.154,1.434 8.215,3.739 5.496,7.061c-2.637,2.868 -6.31,3.32 -10.864,1.725c3.051,2.987 4.115,5.843 1.538,8.458c-4.328,3.04 -7.711,2.447 -9.687,-3.553c-1.035,4.978 -3.621,7.142 -8.472,5.194c-3.346,-1.196 -3.61,-3.922 -1.66,-7.747c-4.06,3.204 -7.507,3.073 -9.943,-2.565c-0.588,-3.681 1.301,-4.872 5.099,-4.142c-4.031,-4.052 -4.836,-7.236 -2.491,-9.573c1.632,-1.168 4.651,-0.218 8.75,2.382Z" style="fill:#f05f98;stroke:#cd395a;stroke-width:1px;"/><path d="M209.729,128.669c1.926,0.497 3.073,2.513 2.561,4.498c-0.513,1.986 -2.492,3.195 -4.417,2.698c-1.926,-0.497 -3.073,-2.512 -2.561,-4.498c0.512,-1.986 2.492,-3.194 4.417,-2.698Z" style="fill:#fcce12;"/></g><g><path d="M253.389,204.687c3.598,3.528 2.907,6.395 -0.245,8.883c-3.776,2.31 -6.137,0.963 -7.437,-3.132c-0.071,4.379 -2.307,6.598 -7.249,6.117c-4.373,-1.081 -5.419,-3.468 -2.193,-7.534c-2.59,2.914 -5.278,3.743 -8.095,1.87c-2.212,-3.856 -1.451,-6.121 2.817,-6.512c-6.274,-0.751 -8.576,-2.816 -6.237,-6.416c2.307,-3.139 5.909,-3.992 10.61,-2.904c-3.36,-2.636 -4.731,-5.358 -2.456,-8.24c3.969,-3.496 7.397,-3.277 10.018,2.471c0.484,-5.061 2.817,-7.496 7.852,-6.091c3.457,0.822 4.018,3.502 2.499,7.518c3.684,-3.629 7.125,-3.877 10.164,1.461c0.988,3.594 -0.759,4.985 -4.615,4.675c4.451,3.586 5.6,6.663 3.525,9.243c-1.494,1.34 -4.598,0.726 -8.958,-1.409Z" style="fill:#f05f98;stroke:#cd395a;stroke-width:1px;"/><path d="M244.547,203.49c-1.969,-0.283 -3.33,-2.161 -3.038,-4.19c0.292,-2.03 2.126,-3.448 4.095,-3.166c1.968,0.283 3.329,2.161 3.037,4.191c-0.291,2.029 -2.126,3.448 -4.094,3.165Z" style="fill:#fcce12;"/></g><g><path d="M431.275,129.081c-0.556,-5.009 1.793,-6.792 5.808,-6.725c4.386,0.598 5.363,3.135 3.78,7.129c2.825,-3.347 5.96,-3.652 9.484,-0.153c2.703,3.603 2.003,6.114 -3.067,7.223c3.849,-0.619 6.455,0.439 7.452,3.671c-0.724,4.386 -2.747,5.659 -6.3,3.262c4.385,4.55 4.862,7.606 0.772,8.915c-3.772,0.972 -7.101,-0.646 -10.054,-4.461c0.935,4.166 0.275,7.142 -3.309,7.935c-5.286,0.197 -7.802,-2.141 -6.197,-8.251c-3.576,3.615 -6.923,4.025 -9.935,-0.248c-2.158,-2.823 -0.897,-5.254 2.82,-7.404c-5.149,0.481 -7.971,-1.503 -6.949,-7.56c1.509,-3.409 3.741,-3.381 6.532,-0.702c-1.179,-5.593 -0.124,-8.703 3.116,-9.389c2.004,-0.093 4.021,2.346 6.047,6.758Z" style="fill:#f05f98;stroke:#cd395a;stroke-width:1px;"/><path d="M437.367,135.601c1.346,1.464 1.212,3.779 -0.297,5.167c-1.51,1.387 -3.829,1.325 -5.174,-0.139c-1.346,-1.464 -1.213,-3.779 0.297,-5.167c1.51,-1.388 3.828,-1.326 5.174,0.139Z" style="fill:#fcce12;"/></g><g><path d="M417.946,250.176c1.342,4.858 -0.695,6.99 -4.67,7.56c-4.425,0.103 -5.792,-2.247 -4.861,-6.441c-2.259,3.751 -5.307,4.549 -9.339,1.652c-3.24,-3.13 -2.947,-5.72 1.884,-7.617c-3.702,1.22 -6.444,0.588 -7.939,-2.446c0.021,-4.445 1.817,-6.022 5.704,-4.218c-5.05,-3.798 -6.004,-6.74 -2.173,-8.68c3.57,-1.557 7.113,-0.487 10.633,2.813c-1.583,-3.965 -1.402,-7.008 2.012,-8.359c5.187,-1.031 8.042,0.879 7.425,7.166c2.958,-4.135 6.198,-5.07 9.848,-1.327c2.578,2.446 1.717,5.046 -1.612,7.757c5.008,-1.29 8.108,0.222 8.058,6.365c-0.951,3.604 -3.159,3.93 -6.339,1.727c2.05,5.335 1.5,8.574 -1.59,9.763c-1.964,0.41 -4.342,-1.68 -7.041,-5.715Z" style="fill:#fdfdfd;stroke:#e3e3e3;stroke-width:1px;"/><path d="M410.899,244.703c-1.56,-1.233 -1.795,-3.54 -0.524,-5.149c1.271,-1.609 3.57,-1.915 5.13,-0.682c1.561,1.232 1.796,3.539 0.525,5.149c-1.272,1.609 -3.57,1.914 -5.131,0.682Z" style="fill:#fcce12;"/></g><g><path d="M268.051,187.329c-2.336,-4.466 -0.794,-6.98 2.971,-8.375c4.304,-1.034 6.135,0.975 6.109,5.271c1.418,-4.143 4.229,-5.565 8.782,-3.584c3.827,2.376 4.086,4.97 -0.236,7.844c3.362,-1.974 6.175,-1.934 8.277,0.716c0.916,4.35 -0.507,6.27 -4.687,5.326c5.737,2.648 7.29,5.323 3.955,8.027c-3.162,2.275 -6.851,1.975 -10.988,-0.508c2.384,3.543 2.849,6.555 -0.203,8.595c-4.854,2.102 -8.047,0.837 -8.77,-5.439c-2.02,4.666 -4.989,6.263 -9.347,3.374c-3.035,-1.847 -2.742,-4.57 -0.059,-7.922c-4.624,2.317 -7.973,1.492 -9.219,-4.523c0.169,-3.724 2.259,-4.508 5.831,-3.025c-3.128,-4.783 -3.273,-8.065 -0.504,-9.879c1.834,-0.815 4.599,0.727 8.088,4.102Z" style="fill:#fdfdfd;stroke:#e3e3e3;stroke-width:1px;"/><path d="M276.094,191.193c1.785,0.876 2.501,3.082 1.598,4.923c-0.903,1.841 -3.086,2.624 -4.871,1.749c-1.786,-0.876 -2.502,-3.082 -1.599,-4.923c0.904,-1.841 3.086,-2.625 4.872,-1.749Z" style="fill:#fcce12;"/></g><g><path d="M223.097,235.189c3.481,-3.643 6.357,-2.988 8.885,0.132c2.358,3.745 1.041,6.124 -3.037,7.476c4.38,0.015 6.628,2.223 6.209,7.17c-1.025,4.386 -3.399,5.463 -7.506,2.289c2.947,2.552 3.811,5.23 1.974,8.07c-3.827,2.262 -6.102,1.529 -6.547,-2.733c-0.671,6.283 -2.706,8.611 -6.337,6.318c-3.168,-2.266 -4.066,-5.857 -3.039,-10.571c-2.592,3.393 -5.297,4.798 -8.207,2.561c-3.546,-3.925 -3.371,-7.355 2.343,-10.05c-5.068,-0.419 -7.532,-2.72 -6.191,-7.773c0.777,-3.467 3.451,-4.062 7.485,-2.595c-3.676,-3.637 -3.967,-7.075 1.331,-10.182c3.582,-1.033 4.995,0.696 4.734,4.555c3.529,-4.496 6.591,-5.685 9.197,-3.642c1.359,1.476 0.785,4.588 -1.294,8.975Z" style="fill:#fdfdfd;stroke:#e3e3e3;stroke-width:1px;"/><path d="M222.013,244.046c-0.258,1.972 -2.118,3.357 -4.152,3.091c-2.033,-0.266 -3.475,-2.082 -3.217,-4.054c0.258,-1.972 2.118,-3.357 4.151,-3.091c2.034,0.266 3.475,2.082 3.218,4.054Z" style="fill:#fcce12;"/></g><g><path d="M126.267,221.205c-5.03,0.302 -6.693,-2.134 -6.423,-6.14c0.819,-4.35 3.402,-5.198 7.311,-3.415c-3.2,-2.991 -3.346,-6.137 0.326,-9.479c3.735,-2.518 6.207,-1.693 7.059,3.427c-0.424,-3.875 0.764,-6.425 4.043,-7.257c4.344,0.945 5.513,3.029 2.939,6.456c4.766,-4.149 7.842,-4.471 8.943,-0.321c0.781,3.816 -1.003,7.059 -4.963,9.816c4.208,-0.723 7.147,0.086 7.758,3.706c-0.07,5.289 -2.532,7.684 -8.553,5.773c3.429,3.754 3.67,7.117 -0.75,9.909c-2.928,2.013 -5.292,0.63 -7.252,-3.19c0.221,5.167 -1.904,7.885 -7.901,6.558c-3.328,-1.679 -3.188,-3.907 -0.372,-6.559c-5.645,0.896 -8.698,-0.316 -9.219,-3.585c0.008,-2.007 2.546,-3.898 7.054,-5.699Z" style="fill:#fdfdfd;stroke:#e3e3e3;stroke-width:1px;"/><path d="M133.086,215.45c1.53,-1.27 3.836,-1.02 5.146,0.558c1.309,1.578 1.13,3.89 -0.4,5.16c-1.53,1.27 -3.835,1.02 -5.145,-0.558c-1.31,-1.578 -1.131,-3.89 0.399,-5.16Z" style="fill:#fcce12;"/></g><g><path d="M65.671,187.575c-4.462,-2.341 -4.627,-5.285 -2.326,-8.576c2.949,-3.301 5.599,-2.692 8.024,0.854c-1.194,-4.214 0.307,-6.983 5.178,-7.947c4.498,-0.226 6.189,1.759 4.272,6.582c1.639,-3.537 3.975,-5.106 7.212,-4.124c3.23,3.054 3.154,5.442 -0.82,7.047c6.224,-1.09 9.023,0.224 7.822,4.346c-1.304,3.671 -4.507,5.525 -9.322,5.839c3.977,1.555 6.074,3.767 4.727,7.182c-2.793,4.491 -6.138,5.27 -10.306,0.522c0.997,4.986 -0.535,7.99 -5.762,8.096c-3.547,0.21 -4.857,-2.195 -4.56,-6.478c-2.481,4.537 -5.705,5.767 -10.154,1.532c-1.982,-3.158 -0.71,-4.993 3.071,-5.808c-5.295,-2.15 -7.283,-4.765 -6.04,-7.833c1.044,-1.715 4.194,-2.022 8.984,-1.234Z" style="fill:#fdfdfd;stroke:#e3e3e3;stroke-width:1px;"/><path d="M74.483,186.172c1.967,-0.297 3.811,1.108 4.117,3.136c0.306,2.028 -1.042,3.915 -3.008,4.212c-1.966,0.296 -3.811,-1.109 -4.117,-3.137c-0.306,-2.028 1.042,-3.915 3.008,-4.211Z" style="fill:#fcce12;"/></g><g><path d="M38.232,106.527c-5.03,0.319 -6.7,-2.111 -6.445,-6.118c0.804,-4.353 3.384,-5.21 7.299,-3.44c-3.21,-2.98 -3.367,-6.126 0.293,-9.481c3.726,-2.531 6.202,-1.714 7.071,3.403c-0.438,-3.874 0.742,-6.428 4.018,-7.272c4.347,0.93 5.523,3.011 2.962,6.446c4.751,-4.165 7.825,-4.498 8.941,-0.351c0.794,3.813 -0.979,7.062 -4.929,9.833c4.206,-0.738 7.147,0.061 7.771,3.679c-0.052,5.289 -2.505,7.692 -8.533,5.802c3.443,3.742 3.695,7.104 -0.715,9.912c-2.921,2.023 -5.29,0.649 -7.263,-3.165c0.239,5.166 -1.876,7.892 -7.878,6.586c-3.334,-1.667 -3.202,-3.896 -0.395,-6.558c-5.642,0.916 -8.699,-0.285 -9.231,-3.553c0.001,-2.007 2.532,-3.907 7.034,-5.723Z" style="fill:#fdfdfd;stroke:#e3e3e3;stroke-width:1px;"/><path d="M45.031,100.748c1.525,-1.275 3.832,-1.033 5.147,0.54c1.315,1.573 1.144,3.886 -0.381,5.161c-1.526,1.276 -3.832,1.034 -5.148,-0.54c-1.315,-1.573 -1.144,-3.886 0.382,-5.161Z" style="fill:#fcce12;"/></g><g><path d="M114.638,16.613c-4.547,-2.172 -4.821,-5.109 -2.644,-8.483c2.824,-3.409 5.494,-2.899 8.05,0.554c-1.35,-4.166 0.046,-6.99 4.878,-8.134c4.487,-0.394 6.25,1.527 4.514,6.418c1.507,-3.596 3.782,-5.25 7.053,-4.39c3.342,2.931 3.355,5.321 -0.556,7.072c6.179,-1.321 9.026,-0.112 7.978,4.052c-1.165,3.716 -4.297,5.689 -9.097,6.183c4.032,1.405 6.21,3.537 4.992,7c-2.624,4.593 -5.938,5.495 -10.279,0.906c1.181,4.946 -0.238,8.004 -5.457,8.305c-3.537,0.343 -4.935,-2.012 -4.799,-6.303c-2.31,4.627 -5.485,5.975 -10.089,1.909c-2.098,-3.081 -0.896,-4.962 2.853,-5.918c-5.373,-1.951 -7.456,-4.49 -6.328,-7.603c0.979,-1.752 4.115,-2.176 8.931,-1.568Z" style="fill:#fdfdfd;stroke:#e3e3e3;stroke-width:1px;"/><path d="M123.392,14.882c1.954,-0.369 3.85,0.966 4.231,2.981c0.381,2.015 -0.896,3.951 -2.849,4.321c-1.954,0.37 -3.85,-0.966 -4.231,-2.981c-0.382,-2.015 0.895,-3.951 2.849,-4.321Z" style="fill:#fcce12;"/></g><g><path d="M124.7,136.901c-4.496,-2.276 -4.702,-5.218 -2.449,-8.542c2.901,-3.343 5.56,-2.772 8.035,0.739c-1.254,-4.196 0.207,-6.987 5.063,-8.02c4.495,-0.291 6.214,1.669 4.367,6.52c1.588,-3.56 3.901,-5.163 7.151,-4.228c3.274,3.008 3.232,5.397 -0.718,7.058c6.208,-1.179 9.026,0.095 7.883,4.234c-1.25,3.689 -4.427,5.589 -9.236,5.972c3.998,1.498 6.127,3.679 4.829,7.113c-2.728,4.531 -6.062,5.358 -10.297,0.67c1.068,4.972 -0.421,7.997 -5.645,8.178c-3.544,0.261 -4.888,-2.125 -4.653,-6.411c-2.416,4.572 -5.621,5.847 -10.131,1.677c-2.027,-3.129 -0.782,-4.982 2.988,-5.851c-5.326,-2.074 -7.351,-4.66 -6.152,-7.746c1.019,-1.729 4.164,-2.082 8.965,-1.363Z" style="fill:#fdfdfd;stroke:#e3e3e3;stroke-width:1px;"/><path d="M133.491,135.371c1.962,-0.324 3.827,1.054 4.162,3.078c0.335,2.023 -0.986,3.929 -2.948,4.254c-1.962,0.325 -3.826,-1.054 -4.161,-3.077c-0.335,-2.023 0.985,-3.93 2.947,-4.255Z" style="fill:#fcce12;"/></g><g><path d="M169.486,191.097c-2.003,-4.624 -0.281,-7.019 3.576,-8.134c4.368,-0.717 6.048,1.421 5.707,5.704c1.718,-4.029 4.625,-5.241 9.021,-2.932c3.642,2.65 3.711,5.256 -0.81,7.805c3.497,-1.722 6.3,-1.477 8.202,1.32c0.596,4.406 -0.964,6.216 -5.063,4.969c5.527,3.061 6.88,5.842 3.356,8.295c-3.32,2.037 -6.977,1.469 -10.921,-1.311c2.118,3.708 2.361,6.746 -0.832,8.557c-4.995,1.741 -8.087,0.246 -8.348,-6.066c-2.356,4.506 -5.434,5.881 -9.569,2.681c-2.892,-2.065 -2.4,-4.759 0.521,-7.906c-4.781,1.973 -8.061,0.905 -8.863,-5.185c0.441,-3.702 2.583,-4.331 6.037,-2.59c-2.77,-4.999 -2.675,-8.283 0.22,-9.889c1.889,-0.679 4.533,1.061 7.766,4.682Z" style="fill:#fdfdfd;stroke:#e3e3e3;stroke-width:1px;"/><path d="M177.224,195.54c1.717,1.004 2.269,3.256 1.234,5.026c-1.036,1.77 -3.27,2.392 -4.986,1.388c-1.717,-1.004 -2.269,-3.257 -1.234,-5.027c1.036,-1.77 3.27,-2.391 4.986,-1.387Z" style="fill:#fcce12;"/></g><g><path d="M291.136,155.419c-4.06,-2.985 -3.78,-5.92 -1.011,-8.828c3.412,-2.821 5.94,-1.82 7.804,2.05c-0.547,-4.345 1.353,-6.858 6.313,-7.079c4.482,0.453 5.855,2.669 3.235,7.15c2.153,-3.251 4.697,-4.451 7.75,-2.994c2.735,3.504 2.3,5.854 -1.869,6.843c6.317,-0.142 8.887,1.578 7.079,5.473c-1.84,3.433 -5.285,4.785 -10.093,4.372c3.698,2.135 5.44,4.636 3.595,7.81c-3.437,4.021 -6.861,4.288 -10.268,-1.032c0.236,5.079 -1.73,7.819 -6.913,7.138c-3.538,-0.325 -4.472,-2.899 -3.535,-7.089c-3.135,4.113 -6.506,4.844 -10.269,-0.012c-1.484,-3.419 0.048,-5.042 3.909,-5.28c-4.912,-2.921 -6.484,-5.805 -4.794,-8.652c1.29,-1.538 4.45,-1.368 9.067,0.13Z" style="fill:#fcb5e9;stroke:#fba1f5;stroke-width:1px;"/><path d="M300.059,155.356c1.989,0.002 3.601,1.669 3.599,3.719c-0.002,2.051 -1.619,3.714 -3.607,3.712c-1.989,-0.002 -3.601,-1.669 -3.599,-3.72c0.002,-2.05 1.619,-3.713 3.607,-3.711Z" style="fill:#fcce12;"/></g><g><path d="M295.472,208.746c-4.701,-1.813 -5.203,-4.719 -3.295,-8.252c2.551,-3.618 5.253,-3.317 8.069,-0.072c-1.669,-4.049 -0.496,-6.973 4.232,-8.489c4.443,-0.741 6.35,1.037 4.999,6.048c1.223,-3.701 3.363,-5.528 6.691,-4.924c3.559,2.663 3.758,5.044 -0.006,7.094c6.058,-1.797 8.99,-0.813 8.269,3.42c-0.874,3.796 -3.843,6.006 -8.59,6.87c4.129,1.089 6.466,3.045 5.52,6.592c-2.259,4.783 -5.493,5.94 -10.178,1.702c1.562,4.838 0.385,7.998 -4.795,8.703c-3.499,0.616 -5.077,-1.623 -5.273,-5.912c-1.944,4.793 -5.005,6.383 -9.911,2.687c-2.331,-2.909 -1.279,-4.878 2.384,-6.121c-5.507,-1.529 -7.782,-3.898 -6.899,-7.089c0.841,-1.823 3.935,-2.49 8.783,-2.257Z" style="fill:#fcb5e9;stroke:#fba1f5;stroke-width:1px;"/><path d="M304.065,206.341c1.919,-0.52 3.913,0.664 4.45,2.643c0.536,1.98 -0.586,4.009 -2.506,4.529c-1.919,0.521 -3.913,-0.664 -4.449,-2.643c-0.537,-1.979 0.586,-4.009 2.505,-4.529Z" style="fill:#fcce12;"/></g><g><path d="M263.597,222.878c-4.281,-2.659 -4.231,-5.608 -1.697,-8.723c3.181,-3.078 5.78,-2.277 7.941,1.436c-0.885,-4.29 0.813,-6.943 5.741,-7.55c4.503,0.102 6.045,2.204 3.783,6.875c1.892,-3.408 4.335,-4.803 7.492,-3.589c3,3.281 2.75,5.658 -1.329,6.969c6.286,-0.635 8.983,0.879 7.485,4.903c-1.567,3.566 -4.897,5.183 -9.722,5.146c3.853,1.84 5.785,4.199 4.193,7.507c-3.112,4.276 -6.506,4.81 -10.317,-0.229c0.632,5.046 -1.115,7.93 -6.335,7.656c-3.553,-0.048 -4.685,-2.542 -4.078,-6.792c-2.804,4.345 -6.108,5.336 -10.238,0.789c-1.747,-3.293 -0.345,-5.031 3.486,-5.569c-5.126,-2.529 -6.918,-5.282 -5.455,-8.252c1.166,-1.633 4.33,-1.711 9.05,-0.577Z" style="fill:#fcb5e9;stroke:#fba1f5;stroke-width:1px;"/><path d="M272.488,222.119c1.982,-0.153 3.72,1.383 3.878,3.428c0.157,2.044 -1.324,3.828 -3.307,3.981c-1.983,0.153 -3.72,-1.383 -3.878,-3.427c-0.158,-2.045 1.324,-3.829 3.307,-3.982Z" style="fill:#fcce12;"/></g><g><path d="M298.796,234.884c-2.515,-4.367 -1.076,-6.942 2.629,-8.488c4.259,-1.209 6.17,0.725 6.319,5.018c1.248,-4.197 3.999,-5.732 8.628,-3.938c3.92,2.219 4.285,4.8 0.083,7.847c3.279,-2.109 6.091,-2.183 8.299,0.38c1.092,4.309 -0.251,6.285 -4.466,5.512c5.84,2.413 7.5,5.022 4.277,7.859c-3.067,2.402 -6.765,2.252 -10.999,-0.061c2.525,3.443 3.112,6.434 0.145,8.596c-4.764,2.298 -8.006,1.163 -8.982,-5.078c-1.829,4.744 -4.732,6.46 -9.203,3.751c-3.107,-1.723 -2.926,-4.455 -0.381,-7.913c-4.526,2.503 -7.906,1.814 -9.395,-4.145c0.017,-3.728 2.074,-4.597 5.704,-3.259c-3.32,-4.653 -3.599,-7.925 -0.905,-9.851c1.799,-0.888 4.624,0.539 8.247,3.77Z" style="fill:#fcb5e9;stroke:#fba1f5;stroke-width:1px;"/><path d="M306.99,238.419c1.819,0.802 2.624,2.977 1.796,4.853c-0.827,1.876 -2.976,2.748 -4.796,1.945c-1.819,-0.802 -2.624,-2.977 -1.797,-4.853c0.828,-1.876 2.977,-2.748 4.797,-1.945Z" style="fill:#fcce12;"/></g><g><path d="M337.609,226.744c-4.984,-0.746 -6.106,-3.473 -5.013,-7.337c1.702,-4.086 4.405,-4.381 7.859,-1.827c-2.511,-3.588 -2.002,-6.697 2.282,-9.206c4.175,-1.69 6.424,-0.371 6.196,4.815c0.388,-3.88 2.079,-6.128 5.459,-6.264c4.054,1.824 4.766,4.106 1.539,6.925c5.521,-3.072 8.597,-2.75 8.815,1.538c-0.026,3.895 -2.443,6.699 -6.888,8.576c4.267,0.163 6.974,1.564 6.823,5.232c-1.164,5.159 -4.068,6.993 -9.563,3.876c2.578,4.383 2.117,7.723 -2.786,9.539c-3.281,1.363 -5.308,-0.479 -6.434,-4.622c-0.854,5.101 -3.495,7.32 -9.088,4.781c-2.908,-2.332 -2.31,-4.483 0.995,-6.494c-5.708,-0.293 -8.445,-2.11 -8.277,-5.417c0.423,-1.962 3.298,-3.286 8.081,-4.115Z" style="fill:#fcb5e9;stroke:#fba1f5;stroke-width:1px;"/><path d="M345.472,222.526c1.76,-0.926 3.963,-0.204 4.918,1.611c0.955,1.815 0.301,4.04 -1.459,4.966c-1.76,0.925 -3.964,0.204 -4.919,-1.611c-0.954,-1.815 -0.3,-4.04 1.46,-4.966Z" style="fill:#fcce12;"/></g><g><path d="M367.137,195.874c-4.984,-0.746 -6.106,-3.474 -5.013,-7.338c1.702,-4.086 4.405,-4.38 7.86,-1.827c-2.511,-3.588 -2.003,-6.697 2.282,-9.206c4.175,-1.69 6.423,-0.37 6.196,4.815c0.387,-3.879 2.078,-6.128 5.458,-6.263c4.054,1.824 4.766,4.105 1.539,6.925c5.522,-3.073 8.597,-2.751 8.815,1.538c-0.026,3.895 -2.443,6.698 -6.888,8.575c4.267,0.164 6.974,1.564 6.823,5.232c-1.164,5.16 -4.068,6.993 -9.563,3.877c2.578,4.382 2.117,7.722 -2.785,9.539c-3.282,1.363 -5.309,-0.479 -6.435,-4.622c-0.853,5.1 -3.495,7.319 -9.087,4.78c-2.909,-2.332 -2.31,-4.483 0.994,-6.494c-5.708,-0.293 -8.444,-2.11 -8.277,-5.417c0.423,-1.961 3.298,-3.286 8.081,-4.114Z" style="fill:#fcb5e9;stroke:#fba1f5;stroke-width:1px;"/><path d="M375,191.655c1.76,-0.925 3.964,-0.203 4.918,1.612c0.955,1.814 0.301,4.04 -1.459,4.965c-1.76,0.926 -3.963,0.204 -4.918,-1.611c-0.955,-1.815 -0.301,-4.04 1.459,-4.966Z" style="fill:#fcce12;"/></g><g><path d="M420.115,187.292c-3.957,-3.121 -3.577,-6.046 -0.711,-8.858c3.506,-2.703 5.998,-1.617 7.73,2.314c-0.399,-4.361 1.585,-6.807 6.55,-6.86c4.464,0.605 5.761,2.866 2.99,7.255c2.262,-3.175 4.845,-4.288 7.847,-2.728c2.614,3.595 2.1,5.929 -2.101,6.776c6.319,0.072 8.829,1.878 6.89,5.709c-1.956,3.369 -5.445,4.603 -10.236,4.027c3.623,2.26 5.279,4.819 3.327,7.928c-3.571,3.902 -7.002,4.053 -10.226,-1.38c0.063,5.084 -1.995,7.755 -7.152,6.899c-3.525,-0.445 -4.371,-3.05 -3.292,-7.206c-3.273,4.005 -6.667,4.62 -10.262,-0.36c-1.368,-3.468 0.219,-5.038 4.086,-5.144c-4.811,-3.087 -6.284,-6.023 -4.498,-8.81c1.341,-1.493 4.494,-1.217 9.058,0.438Z" style="fill:#fcb5e9;stroke:#fba1f5;stroke-width:1px;"/><path d="M429.035,187.532c1.987,0.07 3.542,1.79 3.47,3.839c-0.072,2.05 -1.744,3.657 -3.731,3.587c-1.987,-0.069 -3.542,-1.79 -3.47,-3.839c0.071,-2.05 1.743,-3.657 3.731,-3.587Z" style="fill:#fcce12;"/></g><g><path d="M507.414,156.048c-2.707,-4.251 -1.385,-6.887 2.248,-8.597c4.201,-1.397 6.196,0.45 6.536,4.732c1.06,-4.249 3.74,-5.905 8.445,-4.318c4.015,2.042 4.494,4.605 0.431,7.835c3.182,-2.252 5.988,-2.451 8.308,0.01c1.283,4.257 0.029,6.291 -4.216,5.705c5.941,2.151 7.716,4.684 4.623,7.662c-2.957,2.536 -6.658,2.551 -10.991,0.428c2.676,3.327 3.395,6.289 0.528,8.582c-4.658,2.507 -7.947,1.518 -9.2,-4.674c-1.616,4.821 -4.439,6.665 -9.027,4.156c-3.181,-1.582 -3.121,-4.32 -0.733,-7.888c-4.41,2.702 -7.817,2.165 -9.57,-3.722c-0.148,-3.725 1.867,-4.684 5.553,-3.51c-3.524,-4.5 -3.947,-7.757 -1.342,-9.8c1.758,-0.968 4.644,0.332 8.407,3.399Z" style="fill:#fcb5e9;stroke:#fba1f5;stroke-width:1px;"/><path d="M515.756,159.214c1.853,0.721 2.755,2.858 2.011,4.769c-0.743,1.911 -2.851,2.878 -4.705,2.157c-1.853,-0.721 -2.754,-2.858 -2.011,-4.769c0.744,-1.911 2.852,-2.878 4.705,-2.157Z" style="fill:#fcce12;"/></g><g><path d="M388.607,154.957c-1.178,-4.9 0.93,-6.963 4.922,-7.399c4.426,0.046 5.713,2.441 4.641,6.601c2.385,-3.674 5.457,-4.368 9.39,-1.338c3.133,3.237 2.753,5.816 -2.139,7.55c3.741,-1.096 6.46,-0.372 7.853,2.711c-0.17,4.442 -2.018,5.958 -5.842,4.024c4.919,3.966 5.774,6.938 1.88,8.748c-3.62,1.437 -7.125,0.248 -10.533,-3.168c1.449,4.016 1.166,7.051 -2.291,8.286c-5.219,0.857 -8.008,-1.148 -7.18,-7.411c-3.096,4.034 -6.365,4.859 -9.887,0.996c-2.494,-2.531 -1.547,-5.1 1.871,-7.698c-5.049,1.121 -8.096,-0.495 -7.84,-6.632c1.071,-3.57 3.289,-3.822 6.393,-1.513c-1.87,-5.401 -1.211,-8.619 1.917,-9.705c1.977,-0.343 4.283,1.825 6.845,5.948Z" style="fill:#fdfdfd;stroke:#e3e3e3;stroke-width:1px;"/><path d="M395.467,160.664c1.518,1.284 1.675,3.598 0.351,5.164c-1.325,1.565 -3.633,1.794 -5.151,0.509c-1.518,-1.284 -1.675,-3.598 -0.351,-5.163c1.325,-1.566 3.632,-1.794 5.151,-0.51Z" style="fill:#fcce12;"/></g><g><path d="M115.614,187.472c-4.265,-2.685 -4.197,-5.633 -1.645,-8.733c3.2,-3.059 5.793,-2.243 7.932,1.483c-0.859,-4.295 0.855,-6.938 5.787,-7.515c4.502,0.129 6.031,2.24 3.741,6.898c1.913,-3.397 4.364,-4.778 7.514,-3.545c2.98,3.299 2.716,5.674 -1.372,6.961c6.291,-0.597 8.978,0.933 7.456,4.948c-1.588,3.556 -4.927,5.153 -9.752,5.088c3.842,1.863 5.759,4.233 4.148,7.531c-3.138,4.258 -6.534,4.771 -10.315,-0.29c0.601,5.049 -1.163,7.923 -6.382,7.618c-3.552,-0.07 -4.669,-2.57 -4.036,-6.817c-2.831,4.328 -6.141,5.3 -10.243,0.728c-1.727,-3.303 -0.315,-5.033 3.519,-5.547c-5.11,-2.561 -6.886,-5.324 -5.405,-8.285c1.175,-1.627 4.339,-1.685 9.053,-0.523Z" style="fill:#fdfdfd;stroke:#e3e3e3;stroke-width:1px;"/><path d="M124.509,186.766c1.983,-0.141 3.712,1.405 3.857,3.451c0.146,2.045 -1.347,3.82 -3.33,3.961c-1.984,0.141 -3.712,-1.405 -3.858,-3.45c-0.145,-2.046 1.347,-3.821 3.331,-3.962Z" style="fill:#fcce12;"/></g><g><path d="M100.046,212.051c4.672,1.891 5.125,4.805 3.158,8.306c-2.61,3.575 -5.307,3.229 -8.069,-0.062c1.602,4.076 0.381,6.98 -4.371,8.418c-4.455,0.666 -6.332,-1.142 -4.899,-6.131c-1.284,3.681 -3.454,5.472 -6.771,4.813c-3.515,-2.721 -3.674,-5.106 0.123,-7.093c-6.087,1.696 -9.002,0.664 -8.211,-3.557c0.936,-3.78 3.942,-5.941 8.702,-6.727c-4.11,-1.156 -6.414,-3.151 -5.41,-6.682c2.339,-4.744 5.591,-5.848 10.205,-1.533c-1.481,-4.864 -0.252,-8.003 4.939,-8.623c3.509,-0.557 5.049,1.707 5.175,5.999c2.023,-4.759 5.11,-6.299 9.954,-2.522c2.282,2.947 1.197,4.899 -2.486,6.081c5.481,1.62 7.716,4.026 6.781,7.202c-0.871,1.809 -3.975,2.424 -8.82,2.111Z" style="fill:#fdfdfd;stroke:#e3e3e3;stroke-width:1px;"/><path d="M91.415,214.313c-1.928,0.489 -3.902,-0.729 -4.405,-2.716c-0.504,-1.988 0.652,-3.999 2.58,-4.487c1.927,-0.489 3.901,0.729 4.405,2.717c0.504,1.988 -0.652,3.998 -2.58,4.486Z" style="fill:#fcce12;"/></g><g><path d="M158.782,155.748c-4.229,-2.741 -4.122,-5.688 -1.528,-8.754c3.24,-3.015 5.822,-2.165 7.911,1.589c-0.801,-4.306 0.948,-6.926 5.886,-7.438c4.501,0.189 6.002,2.321 3.649,6.948c1.958,-3.372 4.428,-4.719 7.561,-3.444c2.936,3.338 2.64,5.709 -1.464,6.941c6.298,-0.513 8.965,1.053 7.389,5.047c-1.636,3.535 -4.996,5.088 -9.819,4.958c3.817,1.914 5.702,4.309 4.047,7.586c-3.194,4.216 -6.597,4.683 -10.31,-0.428c0.533,5.057 -1.268,7.907 -6.483,7.532c-3.551,-0.117 -4.634,-2.632 -3.945,-6.87c-2.888,4.291 -6.21,5.218 -10.251,0.592c-1.684,-3.326 -0.249,-5.037 3.592,-5.5c-5.076,-2.629 -6.815,-5.415 -5.294,-8.356c1.196,-1.611 4.362,-1.628 9.059,-0.403Z" style="fill:#fdfdfd;stroke:#e3e3e3;stroke-width:1px;"/><path d="M167.686,155.161c1.985,-0.115 3.692,1.455 3.811,3.502c0.118,2.047 -1.398,3.802 -3.383,3.917c-1.985,0.114 -3.693,-1.455 -3.811,-3.502c-0.118,-2.047 1.397,-3.802 3.383,-3.917Z" style="fill:#fcce12;"/></g><g><path d="M487.494,126.342c-3.283,-3.823 -2.348,-6.62 1.006,-8.828c3.96,-1.979 6.197,-0.434 7.141,3.757c0.447,-4.357 2.864,-6.376 7.746,-5.472c4.265,1.451 5.102,3.92 1.539,7.694c2.83,-2.681 5.58,-3.276 8.226,-1.169c1.874,4.032 0.921,6.223 -3.365,6.246c6.187,1.286 8.303,3.541 5.663,6.928c-2.567,2.93 -6.229,3.47 -10.819,1.984c3.121,2.913 4.253,5.743 1.74,8.419c-4.254,3.143 -7.651,2.63 -9.77,-3.321c-0.915,5.002 -3.448,7.227 -8.345,5.395c-3.374,-1.115 -3.702,-3.834 -1.845,-7.704c-3.982,3.3 -7.431,3.251 -10.001,-2.327c-0.676,-3.666 1.184,-4.902 4.999,-4.263c-4.127,-3.954 -5.008,-7.118 -2.719,-9.51c1.603,-1.208 4.644,-0.33 8.804,2.171Z" style="fill:#fcb5e9;stroke:#fba1f5;stroke-width:1px;"/><path d="M496.201,128.293c1.937,0.451 3.132,2.438 2.667,4.436c-0.464,1.997 -2.414,3.253 -4.351,2.802c-1.937,-0.451 -3.132,-2.438 -2.667,-4.435c0.465,-1.998 2.414,-3.253 4.351,-2.803Z" style="fill:#fcce12;"/></g><g><path d="M504.903,99.541c-3.283,-3.823 -2.348,-6.62 1.006,-8.829c3.96,-1.978 6.197,-0.433 7.141,3.758c0.447,-4.357 2.865,-6.376 7.747,-5.473c4.264,1.452 5.102,3.921 1.539,7.695c2.83,-2.681 5.579,-3.276 8.225,-1.169c1.874,4.032 0.921,6.223 -3.365,6.246c6.187,1.286 8.303,3.541 5.664,6.928c-2.568,2.93 -6.229,3.47 -10.82,1.983c3.121,2.914 4.254,5.744 1.741,8.42c-4.255,3.143 -7.651,2.63 -9.77,-3.321c-0.916,5.001 -3.449,7.227 -8.346,5.395c-3.373,-1.115 -3.702,-3.834 -1.845,-7.704c-3.981,3.3 -7.431,3.251 -10.001,-2.327c-0.675,-3.666 1.184,-4.902 4.999,-4.263c-4.127,-3.954 -5.008,-7.118 -2.719,-9.51c1.603,-1.208 4.644,-0.33 8.804,2.171Z" style="fill:#fcb5e9;stroke:#fba1f5;stroke-width:1px;"/><path d="M513.61,101.492c1.937,0.451 3.132,2.438 2.667,4.436c-0.464,1.997 -2.414,3.253 -4.351,2.802c-1.937,-0.451 -3.132,-2.438 -2.667,-4.435c0.465,-1.998 2.414,-3.253 4.351,-2.803Z" style="fill:#fcce12;"/></g><g><path d="M562.976,82.815c4.11,2.916 3.88,5.856 1.16,8.81c-3.364,2.877 -5.908,1.919 -7.838,-1.919c0.62,4.335 -1.237,6.88 -6.193,7.184c-4.488,-0.377 -5.898,-2.57 -3.354,-7.094c-2.098,3.286 -4.622,4.529 -7.699,3.124c-2.793,-3.459 -2.398,-5.815 1.754,-6.874c-6.314,0.248 -8.912,-1.428 -7.17,-5.353c1.782,-3.463 5.204,-4.873 10.018,-4.541c-3.733,-2.073 -5.517,-4.545 -3.725,-7.749c3.368,-4.078 6.787,-4.403 10.283,0.859c-0.321,-5.074 1.598,-7.846 6.792,-7.253c3.543,0.266 4.52,2.824 3.654,7.029c3.065,-4.165 6.424,-4.952 10.267,-0.161c1.542,3.394 0.037,5.043 -3.819,5.345c4.96,2.839 6.581,5.696 4.939,8.57c-1.264,1.56 -4.427,1.443 -9.069,0.023Z" style="fill:#fcb5e9;stroke:#fba1f5;stroke-width:1px;"/><path d="M554.056,83.028c-1.988,0.031 -3.629,-1.608 -3.661,-3.659c-0.032,-2.05 1.556,-3.74 3.544,-3.771c1.989,-0.031 3.629,1.608 3.661,3.658c0.032,2.051 -1.556,3.741 -3.544,3.772Z" style="fill:#fcce12;"/></g><g><path d="M634.448,75.628c0.245,-5.034 2.847,-6.422 6.801,-5.72c4.236,1.286 4.798,3.946 2.602,7.638c3.32,-2.857 6.464,-2.661 9.388,1.352c2.098,3.986 1.01,6.354 -4.173,6.646c3.899,-0.002 6.305,1.456 6.777,4.806c-1.411,4.215 -3.609,5.152 -6.737,2.222c3.608,5.187 3.594,8.28 -0.651,8.925c-3.878,0.362 -6.909,-1.763 -9.22,-5.998c0.263,4.261 -0.86,7.095 -4.525,7.31c-5.25,-0.643 -7.364,-3.35 -4.811,-9.128c-4.104,3.002 -7.473,2.877 -9.77,-1.82c-1.683,-3.129 -0.053,-5.33 3.957,-6.863c-5.16,-0.341 -7.631,-2.748 -5.662,-8.566c2.03,-3.127 4.229,-2.746 6.56,0.342c-0.278,-5.709 1.257,-8.613 4.564,-8.776c1.994,0.225 3.599,2.953 4.9,7.63Z" style="fill:#fcb5e9;stroke:#fba1f5;stroke-width:1px;"/><path d="M639.43,83.031c1.097,1.658 0.598,3.923 -1.112,5.054c-1.711,1.131 -3.99,0.703 -5.087,-0.956c-1.096,-1.659 -0.598,-3.924 1.113,-5.055c1.71,-1.131 3.99,-0.702 5.086,0.957Z" style="fill:#fcce12;"/></g><g><path d="M668.131,127.415c-2.217,-4.526 -0.61,-6.998 3.191,-8.293c4.33,-0.92 6.107,1.137 5.968,5.431c1.527,-4.105 4.374,-5.452 8.873,-3.352c3.763,2.477 3.954,5.077 -0.443,7.835c3.413,-1.884 6.224,-1.77 8.255,0.935c0.801,4.372 -0.672,6.254 -4.826,5.2c5.665,2.799 7.147,5.513 3.742,8.129c-3.221,2.19 -6.901,1.794 -10.971,-0.798c2.289,3.604 2.674,6.628 -0.43,8.587c-4.908,1.972 -8.067,0.624 -8.623,-5.669c-2.143,4.611 -5.153,6.129 -9.433,3.125c-2.985,-1.926 -2.621,-4.64 0.15,-7.92c-4.683,2.194 -8.01,1.28 -9.096,-4.765c0.267,-3.718 2.377,-4.447 5.909,-2.87c-3.001,-4.864 -3.059,-8.148 -0.243,-9.889c1.855,-0.766 4.578,0.848 7.977,4.314Z" style="fill:#fcb5e9;stroke:#fba1f5;stroke-width:1px;"/><path d="M676.068,131.49c1.762,0.923 2.42,3.147 1.468,4.964c-0.952,1.816 -3.154,2.542 -4.916,1.619c-1.761,-0.923 -2.419,-3.146 -1.467,-4.963c0.951,-1.817 3.154,-2.542 4.915,-1.62Z" style="fill:#fcce12;"/></g><g><path d="M620.714,155.869c-4.018,-3.042 -3.697,-5.973 -0.887,-8.842c3.451,-2.772 5.964,-1.737 7.774,2.16c-0.486,-4.353 1.449,-6.839 6.412,-6.99c4.475,0.516 5.817,2.751 3.134,7.194c2.198,-3.22 4.759,-4.384 7.791,-2.884c2.685,3.542 2.218,5.886 -1.965,6.816c6.319,-0.053 8.864,1.702 7.002,5.571c-1.888,3.407 -5.352,4.711 -10.153,4.231c3.667,2.186 5.373,4.712 3.484,7.86c-3.492,3.972 -6.92,4.191 -10.252,-1.177c0.165,5.082 -1.839,7.794 -7.013,7.041c-3.533,-0.375 -4.43,-2.963 -3.435,-7.139c-3.192,4.069 -6.574,4.752 -10.267,-0.155c-1.437,-3.44 0.118,-5.042 3.983,-5.225c-4.871,-2.99 -6.403,-5.896 -4.673,-8.719c1.311,-1.519 4.469,-1.306 9.065,0.258Z" style="fill:#fcb5e9;stroke:#fba1f5;stroke-width:1px;"/><path d="M629.637,155.931c1.988,0.03 3.577,1.719 3.546,3.769c-0.031,2.051 -1.671,3.691 -3.659,3.661c-1.988,-0.03 -3.577,-1.719 -3.546,-3.77c0.031,-2.05 1.67,-3.69 3.659,-3.66Z" style="fill:#fcce12;"/></g><g><path d="M586.576,170.812c-1.09,4.92 -3.888,5.85 -7.667,4.492c-3.959,-1.981 -4.065,-4.698 -1.278,-7.967c-3.754,2.256 -6.82,1.533 -9.026,-2.915c-1.397,-4.282 0.076,-6.434 5.233,-5.848c-3.843,-0.655 -5.969,-2.498 -5.87,-5.879c2.101,-3.918 4.426,-4.47 7.015,-1.055c-2.682,-5.721 -2.148,-8.767 2.146,-8.687c3.883,0.296 6.513,2.901 8.077,7.465c0.459,-4.245 2.044,-6.848 5.692,-6.443c5.067,1.519 6.695,4.543 3.205,9.809c4.55,-2.268 7.851,-1.577 9.323,3.44c1.132,3.368 -0.846,5.262 -5.057,6.098c5.029,1.206 7.059,3.994 4.138,9.397c-2.528,2.74 -4.632,1.994 -6.409,-1.442c-0.688,5.674 -2.69,8.278 -5.978,7.882c-1.927,-0.559 -3.049,-3.518 -3.544,-8.347Z" style="fill:#fcb5e9;stroke:#fba1f5;stroke-width:1px;"/><path d="M582.913,162.675c-0.802,-1.82 0.071,-3.968 1.948,-4.795c1.877,-0.826 4.051,-0.02 4.853,1.8c0.801,1.82 -0.072,3.969 -1.949,4.795c-1.876,0.827 -4.051,0.02 -4.852,-1.8Z" style="fill:#fcce12;"/></g><g><path d="M561.052,189.837c1.773,4.717 -0.064,7.024 -3.971,7.949c-4.398,0.501 -5.971,-1.717 -5.42,-5.978c-1.914,3.94 -4.877,5.008 -9.154,2.486c-3.508,-2.826 -3.448,-5.432 1.192,-7.756c-3.577,1.548 -6.364,1.165 -8.127,-1.722c-0.379,-4.429 1.268,-6.161 5.301,-4.714c-5.37,-3.329 -6.585,-6.173 -2.945,-8.45c3.416,-1.872 7.041,-1.124 10.844,1.846c-1.933,-3.807 -2.027,-6.854 1.252,-8.506c5.074,-1.493 8.089,0.152 8.039,6.469c2.575,-4.384 5.717,-5.607 9.689,-2.207c2.787,2.204 2.164,4.87 -0.908,7.87c4.872,-1.735 8.096,-0.508 8.598,5.614c-0.623,3.676 -2.793,4.199 -6.158,2.291c2.522,5.129 2.265,8.404 -0.705,9.866c-1.92,0.585 -4.476,-1.282 -7.527,-5.058Z" style="fill:#fcb5e9;stroke:#fba1f5;stroke-width:1px;"/><path d="M553.542,185.019c-1.665,-1.087 -2.107,-3.364 -0.986,-5.081c1.122,-1.717 3.384,-2.228 5.049,-1.141c1.665,1.088 2.106,3.364 0.985,5.081c-1.121,1.717 -3.383,2.229 -5.048,1.141Z" style="fill:#fcce12;"/></g><g><path d="M525.833,199.572c1.773,4.717 -0.064,7.025 -3.972,7.949c-4.398,0.501 -5.97,-1.717 -5.42,-5.977c-1.913,3.939 -4.876,5.007 -9.153,2.485c-3.508,-2.826 -3.449,-5.432 1.192,-7.756c-3.578,1.549 -6.365,1.165 -8.127,-1.722c-0.379,-4.429 1.268,-6.161 5.301,-4.714c-5.37,-3.329 -6.585,-6.172 -2.945,-8.449c3.416,-1.872 7.041,-1.124 10.844,1.846c-1.933,-3.808 -2.027,-6.854 1.251,-8.507c5.074,-1.493 8.089,0.152 8.04,6.47c2.574,-4.385 5.717,-5.607 9.689,-2.208c2.787,2.204 2.164,4.871 -0.908,7.87c4.872,-1.735 8.095,-0.507 8.597,5.615c-0.622,3.675 -2.792,4.199 -6.157,2.29c2.521,5.13 2.265,8.404 -0.706,9.867c-1.919,0.584 -4.475,-1.283 -7.526,-5.059Z" style="fill:#fcb5e9;stroke:#fba1f5;stroke-width:1px;"/><path d="M518.322,194.755c-1.665,-1.087 -2.106,-3.364 -0.985,-5.081c1.121,-1.717 3.383,-2.228 5.048,-1.141c1.665,1.087 2.107,3.364 0.985,5.081c-1.121,1.717 -3.383,2.228 -5.048,1.141Z" style="fill:#fcce12;"/></g><g><path d="M562.501,222.262c4.951,0.941 5.965,3.711 4.72,7.529c-1.861,4.016 -4.574,4.203 -7.925,1.516c2.368,3.684 1.737,6.77 -2.643,9.109c-4.238,1.525 -6.433,0.118 -6.002,-5.055c-0.54,3.861 -2.318,6.041 -5.7,6.044c-3.979,-1.983 -4.601,-4.29 -1.265,-6.981c-5.639,2.853 -8.699,2.41 -8.748,-1.883c0.18,-3.891 2.705,-6.598 7.22,-8.298c-4.257,-0.332 -6.907,-1.837 -6.611,-5.497c1.366,-5.109 4.34,-6.827 9.708,-3.497c-2.403,-4.481 -1.811,-7.8 3.159,-9.422c3.332,-1.232 5.285,0.688 6.247,4.872c1.054,-5.063 3.781,-7.176 9.269,-4.419c2.814,2.445 2.132,4.571 -1.249,6.45c5.692,0.517 8.354,2.441 8.057,5.738c-0.5,1.944 -3.425,3.154 -8.237,3.794Z" style="fill:#fcb5e9;stroke:#fba1f5;stroke-width:1px;"/><path d="M554.478,226.167c-1.795,0.856 -3.968,0.048 -4.851,-1.803c-0.882,-1.852 -0.141,-4.049 1.654,-4.905c1.795,-0.855 3.968,-0.047 4.851,1.804c0.882,1.851 0.141,4.049 -1.654,4.904Z" style="fill:#fcce12;"/></g><g><path d="M583.347,209.663c4.95,0.941 5.964,3.711 4.719,7.529c-1.861,4.016 -4.573,4.204 -7.925,1.516c2.368,3.684 1.737,6.771 -2.642,9.109c-4.239,1.525 -6.433,0.118 -6.002,-5.055c-0.54,3.861 -2.318,6.042 -5.701,6.044c-3.979,-1.982 -4.601,-4.29 -1.265,-6.981c-5.638,2.853 -8.699,2.41 -8.748,-1.883c0.18,-3.891 2.705,-6.597 7.22,-8.298c-4.257,-0.331 -6.907,-1.837 -6.611,-5.497c1.366,-5.109 4.34,-6.827 9.708,-3.497c-2.403,-4.48 -1.811,-7.8 3.159,-9.422c3.332,-1.232 5.285,0.688 6.247,4.872c1.054,-5.063 3.781,-7.176 9.269,-4.418c2.815,2.444 2.132,4.57 -1.249,6.449c5.692,0.517 8.354,2.441 8.057,5.739c-0.5,1.943 -3.424,3.153 -8.236,3.793Z" style="fill:#fcb5e9;stroke:#fba1f5;stroke-width:1px;"/><path d="M575.324,213.568c-1.795,0.856 -3.969,0.048 -4.852,-1.803c-0.882,-1.851 -0.141,-4.049 1.654,-4.905c1.795,-0.855 3.969,-0.047 4.851,1.804c0.882,1.851 0.142,4.049 -1.653,4.904Z" style="fill:#fcce12;"/></g><g><path d="M664.313,182.825c-1.233,-4.886 0.851,-6.972 4.837,-7.453c4.427,-0.005 5.741,2.375 4.716,6.547c2.343,-3.7 5.408,-4.429 9.375,-1.443c3.169,3.201 2.818,5.784 -2.054,7.573c3.728,-1.138 6.455,-0.444 7.883,2.622c-0.12,4.444 -1.951,5.98 -5.797,4.09c4.964,3.91 5.852,6.872 1.98,8.726c-3.604,1.478 -7.123,0.328 -10.569,-3.049c1.494,4 1.246,7.038 -2.197,8.312c-5.209,0.915 -8.021,-1.058 -7.263,-7.33c-3.05,4.069 -6.31,4.931 -9.876,1.108c-2.522,-2.502 -1.604,-5.083 1.784,-7.719c-5.035,1.179 -8.101,-0.403 -7.914,-6.543c1.031,-3.582 3.246,-3.859 6.376,-1.585c-1.931,-5.38 -1.309,-8.605 1.807,-9.726c1.973,-0.365 4.303,1.776 6.912,5.87Z" style="fill:#fcb5e9;stroke:#fba1f5;stroke-width:1px;"/><path d="M671.236,188.454c1.533,1.268 1.716,3.579 0.41,5.16c-1.307,1.58 -3.612,1.835 -5.145,0.568c-1.532,-1.267 -1.716,-3.579 -0.409,-5.16c1.307,-1.58 3.612,-1.835 5.144,-0.568Z" style="fill:#fcce12;"/></g><g><path d="M480.001,220.757c-3.964,-3.112 -3.59,-6.038 -0.73,-8.856c3.5,-2.71 5.995,-1.63 7.735,2.298c-0.408,-4.361 1.571,-6.812 6.535,-6.874c4.465,0.595 5.767,2.853 3.006,7.248c2.255,-3.18 4.836,-4.299 7.841,-2.745c2.622,3.59 2.113,5.925 -2.086,6.78c6.318,0.059 8.832,1.86 6.902,5.695c-1.949,3.373 -5.436,4.615 -10.227,4.049c3.628,2.251 5.288,4.807 3.343,7.921c-3.562,3.909 -6.993,4.067 -10.229,-1.359c0.074,5.084 -1.978,7.76 -7.137,6.915c-3.526,-0.438 -4.377,-3.041 -3.308,-7.199c-3.264,4.011 -6.657,4.635 -10.262,-0.338c-1.376,-3.465 0.208,-5.039 4.075,-5.153c-4.817,-3.077 -6.297,-6.009 -4.517,-8.801c1.338,-1.495 4.492,-1.226 9.059,0.419Z" style="fill:#fcb5e9;stroke:#fba1f5;stroke-width:1px;"/><path d="M488.921,220.978c1.988,0.066 3.546,1.783 3.479,3.832c-0.068,2.05 -1.736,3.661 -3.724,3.595c-1.987,-0.065 -3.546,-1.783 -3.478,-3.832c0.067,-2.05 1.736,-3.66 3.723,-3.595Z" style="fill:#fcce12;"/></g><g><path d="M496.299,247.961c-2.105,-4.579 -0.437,-7.011 3.395,-8.212c4.351,-0.813 6.077,1.287 5.832,5.576c1.627,-4.066 4.507,-5.342 8.953,-3.131c3.7,2.568 3.827,5.172 -0.636,7.821c3.458,-1.8 6.265,-1.616 8.229,1.138c0.693,4.391 -0.825,6.236 -4.952,5.08c5.594,2.937 7.009,5.687 3.54,8.218c-3.274,2.111 -6.943,1.623 -10.948,-1.068c2.2,3.66 2.51,6.692 -0.642,8.574c-4.954,1.851 -8.079,0.425 -8.48,-5.88c-2.255,4.557 -5.303,6 -9.507,2.892c-2.937,-1.999 -2.506,-4.704 0.345,-7.914c-4.736,2.078 -8.039,1.083 -8.976,-4.988c0.359,-3.71 2.486,-4.387 5.978,-2.723c-2.88,-4.937 -2.858,-8.221 0.001,-9.892c1.873,-0.72 4.555,0.96 7.868,4.509Z" style="fill:#fcb5e9;stroke:#fba1f5;stroke-width:1px;"/><path d="M504.134,252.231c1.738,0.966 2.34,3.205 1.344,4.998c-0.995,1.792 -3.215,2.463 -4.954,1.498c-1.738,-0.966 -2.34,-3.206 -1.344,-4.998c0.996,-1.793 3.215,-2.464 4.954,-1.498Z" style="fill:#fcce12;"/></g><g><path d="M237.254,94.503c-2.105,-4.579 -0.437,-7.011 3.395,-8.212c4.351,-0.813 6.077,1.287 5.832,5.576c1.628,-4.066 4.508,-5.343 8.953,-3.131c3.701,2.568 3.827,5.172 -0.636,7.821c3.458,-1.8 6.266,-1.616 8.23,1.138c0.693,4.391 -0.826,6.236 -4.952,5.08c5.594,2.937 7.008,5.687 3.539,8.218c-3.273,2.11 -6.942,1.623 -10.947,-1.068c2.199,3.659 2.51,6.692 -0.642,8.573c-4.955,1.852 -8.079,0.425 -8.48,-5.879c-2.256,4.557 -5.303,6 -9.507,2.892c-2.937,-1.999 -2.506,-4.704 0.344,-7.915c-4.735,2.079 -8.038,1.084 -8.976,-4.987c0.359,-3.71 2.486,-4.387 5.979,-2.723c-2.881,-4.937 -2.858,-8.221 0,-9.892c1.874,-0.72 4.556,0.96 7.868,4.509Z" style="fill:#fcb5e9;stroke:#fba1f5;stroke-width:1px;"/><path d="M245.089,98.773c1.738,0.966 2.341,3.205 1.345,4.998c-0.996,1.792 -3.216,2.463 -4.954,1.497c-1.738,-0.965 -2.341,-3.205 -1.345,-4.997c0.996,-1.793 3.216,-2.464 4.954,-1.498Z" style="fill:#fcce12;"/></g><g><path d="M243.497,159.799c-4.884,-1.241 -5.727,-4.067 -4.253,-7.802c2.103,-3.896 4.821,-3.918 8.003,-1.031c-2.139,-3.822 -1.322,-6.864 3.192,-8.932c4.324,-1.263 6.429,0.275 5.683,5.411c0.774,-3.82 2.682,-5.888 6.058,-5.685c3.851,2.221 4.331,4.562 0.838,7.045c5.802,-2.505 8.829,-1.876 8.617,2.412c-0.416,3.873 -3.102,6.421 -7.712,7.843c4.229,0.59 6.782,2.255 6.264,5.889c-1.674,5.017 -4.748,6.551 -9.903,2.9c2.126,4.618 1.333,7.895 -3.727,9.212c-3.401,1.027 -5.233,-1.008 -5.939,-5.243c-1.36,4.989 -4.21,6.932 -9.521,3.846c-2.66,-2.612 -1.849,-4.692 1.64,-6.362c-5.65,-0.863 -8.19,-2.945 -7.693,-6.218c0.618,-1.91 3.611,-2.94 8.453,-3.285Z" style="fill:#fcb5e9;stroke:#fba1f5;stroke-width:1px;"/><path d="M251.743,156.389c1.843,-0.745 3.964,0.194 4.732,2.096c0.768,1.901 -0.105,4.05 -1.949,4.794c-1.844,0.745 -3.964,-0.194 -4.732,-2.095c-0.768,-1.902 0.105,-4.05 1.949,-4.795Z" style="fill:#fcce12;"/></g><g><path d="M196.976,174.551c-4.189,-2.801 -4.04,-5.747 -1.403,-8.775c3.283,-2.969 5.853,-2.083 7.888,1.701c-0.74,-4.317 1.046,-6.911 5.991,-7.353c4.498,0.253 5.968,2.406 3.55,6.998c2.006,-3.343 4.494,-4.655 7.609,-3.335c2.888,3.379 2.559,5.746 -1.563,6.92c6.305,-0.424 8.949,1.18 7.316,5.151c-1.685,3.512 -5.067,5.016 -9.888,4.818c3.789,1.968 5.64,4.389 3.938,7.642c-3.253,4.17 -6.663,4.589 -10.303,-0.574c0.462,5.064 -1.38,7.888 -6.589,7.439c-3.549,-0.167 -4.596,-2.698 -3.847,-6.925c-2.948,4.248 -6.284,5.128 -10.258,0.445c-1.636,-3.349 -0.177,-5.039 3.67,-5.448c-5.038,-2.7 -6.737,-5.511 -5.175,-8.431c1.22,-1.593 4.385,-1.565 9.064,-0.273Z" style="fill:#fcb5e9;stroke:#fba1f5;stroke-width:1px;"/><path d="M205.887,174.09c1.987,-0.086 3.672,1.507 3.761,3.556c0.089,2.049 -1.452,3.782 -3.438,3.868c-1.987,0.087 -3.672,-1.506 -3.761,-3.555c-0.089,-2.049 1.452,-3.782 3.438,-3.869Z" style="fill:#fcce12;"/></g><g><path d="M172.438,235.359c-4.598,-2.062 -4.943,-4.991 -2.849,-8.417c2.74,-3.476 5.422,-3.031 8.061,0.359c-1.451,-4.132 -0.124,-6.989 4.678,-8.251c4.477,-0.502 6.286,1.375 4.67,6.307c1.419,-3.631 3.653,-5.341 6.944,-4.56c3.412,2.849 3.483,5.238 -0.384,7.084c6.145,-1.471 9.02,-0.332 8.074,3.856c-1.075,3.744 -4.158,5.792 -8.944,6.402c4.064,1.308 6.294,3.386 5.16,6.877c-2.512,4.655 -5.803,5.638 -10.254,1.156c1.301,4.915 -0.043,8.007 -5.254,8.435c-3.527,0.428 -4.982,-1.892 -4.95,-6.185c-2.197,4.682 -5.339,6.107 -10.04,2.154c-2.172,-3.03 -1.016,-4.94 2.708,-5.986c-5.418,-1.82 -7.563,-4.308 -6.511,-7.447c0.937,-1.775 4.062,-2.276 8.891,-1.784Z" style="fill:#fcb5e9;stroke:#fba1f5;stroke-width:1px;"/><path d="M181.147,233.416c1.945,-0.417 3.872,0.872 4.302,2.877c0.43,2.005 -0.799,3.972 -2.743,4.389c-1.944,0.417 -3.872,-0.872 -4.302,-2.877c-0.43,-2.005 0.799,-3.972 2.743,-4.389Z" style="fill:#fcce12;"/></g><g><path d="M168.412,63.557c-4.599,-2.061 -4.944,-4.99 -2.85,-8.417c2.74,-3.476 5.423,-3.031 8.061,0.359c-1.451,-4.132 -0.123,-6.989 4.679,-8.25c4.476,-0.502 6.286,1.374 4.669,6.307c1.419,-3.632 3.653,-5.341 6.944,-4.561c3.413,2.85 3.484,5.238 -0.384,7.084c6.145,-1.471 9.02,-0.332 8.074,3.857c-1.075,3.744 -4.158,5.792 -8.944,6.402c4.065,1.307 6.294,3.385 5.16,6.877c-2.511,4.655 -5.802,5.638 -10.254,1.155c1.301,4.916 -0.043,8.008 -5.253,8.436c-3.528,0.428 -4.983,-1.892 -4.951,-6.185c-2.197,4.681 -5.338,6.106 -10.04,2.153c-2.172,-3.029 -1.016,-4.939 2.708,-5.985c-5.418,-1.821 -7.562,-4.308 -6.51,-7.447c0.936,-1.775 4.061,-2.276 8.891,-1.785Z" style="fill:#fcb5e9;stroke:#fba1f5;stroke-width:1px;"/><path d="M177.121,61.614c1.944,-0.417 3.872,0.873 4.302,2.878c0.43,2.005 -0.799,3.971 -2.744,4.388c-1.944,0.417 -3.872,-0.872 -4.302,-2.877c-0.43,-2.005 0.799,-3.972 2.744,-4.389Z" style="fill:#fcce12;"/></g><g><path d="M147.974,93.573c-3.061,-4.003 -1.97,-6.743 1.504,-8.758c4.065,-1.752 6.211,-0.083 6.917,4.155c0.692,-4.324 3.22,-6.204 8.043,-5.026c4.176,1.691 4.872,4.203 1.102,7.769c2.977,-2.517 5.756,-2.956 8.278,-0.702c1.643,4.131 0.568,6.265 -3.712,6.046c6.104,1.634 8.089,4.005 5.262,7.237c-2.728,2.78 -6.415,3.112 -10.914,1.369c2.952,3.085 3.922,5.975 1.262,8.504c-4.426,2.897 -7.788,2.194 -9.567,-3.868c-1.197,4.942 -3.851,7.02 -8.637,4.915c-3.305,-1.304 -3.48,-4.037 -1.406,-7.797c-4.162,3.07 -7.603,2.827 -9.854,-2.888c-0.467,-3.699 1.459,-4.827 5.232,-3.973c-3.897,-4.181 -4.598,-7.39 -2.177,-9.649c1.668,-1.115 4.655,-0.067 8.667,2.666Z" style="fill:#fcb5e9;stroke:#fba1f5;stroke-width:1px;"/><path d="M156.557,96.013c1.908,0.559 2.989,2.611 2.412,4.579c-0.576,1.968 -2.594,3.111 -4.502,2.552c-1.908,-0.56 -2.989,-2.612 -2.413,-4.579c0.577,-1.968 2.595,-3.112 4.503,-2.552Z" style="fill:#fcce12;"/></g><g><path d="M96.971,113.706c-3.062,-4.003 -1.97,-6.743 1.503,-8.758c4.065,-1.752 6.212,-0.083 6.917,4.155c0.692,-4.324 3.22,-6.204 8.044,-5.026c4.175,1.691 4.872,4.203 1.101,7.769c2.977,-2.517 5.756,-2.956 8.278,-0.702c1.644,4.131 0.568,6.265 -3.712,6.046c6.104,1.634 8.089,4.005 5.263,7.237c-2.729,2.78 -6.415,3.112 -10.914,1.369c2.951,3.085 3.922,5.975 1.261,8.504c-4.425,2.897 -7.787,2.194 -9.566,-3.868c-1.197,4.942 -3.852,7.02 -8.637,4.915c-3.305,-1.304 -3.48,-4.037 -1.407,-7.797c-4.162,3.07 -7.603,2.827 -9.854,-2.888c-0.467,-3.699 1.46,-4.827 5.233,-3.973c-3.897,-4.181 -4.598,-7.39 -2.178,-9.649c1.669,-1.115 4.655,-0.067 8.668,2.666Z" style="fill:#fcb5e9;stroke:#fba1f5;stroke-width:1px;"/><path d="M105.554,116.146c1.908,0.559 2.989,2.611 2.412,4.579c-0.577,1.968 -2.595,3.111 -4.503,2.552c-1.908,-0.56 -2.989,-2.612 -2.412,-4.579c0.577,-1.968 2.594,-3.112 4.503,-2.552Z" style="fill:#fcce12;"/></g><g><path d="M41.046,138.313c-3.062,-4.003 -1.97,-6.743 1.503,-8.758c4.065,-1.752 6.212,-0.083 6.917,4.155c0.692,-4.324 3.22,-6.204 8.044,-5.026c4.175,1.691 4.872,4.203 1.101,7.769c2.977,-2.517 5.756,-2.956 8.278,-0.702c1.644,4.131 0.568,6.265 -3.712,6.046c6.104,1.634 8.09,4.005 5.263,7.237c-2.729,2.78 -6.415,3.112 -10.914,1.369c2.951,3.085 3.922,5.975 1.261,8.504c-4.425,2.897 -7.787,2.194 -9.566,-3.868c-1.197,4.942 -3.852,7.02 -8.637,4.915c-3.305,-1.304 -3.48,-4.037 -1.407,-7.797c-4.162,3.07 -7.603,2.827 -9.854,-2.888c-0.467,-3.699 1.46,-4.827 5.233,-3.973c-3.897,-4.181 -4.598,-7.39 -2.178,-9.649c1.669,-1.115 4.655,-0.067 8.668,2.666Z" style="fill:#fcb5e9;stroke:#fba1f5;stroke-width:1px;"/><path d="M49.629,140.753c1.908,0.559 2.989,2.611 2.412,4.579c-0.577,1.967 -2.595,3.111 -4.503,2.552c-1.908,-0.56 -2.989,-2.612 -2.412,-4.579c0.577,-1.968 2.594,-3.112 4.503,-2.552Z" style="fill:#fcce12;"/></g><g><path d="M10.034,195.508c-4.289,-2.645 -4.248,-5.594 -1.724,-8.717c3.172,-3.088 5.772,-2.296 7.945,1.41c-0.898,-4.286 0.792,-6.945 5.718,-7.567c4.503,0.087 6.052,2.185 3.804,6.863c1.881,-3.414 4.32,-4.817 7.481,-3.613c3.01,3.271 2.768,5.649 -1.308,6.973c6.285,-0.654 8.986,0.851 7.501,4.88c-1.556,3.571 -4.88,5.198 -9.705,5.177c3.858,1.827 5.797,4.179 4.216,7.493c-3.099,4.286 -6.49,4.83 -10.317,-0.196c0.647,5.043 -1.09,7.933 -6.312,7.675c-3.553,-0.037 -4.692,-2.527 -4.099,-6.779c-2.79,4.354 -6.091,5.356 -10.235,0.822c-1.757,-3.288 -0.361,-5.03 3.468,-5.58c-5.134,-2.514 -6.935,-5.26 -5.481,-8.235c1.161,-1.637 4.325,-1.725 9.048,-0.606Z" style="fill:#fcb5e9;stroke:#fba1f5;stroke-width:1px;"/><path d="M18.922,194.721c1.983,-0.159 3.725,1.371 3.889,3.415c0.164,2.045 -1.312,3.833 -3.294,3.992c-1.982,0.16 -3.725,-1.371 -3.889,-3.415c-0.164,-2.044 1.312,-3.833 3.294,-3.992Z" style="fill:#fcce12;"/></g><g><path d="M49.905,202.781c0.548,-5.009 3.229,-6.238 7.133,-5.298c4.151,1.539 4.552,4.228 2.137,7.781c3.486,-2.651 6.612,-2.266 9.289,1.916c1.854,4.105 0.624,6.404 -4.566,6.382c3.891,0.234 6.205,1.834 6.474,5.206c-1.663,4.123 -3.914,4.925 -6.859,1.812c3.288,5.395 3.088,8.481 -1.188,8.869c-3.893,0.127 -6.79,-2.177 -8.842,-6.544c0.006,4.27 -1.287,7.03 -4.958,7.024c-5.201,-0.959 -7.148,-3.788 -4.251,-9.402c-4.277,2.749 -7.633,2.42 -9.642,-2.407c-1.491,-3.224 0.269,-5.322 4.364,-6.611c-5.13,-0.652 -7.452,-3.203 -5.135,-8.892c2.215,-2.999 4.388,-2.486 6.528,0.737c0.067,-5.715 1.774,-8.521 5.085,-8.485c1.977,0.346 3.414,3.166 4.431,7.912Z" style="fill:#fcb5e9;stroke:#fba1f5;stroke-width:1px;"/><path d="M54.431,210.471c0.994,1.722 0.36,3.953 -1.416,4.979c-1.776,1.025 -4.025,0.46 -5.019,-1.262c-0.995,-1.722 -0.36,-3.953 1.415,-4.978c1.776,-1.026 4.025,-0.461 5.02,1.261Z" style="fill:#fcce12;"/></g><g><path d="M58.994,229.76c-1.962,-4.642 -0.219,-7.022 3.648,-8.103c4.374,-0.678 6.035,1.475 5.656,5.755c1.753,-4.014 4.671,-5.2 9.046,-2.852c3.619,2.682 3.665,5.289 -0.879,7.798c3.513,-1.692 6.313,-1.421 8.191,1.393c0.556,4.41 -1.019,6.207 -5.108,4.923c5.5,3.11 6.829,5.903 3.283,8.324c-3.338,2.008 -6.99,1.407 -10.909,-1.407c2.085,3.726 2.301,6.766 -0.908,8.549c-5.01,1.697 -8.089,0.174 -8.294,-6.14c-2.396,4.485 -5.486,5.833 -9.592,2.596c-2.873,-2.09 -2.358,-4.78 0.59,-7.9c-4.798,1.93 -8.068,0.832 -8.816,-5.264c0.474,-3.698 2.621,-4.308 6.06,-2.537c-2.726,-5.023 -2.601,-8.306 0.308,-9.887c1.894,-0.661 4.523,1.102 7.724,4.752Z" style="fill:#fcb5e9;stroke:#fba1f5;stroke-width:1px;"/><path d="M66.692,234.271c1.708,1.019 2.24,3.276 1.189,5.037c-1.051,1.761 -3.291,2.363 -4.998,1.343c-1.707,-1.019 -2.24,-3.276 -1.189,-5.037c1.051,-1.761 3.291,-2.362 4.998,-1.343Z" style="fill:#fcce12;"/></g><g><path d="M108.883,158.72c-2.085,-4.587 -0.408,-7.012 3.429,-8.198c4.355,-0.795 6.072,1.313 5.809,5.601c1.645,-4.059 4.53,-5.324 8.966,-3.095c3.69,2.584 3.806,5.188 -0.668,7.819c3.465,-1.786 6.272,-1.59 8.225,1.172c0.675,4.393 -0.852,6.232 -4.973,5.059c5.582,2.961 6.985,5.717 3.505,8.233c-3.282,2.097 -6.949,1.594 -10.943,-1.114c2.185,3.669 2.483,6.703 -0.677,8.571c-4.962,1.831 -8.081,0.392 -8.456,-5.914c-2.274,4.547 -5.327,5.978 -9.519,2.853c-2.929,-2.012 -2.486,-4.714 0.377,-7.913c-4.744,2.058 -8.043,1.05 -8.955,-5.025c0.374,-3.709 2.505,-4.377 5.99,-2.698c-2.86,-4.949 -2.824,-8.233 0.041,-9.892c1.876,-0.712 4.552,0.979 7.849,4.541Z" style="fill:#fcb5e9;stroke:#fba1f5;stroke-width:1px;"/><path d="M116.701,163.023c1.734,0.973 2.327,3.214 1.324,5.003c-1.003,1.788 -3.226,2.45 -4.96,1.477c-1.734,-0.973 -2.328,-3.215 -1.324,-5.003c1.003,-1.788 3.226,-2.45 4.96,-1.477Z" style="fill:#fcce12;"/></g><g><path d="M336.366,170.964c-2.002,-4.624 -0.281,-7.019 3.577,-8.134c4.368,-0.717 6.047,1.421 5.706,5.704c1.718,-4.029 4.625,-5.241 9.021,-2.932c3.642,2.65 3.711,5.256 -0.81,7.805c3.497,-1.722 6.3,-1.477 8.202,1.32c0.596,4.406 -0.963,6.216 -5.063,4.969c5.528,3.061 6.881,5.842 3.356,8.295c-3.319,2.037 -6.977,1.469 -10.921,-1.311c2.118,3.708 2.361,6.746 -0.832,8.557c-4.994,1.741 -8.087,0.246 -8.347,-6.066c-2.357,4.506 -5.435,5.881 -9.569,2.681c-2.892,-2.065 -2.401,-4.759 0.52,-7.906c-4.781,1.973 -8.061,0.905 -8.863,-5.185c0.441,-3.702 2.583,-4.331 6.037,-2.59c-2.77,-4.999 -2.675,-8.283 0.22,-9.889c1.889,-0.679 4.533,1.061 7.766,4.682Z" style="fill:#fcb5e9;stroke:#fba1f5;stroke-width:1px;"/><path d="M344.104,175.407c1.717,1.004 2.27,3.256 1.234,5.026c-1.035,1.77 -3.27,2.392 -4.986,1.388c-1.716,-1.004 -2.269,-3.257 -1.234,-5.027c1.036,-1.77 3.27,-2.391 4.986,-1.387Z" style="fill:#fcce12;"/></g></g></g></svg>