<?xml version="1.0" encoding="UTF-8" standalone="no"?><!DOCTYPE svg PUBLIC "-//W3C//DTD SVG 1.1//EN" "http://www.w3.org/Graphics/SVG/1.1/DTD/svg11.dtd"><svg width="100%" height="100%" viewBox="0 0 105 221" version="1.1" xmlns="http://www.w3.org/2000/svg" xmlns:xlink="http://www.w3.org/1999/xlink" xml:space="preserve" xmlns:serif="http://www.serif.com/" style="fill-rule:evenodd;clip-rule:evenodd;stroke-linejoin:round;stroke-miterlimit:1.41421;"><g id="male-beekeeper"><g id="Layer1"><path d="M34.171,16.126l31.143,-1.175c-0.392,-9.028 -5.281,-13.867 -14.203,-14.951c-10.799,-0.005 -16.748,5.055 -16.94,16.126Z" style="fill:#e1ddd4;"/><path d="M24.538,17.928l51.199,-1.904l2.17,2.245l-55.549,2.098l2.18,-2.439Z" style="fill:#e3e0d7;"/></g><path id="main-body" d="M22.286,21.454l2.209,2.88c-0.549,12.645 -0.506,24.072 3.006,28.366c1.349,6.561 2.704,13.121 4.573,19.689c0.33,28.6 -0.619,57.207 -2.888,85.121c6.435,7.061 13.719,6.659 21.248,1.094c1.338,-10.065 2.537,-19.908 3.671,-30.096c1.805,-0.585 3.552,-1.474 5.252,-2.605c6.92,-2.406 13.059,-5.801 18.085,-10.607c-3.079,-20.109 -5.78,-40.347 -5.56,-61.574c4.455,-3.969 4.616,-16.677 3.802,-31.37l2.216,-3.085l-55.614,2.187Z" style="fill:#e2ded5;"/><path d="M69.595,22.39l0.515,26.492l-4.061,-0.109l-13.323,-2.398l0.419,-3.994l7.868,-7.271l2.464,-6.829l-0.38,-3.92l1.148,-1.888l5.35,-0.083Z" style="fill:#e6e9ee;"/><path d="M30.795,23.807l4.366,-0.067l0.367,4.349l3.618,8.42l8.133,6.606l0.146,2.995l-14.836,4.216l-1.794,-26.519Z" style="fill:#e6e9ee;"/><g id="male-hair"><path d="M34.964,23.688c-0.015,7.099 1.417,11.763 3.938,12.911c-0.742,-2.402 -1.14,-5.03 -1.473,-7.882l-0.251,-5.288l-2.214,0.259Z" style="fill:#5c554d;"/><path d="M63.138,22.717c0.251,5.039 0.418,10.255 -1.062,12.606c2.537,-1.456 3.342,-6.274 2.842,-12.705l-0.682,-0.154l-1.098,0.253Z" style="fill:#5c554d;"/></g><path id="face" d="M36.834,23.616l0.054,1.256c-1.074,0.122 -2.502,0.832 -2.245,1.988c0.356,1.577 1.345,1.961 2.687,1.679c-0.114,7.434 2.777,12.473 9.477,14.477c2.549,0.854 4.87,0.757 7.015,-0.074c6.978,-2.228 9.533,-7.374 9.514,-14.217c1.831,-0.226 2.653,-1.159 2.425,-2.828c-0.471,-1.377 -1.327,-1.88 -2.506,-1.651l0.123,-1.583l-13.593,0.517l-12.951,0.436Z" style="fill:#decbbc;"/><path id="shirt" d="M32.896,49.964c11.343,-5.521 22.518,-6.106 33.461,-1.445l-14.536,1.021l-18.925,0.424Z" style="fill:#d0d0ce;"/><path id="neck" d="M46.987,43.075l-0.031,4.566c2.253,1.881 4.479,1.838 6.679,0l0.037,-4.643c-2.091,0.567 -4.31,0.596 -6.685,0.077Z" style="fill:#ddc0ae;"/><path id="left-sleeve" d="M27.623,53.295c-13.402,9.577 -23.504,20.662 -27.623,34.481c0.046,4.506 1.145,8.307 4.504,10.592c3.964,-4.34 8.527,-7.384 14.051,-8.348c-0.569,-0.906 -0.888,-1.86 -1.093,-2.836c4.66,-5.103 9.636,-10.224 14.528,-15.207l-4.367,-18.682Z" style="fill:#d8d4c9;"/><path id="right-sleeve" d="M72.694,52.808c9.819,15.793 16.649,31.194 17.44,44.964c-4.536,0.418 -9.143,0.674 -13.848,0.704c-0.611,-4.207 -1.5,-8.468 -2.466,-12.744c-0.873,-4.759 -1.622,-9.579 -2.242,-14.465c-0.093,-5.761 -0.022,-11.79 0.25,-17.558l0.866,-0.901Z" style="fill:#dad6cd;"/><path id="right-leg-upper" d="M59.357,125.903c6.354,-2.408 12.34,-5.755 17.953,-10.56c2.946,14.511 5.878,29.113 8.334,43.637c-6.01,5.397 -13.264,5.393 -21.555,-0.752c-1.772,-10.658 -3.344,-21.555 -4.732,-32.325Z" style="fill:#dad6cd;"/><path id="right-shoe-sole" d="M77.479,215.016l-0.026,5.254l1.612,-0.027l0.027,-0.711l1.449,0.109l-0.137,0.602l1.859,0.109l0.027,-0.847l1.284,0.109l0.028,0.629l1.694,0.109l-0.027,-1.394c2.184,1.462 4.36,1.785 6.531,1.394l0.028,-0.738l1.475,0l0,0.656l1.64,0.055l0.027,-0.684l1.394,0l0.109,0.684l1.613,-0.028l-0.027,-0.656l1.475,0l0,0.629c2.753,0.384 4.328,-0.991 4.642,-3.588c-8.635,-1.625 -17.417,-2.197 -26.697,-1.666" style="fill:#758a9b;"/><path id="left-shoe-sole" d="M42.588,214.902l0.017,5.392l-1.4,-0.087l-0.029,-0.7l-1.545,-0.029l0.059,0.758l-1.749,0l-0.117,-0.671l-1.224,-0.029l0,0.729l-1.662,0.058l-0.029,-1.457c-1.508,1.188 -3.713,1.666 -6.646,1.399l0,-0.671l-1.254,-0.233l-0.029,0.933l-1.691,-0.117l-0.146,-0.67l-1.399,0.087l0.117,0.642l-1.837,-0.059l0.059,-0.583l-1.415,0.026l0.056,0.746c-3.107,0.466 -4.307,-1.228 -4.672,-3.62l26.536,-1.844Z" style="fill:#738997;"/><path id="right-shoe" d="M72.909,191.097l15.451,-0.976c1.24,10.722 2.088,20.016 5.733,20.183c5.179,0.553 8.998,1.567 9.715,3.629l0.368,2.749c-6.528,1.953 -13.237,1.939 -20.209,-0.918c-1.767,-0.55 -3.996,-0.749 -6.488,-0.748c-0.107,-2.184 -0.045,-4.392 0.3,-6.641c-1.308,-5.863 -3.063,-11.639 -4.87,-17.278Z" style="fill:#5d7abc;"/><path id="left-shoe" d="M28.99,189.7l14.701,0.564c-0.198,4.064 -0.634,8.219 -1.29,12.185c-0.645,4.237 -0.685,8.4 0.187,12.453c-3.511,0.263 -6.761,1.079 -9.811,2.318c-5.629,1.262 -11.211,1.283 -16.725,-0.474c-0.142,-2.803 1.09,-4.405 3.272,-5.174c5.664,-0.366 8.855,-1.645 9.612,-3.821c0.372,-5.697 0.422,-12.153 0.054,-18.051Z" style="fill:#5d7abc;"/><path id="right-leg-lower" d="M64.089,158.228c8.429,5.56 15.567,5.606 21.555,0.752c2.927,14.759 6.324,30.541 2.78,31.238l-16.326,0.993c-1.664,0.315 -2.695,-0.676 -3.143,-2.87c-2.068,-10.037 -3.555,-20.075 -4.866,-30.113Z" style="fill:#d0ccc1;"/><path id="left-leg-lower" d="M29.186,157.51c6.644,6.517 13.776,6.186 21.248,1.094c-1.472,14.178 -2.502,30.736 -6.416,31.777l-15.014,-0.417c-1.307,-0.453 -1.887,-1.652 -1.815,-3.519c0.393,-9.637 1.163,-19.285 1.997,-28.935Z" style="fill:#dad6cd;"/><path id="zipper" d="M52.184,57.972l0.956,-0.109l5.21,59.296l-4.43,0.78l-0.171,-1.093l3.416,-0.444l-4.981,-58.43Z" style="fill:#ede9e0;"/><path id="right-cuff" d="M90.295,99.237c1.139,7.647 1.374,15.077 0.599,22.263l-12.127,0.726c-2.39,-6.598 -2.985,-14.087 -2.292,-22.217c4.512,-0.187 9.119,-0.445 13.82,-0.772Z" style="fill:#f5f1e6;"/><g id="right-six"><path d="M79.464,101.302l0.191,2.35l1.12,-0.054l-0.218,-2.378l-1.093,0.082Z" style="fill:#efebe0;"/><path d="M83.098,101.247l0.082,2.323l1.066,-0.136l0.028,-2.378l-1.176,0.191Z" style="fill:#efebe0;"/><path d="M86.596,100.755l0.11,2.269l1.257,0.027l-0.055,-2.296l-1.312,0Z" style="fill:#efebe0;"/><path d="M88.288,118.65l0.055,1.694l1.093,-0.027l-0.082,-1.886l-1.066,0.219Z" style="fill:#efebe0;"/><path d="M84.954,118.896l0.082,1.421l1.039,-0.028l0,-1.585l-1.121,0.192Z" style="fill:#efebe0;"/><path d="M81.401,119.005l0.137,1.858l1.175,-0.054l-0.027,-1.968l-1.285,0.164Z" style="fill:#efebe0;"/></g><path id="right-glove" d="M78.872,123.709c4.083,-0.141 8.123,-0.405 12.135,-0.746c-0.373,2.099 -0.057,4.186 1.175,6.258c0.892,2.999 1.751,5.993 2.077,8.909c-0.106,1.57 -0.782,1.731 -1.913,0.765c-1.085,-1.789 -1.949,-4.044 -2.65,-6.64c0.428,2.898 0.806,5.729 0.683,7.898c-0.48,1.028 -1.193,0.954 -2.105,-0.055c-1.109,-1.674 -1.999,-4.098 -2.814,-6.778c0.549,3.331 1.131,6.716 0.519,8.199c-0.395,1.095 -1.181,0.996 -2.378,-0.355c-1.59,-2.857 -2.579,-6.881 -3.525,-10.986c-2.294,2.16 -4.368,3.676 -5.657,2.896c-1.485,-1.051 -1.08,-2.057 0.492,-3.033c2.452,-2.8 4.528,-5.37 3.961,-6.332Z" style="fill:#ece8df;"/><path id="left-glove" d="M31.366,107.353c3.156,-0.393 3.651,-0.293 4.031,-0.171c3.005,1.495 5.917,4.962 8.779,9.497c0.083,1.372 -0.473,1.779 -1.639,1.264c-1.599,-0.879 -3.119,-2.472 -4.612,-4.304c1.875,2.723 3.885,5.545 3.587,6.661c-0.123,0.797 -0.631,1.1 -1.777,0.581c-1.632,-0.792 -3.109,-2.687 -4.543,-4.885c1.518,2.493 2.918,4.883 3.074,6.183c-0.127,0.889 -0.667,1.138 -1.639,0.717c-1.277,-1.344 -2.582,-2.841 -3.929,-4.577c-2.706,1.374 -5.113,0.178 -7.276,-3.109c1.98,-2.857 3.961,-5.483 5.944,-7.857Z" style="fill:#ece8df;"/><path id="left-cuff" d="M5.937,99.859c3.593,-4.29 8.099,-7.21 13.579,-8.669c4.158,4.605 7.901,9.474 11.102,14.689c-1.954,2.84 -4.031,5.674 -6.32,8.498c-6.677,-1.59 -12.859,-6.075 -18.361,-14.518Z" style="fill:#e1ddd2;"/><g id="left-six"><path d="M9.054,98.535l1.665,1.964l0.854,-1.025l-1.409,-1.879l-1.11,0.94Z" style="fill:#d6d6ce;"/><path d="M12.043,96.144l1.495,1.75l0.811,-1.067l-1.409,-1.495l-0.897,0.812Z" style="fill:#d6d6ce;"/><path d="M14.947,94.265l1.452,1.665l1.153,-0.811l-1.239,-1.537l-1.366,0.683Z" style="fill:#d6d6ce;"/><path d="M26.647,106.008l1.281,1.537l0.811,-0.854l-1.238,-1.452l-0.854,0.769Z" style="fill:#d6d6ce;"/><path d="M24.853,108.655l1.367,1.409l0.598,-0.939l-1.239,-1.367l-0.726,0.897Z" style="fill:#d6d6ce;"/><path d="M23.017,111.345l1.239,1.239l0.726,-0.769l-1.282,-1.281l-0.683,0.811Z" style="fill:#d6d6ce;"/></g><ellipse id="left-eye" cx="43.341" cy="25.952" rx="1.446" ry="2.145" style="fill:#5a5b76;"/><ellipse id="right-eye" cx="57.147" cy="25.719" rx="1.446" ry="2.145" style="fill:#5a5b76;"/><path id="nose" d="M51.355,24.213l1.72,8.272l-2.503,0.421l-0.21,-0.516l2.006,-0.229l-1.72,-7.967l0.707,0.019Z" style="fill:#d7baac;"/><path id="mouth" d="M44.197,34.221l9.695,1.814c-0.648,2.962 -2.467,4.444 -5.875,3.917c-3.185,-0.577 -4.156,-2.698 -3.82,-5.731Z" style="fill:#eae8eb;"/><path id="hat-brim" d="M22.358,20.367l55.549,-2.098l-0.007,0.998l-55.614,2.187l0.072,-1.087Z" style="fill:#f5f3e7;"/><g id="blue-lines"><path d="M34.171,16.126c10.52,-0.452 20.908,-0.858 31.143,-1.175l0.02,1.46c-10.352,0.439 -20.739,0.724 -31.166,1.159l0.003,-1.444Z" style="fill:#bcc6d0;"/><path d="M24.418,21.548l1.212,1.862l1.148,-0.059l-1.33,-1.824l-1.03,0.021Z" style="fill:#bcc6d0;"/><path d="M27.032,21.432l1.017,1.89l1.407,-0.086l-0.846,-1.862l-1.578,0.058Z" style="fill:#bcc6d0;"/><path d="M29.877,21.341l1.12,1.791l1.281,-0.05l-1.179,-1.781l-1.222,0.04Z" style="fill:#bcc6d0;"/><path d="M32.829,21.216l0.809,1.778l0.999,-0.037l-0.631,-1.768l-1.177,0.027Z" style="fill:#bcc6d0;"/><path d="M35.658,21.048l0.708,1.89l1.084,-0.03l-0.863,-1.897l-0.929,0.037Z" style="fill:#bcc6d0;"/><path d="M38.443,20.975l0.565,1.832l1.18,-0.052l-0.726,-1.811l-1.019,0.031Z" style="fill:#bcc6d0;"/><path d="M41.234,20.909l0.419,1.749l0.958,-0.036l-0.388,-1.754l-0.989,0.041Z" style="fill:#bcc6d0;"/><path d="M44.032,20.794l0.214,1.803l1.119,-0.035l-0.182,-1.831l-1.151,0.063Z" style="fill:#bcc6d0;"/><path d="M46.965,20.688l-0.044,1.794l1.094,-0.041l-0.088,-1.771l-0.962,0.018Z" style="fill:#bcc6d0;"/><path d="M49.685,20.549l0.095,1.831l0.937,-0.028l-0.017,-1.854l-1.015,0.051Z" style="fill:#bcc6d0;"/><path d="M52.542,20.397l-0.065,1.905l0.957,-0.02l-0.025,-1.917l-0.867,0.032Z" style="fill:#bcc6d0;"/><path d="M55.183,20.323l0.035,1.849l0.927,-0.04l-0.012,-1.832l-0.95,0.023Z" style="fill:#bcc6d0;"/><path d="M57.923,20.265l-0.082,1.826l1.085,-0.03l0.076,-1.842l-1.079,0.046Z" style="fill:#bcc6d0;"/><path d="M60.448,21.985l1.049,-0.018l0.14,-1.854l-1.102,0.041l-0.087,1.831Z" style="fill:#bcc6d0;"/><path d="M63.182,21.868l0.979,-0.029l0.491,-1.826l-1.103,0.041l-0.367,1.814Z" style="fill:#bcc6d0;"/><path d="M65.835,21.769l1.096,-0.064l0.402,-1.825l-1.073,0.052l-0.425,1.837Z" style="fill:#bcc6d0;"/><path d="M69.194,19.794l-0.685,1.821l1.21,-0.037l0.576,-1.835l-1.101,0.051Z" style="fill:#bcc6d0;"/><path d="M71.971,19.683l-0.838,1.769l1.192,-0.027l0.67,-1.769l-1.024,0.027Z" style="fill:#bcc6d0;"/><path d="M74.727,19.6l-0.976,1.732l1.33,-0.052l0.977,-1.748l-1.331,0.068Z" style="fill:#bcc6d0;"/><g><path d="M30.067,23.376l40.283,-1.655l0.164,27.447l-38.636,1.503l-1.811,-27.295l0.908,0.675l1.765,25.848l36.674,-1.523l0.045,-25.76l-38.484,1.435" style="fill:#bcc6d0;"/></g><path d="M4.504,98.368c3.658,-4.57 8.24,-7.328 14.051,-8.348c0.363,0.311 0.702,0.788 0.961,1.17c-5.817,2.061 -10.244,4.972 -13.579,8.669c-0.468,-0.343 -1.076,-1.027 -1.433,-1.491Z" style="fill:#bcc6d0;"/><path d="M30.618,105.879c-2.042,2.859 -4.162,5.83 -6.32,8.498c0.209,0.426 0.747,0.712 1.124,0.833c1.988,-2.798 3.904,-5.32 5.944,-7.857c-0.205,-0.446 -0.524,-1.134 -0.748,-1.474Z" style="fill:#bcc6d0;"/><path d="M76.286,98.476c4.621,-0.109 9.228,-0.39 13.848,-0.704l0.161,1.465c-4.648,0.322 -9.168,0.627 -13.82,0.772c-0.101,-0.446 -0.198,-1.089 -0.189,-1.533Z" style="fill:#bcc6d0;"/><path d="M90.919,121.813l0,1.12c-3.991,0.409 -8,0.576 -12.03,0.451l-0.084,-1.064c4.037,-0.061 8.076,-0.251 12.114,-0.507Z" style="fill:#bcc6d0;"/></g></g></svg>