<?xml version="1.0" encoding="UTF-8" standalone="no"?><!DOCTYPE svg PUBLIC "-//W3C//DTD SVG 1.1//EN" "http://www.w3.org/Graphics/SVG/1.1/DTD/svg11.dtd"><svg width="100%" height="100%" viewBox="0 0 550 550" version="1.1" xmlns="http://www.w3.org/2000/svg" xmlns:xlink="http://www.w3.org/1999/xlink" xml:space="preserve" xmlns:serif="http://www.serif.com/" style="fill-rule:evenodd;clip-rule:evenodd;stroke-linejoin:round;stroke-miterlimit:1.41421;"><circle cx="275" cy="275" r="275" style="fill:#76d2f4;"/><clipPath id="_clip1"><circle cx="275" cy="275" r="275"/></clipPath><g clip-path="url(#_clip1)"><circle cx="275" cy="275" r="275" style="fill:#76d2f4;"/><clipPath id="_clip2"><circle cx="275" cy="275" r="275"/></clipPath><g clip-path="url(#_clip2)"><circle cx="275" cy="275" r="275" style="fill:#76d2f4;"/></g><path d="M556.377,307.951l0,310.292l-622.805,0l0,-305.132c75.497,-28.19 156.154,-22.712 240.563,7.259c74.342,-39.846 139.748,-39.65 199.094,-12.304c35.093,-9.066 74.269,-9.548 116.883,-2.796c22.736,-10.017 45.023,-12.473 66.265,2.681Z" style="fill:#fde6be;"/><g id="Layer1"><path d="M558.028,310.154c-0.615,-6.048 -358.603,-0.068 -462.607,3.226c-63.636,2.014 -163.429,8.242 -163.429,8.242l0,299.303l626.036,0l0,-310.771Z" style="fill:#fbc77b;"/></g><g><path d="M432.865,214.48l96.472,117.53l-155.122,0l58.65,-117.53Z" style="fill:#f7ce8d;"/><path d="M432.865,214.48l-46.705,93.595l-19.933,-25.928l66.638,-67.667Z" style="fill:#de9b41;"/></g><g><path d="M291.428,184.848l120.814,157.155l-216.113,10.245l95.299,-167.4Z" style="fill:#f6c579;"/><path d="M291.428,184.848l-76.072,133.627l-27.429,-31.969l103.501,-101.658Z" style="fill:#de9b42;"/></g><g><path d="M148.691,240.777l104.772,122.111l-182.524,1.973l77.752,-124.084Z" style="fill:#f4bd6a;"/><path d="M148.691,240.777l-77.752,124.084l-35.136,-14.206l112.888,-109.878Z" style="fill:#de9c3f;"/></g><g id="Layer2"><path d="M559.148,409.119c-15.881,2.498 -30.923,8.815 -49.477,3.598c-26.117,-7.343 -56.555,-15.417 -83.079,-18.15c-7.842,-0.808 -9.493,18.65 -17.486,18.15c-36.129,-2.262 -74.954,5.044 -109.83,4.912c-13.865,-0.053 -27.461,17.743 -40.65,17.575c-14.079,-0.18 -38.215,-8.985 -50.674,-8.804c-4.552,0.067 11.581,17.595 7.194,17.646c-54.819,0.632 -94.046,21.412 -111.028,-8.842c-22.927,-40.848 -116.23,3.349 -175.26,-13.542l0,199.655l630.29,0l0,-212.198Z" style="fill:#e9ab54;"/></g></g></svg>