<?xml version="1.0" encoding="UTF-8" standalone="no"?><!DOCTYPE svg PUBLIC "-//W3C//DTD SVG 1.1//EN" "http://www.w3.org/Graphics/SVG/1.1/DTD/svg11.dtd"><svg width="100%" height="100%" viewBox="0 0 316 191" version="1.1" xmlns="http://www.w3.org/2000/svg" xmlns:xlink="http://www.w3.org/1999/xlink" xml:space="preserve" xmlns:serif="http://www.serif.com/" style="fill-rule:evenodd;clip-rule:evenodd;stroke-linejoin:round;stroke-miterlimit:1.41421;"><g id="scents"><g id="Layer1"><path d="M34.2,23.59c-3.101,-12.151 1.057,-20.219 14.375,-23.59l80.581,0c10.444,5.026 15.674,12.461 12.608,23.59l-107.541,0" style="fill:#fbc12c;"/><path d="M34.2,23.59c-10.463,4.637 -14.789,12.348 -11.662,23.794l129.95,0c3.292,-11.156 -1.13,-18.766 -10.724,-23.794l-107.564,0Z" style="fill:#fde149;"/><path d="M22.538,47.384c-10.672,4.083 -14.878,11.397 -11.39,22.978l154.104,0c2.434,-12.022 -2.325,-19.785 -12.764,-22.978l-129.95,0Z" style="fill:#fbc12c;"/><path d="M11.148,70.362c-15.505,11.305 -14.209,26.384 0,34.466l154.104,0c12.494,-11.094 11.199,-22.624 0,-34.466l-154.104,0Z" style="fill:#fde149;"/><path d="M11.148,104.828c-3.268,13.01 0.708,20.756 11.135,23.554l131.009,0c9.742,-4.145 13.069,-12.306 11.96,-23.554l-154.104,0Z" style="fill:#fbc12c;"/><path d="M22.283,128.382c-2.713,11.827 0.922,19.813 11.32,23.531l108.042,0c9.349,-3.806 13.422,-11.64 11.647,-23.531l-131.009,0Z" style="fill:#fde149;"/><path d="M33.603,151.913c-1.472,13.603 2.79,21.449 12.557,23.099l83.624,0c10.038,-4.147 13.754,-12.354 11.861,-23.099l-108.042,0Z" style="fill:#fbc12c;"/><path d="M64.453,151.913l46.254,0l0,-27.1c-15.759,-25.683 -31.18,-25.885 -46.254,0l0,27.1Z" style="fill:#a46836;"/></g><path d="M100.476,145.685l0.122,0.169l0.355,0.486l0.354,0.483l0.356,0.479l0.356,0.475l0.356,0.471l0.357,0.468l0.358,0.464l0.358,0.46l0.358,0.456l0.36,0.453l0.36,0.45l0.36,0.445l0.362,0.442l0.362,0.438l0.363,0.435l0.363,0.431l0.365,0.427l0.182,0.212l0.183,0.211l0.183,0.211l0.183,0.209l0.183,0.209l0.184,0.207l0.184,0.207l0.184,0.206l0.184,0.204l0.184,0.204l0.185,0.203l0.185,0.202l0.185,0.201l0.185,0.201l0.186,0.199l0.186,0.198l0.186,0.198l0.186,0.196l0.187,0.196l0.187,0.195l0.187,0.194l0.187,0.192l0.188,0.192l0.188,0.191l0.188,0.19l0.188,0.19l0.189,0.188l0.189,0.187l0.189,0.187l0.19,0.185l0.189,0.185l0.19,0.184l0.191,0.182l0.08,0.077l0.11,0.106l0.189,0.182l0.19,0.182l0.19,0.18l0.19,0.18l0.191,0.178l0.191,0.178l0.191,0.177l0.192,0.176l0.192,0.175l0.192,0.174l0.193,0.174l0.193,0.172l0.193,0.171l0.194,0.171l0.194,0.17l0.194,0.168l0.195,0.168l0.195,0.167l0.195,0.166l0.196,0.165l0.196,0.165l0.196,0.163l0.197,0.162l0.197,0.162l0.198,0.161l0.198,0.159l0.198,0.159l0.199,0.158l0.199,0.157l0.199,0.157l0.2,0.155l0.2,0.154l0.201,0.154l0.201,0.153l0.201,0.151l0.202,0.151l0.202,0.15l0.202,0.15l0.203,0.148l0.204,0.147l0.204,0.147l0.204,0.145l0.204,0.145l0.205,0.144l0.206,0.143l0.206,0.142l0.206,0.141l0.207,0.14l0.207,0.14l0.208,0.138l0.208,0.138l0.208,0.137l0.209,0.136l0.21,0.135l0.21,0.134l0.21,0.134l0.211,0.132l0.211,0.132l0.212,0.131l0.212,0.13l0.213,0.129l0.213,0.128l0.214,0.127l0.214,0.127l0.215,0.125l0.215,0.125l0.216,0.124l0.216,0.123l0.217,0.122l0.217,0.122l0.217,0.12l0.219,0.12l0.218,0.118l0.22,0.118l0.219,0.117l0.221,0.117l0.22,0.115l0.222,0.115l0.222,0.113l0.222,0.113l0.223,0.112l0.224,0.111l0.224,0.111l0.225,0.109l0.225,0.109l0.226,0.108l0.226,0.107l0.227,0.106l0.227,0.105l0.228,0.105l0.229,0.103l0.229,0.103l0.23,0.102l0.231,0.101l0.116,0.051l0.114,0.051l0.231,0.102l0.231,0.1l0.232,0.101l0.232,0.099l0.233,0.098l0.234,0.098l0.234,0.097l0.235,0.096l0.236,0.095l0.236,0.094l0.237,0.094l0.238,0.093l0.238,0.092l0.239,0.091l0.24,0.09l0.24,0.09l0.241,0.088l0.242,0.088l0.242,0.088l0.244,0.086l0.243,0.085l0.245,0.085l0.245,0.084l0.246,0.083l0.247,0.083l0.247,0.081l0.248,0.081l0.249,0.08l0.249,0.079l0.251,0.078l0.251,0.078l0.251,0.077l0.253,0.076l0.253,0.075l0.254,0.074l0.255,0.074l0.255,0.073l0.256,0.072l0.258,0.071l0.257,0.071l0.259,0.069l0.259,0.069l0.261,0.068l0.26,0.067l0.262,0.067l0.263,0.066l0.263,0.065l0.264,0.064l0.122,0.029l0.143,0.035l0.265,0.065l0.266,0.065l0.267,0.063l0.267,0.063l0.269,0.062l0.269,0.061l0.27,0.06l0.271,0.06l0.272,0.058l0.273,0.058l0.274,0.058l0.274,0.056l0.276,0.056l0.276,0.055l0.277,0.054l0.278,0.053l0.279,0.053l0.28,0.052l0.28,0.051l0.282,0.05l0.283,0.05l0.283,0.048l0.284,0.048l0.286,0.048l0.286,0.046l0.287,0.046l0.288,0.045l0.289,0.044l0.29,0.043l0.291,0.043l0.292,0.041l0.292,0.042l0.294,0.04l0.295,0.039l0.295,0.039l0.297,0.038l0.298,0.037l0.298,0.037l0.3,0.035l0.3,0.035l0.302,0.034l0.302,0.034l0.304,0.032l0.304,0.032l0.072,0.007l0.233,0.027l0.306,0.034l0.307,0.033l0.308,0.032l0.309,0.032l0.31,0.031l0.311,0.03l0.312,0.03l0.313,0.028l0.315,0.028l0.315,0.027l0.316,0.026l0.318,0.026l0.318,0.025l0.32,0.024l0.32,0.023l0.322,0.023l0.323,0.022l0.323,0.021l0.325,0.02l0.326,0.02l0.327,0.019l0.328,0.018l0.33,0.017l0.33,0.016l0.332,0.016l0.332,0.015l0.334,0.015l0.334,0.013l0.336,0.013l0.337,0.012l0.338,0.011l0.34,0.011l0.34,0.009l0.342,0.009l0.342,0.009l0.344,0.007l0.345,0.007l0.346,0.006l0.121,0.002l0.226,0.006l0.348,0.008l0.35,0.008l0.35,0.007l0.352,0.006l0.353,0.005l0.354,0.005l0.355,0.004l0.357,0.003l0.357,0.002l0.359,0.002l0.36,0.001l0.362,0l0.362,0l0.364,-0.001l0.365,-0.002l0.364,-0.003l0.264,-0.003l0.474,0l0.74,-0.004l0.746,-0.007l0.751,-0.01l0.756,-0.012l0.761,-0.016l0.765,-0.018l0.771,-0.021l0.256,-0.008l0.521,-0.01l0.781,-0.017l0.787,-0.021l0.792,-0.023l0.797,-0.026l0.803,-0.028l0.808,-0.032l0.813,-0.034l0.162,-0.008l0.658,-0.022l0.824,-0.03l0.83,-0.034l0.836,-0.036l0.841,-0.039l0.847,-0.041l0.852,-0.045l0.858,-0.047l0.332,-0.019l0.532,-0.024l0.87,-0.042l0.876,-0.045l0.881,-0.048l0.887,-0.05l0.893,-0.053l0.899,-0.056l0.905,-0.058l0.91,-0.061l0.916,-0.064l0.923,-0.066l0.928,-0.07l0.934,-0.071l0.94,-0.075l0.946,-0.077l0.952,-0.079l0.853,-0.074l0.105,-0.008l0.966,-0.074l0.971,-0.078l0.978,-0.08l0.984,-0.082l0.99,-0.085l0.996,-0.088l1.002,-0.09l1.009,-0.093l1.015,-0.095l1.021,-0.098l1.028,-0.1l1.034,-0.103l1.04,-0.106l1.047,-0.108l1.053,-0.11l0.58,-0.062l0.48,-0.048l1.067,-0.108l1.074,-0.11l1.08,-0.113l1.087,-0.116l1.093,-0.118l1.1,-0.12l1.107,-0.123l1.113,-0.125l1.12,-0.128l1.126,-0.13l1.133,-0.133l1.14,-0.135l1.147,-0.137l0.592,-0.072l0.562,-0.064l1.162,-0.134l1.169,-0.137l1.175,-0.139l1.182,-0.141l1.19,-0.144l1.196,-0.146l1.203,-0.149l1.21,-0.151l1.217,-0.153l1.224,-0.155l1.232,-0.158l1.238,-0.16l1.245,-0.162l1.253,-0.165l1.26,-0.167l1.266,-0.17l1.275,-0.171l1.281,-0.174l1.288,-0.176l1.296,-0.179l0.211,-0.029l1.093,-0.146l1.312,-0.175l1.319,-0.178l1.327,-0.18l1.334,-0.183l1.341,-0.184l1.349,-0.187l0.967,-0.135l0.39,-0.053l-0.38,0.102l-0.943,0.252l-1.317,0.349l-1.309,0.347l-1.302,0.343l-1.296,0.341l-1.288,0.337l-1.282,0.334l-1.069,0.278l-0.206,0.052l-1.27,0.321l-1.262,0.318l-1.256,0.314l-1.249,0.312l-1.242,0.309l-1.236,0.306l-1.229,0.302l-1.223,0.3l-1.215,0.296l-1.21,0.294l-1.202,0.29l-1.196,0.288l-1.19,0.284l-1.183,0.281l-1.177,0.279l-1.17,0.275l-1.164,0.272l-1.158,0.269l-1.151,0.266l-1.145,0.263l-0.554,0.126l-0.585,0.13l-1.134,0.249l-1.128,0.246l-1.121,0.243l-1.115,0.239l-1.109,0.237l-1.103,0.234l-1.097,0.231l-1.09,0.227l-1.085,0.225l-1.079,0.222l-1.073,0.218l-1.066,0.216l-1.061,0.212l-0.477,0.095l-0.579,0.111l-1.05,0.198l-1.044,0.196l-1.039,0.193l-1.032,0.19l-1.027,0.186l-1.021,0.184l-1.016,0.181l-1.009,0.178l-1.004,0.174l-0.999,0.172l-0.993,0.168l-0.987,0.166l-0.982,0.162l-0.976,0.16l-0.97,0.156l-0.106,0.017l-0.861,0.127l-0.961,0.14l-0.955,0.137l-0.95,0.134l-0.945,0.131l-0.939,0.128l-0.934,0.126l-0.929,0.122l-0.923,0.119l-0.918,0.115l-0.913,0.113l-0.908,0.11l-0.903,0.107l-0.897,0.104l-0.892,0.101l-0.888,0.097l-0.542,0.059l-0.34,0.032l-0.878,0.081l-0.873,0.079l-0.868,0.075l-0.863,0.072l-0.857,0.069l-0.853,0.067l-0.848,0.063l-0.677,0.048l-0.167,0.01l-0.839,0.048l-0.833,0.045l-0.83,0.041l-0.824,0.039l-0.819,0.036l-0.815,0.032l-0.81,0.03l-0.539,0.018l-0.266,0.006l-0.801,0.014l-0.796,0.011l-0.791,0.008l-0.787,0.005l-0.782,0.002l-0.777,-0.001l-0.773,-0.004l-0.492,-0.004l-0.274,-0.005l-0.384,-0.008l-0.381,-0.009l-0.38,-0.009l-0.379,-0.01l-0.378,-0.011l-0.377,-0.012l-0.375,-0.012l-0.375,-0.013l-0.373,-0.014l-0.372,-0.015l-0.371,-0.015l-0.37,-0.016l-0.369,-0.017l-0.368,-0.018l-0.366,-0.018l-0.366,-0.019l-0.237,-0.013l-0.127,-0.008l-0.363,-0.025l-0.362,-0.025l-0.361,-0.026l-0.36,-0.027l-0.359,-0.028l-0.358,-0.028l-0.356,-0.029l-0.356,-0.03l-0.354,-0.03l-0.353,-0.031l-0.352,-0.032l-0.352,-0.033l-0.35,-0.034l-0.349,-0.034l-0.348,-0.035l-0.346,-0.035l-0.346,-0.037l-0.345,-0.037l-0.344,-0.038l-0.342,-0.039l-0.342,-0.04l-0.341,-0.04l-0.339,-0.041l-0.339,-0.042l-0.337,-0.042l-0.336,-0.044l-0.336,-0.044l-0.334,-0.045l-0.334,-0.045l-0.332,-0.047l-0.331,-0.047l-0.33,-0.048l-0.33,-0.048l-0.328,-0.05l-0.327,-0.05l-0.326,-0.051l-0.326,-0.052l-0.324,-0.052l-0.247,-0.041l-0.076,-0.013l-0.322,-0.058l-0.32,-0.059l-0.32,-0.059l-0.319,-0.06l-0.318,-0.06l-0.316,-0.062l-0.316,-0.062l-0.315,-0.063l-0.313,-0.064l-0.313,-0.065l-0.312,-0.065l-0.311,-0.066l-0.31,-0.067l-0.308,-0.068l-0.308,-0.068l-0.307,-0.069l-0.306,-0.07l-0.305,-0.071l-0.304,-0.071l-0.303,-0.073l-0.302,-0.073l-0.301,-0.074l-0.3,-0.074l-0.3,-0.075l-0.298,-0.077l-0.297,-0.077l-0.297,-0.077l-0.295,-0.079l-0.295,-0.079l-0.293,-0.08l-0.293,-0.081l-0.292,-0.082l-0.29,-0.082l-0.29,-0.083l-0.289,-0.084l-0.288,-0.085l-0.287,-0.086l-0.287,-0.086l-0.285,-0.087l-0.284,-0.088l-0.284,-0.089l-0.282,-0.089l-0.282,-0.09l-0.281,-0.092l-0.151,-0.049l-0.128,-0.043l-0.278,-0.096l-0.278,-0.095l-0.276,-0.097l-0.276,-0.097l-0.275,-0.099l-0.273,-0.098l-0.273,-0.1l-0.272,-0.101l-0.271,-0.101l-0.27,-0.102l-0.27,-0.103l-0.268,-0.104l-0.268,-0.104l-0.266,-0.105l-0.266,-0.106l-0.265,-0.107l-0.264,-0.108l-0.263,-0.108l-0.263,-0.109l-0.261,-0.11l-0.261,-0.111l-0.259,-0.112l-0.259,-0.112l-0.258,-0.113l-0.257,-0.114l-0.257,-0.115l-0.255,-0.115l-0.255,-0.116l-0.254,-0.118l-0.252,-0.117l-0.253,-0.119l-0.251,-0.12l-0.25,-0.12l-0.25,-0.121l-0.249,-0.122l-0.248,-0.122l-0.247,-0.124l-0.246,-0.124l-0.245,-0.125l-0.245,-0.126l-0.244,-0.126l-0.243,-0.127l-0.242,-0.129l-0.242,-0.129l-0.24,-0.129l-0.24,-0.131l-0.239,-0.131l-0.238,-0.132l-0.118,-0.066l-0.119,-0.068l-0.236,-0.136l-0.235,-0.137l-0.233,-0.137l-0.234,-0.138l-0.232,-0.139l-0.231,-0.14l-0.231,-0.141l-0.23,-0.141l-0.229,-0.142l-0.229,-0.143l-0.227,-0.144l-0.227,-0.144l-0.226,-0.145l-0.225,-0.146l-0.225,-0.147l-0.224,-0.148l-0.223,-0.148l-0.222,-0.149l-0.221,-0.15l-0.221,-0.151l-0.22,-0.151l-0.219,-0.152l-0.219,-0.153l-0.217,-0.154l-0.217,-0.155l-0.217,-0.155l-0.215,-0.156l-0.215,-0.157l-0.214,-0.158l-0.213,-0.158l-0.213,-0.159l-0.211,-0.16l-0.212,-0.161l-0.21,-0.162l-0.21,-0.162l-0.209,-0.163l-0.208,-0.164l-0.208,-0.165l-0.206,-0.165l-0.207,-0.166l-0.205,-0.167l-0.205,-0.168l-0.204,-0.169l-0.204,-0.169l-0.202,-0.17l-0.202,-0.171l-0.202,-0.171l-0.201,-0.173l-0.2,-0.173l-0.199,-0.174l-0.199,-0.175l-0.198,-0.175l-0.197,-0.176l-0.197,-0.177l-0.196,-0.178l-0.196,-0.179l-0.194,-0.179l-0.195,-0.18l-0.193,-0.181l-0.193,-0.182l-0.193,-0.182l-0.191,-0.184l-0.191,-0.184l-0.191,-0.184l-0.19,-0.186l-0.189,-0.186l-0.188,-0.187l-0.188,-0.188l-0.188,-0.189l-0.187,-0.189l-0.186,-0.191l-0.186,-0.191l-0.185,-0.191l-0.184,-0.193l-0.184,-0.193l-0.183,-0.194l-0.183,-0.195l-0.182,-0.196l-0.182,-0.196l-0.181,-0.197l-0.181,-0.198l-0.18,-0.199l-0.179,-0.2l-0.179,-0.2l-0.178,-0.201l-0.178,-0.202l-0.177,-0.203l-0.177,-0.203l-0.176,-0.204l-0.176,-0.205l-0.175,-0.206l-0.175,-0.206l-0.174,-0.208l-0.173,-0.208l-0.101,-0.121l-0.072,-0.088l-0.171,-0.211l-0.171,-0.212l-0.17,-0.213l-0.169,-0.213l-0.169,-0.214l-0.169,-0.215l-0.168,-0.216l-0.168,-0.216l-0.167,-0.217l-0.167,-0.218l-0.166,-0.219l-0.166,-0.22l-0.165,-0.22l-0.165,-0.221l-0.164,-0.222l-0.164,-0.223l-0.164,-0.223l-0.163,-0.224l-0.162,-0.225l-0.163,-0.226l-0.161,-0.227l-0.162,-0.227l-0.16,-0.228l-0.161,-0.229l-0.16,-0.23l-0.159,-0.231l-0.16,-0.231l-0.158,-0.232l-0.159,-0.233l-0.158,-0.234l-0.157,-0.234l-0.157,-0.236l-0.157,-0.236l-0.313,-0.474l-0.311,-0.478l-0.309,-0.481l-0.308,-0.484l-0.306,-0.488l-0.306,-0.491l-0.303,-0.493l-0.303,-0.498l-0.301,-0.5l-0.3,-0.504l-0.298,-0.506l-0.298,-0.511l-0.296,-0.513l-0.295,-0.517l-0.294,-0.52l-0.292,-0.523l-0.292,-0.527l-0.101,-0.183l-0.189,-0.347l0.232,0.32Z" style="fill:#ed43ff;"/><path d="M157.426,118.001l0.45,0.002l0.452,0.004l0.454,0.006l0.455,0.007l0.457,0.009l0.458,0.011l0.461,0.012l0.462,0.014l0.463,0.016l0.465,0.017l0.467,0.019l0.469,0.021l0.47,0.022l0.472,0.024l0.474,0.025l0.475,0.028l0.477,0.029l0.479,0.031l0.48,0.032l0.207,0.015l0.275,0.021l0.484,0.039l0.485,0.041l0.486,0.043l0.489,0.045l0.49,0.046l0.492,0.048l0.493,0.049l0.495,0.052l0.497,0.053l0.499,0.055l0.5,0.056l0.502,0.058l0.504,0.06l0.505,0.062l0.507,0.063l0.509,0.066l0.51,0.066l0.513,0.069l0.514,0.071l0.515,0.072l0.518,0.074l0.519,0.075l0.52,0.078l0.523,0.079l0.524,0.081l0.526,0.082l0.528,0.085l0.53,0.086l0.531,0.088l0.533,0.09l0.275,0.047l0.259,0.047l0.536,0.098l0.537,0.1l0.539,0.102l0.54,0.104l0.543,0.106l0.544,0.107l0.545,0.109l0.548,0.111l0.549,0.113l0.551,0.115l0.553,0.116l0.555,0.119l0.556,0.12l0.558,0.122l0.56,0.123l0.561,0.126l0.564,0.127l0.565,0.13l0.566,0.131l0.569,0.132l0.57,0.135l0.573,0.137l0.574,0.138l0.575,0.14l0.578,0.142l0.579,0.144l0.456,0.114l0.125,0.033l0.581,0.153l0.583,0.155l0.585,0.157l0.587,0.158l0.588,0.161l0.591,0.162l0.592,0.164l0.594,0.166l0.595,0.168l0.619,0.177l1.157,0.345l0.064,0.019l1.052,0.322l1.108,0.336l1.1,0.332l1.091,0.328l1.083,0.323l1.074,0.319l0.308,0.091l0.756,0.231l1.055,0.322l1.046,0.317l1.039,0.313l1.03,0.308l1.022,0.304l1.014,0.299l0.106,0.031l0.898,0.274l0.995,0.301l0.988,0.296l0.979,0.292l0.972,0.288l0.964,0.284l0.956,0.279l0.949,0.275l0.042,0.012l0.896,0.268l0.93,0.276l0.923,0.272l0.915,0.268l0.908,0.263l0.9,0.259l0.893,0.255l0.885,0.251l0.878,0.246l0.871,0.242l0.863,0.239l0.855,0.234l0.849,0.229l0.841,0.226l0.834,0.222l0.827,0.218l0.819,0.213l0.812,0.21l0.806,0.205l0.438,0.111l0.359,0.094l0.789,0.205l0.783,0.201l0.775,0.197l0.769,0.193l0.761,0.189l0.755,0.185l0.748,0.181l0.741,0.177l0.734,0.174l0.728,0.169l0.721,0.166l0.714,0.161l0.707,0.158l0.701,0.154l0.694,0.151l0.687,0.146l0.681,0.143l0.675,0.139l0.668,0.135l0.661,0.132l0.655,0.128l0.649,0.124l0.642,0.121l0.636,0.117l0.488,0.088l0.141,0.026l0.623,0.114l0.617,0.11l0.61,0.107l0.604,0.103l0.598,0.1l0.592,0.096l0.586,0.092l0.579,0.089l0.574,0.086l0.567,0.082l0.562,0.078l0.556,0.076l0.55,0.072l0.543,0.068l0.539,0.065l0.532,0.062l0.526,0.059l0.521,0.055l0.515,0.052l0.509,0.048l0.503,0.046l0.498,0.042l0.492,0.039l0.487,0.036l0.481,0.033l0.475,0.029l0.47,0.027l0.465,0.023l0.459,0.02l0.453,0.017l0.448,0.015l0.443,0.011l0.439,0.008l0.089,0.001l0.126,0.003l0.216,0.003l0.214,0.003l0.213,0.002l0.211,0.001l0.21,0.001l0.209,0l0.208,-0.001l0.206,-0.002l0.205,-0.002l0.204,-0.003l0.203,-0.004l0.201,-0.004l0.2,-0.005l0.199,-0.006l0.197,-0.007l0.196,-0.007l0.195,-0.008l0.194,-0.009l0.192,-0.01l0.191,-0.01l0.19,-0.011l0.189,-0.011l0.187,-0.012l0.186,-0.013l0.185,-0.014l0.184,-0.014l0.183,-0.015l0.181,-0.016l0.18,-0.016l0.179,-0.017l0.178,-0.018l0.176,-0.018l0.176,-0.019l0.174,-0.02l0.173,-0.02l0.172,-0.021l0.17,-0.021l0.17,-0.023l0.168,-0.023l0.167,-0.023l0.166,-0.024l0.165,-0.025l0.163,-0.026l0.163,-0.026l0.161,-0.026l0.16,-0.028l0.159,-0.028l0.158,-0.028l0.157,-0.029l0.155,-0.03l0.155,-0.031l0.153,-0.031l0.153,-0.031l0.151,-0.032l0.15,-0.033l0.149,-0.034l0.148,-0.034l0.147,-0.034l0.145,-0.036l0.145,-0.035l0.144,-0.037l0.142,-0.037l0.142,-0.037l0.14,-0.038l0.139,-0.039l0.139,-0.039l0.137,-0.04l0.136,-0.041l0.135,-0.041l0.134,-0.041l0.133,-0.042l0.132,-0.043l0.131,-0.043l0.13,-0.044l0.129,-0.044l0.128,-0.045l0.127,-0.046l0.126,-0.046l0.125,-0.046l0.125,-0.047l0.123,-0.048l0.122,-0.048l0.121,-0.048l0.12,-0.049l0.119,-0.05l0.118,-0.05l0.118,-0.051l0.116,-0.051l0.115,-0.052l0.115,-0.052l0.113,-0.053l0.113,-0.054l0.112,-0.053l0.11,-0.055l0.11,-0.054l0.109,-0.056l0.108,-0.056l0.107,-0.056l0.107,-0.057l0.105,-0.057l0.104,-0.058l0.104,-0.058l0.103,-0.059l0.102,-0.06l0.101,-0.059l0.1,-0.061l0.099,-0.06l0.099,-0.062l0.097,-0.061l0.097,-0.063l0.096,-0.062l0.095,-0.064l0.095,-0.063l0.093,-0.064l0.093,-0.065l0.092,-0.065l0.091,-0.066l0.09,-0.066l0.09,-0.066l0.089,-0.067l0.088,-0.068l0.087,-0.068l0.087,-0.068l0.085,-0.069l0.085,-0.07l0.084,-0.07l0.084,-0.07l0.082,-0.071l0.082,-0.071l0.082,-0.072l0.08,-0.072l0.08,-0.072l0.079,-0.073l0.078,-0.074l0.078,-0.074l0.077,-0.075l0.076,-0.074l0.075,-0.076l0.075,-0.076l0.074,-0.076l0.074,-0.077l0.072,-0.077l0.073,-0.078l0.071,-0.078l0.071,-0.079l0.07,-0.079l0.069,-0.079l0.069,-0.08l0.068,-0.081l0.067,-0.081l0.067,-0.081l0.066,-0.082l0.065,-0.082l0.065,-0.083l0.064,-0.083l0.064,-0.083l0.063,-0.084l0.062,-0.085l0.062,-0.085l0.061,-0.085l0.06,-0.086l0.06,-0.086l0.059,-0.087l0.059,-0.087l0.058,-0.088l0.057,-0.088l0.057,-0.088l0.056,-0.089l0.056,-0.09l0.055,-0.089l0.054,-0.091l0.054,-0.09l0.053,-0.09l0.105,-0.185l0.103,-0.185l0.1,-0.187l0.098,-0.188l0.096,-0.191l0.093,-0.191l0.092,-0.194l0.089,-0.195l0.087,-0.197l0.085,-0.198l0.083,-0.2l0.081,-0.202l0.079,-0.202l0.076,-0.205l0.075,-0.206l0.073,-0.208l0.071,-0.209l0.069,-0.21l0.047,-0.149l0.02,-0.063l0.066,-0.213l0.064,-0.214l0.063,-0.216l0.061,-0.217l0.059,-0.219l0.057,-0.219l0.055,-0.222l0.054,-0.222l0.052,-0.224l0.05,-0.225l0.049,-0.226l0.047,-0.227l0.045,-0.229l0.044,-0.229l0.043,-0.231l0.041,-0.232l0.039,-0.233l0.038,-0.234l0.036,-0.235l0.036,-0.236l0.033,-0.237l0.033,-0.238l0.031,-0.239l0.03,-0.24l0.028,-0.241l0.027,-0.241l0.026,-0.243l0.025,-0.243l0.024,-0.244l0.023,-0.245l0.021,-0.246l0.021,-0.246l0.019,-0.248l0.019,-0.248l0.017,-0.248l0.016,-0.249l0.016,-0.25l0.015,-0.251l0.013,-0.251l0.013,-0.251l0.013,-0.253l0.011,-0.252l0.021,-0.507l0.017,-0.509l0.016,-0.51l0.001,-0.055l0.013,-0.457l0.038,0.456l0.004,0.054l0.038,0.51l0.035,0.508l0.033,0.508l0.015,0.253l0.014,0.253l0.014,0.253l0.012,0.252l0.012,0.252l0.011,0.251l0.009,0.251l0.009,0.251l0.008,0.25l0.006,0.25l0.006,0.249l0.004,0.249l0.003,0.249l0.002,0.248l0.001,0.248l-0.001,0.247l-0.002,0.247l-0.003,0.246l-0.005,0.245l-0.006,0.245l-0.007,0.245l-0.009,0.244l-0.011,0.244l-0.012,0.242l-0.013,0.243l-0.015,0.242l-0.017,0.241l-0.019,0.24l-0.02,0.24l-0.022,0.24l-0.024,0.238l-0.026,0.238l-0.027,0.238l-0.03,0.236l-0.031,0.236l-0.033,0.236l-0.036,0.234l-0.037,0.234l-0.04,0.233l-0.041,0.233l-0.044,0.232l-0.046,0.231l-0.014,0.068l-0.035,0.162l-0.052,0.229l-0.053,0.228l-0.057,0.227l-0.058,0.227l-0.061,0.226l-0.064,0.224l-0.066,0.224l-0.068,0.223l-0.071,0.223l-0.074,0.221l-0.076,0.22l-0.079,0.219l-0.082,0.218l-0.085,0.218l-0.087,0.216l-0.09,0.215l-0.094,0.214l-0.095,0.212l-0.05,0.107l-0.05,0.106l-0.05,0.106l-0.052,0.105l-0.052,0.105l-0.053,0.105l-0.054,0.104l-0.054,0.104l-0.056,0.104l-0.056,0.103l-0.056,0.103l-0.058,0.103l-0.059,0.103l-0.059,0.102l-0.06,0.102l-0.061,0.102l-0.061,0.101l-0.063,0.101l-0.063,0.1l-0.065,0.101l-0.065,0.1l-0.065,0.099l-0.067,0.099l-0.068,0.099l-0.068,0.099l-0.069,0.098l-0.07,0.098l-0.071,0.097l-0.072,0.097l-0.073,0.097l-0.073,0.096l-0.075,0.096l-0.075,0.096l-0.077,0.095l-0.077,0.095l-0.078,0.094l-0.079,0.095l-0.079,0.093l-0.081,0.093l-0.082,0.093l-0.082,0.093l-0.084,0.092l-0.084,0.091l-0.085,0.092l-0.087,0.09l-0.087,0.091l-0.088,0.09l-0.089,0.089l-0.09,0.089l-0.091,0.089l-0.092,0.088l-0.092,0.088l-0.094,0.087l-0.095,0.087l-0.095,0.086l-0.097,0.086l-0.097,0.085l-0.099,0.085l-0.099,0.085l-0.101,0.084l-0.101,0.083l-0.103,0.083l-0.103,0.083l-0.104,0.082l-0.106,0.082l-0.106,0.081l-0.107,0.081l-0.109,0.08l-0.109,0.079l-0.11,0.08l-0.111,0.078l-0.113,0.078l-0.113,0.078l-0.114,0.077l-0.115,0.077l-0.117,0.076l-0.117,0.075l-0.118,0.076l-0.12,0.074l-0.12,0.074l-0.121,0.074l-0.123,0.073l-0.123,0.072l-0.124,0.072l-0.126,0.071l-0.126,0.071l-0.128,0.07l-0.129,0.07l-0.129,0.069l-0.131,0.069l-0.132,0.068l-0.132,0.068l-0.134,0.067l-0.135,0.066l-0.136,0.066l-0.137,0.065l-0.138,0.065l-0.139,0.064l-0.14,0.064l-0.141,0.063l-0.143,0.063l-0.143,0.061l-0.145,0.062l-0.145,0.061l-0.147,0.06l-0.148,0.06l-0.149,0.059l-0.15,0.058l-0.151,0.058l-0.152,0.057l-0.153,0.057l-0.154,0.056l-0.156,0.056l-0.156,0.055l-0.158,0.054l-0.159,0.054l-0.16,0.054l-0.161,0.052l-0.162,0.052l-0.163,0.052l-0.165,0.051l-0.165,0.05l-0.167,0.05l-0.168,0.049l-0.169,0.048l-0.17,0.048l-0.172,0.047l-0.172,0.047l-0.174,0.046l-0.175,0.046l-0.176,0.044l-0.177,0.045l-0.178,0.043l-0.18,0.043l-0.181,0.043l-0.182,0.041l-0.183,0.042l-0.184,0.04l-0.186,0.04l-0.186,0.039l-0.188,0.039l-0.189,0.038l-0.191,0.037l-0.191,0.037l-0.193,0.036l-0.194,0.036l-0.195,0.035l-0.197,0.034l-0.198,0.034l-0.199,0.033l-0.2,0.032l-0.201,0.032l-0.203,0.031l-0.204,0.03l-0.205,0.03l-0.207,0.029l-0.207,0.029l-0.21,0.028l-0.21,0.027l-0.211,0.027l-0.213,0.026l-0.214,0.025l-0.216,0.024l-0.217,0.024l-0.218,0.024l-0.219,0.022l-0.221,0.022l-0.222,0.022l-0.223,0.02l-0.225,0.02l-0.225,0.02l-0.228,0.018l-0.228,0.018l-0.137,0.011l-0.095,0.006l-0.462,0.03l-0.469,0.027l-0.475,0.025l-0.48,0.021l-0.486,0.019l-0.491,0.017l-0.496,0.013l-0.502,0.011l-0.508,0.007l-0.513,0.005l-0.519,0.002l-0.524,0l-0.531,-0.004l-0.536,-0.006l-0.542,-0.01l-0.547,-0.012l-0.554,-0.015l-0.559,-0.019l-0.565,-0.021l-0.571,-0.024l-0.577,-0.027l-0.584,-0.03l-0.589,-0.033l-0.595,-0.036l-0.601,-0.039l-0.608,-0.042l-0.614,-0.045l-0.62,-0.049l-0.626,-0.051l-0.632,-0.054l-0.639,-0.058l-0.645,-0.06l-0.651,-0.064l-0.148,-0.015l-0.509,-0.055l-0.664,-0.074l-0.67,-0.078l-0.677,-0.08l-0.683,-0.084l-0.689,-0.087l-0.696,-0.091l-0.703,-0.093l-0.709,-0.097l-0.716,-0.101l-0.723,-0.103l-0.729,-0.107l-0.736,-0.111l-0.743,-0.113l-0.75,-0.118l-0.756,-0.12l-0.764,-0.124l-0.77,-0.127l-0.777,-0.131l-0.785,-0.135l-0.791,-0.137l-0.798,-0.142l-0.806,-0.145l-0.812,-0.148l-0.82,-0.152l-0.373,-0.07l-0.453,-0.089l-0.832,-0.167l-0.84,-0.17l-0.847,-0.174l-0.854,-0.177l-0.861,-0.182l-0.869,-0.184l-0.876,-0.189l-0.883,-0.192l-0.891,-0.197l-0.898,-0.199l-0.906,-0.204l-0.913,-0.208l-0.921,-0.211l-0.928,-0.215l-0.936,-0.219l-0.944,-0.223l-0.951,-0.227l-0.959,-0.23l-0.923,-0.224l-0.044,-0.011l-0.971,-0.248l-0.98,-0.253l-0.987,-0.256l-0.995,-0.26l-1.003,-0.265l-1.011,-0.268l-1.019,-0.273l-0.918,-0.247l-0.108,-0.031l-1.032,-0.291l-1.039,-0.295l-1.048,-0.299l-1.056,-0.304l-1.063,-0.307l-1.072,-0.312l-0.768,-0.225l-0.311,-0.095l-1.084,-0.332l-1.093,-0.337l-1.101,-0.341l-1.108,-0.345l-1.118,-0.35l-1.06,-0.334l-0.065,-0.021l-1.102,-0.359l-0.555,-0.172l-0.574,-0.177l-0.573,-0.176l-0.571,-0.173l-0.569,-0.171l-0.568,-0.17l-0.565,-0.168l-0.564,-0.165l-0.562,-0.164l-0.56,-0.162l-0.121,-0.035l-0.437,-0.13l-0.555,-0.163l-0.553,-0.162l-0.552,-0.16l-0.55,-0.157l-0.548,-0.156l-0.546,-0.155l-0.545,-0.152l-0.543,-0.15l-0.541,-0.149l-0.539,-0.146l-0.537,-0.145l-0.536,-0.143l-0.534,-0.141l-0.533,-0.139l-0.53,-0.137l-0.529,-0.136l-0.527,-0.133l-0.526,-0.132l-0.523,-0.13l-0.522,-0.128l-0.52,-0.126l-0.519,-0.125l-0.517,-0.122l-0.515,-0.121l-0.513,-0.119l-0.512,-0.117l-0.247,-0.056l-0.262,-0.062l-0.507,-0.118l-0.506,-0.117l-0.504,-0.115l-0.502,-0.113l-0.5,-0.111l-0.499,-0.11l-0.497,-0.107l-0.496,-0.106l-0.494,-0.104l-0.492,-0.102l-0.49,-0.101l-0.489,-0.098l-0.487,-0.097l-0.486,-0.095l-0.484,-0.093l-0.482,-0.091l-0.481,-0.09l-0.479,-0.088l-0.477,-0.086l-0.476,-0.084l-0.474,-0.083l-0.473,-0.08l-0.471,-0.079l-0.469,-0.078l-0.468,-0.075l-0.466,-0.074l-0.464,-0.072l-0.463,-0.07l-0.461,-0.068l-0.46,-0.067l-0.262,-0.037l-0.195,-0.029l-0.456,-0.067l-0.455,-0.065l-0.453,-0.063l-0.451,-0.062l-0.45,-0.059l-0.448,-0.058l-0.447,-0.057l-0.445,-0.054l-0.443,-0.053l-0.442,-0.051l-0.441,-0.049l-0.439,-0.048l-0.437,-0.046l-0.436,-0.044l-0.434,-0.043l-0.433,-0.041l-0.431,-0.039l-0.429,-0.037l-0.428,-0.036l-0.427,-0.034l-0.425,-0.032l-0.424,-0.031l-0.422,-0.029l-0.42,-0.027l-0.419,-0.025l-0.418,-0.024l-0.416,-0.022l-0.414,-0.021l-0.413,-0.019l-0.412,-0.017l-0.41,-0.016l-0.408,-0.013l-0.407,-0.013l-0.406,-0.01l-0.21,-0.005l-0.194,-0.006l-0.403,-0.01l-0.401,-0.009l-0.4,-0.007l-0.398,-0.006l-0.397,-0.004l-0.395,-0.002l-0.394,-0.001l-0.393,0.001l-0.391,0.003l-0.39,0.004l-0.388,0.006l-0.387,0.007l-0.385,0.009l-0.385,0.011l-0.382,0.013l-0.381,0.014l-0.38,0.015l-0.379,0.018l-0.377,0.018l-0.375,0.021l-0.375,0.022l-0.373,0.024l-0.371,0.025l-0.37,0.027l-0.369,0.028l-0.367,0.031l-0.366,0.031l-0.365,0.033l-0.363,0.035l-0.362,0.037l-0.36,0.038l-0.36,0.039l-0.357,0.042l-0.357,0.042l-0.355,0.045l-0.354,0.045l-0.352,0.048l-0.351,0.049l-0.35,0.051l-0.349,0.052l-0.347,0.053l-0.346,0.056l-0.344,0.056l-0.343,0.059l-0.342,0.06l-0.341,0.061l-0.339,0.063l-0.338,0.065l-0.336,0.066l-0.336,0.067l-0.334,0.07l-0.332,0.07l-0.332,0.072l-0.33,0.074l-0.329,0.075l-0.328,0.077l-0.326,0.079l-0.325,0.079l-0.324,0.082l-0.322,0.083l-0.321,0.084l-0.32,0.086l-0.319,0.087l-0.318,0.089l-0.316,0.091l-0.315,0.091l-0.314,0.094l-0.312,0.095l-0.311,0.096l-0.31,0.098l-0.309,0.1l-0.308,0.1l-0.306,0.103l-0.305,0.104l-0.304,0.105l-0.303,0.107l-0.301,0.108l-0.301,0.11l-0.116,0.043l-0.183,0.067l-0.299,0.111l-0.297,0.113l-0.297,0.113l-0.295,0.116l-0.294,0.117l-0.293,0.118l-0.291,0.12l-0.291,0.121l-0.289,0.123l-0.288,0.124l-0.287,0.126l-0.286,0.127l-0.285,0.129l-0.283,0.13l-0.283,0.131l-0.281,0.133l-0.28,0.135l-0.279,0.136l-0.278,0.137l-0.276,0.139l-0.276,0.141l-0.274,0.141l-0.274,0.144l-0.272,0.145l-0.271,0.146l-0.27,0.147l-0.269,0.15l-0.267,0.15l-0.267,0.152l-0.265,0.154l-0.265,0.154l-0.263,0.157l-0.262,0.158l-0.261,0.159l-0.26,0.161l-0.259,0.162l-0.257,0.163l-0.257,0.165l-0.255,0.167l-0.255,0.167l-0.253,0.17l-0.252,0.17l-0.252,0.172l-0.25,0.174l-0.249,0.175l-0.248,0.176l-0.246,0.178l-0.246,0.179l-0.245,0.181l-0.243,0.182l-0.243,0.183l-0.241,0.185l-0.241,0.187l-0.239,0.187l-0.238,0.189l-0.237,0.191l-0.236,0.192l-0.235,0.193l-0.234,0.195l-0.233,0.196l-0.232,0.197l-0.231,0.199l-0.229,0.2l-0.229,0.202l-0.228,0.203l-0.226,0.204l-0.226,0.206l-0.224,0.207l-0.223,0.208l-0.223,0.21l-0.221,0.211l-0.11,0.106l-0.111,0.107l-0.219,0.213l0.195,-0.236l0.098,-0.118l0.098,-0.117l0.198,-0.234l0.199,-0.233l0.201,-0.232l0.202,-0.23l0.203,-0.23l0.204,-0.228l0.206,-0.227l0.207,-0.226l0.208,-0.225l0.21,-0.224l0.211,-0.223l0.213,-0.221l0.214,-0.221l0.215,-0.219l0.216,-0.218l0.218,-0.217l0.219,-0.216l0.221,-0.214l0.222,-0.214l0.223,-0.212l0.225,-0.211l0.226,-0.21l0.227,-0.209l0.229,-0.207l0.231,-0.207l0.231,-0.205l0.233,-0.204l0.235,-0.203l0.236,-0.202l0.237,-0.2l0.238,-0.199l0.24,-0.198l0.242,-0.197l0.243,-0.196l0.244,-0.194l0.246,-0.193l0.247,-0.192l0.249,-0.191l0.25,-0.189l0.251,-0.189l0.253,-0.187l0.255,-0.185l0.255,-0.185l0.258,-0.183l0.258,-0.182l0.26,-0.181l0.262,-0.18l0.263,-0.178l0.265,-0.177l0.266,-0.175l0.267,-0.175l0.269,-0.173l0.271,-0.172l0.271,-0.17l0.274,-0.17l0.275,-0.168l0.276,-0.166l0.278,-0.166l0.279,-0.164l0.281,-0.162l0.282,-0.162l0.284,-0.16l0.285,-0.159l0.287,-0.157l0.289,-0.157l0.289,-0.154l0.292,-0.154l0.292,-0.152l0.295,-0.151l0.296,-0.149l0.297,-0.148l0.183,-0.09l0.116,-0.056l0.301,-0.144l0.303,-0.142l0.304,-0.141l0.306,-0.139l0.307,-0.138l0.309,-0.137l0.31,-0.135l0.312,-0.134l0.313,-0.132l0.315,-0.131l0.317,-0.13l0.317,-0.128l0.32,-0.126l0.321,-0.126l0.322,-0.124l0.324,-0.122l0.326,-0.121l0.327,-0.12l0.328,-0.118l0.33,-0.117l0.332,-0.115l0.333,-0.114l0.335,-0.113l0.336,-0.111l0.338,-0.109l0.339,-0.109l0.341,-0.106l0.343,-0.105l0.344,-0.104l0.345,-0.102l0.348,-0.101l0.348,-0.1l0.35,-0.098l0.352,-0.096l0.354,-0.095l0.355,-0.093l0.356,-0.092l0.358,-0.091l0.36,-0.089l0.361,-0.087l0.363,-0.086l0.364,-0.084l0.366,-0.083l0.368,-0.082l0.369,-0.08l0.371,-0.078l0.372,-0.077l0.374,-0.076l0.375,-0.073l0.378,-0.073l0.378,-0.071l0.381,-0.069l0.381,-0.068l0.384,-0.066l0.385,-0.065l0.387,-0.063l0.388,-0.061l0.39,-0.061l0.391,-0.058l0.393,-0.057l0.395,-0.055l0.396,-0.054l0.398,-0.053l0.4,-0.05l0.401,-0.05l0.403,-0.047l0.404,-0.046l0.406,-0.045l0.408,-0.043l0.409,-0.041l0.411,-0.04l0.412,-0.038l0.415,-0.036l0.415,-0.035l0.418,-0.034l0.419,-0.032l0.421,-0.03l0.422,-0.029l0.204,-0.013l0.22,-0.012l0.426,-0.022l0.427,-0.021l0.429,-0.018l0.431,-0.018l0.432,-0.015l0.434,-0.014l0.435,-0.013l0.437,-0.011l0.439,-0.009l0.44,-0.007l0.442,-0.006l0.444,-0.004l0.445,-0.003l0.447,-0.001l0.449,0.001Z" style="fill:#ed43ff;"/><path d="M170.109,54.284l0.226,0.002l0.226,0.005l0.226,0.007l0.226,0.01l0.226,0.011l0.227,0.014l0.226,0.016l0.227,0.019l0.227,0.021l0.227,0.023l0.226,0.025l0.227,0.028l0.227,0.03l0.227,0.032l0.227,0.035l0.227,0.037l0.227,0.04l0.227,0.042l0.227,0.044l0.227,0.047l0.226,0.049l0.227,0.051l0.227,0.054l0.226,0.057l0.226,0.059l0.227,0.061l0.226,0.064l0.225,0.066l0.226,0.068l0.226,0.071l0.225,0.074l0.225,0.075l0.225,0.079l0.224,0.081l0.225,0.083l0.224,0.085l0.224,0.089l0.223,0.09l0.223,0.093l0.223,0.096l0.223,0.098l0.222,0.1l0.222,0.103l0.222,0.105l0.221,0.108l0.221,0.11l0.221,0.113l0.22,0.115l0.22,0.118l0.22,0.12l0.219,0.122l0.219,0.125l0.028,0.016l0.189,0.113l0.217,0.131l0.217,0.134l0.216,0.136l0.215,0.139l0.216,0.141l0.214,0.144l0.215,0.145l0.214,0.149l0.213,0.151l0.213,0.153l0.213,0.156l0.212,0.158l0.212,0.16l0.211,0.163l0.211,0.166l0.21,0.168l0.21,0.17l0.209,0.172l0.209,0.176l0.209,0.177l0.208,0.18l0.207,0.183l0.208,0.184l0.206,0.188l0.207,0.189l0.206,0.193l0.205,0.194l0.205,0.197l0.205,0.2l0.204,0.202l0.204,0.204l0.203,0.207l0.203,0.21l0.038,0.04l0.163,0.173l0.201,0.215l0.2,0.218l0.2,0.221l0.199,0.223l0.199,0.225l0.199,0.228l0.187,0.218l0.07,0.081l0.06,0.067l0.061,0.069l0.063,0.068l0.065,0.068l0.065,0.069l0.067,0.069l0.069,0.069l0.07,0.069l0.072,0.069l0.073,0.069l0.074,0.07l0.076,0.069l0.077,0.07l0.079,0.07l0.08,0.07l0.082,0.07l0.083,0.07l0.085,0.07l0.086,0.07l0.087,0.07l0.089,0.07l0.091,0.07l0.092,0.07l0.093,0.07l0.095,0.07l0.096,0.07l0.098,0.07l0.099,0.07l0.101,0.07l0.102,0.07l0.104,0.07l0.105,0.07l0.106,0.069l0.108,0.07l0.109,0.069l0.111,0.07l0.112,0.069l0.114,0.069l0.062,0.037l0.052,0.032l0.116,0.07l0.117,0.07l0.118,0.07l0.12,0.07l0.121,0.07l0.123,0.069l0.124,0.069l0.125,0.069l0.127,0.069l0.128,0.069l0.13,0.068l0.131,0.069l0.132,0.068l0.133,0.068l0.135,0.067l0.136,0.068l0.138,0.067l0.139,0.067l0.14,0.067l0.142,0.066l0.142,0.066l0.144,0.066l0.146,0.066l0.146,0.066l0.148,0.065l0.15,0.065l0.15,0.064l0.152,0.065l0.153,0.064l0.154,0.064l0.155,0.063l0.157,0.063l0.158,0.063l0.159,0.063l0.16,0.062l0.162,0.062l0.163,0.062l0.164,0.062l0.165,0.061l0.166,0.06l0.168,0.061l0.168,0.06l0.17,0.06l0.167,0.058l0.186,0.063l0.163,0.058l0.348,0.12l0.354,0.118l0.357,0.117l0.363,0.116l0.366,0.115l0.371,0.113l0.375,0.112l0.379,0.11l0.384,0.109l0.388,0.107l0.391,0.106l0.396,0.104l0.4,0.103l0.403,0.101l0.408,0.1l0.411,0.098l0.415,0.096l0.419,0.095l0.423,0.094l0.426,0.092l0.159,0.033l0.27,0.06l0.432,0.093l0.436,0.091l0.44,0.09l0.443,0.088l0.446,0.086l0.45,0.085l0.453,0.083l0.456,0.082l0.46,0.08l0.462,0.079l0.466,0.076l0.469,0.075l0.472,0.074l0.475,0.071l0.478,0.07l0.481,0.069l0.483,0.066l0.487,0.065l0.489,0.064l0.492,0.061l0.495,0.06l0.497,0.058l0.5,0.057l0.502,0.054l0.505,0.053l0.508,0.052l0.51,0.049l0.512,0.048l0.515,0.046l0.517,0.044l0.519,0.043l0.521,0.04l0.524,0.039l0.526,0.038l0.528,0.035l0.529,0.034l0.532,0.032l0.404,0.022l0.13,0.009l0.536,0.033l0.538,0.031l0.539,0.029l0.542,0.028l0.543,0.025l0.545,0.024l0.547,0.023l0.548,0.02l0.55,0.018l0.552,0.017l0.553,0.015l0.555,0.013l0.556,0.012l0.557,0.009l0.559,0.008l0.561,0.006l0.562,0.004l0.563,0.002l0.564,0l0.565,-0.001l0.567,-0.003l0.568,-0.005l0.568,-0.007l0.57,-0.009l0.571,-0.011l0.572,-0.013l0.573,-0.014l0.573,-0.016l0.575,-0.018l0.575,-0.02l0.576,-0.022l0.577,-0.024l0.577,-0.026l0.578,-0.027l0.579,-0.03l0.271,-0.014l0.308,-0.015l0.58,-0.03l0.581,-0.032l0.581,-0.034l0.582,-0.035l0.581,-0.038l0.583,-0.039l0.582,-0.041l0.583,-0.043l0.583,-0.046l0.584,-0.047l0.583,-0.048l0.584,-0.051l0.583,-0.053l0.584,-0.055l0.584,-0.056l0.583,-0.059l0.584,-0.061l0.584,-0.062l0.583,-0.064l0.583,-0.067l0.583,-0.068l0.583,-0.07l0.582,-0.073l0.582,-0.074l0.582,-0.076l0.581,-0.078l0.581,-0.08l0.58,-0.082l0.58,-0.084l0.579,-0.086l0.579,-0.088l0.578,-0.09l0.577,-0.092l0.037,-0.006l0.54,-0.085l0.577,-0.093l0.575,-0.094l0.575,-0.097l0.574,-0.099l0.573,-0.101l0.573,-0.103l0.571,-0.104l0.57,-0.107l0.569,-0.109l0.568,-0.111l0.567,-0.113l0.566,-0.115l0.565,-0.117l0.563,-0.119l0.562,-0.121l0.561,-0.123l0.56,-0.125l0.558,-0.128l0.556,-0.129l0.556,-0.131l0.553,-0.134l0.553,-0.135l0.55,-0.138l0.549,-0.139l0.548,-0.142l0.545,-0.144l0.544,-0.146l0.543,-0.148l0.54,-0.15l0.539,-0.152l0.536,-0.154l0.535,-0.156l0.533,-0.159l0.531,-0.16l0.529,-0.163l0.527,-0.165l0.525,-0.167l0.522,-0.169l0.521,-0.171l0.518,-0.173l0.516,-0.176l0.514,-0.177l0.512,-0.18l0.509,-0.182l0.506,-0.184l0.505,-0.186l0.502,-0.188l0.499,-0.191l0.497,-0.192l0.495,-0.196l0.245,-0.097l0.246,-0.099l0.245,-0.1l0.244,-0.099l0.243,-0.101l0.243,-0.101l0.242,-0.101l0.242,-0.102l0.241,-0.103l0.24,-0.103l0.239,-0.104l0.239,-0.104l0.238,-0.105l0.223,-0.099l0.014,-0.006l0.237,-0.105l0.237,-0.105l0.236,-0.106l0.234,-0.107l0.235,-0.107l0.233,-0.108l0.233,-0.108l0.232,-0.109l0.231,-0.109l0.231,-0.11l0.23,-0.11l0.229,-0.111l0.228,-0.112l0.227,-0.112l0.227,-0.113l0.226,-0.113l0.225,-0.114l0.225,-0.115l0.223,-0.115l0.223,-0.115l0.222,-0.116l0.221,-0.117l0.22,-0.117l0.22,-0.118l0.219,-0.119l0.218,-0.119l0.217,-0.119l0.216,-0.12l0.216,-0.121l0.214,-0.121l0.214,-0.122l0.213,-0.123l0.212,-0.123l0.211,-0.124l0.211,-0.124l0.209,-0.125l0.209,-0.125l0.207,-0.126l0.207,-0.127l0.206,-0.127l0.205,-0.127l0.205,-0.129l0.203,-0.129l0.202,-0.129l0.202,-0.13l0.2,-0.131l0.2,-0.131l0.199,-0.132l0.198,-0.133l0.197,-0.133l0.195,-0.133l0.171,-0.118l0.025,-0.017l0.194,-0.134l0.194,-0.135l-0.179,0.154l-0.181,0.153l-0.022,0.019l-0.159,0.133l-0.183,0.152l-0.183,0.152l-0.185,0.151l-0.186,0.151l-0.187,0.15l-0.188,0.15l-0.188,0.149l-0.19,0.149l-0.191,0.148l-0.192,0.148l-0.193,0.147l-0.194,0.148l-0.195,0.146l-0.196,0.146l-0.197,0.146l-0.198,0.145l-0.199,0.145l-0.2,0.144l-0.201,0.144l-0.202,0.143l-0.203,0.143l-0.203,0.142l-0.205,0.142l-0.206,0.142l-0.207,0.141l-0.207,0.141l-0.209,0.14l-0.209,0.139l-0.21,0.14l-0.212,0.138l-0.212,0.139l-0.213,0.137l-0.214,0.138l-0.215,0.137l-0.216,0.136l-0.216,0.136l-0.218,0.135l-0.218,0.135l-0.22,0.135l-0.22,0.134l-0.221,0.134l-0.222,0.133l-0.223,0.132l-0.223,0.133l-0.225,0.131l-0.225,0.132l-0.226,0.13l-0.227,0.131l-0.228,0.13l-0.229,0.129l-0.229,0.129l-0.014,0.007l-0.217,0.12l-0.231,0.127l-0.233,0.127l-0.233,0.126l-0.234,0.125l-0.235,0.125l-0.235,0.125l-0.236,0.124l-0.237,0.123l-0.238,0.123l-0.239,0.123l-0.239,0.122l-0.24,0.122l-0.241,0.121l-0.483,0.241l-0.487,0.239l-0.489,0.237l-0.493,0.235l-0.495,0.233l-0.498,0.232l-0.5,0.229l-0.503,0.227l-0.506,0.226l-0.508,0.223l-0.511,0.222l-0.514,0.22l-0.516,0.218l-0.518,0.215l-0.521,0.214l-0.523,0.212l-0.525,0.21l-0.528,0.209l-0.53,0.206l-0.532,0.204l-0.534,0.202l-0.537,0.201l-0.538,0.198l-0.541,0.197l-0.542,0.194l-0.545,0.193l-0.546,0.19l-0.549,0.189l-0.55,0.187l-0.552,0.185l-0.554,0.182l-0.555,0.181l-0.557,0.179l-0.559,0.177l-0.561,0.175l-0.562,0.174l-0.564,0.171l-0.565,0.169l-0.566,0.167l-0.568,0.166l-0.57,0.163l-0.571,0.162l-0.572,0.159l-0.573,0.158l-0.575,0.155l-0.576,0.154l-0.577,0.152l-0.578,0.149l-0.579,0.148l-0.58,0.146l-0.544,0.135l-0.038,0.009l-0.583,0.138l-0.583,0.137l-0.585,0.135l-0.586,0.133l-0.586,0.131l-0.587,0.129l-0.588,0.127l-0.589,0.125l-0.589,0.123l-0.59,0.121l-0.59,0.119l-0.591,0.118l-0.592,0.115l-0.591,0.113l-0.593,0.111l-0.593,0.11l-0.593,0.107l-0.593,0.106l-0.594,0.103l-0.594,0.102l-0.594,0.099l-0.595,0.098l-0.594,0.095l-0.595,0.094l-0.594,0.092l-0.595,0.09l-0.595,0.087l-0.594,0.086l-0.595,0.084l-0.594,0.082l-0.595,0.08l-0.594,0.078l-0.594,0.076l-0.316,0.039l-0.277,0.033l-0.594,0.069l-0.593,0.067l-0.593,0.065l-0.592,0.063l-0.592,0.061l-0.591,0.058l-0.591,0.057l-0.59,0.055l-0.59,0.054l-0.589,0.051l-0.588,0.049l-0.588,0.047l-0.587,0.045l-0.586,0.043l-0.585,0.042l-0.584,0.039l-0.584,0.037l-0.582,0.036l-0.581,0.033l-0.581,0.031l-0.579,0.03l-0.579,0.027l-0.577,0.026l-0.576,0.023l-0.575,0.022l-0.573,0.02l-0.573,0.017l-0.571,0.016l-0.57,0.014l-0.568,0.011l-0.567,0.01l-0.565,0.008l-0.564,0.006l-0.563,0.004l-0.561,0.001l-0.137,0l-0.422,-0.003l-0.558,-0.007l-0.556,-0.008l-0.554,-0.011l-0.553,-0.013l-0.55,-0.014l-0.549,-0.017l-0.547,-0.018l-0.546,-0.02l-0.543,-0.023l-0.541,-0.024l-0.539,-0.027l-0.538,-0.028l-0.535,-0.03l-0.533,-0.033l-0.531,-0.034l-0.529,-0.036l-0.527,-0.038l-0.524,-0.041l-0.523,-0.042l-0.52,-0.044l-0.517,-0.046l-0.516,-0.048l-0.513,-0.051l-0.51,-0.052l-0.508,-0.054l-0.506,-0.056l-0.503,-0.059l-0.5,-0.06l-0.498,-0.062l-0.496,-0.064l-0.492,-0.067l-0.491,-0.068l-0.487,-0.071l-0.485,-0.072l-0.482,-0.075l-0.479,-0.076l-0.476,-0.079l-0.298,-0.051l-0.175,-0.031l-0.47,-0.087l-0.467,-0.089l-0.464,-0.091l-0.461,-0.093l-0.457,-0.095l-0.455,-0.098l-0.452,-0.099l-0.449,-0.101l-0.445,-0.104l-0.443,-0.105l-0.439,-0.108l-0.436,-0.11l-0.432,-0.112l-0.43,-0.114l-0.426,-0.117l-0.423,-0.118l-0.419,-0.121l-0.416,-0.123l-0.413,-0.125l-0.409,-0.128l-0.189,-0.06l-0.213,-0.07l-0.205,-0.069l-0.2,-0.067l-0.199,-0.069l-0.199,-0.069l-0.197,-0.07l-0.197,-0.07l-0.196,-0.071l-0.194,-0.071l-0.194,-0.072l-0.193,-0.073l-0.193,-0.073l-0.191,-0.073l-0.19,-0.075l-0.19,-0.075l-0.188,-0.075l-0.188,-0.076l-0.186,-0.077l-0.186,-0.077l-0.185,-0.078l-0.184,-0.079l-0.183,-0.079l-0.182,-0.08l-0.181,-0.08l-0.18,-0.081l-0.179,-0.082l-0.178,-0.082l-0.177,-0.083l-0.177,-0.084l-0.175,-0.084l-0.174,-0.085l-0.174,-0.086l-0.172,-0.086l-0.172,-0.087l-0.17,-0.088l-0.17,-0.088l-0.168,-0.089l-0.168,-0.09l-0.166,-0.09l-0.166,-0.091l-0.164,-0.092l-0.164,-0.093l-0.162,-0.093l-0.162,-0.094l-0.16,-0.095l-0.073,-0.044l-0.086,-0.052l-0.158,-0.098l-0.157,-0.098l-0.155,-0.1l-0.155,-0.099l-0.153,-0.101l-0.153,-0.102l-0.151,-0.102l-0.15,-0.103l-0.149,-0.104l-0.148,-0.104l-0.147,-0.106l-0.146,-0.106l-0.145,-0.107l-0.144,-0.108l-0.142,-0.109l-0.142,-0.11l-0.14,-0.111l-0.139,-0.111l-0.138,-0.113l-0.137,-0.113l-0.136,-0.114l-0.134,-0.115l-0.134,-0.116l-0.132,-0.117l-0.131,-0.118l-0.129,-0.119l-0.129,-0.12l-0.127,-0.121l-0.126,-0.121l-0.124,-0.123l-0.124,-0.124l-0.122,-0.125l-0.12,-0.126l-0.12,-0.127l-0.118,-0.127l-0.117,-0.129l-0.115,-0.13l-0.114,-0.131l-0.101,-0.12l-0.174,-0.205l-0.162,-0.189l-0.162,-0.187l-0.162,-0.184l-0.162,-0.181l-0.162,-0.179l-0.161,-0.177l-0.131,-0.14l-0.03,-0.033l-0.16,-0.173l-0.159,-0.17l-0.16,-0.167l-0.159,-0.165l-0.159,-0.162l-0.159,-0.159l-0.159,-0.158l-0.158,-0.154l-0.158,-0.152l-0.158,-0.15l-0.158,-0.147l-0.158,-0.145l-0.157,-0.143l-0.157,-0.14l-0.157,-0.137l-0.157,-0.136l-0.156,-0.132l-0.157,-0.131l-0.156,-0.128l-0.155,-0.126l-0.156,-0.124l-0.155,-0.121l-0.155,-0.119l-0.155,-0.117l-0.155,-0.114l-0.154,-0.112l-0.154,-0.111l-0.154,-0.107l-0.153,-0.106l-0.154,-0.104l-0.153,-0.101l-0.153,-0.1l-0.152,-0.097l-0.133,-0.083l-0.02,-0.012l-0.151,-0.095l-0.151,-0.092l-0.15,-0.091l-0.151,-0.088l-0.151,-0.087l-0.15,-0.084l-0.15,-0.083l-0.15,-0.081l-0.149,-0.078l-0.15,-0.077l-0.149,-0.075l-0.15,-0.073l-0.149,-0.071l-0.149,-0.07l-0.148,-0.067l-0.149,-0.066l-0.149,-0.064l-0.148,-0.062l-0.148,-0.06l-0.149,-0.059l-0.148,-0.057l-0.148,-0.055l-0.148,-0.053l-0.148,-0.052l-0.148,-0.05l-0.148,-0.048l-0.148,-0.047l-0.148,-0.045l-0.148,-0.043l-0.148,-0.042l-0.148,-0.04l-0.148,-0.038l-0.148,-0.037l-0.148,-0.035l-0.149,-0.034l-0.148,-0.032l-0.148,-0.031l-0.149,-0.029l-0.148,-0.028l-0.149,-0.025l-0.149,-0.025l-0.149,-0.023l-0.149,-0.021l-0.15,-0.02l-0.149,-0.018l-0.15,-0.017l-0.15,-0.016l-0.151,-0.014l-0.15,-0.012l-0.151,-0.011l-0.151,-0.009l-0.151,-0.008l-0.151,-0.007l-0.152,-0.005l-0.152,-0.003l-0.153,-0.002l-0.152,-0.001l-0.153,0.001l-0.153,0.002l-0.154,0.004l-0.154,0.005l-0.154,0.007l-0.155,0.008l-0.155,0.01l-0.155,0.011l-0.156,0.012l-0.156,0.014l-0.156,0.016l-0.157,0.017l-0.157,0.018l-0.158,0.02l-0.158,0.021l-0.158,0.023l-0.158,0.024l-0.159,0.026l-0.16,0.027l-0.16,0.028l-0.16,0.03l-0.161,0.032l-0.16,0.033l-0.162,0.034l-0.162,0.036l-0.162,0.037l-0.162,0.039l-0.163,0.04l-0.146,0.037l-0.018,0.004l-0.164,0.042l-0.164,0.042l-0.165,0.045l-0.166,0.045l-0.166,0.047l-0.166,0.049l-0.166,0.05l-0.167,0.051l-0.168,0.053l-0.168,0.054l-0.168,0.056l-0.168,0.057l-0.169,0.059l-0.17,0.06l-0.169,0.061l-0.17,0.063l-0.171,0.064l-0.17,0.066l-0.171,0.067l-0.172,0.069l-0.172,0.07l-0.172,0.071l-0.172,0.072l-0.173,0.075l-0.173,0.075l-0.174,0.077l-0.173,0.078l-0.175,0.079l-0.174,0.081l-0.175,0.083l-0.175,0.083l-0.175,0.085l-0.175,0.087l-0.176,0.087l-0.176,0.089l-0.177,0.091l-0.176,0.091l-0.177,0.093l-0.178,0.094l-0.177,0.096l-0.178,0.097l-0.178,0.098l-0.178,0.099l-0.178,0.101l-0.179,0.102l-0.179,0.103l-0.179,0.105l-0.179,0.106l-0.18,0.107l-0.18,0.108l-0.18,0.109l-0.18,0.111l-0.18,0.112l-0.181,0.113l-0.181,0.114l-0.181,0.116l-0.181,0.117l-0.181,0.118l-0.182,0.119l-0.181,0.12l-0.182,0.121l-0.182,0.123l-0.182,0.123l-0.182,0.125l-0.183,0.126l-0.182,0.127l-0.183,0.129l-0.183,0.129l-0.183,0.13l-0.183,0.132l-0.183,0.132l-0.184,0.134l-0.183,0.135l-0.184,0.136l-0.184,0.136l-0.183,0.138l-0.184,0.139l-0.184,0.14l-0.023,0.018l-0.163,0.122l-0.185,0.141l-0.185,0.141l-0.184,0.142l-0.373,0.289l-0.372,0.293l-0.372,0.296l-0.372,0.3l-0.373,0.303l-0.373,0.308l-0.373,0.31l-0.373,0.315l-0.374,0.318l-0.373,0.321l-0.374,0.324l-0.374,0.328l-0.374,0.331l-0.374,0.334l-0.375,0.337l-0.374,0.34l-0.374,0.343l-0.375,0.346l-0.374,0.348l-0.374,0.352l-0.374,0.354l-0.375,0.356l-0.374,0.359l-0.374,0.362l-0.374,0.364l-0.373,0.366l-0.374,0.369l-0.373,0.37l-0.374,0.373l-0.373,0.375l-0.372,0.377l-0.016,0.015l-0.36,0.361l-0.375,0.378l-0.375,0.38l-0.375,0.381l-0.375,0.384l-0.374,0.384l-0.374,0.387l-0.373,0.387l-0.374,0.39l-0.373,0.39l-0.372,0.392l-0.372,0.393l-0.372,0.394l-0.372,0.395l-0.371,0.397l-0.37,0.397l-0.37,0.398l-0.37,0.399l-0.369,0.399l-0.369,0.401l-0.368,0.4l-0.368,0.401l-0.734,0.805l-0.732,0.806l-0.729,0.806l-0.727,0.807l-0.724,0.807l-0.722,0.806l-0.72,0.805l-1.43,1.604l-1.418,1.593l-1.406,1.577l-0.698,0.782l-0.694,0.777l-0.691,0.77l-0.687,0.765l-0.684,0.757l-0.273,0.301l-0.41,0.447l-0.68,0.738l-0.676,0.729l-0.337,0.362l-0.336,0.359l-0.335,0.357l-0.333,0.355l-0.333,0.352l-0.331,0.349l-0.33,0.347l-0.33,0.344l-0.328,0.341l-0.327,0.339l-0.326,0.335l-0.324,0.333l-0.324,0.329l-0.322,0.327l-0.321,0.323l-0.32,0.321l-0.319,0.316l-0.317,0.314l-0.317,0.31l-0.315,0.307l-0.313,0.303l-0.313,0.299l-0.311,0.296l-0.31,0.292l-0.309,0.289l-0.307,0.284l-0.306,0.281l-0.304,0.276l-0.304,0.272l-0.302,0.269l-0.3,0.264l-0.299,0.26l-0.298,0.255l-0.296,0.251l-0.295,0.247l-0.293,0.242l-0.292,0.238l-0.291,0.233l-0.289,0.228l-0.287,0.223l-0.286,0.218l-0.143,0.108l-0.142,0.106l-0.141,0.105l-0.141,0.104l-0.141,0.102l-0.141,0.101l-0.14,0.1l-0.139,0.099l-0.14,0.097l-0.139,0.096l-0.138,0.095l-0.138,0.093l-0.138,0.092l-0.137,0.091l-0.137,0.089l-0.136,0.088l-0.136,0.086l-0.136,0.086l-0.135,0.083l-0.134,0.083l-0.135,0.081l-0.133,0.079l-0.134,0.079l-0.133,0.076l-0.132,0.076l-0.132,0.074l-0.079,0.043l-0.053,0.029l-0.131,0.071l-0.131,0.069l-0.13,0.068l0.122,-0.08l0.124,-0.082l0.123,-0.084l0.05,-0.034l0.074,-0.05l0.123,-0.087l0.125,-0.087l0.124,-0.089l0.124,-0.09l0.125,-0.092l0.125,-0.093l0.126,-0.095l0.125,-0.096l0.126,-0.097l0.126,-0.099l0.126,-0.1l0.127,-0.101l0.126,-0.103l0.127,-0.104l0.128,-0.105l0.127,-0.107l0.128,-0.108l0.128,-0.109l0.128,-0.111l0.128,-0.111l0.129,-0.114l0.129,-0.114l0.129,-0.116l0.129,-0.116l0.13,-0.119l0.129,-0.119l0.261,-0.243l0.261,-0.247l0.263,-0.252l0.263,-0.257l0.264,-0.262l0.266,-0.266l0.266,-0.271l0.267,-0.275l0.268,-0.28l0.27,-0.284l0.27,-0.288l0.271,-0.293l0.272,-0.297l0.273,-0.301l0.274,-0.305l0.275,-0.31l0.276,-0.313l0.277,-0.317l0.277,-0.321l0.279,-0.325l0.28,-0.328l0.28,-0.332l0.282,-0.336l0.283,-0.339l0.283,-0.342l0.284,-0.347l0.286,-0.349l0.286,-0.353l0.287,-0.356l0.288,-0.359l0.289,-0.362l0.29,-0.365l0.291,-0.368l0.291,-0.371l0.293,-0.374l0.293,-0.377l0.295,-0.38l0.295,-0.382l0.296,-0.384l0.297,-0.388l0.298,-0.389l0.598,-0.787l0.602,-0.796l0.363,-0.482l0.244,-0.321l0.614,-0.809l0.617,-0.817l0.62,-0.824l0.624,-0.83l0.626,-0.837l1.265,-1.69l1.277,-1.709l1.29,-1.723l0.65,-0.866l0.653,-0.869l0.656,-0.87l0.659,-0.871l0.662,-0.872l0.666,-0.872l0.668,-0.872l0.336,-0.436l0.336,-0.435l0.337,-0.436l0.337,-0.434l0.339,-0.435l0.339,-0.434l0.34,-0.433l0.341,-0.433l0.341,-0.432l0.342,-0.431l0.343,-0.431l0.344,-0.429l0.344,-0.429l0.345,-0.428l0.346,-0.427l0.347,-0.425l0.347,-0.425l0.349,-0.423l0.349,-0.422l0.349,-0.421l0.351,-0.419l0.336,-0.401l0.015,-0.017l0.355,-0.413l0.355,-0.412l0.356,-0.411l0.357,-0.408l0.358,-0.407l0.359,-0.405l0.359,-0.403l0.36,-0.402l0.36,-0.399l0.362,-0.397l0.362,-0.395l0.363,-0.392l0.363,-0.391l0.365,-0.388l0.365,-0.386l0.366,-0.383l0.367,-0.381l0.367,-0.378l0.368,-0.376l0.369,-0.373l0.37,-0.37l0.371,-0.368l0.371,-0.364l0.373,-0.362l0.373,-0.358l0.374,-0.356l0.374,-0.353l0.376,-0.349l0.376,-0.346l0.378,-0.343l0.376,-0.338l0.191,-0.17l0.19,-0.167l0.19,-0.167l0.166,-0.145l0.024,-0.021l0.191,-0.163l0.192,-0.163l0.192,-0.162l0.192,-0.161l0.192,-0.16l0.192,-0.159l0.193,-0.158l0.193,-0.157l0.193,-0.157l0.194,-0.155l0.193,-0.154l0.194,-0.154l0.194,-0.152l0.195,-0.151l0.194,-0.151l0.195,-0.149l0.195,-0.148l0.196,-0.148l0.195,-0.146l0.196,-0.145l0.196,-0.144l0.196,-0.144l0.197,-0.142l0.197,-0.141l0.197,-0.139l0.197,-0.139l0.198,-0.138l0.198,-0.136l0.198,-0.136l0.199,-0.134l0.198,-0.133l0.199,-0.132l0.2,-0.131l0.199,-0.13l0.2,-0.129l0.2,-0.127l0.201,-0.126l0.201,-0.125l0.201,-0.124l0.201,-0.122l0.202,-0.121l0.202,-0.121l0.202,-0.118l0.203,-0.118l0.203,-0.116l0.203,-0.115l0.203,-0.114l0.204,-0.112l0.205,-0.111l0.204,-0.11l0.205,-0.108l0.205,-0.107l0.206,-0.106l0.206,-0.104l0.206,-0.103l0.206,-0.101l0.207,-0.1l0.208,-0.099l0.207,-0.097l0.208,-0.096l0.209,-0.094l0.208,-0.093l0.21,-0.092l0.209,-0.09l0.21,-0.088l0.21,-0.087l0.211,-0.085l0.211,-0.084l0.211,-0.082l0.212,-0.081l0.212,-0.079l0.212,-0.078l0.213,-0.075l0.213,-0.075l0.214,-0.072l0.214,-0.071l0.214,-0.07l0.215,-0.067l0.023,-0.007l0.193,-0.058l0.216,-0.062l0.216,-0.061l0.217,-0.059l0.217,-0.057l0.217,-0.056l0.218,-0.053l0.218,-0.052l0.218,-0.05l0.219,-0.049l0.219,-0.046l0.22,-0.044l0.22,-0.043l0.22,-0.041l0.22,-0.039l0.221,-0.037l0.221,-0.035l0.222,-0.033l0.221,-0.031l0.222,-0.029l0.223,-0.027l0.222,-0.025l0.223,-0.023l0.223,-0.02l0.224,-0.019l0.224,-0.017l0.224,-0.015l0.224,-0.012l0.224,-0.011l0.225,-0.008l0.225,-0.006l0.225,-0.004l0.226,-0.002l0.225,0.001Z" style="fill:#ed43ff;"/></g></svg>