<?xml version="1.0" encoding="UTF-8" standalone="no"?><!DOCTYPE svg PUBLIC "-//W3C//DTD SVG 1.1//EN" "http://www.w3.org/Graphics/SVG/1.1/DTD/svg11.dtd"><svg width="100%" height="100%" viewBox="0 0 316 177" version="1.1" xmlns="http://www.w3.org/2000/svg" xmlns:xlink="http://www.w3.org/1999/xlink" xml:space="preserve" xmlns:serif="http://www.serif.com/" style="fill-rule:evenodd;clip-rule:evenodd;stroke-linejoin:round;stroke-miterlimit:1.41421;"><g id="scents"><g id="Layer1"><path d="M34.2,23.59c-3.101,-12.151 1.057,-20.219 14.375,-23.59l80.581,0c10.444,5.026 15.674,12.461 12.608,23.59l-107.541,0" style="fill:#fbc12c;"/><path d="M34.2,23.59c-10.463,4.637 -14.789,12.348 -11.662,23.794l129.95,0c3.292,-11.156 -1.13,-18.766 -10.724,-23.794l-107.564,0Z" style="fill:#fde149;"/><path d="M22.538,47.384c-10.672,4.083 -14.878,11.397 -11.39,22.978l154.104,0c2.434,-12.022 -2.325,-19.785 -12.764,-22.978l-129.95,0Z" style="fill:#fbc12c;"/><path d="M11.148,70.362c-15.505,11.305 -14.209,26.384 0,34.466l154.104,0c12.494,-11.094 11.199,-22.624 0,-34.466l-154.104,0Z" style="fill:#fde149;"/><path d="M11.148,104.828c-3.268,13.01 0.708,20.756 11.135,23.554l131.009,0c9.742,-4.145 13.069,-12.306 11.96,-23.554l-154.104,0Z" style="fill:#fbc12c;"/><path d="M22.283,128.382c-2.713,11.827 0.922,19.813 11.32,23.531l108.042,0c9.349,-3.806 13.422,-11.64 11.647,-23.531l-131.009,0Z" style="fill:#fde149;"/><path d="M33.603,151.913c-1.472,13.603 2.79,21.449 12.557,23.099l83.624,0c10.038,-4.147 13.754,-12.354 11.861,-23.099l-108.042,0Z" style="fill:#fbc12c;"/><path d="M64.453,151.913l46.254,0l0,-27.1c-15.759,-25.683 -31.18,-25.885 -46.254,0l0,27.1Z" style="fill:#a46836;"/></g><path d="M159.598,142.625l0.668,0.002l0.668,0.002l0.666,0.002l0.666,0.004l0.666,0.005l0.664,0.005l0.664,0.006l0.664,0.007l0.662,0.008l0.662,0.009l0.662,0.009l0.056,0.001l0.604,0.017l0.66,0.02l0.66,0.02l0.658,0.022l0.659,0.022l0.657,0.023l0.658,0.025l0.657,0.025l0.656,0.026l0.656,0.027l0.656,0.028l0.655,0.029l0.655,0.03l0.654,0.032l0.654,0.032l0.654,0.033l0.654,0.035l0.653,0.035l0.653,0.037l0.004,0l0.648,0.045l0.652,0.046l0.652,0.047l0.651,0.049l0.651,0.05l0.652,0.05l0.651,0.052l0.651,0.053l0.65,0.055l0.145,0.012l0.506,0.048l0.65,0.063l0.649,0.064l0.65,0.065l0.65,0.067l0.65,0.067l0.65,0.069l0.649,0.07l0.65,0.072l0.095,0.01l0.554,0.07l0.649,0.082l0.649,0.084l0.649,0.085l0.649,0.087l0.65,0.087l0.649,0.089l0.65,0.091l0.649,0.092l0.251,0.036l0.399,0.062l0.649,0.102l0.649,0.104l0.649,0.105l0.65,0.107l0.649,0.108l0.65,0.109l0.651,0.111l0.65,0.112l0.651,0.114l0.296,0.053l0.355,0.067l0.65,0.125l0.651,0.127l0.65,0.128l0.652,0.129l0.651,0.131l0.652,0.133l0.653,0.134l0.652,0.136l0.654,0.138l0.653,0.139l0.655,0.14l0.654,0.142l0.656,0.144l0.655,0.146l0.657,0.147l0.656,0.149l0.658,0.15l0.658,0.152l0.658,0.154l0.66,0.156l0.659,0.157l0.038,0.009l0.622,0.157l0.659,0.168l0.661,0.17l0.66,0.172l0.662,0.173l0.663,0.175l0.663,0.177l0.664,0.179l0.664,0.181l0.666,0.183l0.666,0.184l0.667,0.186l0.668,0.188l0.669,0.19l0.669,0.192l0.671,0.194l0.671,0.195l0.673,0.198l0.673,0.199l0.674,0.202l0.675,0.203l0.629,0.191l0.047,0.015l0.676,0.212l0.677,0.215l0.678,0.216l0.679,0.219l0.68,0.22l0.681,0.223l0.682,0.224l0.684,0.227l0.684,0.228l0.686,0.231l0.687,0.233l0.687,0.235l0.69,0.237l0.69,0.239l0.692,0.242l0.693,0.243l0.694,0.246l0.695,0.248l0.697,0.249l0.698,0.253l0.19,0.069l0.508,0.189l0.699,0.262l0.701,0.264l0.702,0.266l0.703,0.268l0.705,0.271l0.706,0.273l0.708,0.275l0.709,0.278l0.71,0.28l0.712,0.282l0.714,0.285l0.715,0.287l0.717,0.289l0.718,0.292l0.72,0.294l0.721,0.296l0.723,0.299l0.725,0.301l0.727,0.304l0.728,0.306l0.73,0.308l0.731,0.311l0.734,0.314l0.735,0.316l0.737,0.318l0.738,0.321l0.741,0.323l0.742,0.326l0.744,0.329l0.746,0.331l0.126,0.056l0.621,0.281l0.748,0.341l0.75,0.343l0.752,0.346l0.754,0.349l0.756,0.351l0.758,0.354l0.76,0.356l0.762,0.359l0.764,0.362l0.766,0.365l0.435,0.208l0.333,0.16l-0.351,-0.113l-0.459,-0.15l-0.807,-0.262l-0.804,-0.26l-0.801,-0.257l-0.799,-0.255l-0.796,-0.252l-0.794,-0.25l-0.791,-0.247l-0.789,-0.245l-0.786,-0.243l-0.784,-0.24l-0.651,-0.198l-0.131,-0.041l-0.777,-0.24l-0.775,-0.238l-0.773,-0.235l-0.77,-0.233l-0.768,-0.231l-0.766,-0.228l-0.764,-0.226l-0.761,-0.224l-0.759,-0.222l-0.757,-0.219l-0.755,-0.217l-0.752,-0.215l-0.751,-0.212l-0.748,-0.21l-0.746,-0.208l-0.744,-0.206l-0.742,-0.203l-0.74,-0.202l-0.738,-0.199l-0.736,-0.197l-0.734,-0.194l-0.732,-0.193l-0.73,-0.19l-0.728,-0.189l-0.726,-0.186l-0.724,-0.184l-0.722,-0.182l-0.721,-0.18l-0.718,-0.177l-0.717,-0.176l-0.521,-0.126l-0.194,-0.049l-0.711,-0.177l-0.71,-0.174l-0.708,-0.173l-0.707,-0.17l-0.705,-0.169l-0.703,-0.166l-0.701,-0.165l-0.7,-0.162l-0.698,-0.161l-0.697,-0.158l-0.695,-0.156l-0.694,-0.155l-0.692,-0.153l-0.69,-0.15l-0.69,-0.149l-0.687,-0.147l-0.686,-0.145l-0.685,-0.142l-0.683,-0.142l-0.682,-0.139l-0.048,-0.009l-0.632,-0.133l-0.678,-0.141l-0.676,-0.138l-0.676,-0.137l-0.674,-0.135l-0.673,-0.134l-0.671,-0.131l-0.671,-0.13l-0.669,-0.128l-0.668,-0.126l-0.667,-0.124l-0.666,-0.123l-0.665,-0.12l-0.663,-0.119l-0.663,-0.118l-0.662,-0.115l-0.66,-0.114l-0.66,-0.112l-0.658,-0.111l-0.658,-0.109l-0.657,-0.107l-0.618,-0.099l-0.037,-0.007l-0.654,-0.111l-0.652,-0.109l-0.652,-0.108l-0.651,-0.107l-0.65,-0.104l-0.649,-0.104l-0.649,-0.101l-0.648,-0.1l-0.647,-0.098l-0.647,-0.097l-0.645,-0.096l-0.646,-0.093l-0.644,-0.092l-0.644,-0.091l-0.644,-0.089l-0.643,-0.088l-0.642,-0.086l-0.642,-0.085l-0.641,-0.083l-0.641,-0.082l-0.64,-0.08l-0.35,-0.043l-0.29,-0.039l-0.638,-0.086l-0.638,-0.084l-0.638,-0.083l-0.637,-0.081l-0.637,-0.08l-0.637,-0.079l-0.636,-0.077l-0.637,-0.076l-0.636,-0.074l-0.39,-0.045l-0.245,-0.032l-0.635,-0.079l-0.634,-0.079l-0.635,-0.077l-0.634,-0.075l-0.634,-0.075l-0.634,-0.073l-0.634,-0.072l-0.635,-0.071l-0.542,-0.059l-0.092,-0.011l-0.633,-0.077l-0.633,-0.075l-0.634,-0.074l-0.634,-0.073l-0.633,-0.072l-0.634,-0.071l-0.634,-0.069l-0.635,-0.068l-0.493,-0.052l-0.141,-0.017l-0.634,-0.072l-0.635,-0.071l-0.635,-0.07l-0.635,-0.069l-0.635,-0.067l-0.636,-0.067l-0.636,-0.065l-0.637,-0.065l-0.633,-0.063l-0.004,0l-0.637,-0.07l-0.637,-0.069l-0.638,-0.068l-0.638,-0.067l-0.639,-0.066l-0.64,-0.065l-0.64,-0.064l-0.64,-0.063l-0.641,-0.062l-0.642,-0.061l-0.643,-0.06l-0.643,-0.059l-0.644,-0.058l-0.645,-0.058l-0.645,-0.056l-0.646,-0.056l-0.647,-0.055l-0.647,-0.054l-0.594,-0.048l-0.055,-0.005l-0.648,-0.061l-0.65,-0.059l-0.651,-0.059l-0.651,-0.058l-0.652,-0.057l-0.654,-0.056l-0.654,-0.056l-0.655,-0.055l-0.656,-0.054l-0.657,-0.053l-0.658,-0.053l-0.659,-0.052l-0.661,-0.051l-0.661,-0.051l-0.661,-0.049l-1.329,-0.098l-1.233,-0.088l-0.1,-0.009l-1.337,-0.105l-1.342,-0.103l-1.347,-0.101l-1.352,-0.099l-1.357,-0.096l-1.363,-0.095l-1.368,-0.093l-1.374,-0.091l-1.38,-0.089l-0.059,-0.004l-1.327,-0.097l-1.391,-0.1l-1.399,-0.099l-1.404,-0.098l-1.411,-0.096l-1.418,-0.095l-1.424,-0.094l-1.432,-0.093l-1.438,-0.093l-1.446,-0.092l-1.453,-0.091l-1.461,-0.09l-1.468,-0.09l-1.476,-0.09l-2.976,-0.179l-0.165,-0.01l-2.843,-0.191l-3.043,-0.204l-6.189,-0.411l-3.15,-0.21l-2.818,-0.189l-0.369,-0.026l0.369,-0.025l2.819,-0.184l3.149,-0.208l6.19,-0.409l3.043,-0.2l2.845,-0.186l0.165,-0.009l2.979,-0.169l1.478,-0.082l1.47,-0.082l1.464,-0.08l1.456,-0.079l1.449,-0.077l1.443,-0.075l1.436,-0.075l1.43,-0.072l1.424,-0.071l1.417,-0.068l1.412,-0.067l1.406,-0.065l1.4,-0.063l1.336,-0.058l0.059,-0.002l1.39,-0.045l1.384,-0.042l1.38,-0.04l1.375,-0.038l1.37,-0.035l1.366,-0.033l1.362,-0.03l1.358,-0.027l1.353,-0.025l0.102,-0.001l1.248,-0.008l1.345,-0.007l0.672,-0.001l0.671,-0.002l0.67,0l0.669,0Z" style="fill:#ed43ff;"/><path d="M246.751,101.721l0.428,0.001l0.425,0.003l0.424,0.004l0.422,0.006l0.419,0.006l0.418,0.008l0.415,0.009l0.414,0.011l0.412,0.011l0.108,0.004l0.302,0.011l0.408,0.017l0.406,0.018l0.404,0.019l0.402,0.02l0.401,0.022l0.399,0.023l0.397,0.024l0.395,0.025l0.393,0.027l0.392,0.028l0.39,0.029l0.389,0.03l0.387,0.032l0.385,0.032l0.383,0.034l0.382,0.036l0.381,0.036l0.378,0.038l0.378,0.039l0.375,0.04l0.375,0.041l0.373,0.043l0.371,0.044l0.37,0.045l0.368,0.046l0.368,0.048l0.365,0.048l0.365,0.05l0.363,0.052l0.362,0.052l0.36,0.054l0.359,0.055l0.358,0.056l0.357,0.057l0.356,0.059l0.354,0.06l0.353,0.061l0.352,0.063l0.351,0.063l0.35,0.065l0.349,0.066l0.347,0.067l0.347,0.069l0.345,0.07l0.239,0.049l0.106,0.022l0.343,0.075l0.342,0.075l0.341,0.077l0.341,0.078l0.339,0.079l0.338,0.081l0.338,0.082l0.337,0.083l0.336,0.084l0.335,0.085l0.334,0.087l0.333,0.087l0.333,0.089l0.332,0.091l0.331,0.091l0.331,0.093l0.33,0.094l0.329,0.095l0.328,0.096l0.328,0.097l0.328,0.099l0.326,0.1l0.327,0.101l0.325,0.102l0.326,0.104l0.324,0.104l0.325,0.106l0.323,0.108l0.324,0.108l0.323,0.109l0.322,0.111l0.323,0.112l0.322,0.113l0.321,0.114l0.322,0.116l0.321,0.117l0.321,0.117l0.32,0.12l0.321,0.12l0.32,0.121l0.32,0.123l0.32,0.124l0.32,0.125l0.319,0.126l0.32,0.128l0.32,0.128l0.319,0.13l0.32,0.131l0.319,0.132l0.32,0.134l0.32,0.134l0.32,0.136l0.32,0.137l0.32,0.138l0.32,0.139l0.32,0.141l0.321,0.142l0.321,0.143l0.321,0.144l0.321,0.145l0.322,0.146l0.322,0.148l0.322,0.149l0.323,0.15l0.323,0.151l0.324,0.153l0.324,0.153l0.324,0.155l0.325,0.156l0.326,0.157l0.326,0.159l0.326,0.159l0.327,0.161l0.328,0.162l0.328,0.163l0.33,0.164l0.659,0.333l0.411,0.208l0.252,0.13l0.664,0.345l0.667,0.351l0.671,0.355l0.675,0.36l0.678,0.364l0.683,0.37l0.686,0.374l0.691,0.379l0.695,0.384l0.7,0.389l0.705,0.394l0.71,0.399l0.716,0.403l0.354,0.201l0.366,0.209l-0.388,-0.164l-0.375,-0.159l-0.756,-0.32l-0.751,-0.315l-0.744,-0.311l-0.739,-0.306l-0.733,-0.302l-0.728,-0.298l-0.723,-0.293l-0.718,-0.289l-0.712,-0.284l-0.709,-0.28l-0.703,-0.275l-0.699,-0.271l-0.696,-0.266l-0.262,-0.099l-0.428,-0.165l-0.685,-0.26l-0.341,-0.128l-0.341,-0.128l-0.34,-0.126l-0.338,-0.125l-0.338,-0.124l-0.337,-0.122l-0.337,-0.122l-0.335,-0.12l-0.335,-0.119l-0.334,-0.118l-0.333,-0.117l-0.333,-0.116l-0.332,-0.114l-0.331,-0.113l-0.331,-0.112l-0.33,-0.111l-0.329,-0.11l-0.329,-0.108l-0.329,-0.107l-0.327,-0.106l-0.328,-0.105l-0.327,-0.104l-0.326,-0.102l-0.326,-0.101l-0.325,-0.1l-0.325,-0.099l-0.325,-0.098l-0.324,-0.096l-0.324,-0.095l-0.324,-0.094l-0.323,-0.093l-0.324,-0.092l-0.322,-0.09l-0.323,-0.089l-0.322,-0.088l-0.323,-0.086l-0.322,-0.086l-0.322,-0.084l-0.321,-0.083l-0.322,-0.082l-0.322,-0.08l-0.321,-0.08l-0.322,-0.078l-0.321,-0.076l-0.322,-0.076l-0.321,-0.074l-0.322,-0.073l-0.321,-0.072l-0.322,-0.071l-0.322,-0.069l-0.322,-0.068l-0.322,-0.067l-0.322,-0.066l-0.323,-0.064l-0.322,-0.063l-0.323,-0.062l-0.324,-0.061l-0.323,-0.059l-0.324,-0.059l-0.324,-0.057l-0.325,-0.055l-0.325,-0.055l-0.325,-0.053l-0.326,-0.052l-0.326,-0.05l-0.327,-0.05l-0.327,-0.048l-0.328,-0.047l-0.328,-0.046l-0.329,-0.044l-0.33,-0.043l-0.33,-0.042l-0.331,-0.041l-0.331,-0.039l-0.332,-0.038l-0.333,-0.037l-0.103,-0.011l-0.23,-0.026l-0.334,-0.036l-0.335,-0.035l-0.336,-0.034l-0.336,-0.033l-0.338,-0.031l-0.338,-0.031l-0.339,-0.028l-0.34,-0.028l-0.341,-0.026l-0.342,-0.025l-0.344,-0.024l-0.344,-0.023l-0.345,-0.021l-0.346,-0.02l-0.348,-0.018l-0.348,-0.018l-0.35,-0.016l-0.351,-0.015l-0.352,-0.013l-0.353,-0.012l-0.355,-0.011l-0.355,-0.01l-0.358,-0.008l-0.358,-0.007l-0.36,-0.006l-0.361,-0.005l-0.363,-0.003l-0.364,-0.002l-0.365,0l-0.367,0.001l-0.368,0.002l-0.37,0.003l-0.372,0.005l-0.373,0.006l-0.375,0.007l-0.376,0.009l-0.378,0.01l-0.379,0.011l-0.381,0.013l-0.383,0.014l-0.385,0.015l-0.386,0.017l-0.389,0.018l-0.389,0.019l-0.289,0.015l-0.103,0.005l-0.394,0.019l-0.396,0.021l-0.397,0.022l-0.399,0.023l-0.402,0.025l-0.403,0.026l-0.405,0.027l-0.408,0.029l-0.409,0.03l-0.412,0.031l-0.413,0.033l-0.416,0.034l-0.418,0.035l-0.42,0.037l-0.422,0.038l-0.424,0.04l-0.427,0.04l-0.429,0.043l-0.431,0.043l-0.433,0.045l-0.436,0.047l-0.438,0.047l-0.44,0.049l-0.443,0.051l-0.445,0.052l-0.448,0.053l-0.45,0.055l-0.453,0.056l-0.455,0.057l-0.457,0.059l-0.461,0.06l-0.462,0.062l-0.466,0.063l-0.468,0.064l-0.47,0.066l-0.473,0.067l-0.476,0.069l-0.479,0.07l-0.13,0.019l-0.351,0.049l-0.485,0.068l-0.487,0.069l-0.491,0.071l-0.493,0.072l-0.495,0.074l-0.499,0.075l-0.502,0.076l-0.504,0.078l-0.508,0.079l-0.51,0.08l-0.514,0.082l-0.516,0.084l-0.52,0.085l-0.522,0.086l-0.526,0.088l-0.529,0.089l-0.531,0.09l-0.535,0.092l-0.538,0.093l-0.542,0.095l-0.544,0.096l-0.548,0.098l-0.551,0.099l-0.554,0.101l-0.558,0.101l-0.56,0.104l-0.564,0.105l-0.568,0.106l-0.571,0.108l-0.292,0.055l-0.283,0.05l-0.578,0.105l-0.583,0.105l-0.585,0.107l-0.589,0.108l-0.592,0.11l-1.197,0.224l-1.211,0.229l-1.225,0.235l-0.452,0.088l-0.789,0.144l-1.257,0.233l-1.272,0.239l-1.287,0.244l-1.303,0.249l-0.76,0.147l-0.56,0.102l-1.337,0.246l-1.353,0.25l-1.37,0.257l-1.386,0.261l-0.41,0.078l-0.929,0.169l-0.354,0.076l-0.419,0.093l-0.427,0.097l-0.434,0.102l-0.442,0.106l-0.449,0.109l-0.457,0.114l-0.464,0.117l-0.471,0.121l-0.478,0.125l-0.485,0.129l-0.492,0.132l-0.002,0.001l-0.498,0.13l-0.507,0.134l-0.513,0.137l-0.521,0.141l-0.526,0.144l-0.533,0.148l-0.54,0.15l-0.546,0.154l-0.552,0.157l-0.558,0.16l-0.564,0.162l-0.57,0.166l-0.576,0.169l-0.582,0.171l-0.588,0.174l-0.593,0.177l-0.599,0.179l-0.605,0.182l-0.61,0.184l-0.615,0.187l-1.248,0.381l-0.905,0.278l-0.365,0.108l-1.293,0.385l-1.314,0.393l-1.334,0.4l-1.352,0.407l-1.372,0.414l-1.389,0.421l-2.833,0.857l-2.47,0.748l-0.43,0.126l-1.478,0.433l-1.493,0.436l-1.508,0.439l-1.523,0.442l-1.537,0.444l-1.55,0.446l-1.563,0.447l-1.576,0.447l-0.793,0.225l-0.246,0.069l-0.551,0.15l-0.801,0.217l-0.804,0.217l-0.806,0.217l-0.81,0.217l-0.812,0.217l-0.814,0.216l-0.817,0.216l-0.82,0.215l-0.822,0.215l-0.825,0.215l-0.827,0.214l-0.829,0.213l-0.831,0.212l-0.834,0.212l-0.836,0.211l-0.837,0.21l-0.84,0.21l-0.842,0.208l-0.844,0.207l-0.845,0.207l-0.847,0.205l-0.849,0.204l-0.851,0.202l-0.852,0.202l-0.854,0.2l-0.855,0.199l-0.857,0.197l-0.858,0.196l-0.859,0.194l-0.861,0.193l-0.154,0.034l-0.709,0.152l-0.864,0.183l-0.866,0.182l-0.866,0.18l-0.868,0.177l-0.868,0.176l-0.869,0.174l-0.87,0.172l-0.871,0.17l-0.871,0.168l-0.872,0.166l-0.872,0.163l-0.873,0.161l-0.873,0.158l-0.874,0.157l-0.874,0.153l-0.874,0.151l-0.874,0.149l-0.874,0.146l-0.874,0.144l-0.875,0.14l-0.874,0.138l-0.874,0.135l-0.456,0.069l-0.418,0.062l0.408,-0.111l0.444,-0.121l0.853,-0.236l0.851,-0.237l0.851,-0.241l0.851,-0.243l0.85,-0.246l0.849,-0.248l0.849,-0.251l0.847,-0.253l0.848,-0.255l0.846,-0.258l0.845,-0.26l0.844,-0.262l0.844,-0.264l0.842,-0.266l0.842,-0.269l0.84,-0.27l0.839,-0.272l0.838,-0.274l0.837,-0.275l0.835,-0.278l0.834,-0.278l0.833,-0.281l0.682,-0.232l0.149,-0.049l0.832,-0.278l0.83,-0.279l0.828,-0.28l0.827,-0.282l0.825,-0.283l0.824,-0.285l0.822,-0.285l0.82,-0.286l0.818,-0.288l0.817,-0.288l0.815,-0.29l0.812,-0.29l0.811,-0.291l0.808,-0.292l0.807,-0.292l0.804,-0.294l0.803,-0.293l0.8,-0.294l0.797,-0.295l0.796,-0.295l0.793,-0.296l0.791,-0.295l0.788,-0.296l0.786,-0.296l0.783,-0.296l0.78,-0.297l0.778,-0.296l0.776,-0.296l0.772,-0.296l0.77,-0.296l0.53,-0.204l0.238,-0.09l0.766,-0.288l1.524,-0.577l1.512,-0.575l1.5,-0.572l1.487,-0.57l1.474,-0.567l1.46,-0.563l1.447,-0.56l1.432,-0.554l0.417,-0.162l2.411,-0.914l2.767,-1.049l1.36,-0.515l1.344,-0.508l1.327,-0.501l1.309,-0.493l1.293,-0.484l1.274,-0.476l0.361,-0.134l0.899,-0.323l1.241,-0.444l0.616,-0.219l0.609,-0.215l0.605,-0.214l0.599,-0.21l0.595,-0.208l0.59,-0.205l0.585,-0.203l0.58,-0.2l0.576,-0.196l0.57,-0.194l0.564,-0.191l0.56,-0.188l0.555,-0.184l0.549,-0.182l0.545,-0.178l0.539,-0.175l0.533,-0.172l0.529,-0.168l0.523,-0.165l0.516,-0.161l0.002,-0.001l0.514,-0.153l0.508,-0.149l0.503,-0.146l0.498,-0.142l0.492,-0.138l0.487,-0.135l0.481,-0.131l0.476,-0.127l0.47,-0.123l0.465,-0.119l0.459,-0.115l0.511,-0.124l1.023,-0.213l0.453,-0.091l1.397,-0.278l1.381,-0.271l1.364,-0.267l1.35,-0.261l0.565,-0.108l0.771,-0.138l1.321,-0.235l1.307,-0.229l1.292,-0.225l1.277,-0.218l0.802,-0.136l0.462,-0.073l1.25,-0.195l1.237,-0.19l1.221,-0.184l0.607,-0.091l0.603,-0.089l0.599,-0.088l0.596,-0.087l0.592,-0.085l0.289,-0.041l0.301,-0.04l0.586,-0.076l0.584,-0.075l0.58,-0.074l0.576,-0.072l0.574,-0.072l0.57,-0.07l0.567,-0.068l0.564,-0.068l0.561,-0.066l0.557,-0.065l0.555,-0.064l0.551,-0.063l0.548,-0.061l0.545,-0.06l0.542,-0.059l0.539,-0.058l0.536,-0.056l0.534,-0.055l0.53,-0.054l0.527,-0.052l0.524,-0.052l0.522,-0.05l0.518,-0.049l0.516,-0.047l0.513,-0.047l0.51,-0.045l0.507,-0.044l0.505,-0.042l0.502,-0.042l0.363,-0.029l0.136,-0.009l0.497,-0.034l0.494,-0.033l0.492,-0.032l0.488,-0.03l0.487,-0.029l0.483,-0.028l0.482,-0.027l0.478,-0.025l0.476,-0.024l0.474,-0.023l0.471,-0.022l0.468,-0.021l0.466,-0.019l0.464,-0.018l0.461,-0.017l0.459,-0.015l0.457,-0.015l0.454,-0.013l0.452,-0.012l0.449,-0.011l0.448,-0.009l0.445,-0.008l0.442,-0.007l0.441,-0.006l0.438,-0.005l0.436,-0.003l0.434,-0.002l0.432,-0.001l0.43,0.001Z" style="fill:#ed43ff;"/><path d="M255.635,35.022l0.295,0.001l0.294,0.003l0.294,0.003l0.294,0.003l0.293,0.005l0.293,0.005l0.293,0.006l0.292,0.007l0.292,0.008l0.291,0.009l0.291,0.009l0.291,0.01l0.29,0.011l0.29,0.012l0.29,0.012l0.289,0.013l0.288,0.014l0.289,0.015l0.287,0.016l0.288,0.016l0.287,0.017l0.287,0.018l0.286,0.018l0.285,0.02l0.286,0.02l0.284,0.021l0.285,0.022l0.284,0.022l0.283,0.023l0.283,0.024l0.283,0.025l0.282,0.025l0.282,0.026l0.281,0.027l0.28,0.028l0.281,0.028l0.279,0.029l0.28,0.03l0.278,0.031l0.279,0.031l0.277,0.032l0.278,0.033l0.276,0.033l0.276,0.035l0.276,0.035l0.275,0.035l0.275,0.037l0.274,0.037l0.274,0.037l0.273,0.039l0.272,0.039l0.272,0.04l0.272,0.041l0.271,0.041l0.27,0.042l0.093,0.015l0.177,0.029l0.269,0.044l0.268,0.046l0.268,0.046l0.267,0.047l0.267,0.048l0.266,0.048l0.266,0.049l0.265,0.05l0.264,0.05l0.264,0.051l0.263,0.052l0.262,0.052l0.262,0.053l0.262,0.054l0.26,0.054l0.26,0.055l0.26,0.056l0.258,0.056l0.259,0.057l0.257,0.057l0.257,0.059l0.256,0.059l0.256,0.059l0.255,0.06l0.254,0.061l0.253,0.062l0.253,0.062l0.252,0.063l0.252,0.063l0.251,0.064l0.25,0.065l0.25,0.065l0.248,0.066l0.248,0.066l0.248,0.068l0.247,0.067l0.246,0.069l0.245,0.069l0.244,0.069l0.244,0.071l0.243,0.07l0.243,0.072l0.241,0.072l0.241,0.073l0.24,0.073l0.24,0.074l0.239,0.074l0.238,0.075l0.237,0.076l0.236,0.076l0.236,0.077l0.235,0.078l0.234,0.078l0.233,0.078l0.233,0.079l0.232,0.08l0.231,0.08l0.23,0.081l0.229,0.082l0.229,0.082l0.228,0.083l0.227,0.083l0.226,0.084l0.226,0.084l0.224,0.085l0.224,0.085l0.223,0.086l0.222,0.087l0.221,0.087l0.221,0.088l0.219,0.088l0.219,0.089l0.218,0.089l0.217,0.09l0.216,0.09l0.216,0.091l0.214,0.092l0.214,0.092l0.213,0.092l0.211,0.093l0.211,0.094l0.211,0.094l0.209,0.095l0.208,0.095l0.208,0.096l0.206,0.096l0.206,0.097l0.204,0.097l0.204,0.098l0.203,0.098l0.202,0.099l0.201,0.099l0.2,0.1l0.199,0.1l0.199,0.101l0.197,0.101l0.196,0.102l0.196,0.103l0.194,0.102l0.194,0.104l0.192,0.104l0.192,0.104l0.191,0.105l0.189,0.105l0.189,0.106l0.188,0.106l0.186,0.107l0.186,0.107l0.185,0.107l0.183,0.108l0.183,0.109l0.182,0.109l0.181,0.11l0.179,0.11l0.179,0.11l0.178,0.111l0.176,0.111l0.176,0.112l0.174,0.112l0.174,0.113l0.173,0.113l0.171,0.114l0.17,0.114l0.17,0.114l0.168,0.115l0.167,0.116l0.166,0.116l0.165,0.116l0.165,0.116l0.162,0.118l0.162,0.117l0.161,0.118l0.16,0.118l0.158,0.119l0.158,0.119l0.156,0.12l0.155,0.12l0.029,0.023l0.125,0.098l0.153,0.122l0.151,0.122l0.15,0.122l0.15,0.123l0.148,0.123l0.146,0.124l0.146,0.124l0.145,0.124l0.143,0.125l0.142,0.125l0.141,0.125l0.14,0.126l0.139,0.126l0.138,0.127l0.136,0.127l0.135,0.127l0.134,0.128l0.133,0.128l0.132,0.128l0.13,0.129l0.129,0.129l0.128,0.13l0.127,0.129l0.126,0.131l0.124,0.13l0.123,0.131l0.122,0.131l0.121,0.132l0.119,0.132l0.118,0.132l0.117,0.132l0.116,0.133l0.115,0.133l0.113,0.134l0.112,0.134l0.11,0.134l0.11,0.134l0.108,0.135l0.107,0.135l0.105,0.135l0.104,0.136l0.103,0.136l0.102,0.136l0.1,0.137l0.099,0.137l0.098,0.137l0.096,0.137l0.096,0.138l0.093,0.138l0.093,0.138l0.091,0.139l0.09,0.138l0.088,0.139l0.087,0.14l0.086,0.139l0.085,0.14l0.083,0.14l0.081,0.14l0.081,0.141l0.079,0.141l0.077,0.141l0.077,0.141l0.075,0.142l0.073,0.141l0.072,0.142l0.071,0.143l0.069,0.142l0.068,0.143l0.067,0.143l0.065,0.143l0.064,0.143l0.062,0.143l0.051,0.12l0.01,0.024l0.059,0.144l0.058,0.144l0.057,0.145l-0.071,-0.138l-0.072,-0.137l-0.074,-0.137l-0.012,-0.023l-0.062,-0.114l-0.076,-0.136l-0.077,-0.136l-0.079,-0.135l-0.079,-0.135l-0.081,-0.134l-0.082,-0.134l-0.084,-0.134l-0.085,-0.133l-0.086,-0.133l-0.087,-0.132l-0.089,-0.131l-0.09,-0.132l-0.091,-0.13l-0.092,-0.131l-0.094,-0.13l-0.095,-0.129l-0.096,-0.129l-0.097,-0.128l-0.099,-0.128l-0.1,-0.128l-0.101,-0.127l-0.102,-0.127l-0.103,-0.126l-0.105,-0.126l-0.106,-0.125l-0.107,-0.125l-0.109,-0.124l-0.109,-0.124l-0.111,-0.123l-0.112,-0.123l-0.113,-0.123l-0.114,-0.122l-0.115,-0.121l-0.117,-0.121l-0.118,-0.121l-0.119,-0.12l-0.12,-0.12l-0.121,-0.119l-0.122,-0.119l-0.124,-0.118l-0.124,-0.118l-0.126,-0.117l-0.127,-0.117l-0.128,-0.116l-0.129,-0.116l-0.131,-0.115l-0.131,-0.115l-0.133,-0.115l-0.133,-0.114l-0.135,-0.113l-0.136,-0.113l-0.137,-0.113l-0.138,-0.112l-0.139,-0.111l-0.141,-0.111l-0.141,-0.111l-0.142,-0.11l-0.144,-0.11l-0.144,-0.109l-0.146,-0.108l-0.147,-0.108l-0.147,-0.108l-0.149,-0.107l-0.15,-0.107l-0.151,-0.106l-0.152,-0.105l-0.153,-0.106l-0.154,-0.104l-0.155,-0.104l-0.156,-0.104l-0.157,-0.103l-0.158,-0.103l-0.13,-0.083l-0.03,-0.019l-0.159,-0.102l-0.161,-0.102l-0.162,-0.101l-0.162,-0.101l-0.164,-0.1l-0.165,-0.1l-0.165,-0.099l-0.167,-0.099l-0.168,-0.098l-0.169,-0.098l-0.169,-0.097l-0.171,-0.097l-0.171,-0.096l-0.173,-0.096l-0.173,-0.095l-0.175,-0.095l-0.175,-0.094l-0.177,-0.093l-0.177,-0.093l-0.178,-0.093l-0.18,-0.092l-0.18,-0.091l-0.181,-0.091l-0.182,-0.09l-0.183,-0.09l-0.184,-0.089l-0.185,-0.089l-0.185,-0.088l-0.187,-0.088l-0.187,-0.087l-0.189,-0.087l-0.189,-0.086l-0.19,-0.085l-0.191,-0.085l-0.192,-0.085l-0.193,-0.084l-0.194,-0.083l-0.195,-0.083l-0.195,-0.082l-0.196,-0.081l-0.198,-0.081l-0.198,-0.081l-0.198,-0.08l-0.2,-0.079l-0.201,-0.079l-0.201,-0.078l-0.202,-0.078l-0.204,-0.077l-0.203,-0.076l-0.205,-0.076l-0.206,-0.076l-0.206,-0.075l-0.207,-0.074l-0.208,-0.073l-0.209,-0.073l-0.21,-0.073l-0.21,-0.072l-0.211,-0.071l-0.212,-0.071l-0.213,-0.07l-0.214,-0.069l-0.214,-0.069l-0.215,-0.069l-0.216,-0.067l-0.216,-0.068l-0.218,-0.066l-0.218,-0.066l-0.219,-0.065l-0.219,-0.065l-0.221,-0.064l-0.221,-0.064l-0.221,-0.063l-0.223,-0.062l-0.223,-0.062l-0.224,-0.061l-0.225,-0.06l-0.225,-0.06l-0.226,-0.059l-0.227,-0.059l-0.228,-0.058l-0.228,-0.057l-0.229,-0.057l-0.229,-0.056l-0.231,-0.056l-0.231,-0.055l-0.231,-0.054l-0.232,-0.053l-0.233,-0.053l-0.234,-0.053l-0.234,-0.051l-0.235,-0.051l-0.236,-0.051l-0.236,-0.05l-0.237,-0.049l-0.237,-0.048l-0.238,-0.048l-0.239,-0.047l-0.24,-0.047l-0.24,-0.046l-0.24,-0.045l-0.241,-0.045l-0.242,-0.044l-0.243,-0.043l-0.243,-0.042l-0.243,-0.042l-0.244,-0.042l-0.245,-0.04l-0.246,-0.04l-0.246,-0.04l-0.246,-0.038l-0.247,-0.038l-0.248,-0.038l-0.248,-0.036l-0.249,-0.036l-0.249,-0.035l-0.25,-0.035l-0.25,-0.034l-0.251,-0.033l-0.252,-0.033l-0.252,-0.032l-0.253,-0.031l-0.253,-0.03l-0.253,-0.03l-0.254,-0.029l-0.255,-0.029l-0.255,-0.027l-0.256,-0.028l-0.256,-0.026l-0.256,-0.026l-0.257,-0.025l-0.258,-0.024l-0.258,-0.023l-0.259,-0.023l-0.259,-0.022l-0.259,-0.022l-0.26,-0.021l-0.26,-0.02l-0.172,-0.012l-0.089,-0.008l-0.261,-0.02l-0.262,-0.019l-0.262,-0.019l-0.262,-0.018l-0.263,-0.017l-0.264,-0.016l-0.263,-0.016l-0.265,-0.015l-0.264,-0.015l-0.265,-0.013l-0.266,-0.013l-0.266,-0.012l-0.266,-0.012l-0.266,-0.011l-0.268,-0.01l-0.267,-0.009l-0.268,-0.009l-0.268,-0.007l-0.269,-0.007l-0.269,-0.007l-0.269,-0.005l-0.27,-0.005l-0.27,-0.004l-0.27,-0.004l-0.271,-0.002l-0.271,-0.002l-0.272,-0.001l-0.272,-0.001l-0.272,0.001l-0.273,0.001l-0.272,0.002l-0.274,0.002l-0.273,0.004l-0.274,0.004l-0.274,0.005l-0.275,0.005l-0.274,0.007l-0.275,0.007l-0.276,0.008l-0.275,0.009l-0.276,0.009l-0.276,0.01l-0.277,0.011l-0.277,0.012l-0.277,0.013l-0.277,0.013l-0.278,0.014l-0.277,0.015l-0.278,0.016l-0.279,0.016l-0.278,0.017l-0.279,0.019l-0.279,0.018l-0.279,0.02l-0.28,0.02l-0.28,0.022l-0.28,0.022l-0.28,0.022l-0.28,0.024l-0.281,0.024l-0.28,0.025l-0.281,0.026l-0.281,0.027l-0.282,0.028l-0.281,0.028l-0.282,0.029l-0.282,0.03l-0.282,0.031l-0.282,0.032l-0.096,0.011l-0.187,0.02l-0.282,0.031l-0.283,0.033l-0.283,0.033l-0.283,0.034l-0.283,0.035l-0.284,0.035l-0.283,0.037l-0.284,0.037l-0.284,0.038l-0.284,0.039l-0.284,0.04l-0.284,0.04l-0.285,0.042l-0.284,0.042l-0.285,0.043l-0.284,0.044l-0.285,0.045l-0.285,0.045l-0.285,0.046l-0.285,0.048l-0.285,0.048l-0.285,0.049l-0.286,0.049l-0.285,0.051l-0.285,0.051l-0.286,0.053l-0.285,0.053l-0.286,0.054l-0.285,0.055l-0.286,0.055l-0.286,0.057l-0.286,0.057l-0.285,0.058l-0.286,0.06l-0.286,0.059l-0.286,0.061l-0.286,0.062l-0.286,0.062l-0.285,0.064l-0.286,0.064l-0.286,0.065l-0.286,0.066l-0.286,0.067l-0.286,0.068l-0.286,0.069l-0.285,0.069l-0.286,0.07l-0.286,0.072l-0.286,0.072l-0.285,0.073l-0.286,0.074l-0.285,0.074l-0.286,0.076l-0.285,0.076l-0.286,0.078l-0.285,0.078l-0.285,0.079l-0.285,0.08l-0.286,0.081l-0.285,0.082l-0.285,0.083l-0.284,0.084l-0.285,0.084l-0.285,0.086l-0.284,0.086l-0.278,0.085l-0.007,0.002l-0.285,0.086l-0.285,0.086l-0.285,0.088l-0.284,0.088l-0.285,0.089l-0.284,0.09l-0.285,0.091l-0.284,0.092l-0.284,0.093l-0.284,0.094l-0.284,0.095l-0.284,0.095l-0.283,0.097l-0.283,0.097l-0.284,0.099l-0.283,0.099l-0.283,0.1l-0.282,0.101l-0.283,0.102l-0.282,0.103l-0.283,0.104l-0.282,0.105l-0.282,0.106l-0.281,0.107l-0.282,0.108l-0.281,0.108l-0.281,0.11l-0.281,0.11l-0.281,0.112l-0.28,0.112l-0.28,0.113l-0.28,0.115l-0.28,0.115l-0.28,0.116l-0.279,0.117l-0.279,0.118l-0.279,0.119l-0.279,0.12l-0.278,0.121l-0.278,0.122l-0.278,0.123l-0.277,0.124l-0.278,0.124l-0.277,0.126l-0.277,0.127l-0.276,0.127l-0.276,0.129l-0.276,0.129l-0.276,0.131l-0.275,0.132l-0.275,0.132l-0.275,0.133l-0.274,0.135l-0.274,0.135l-0.274,0.137l-0.274,0.137l-0.273,0.138l-0.273,0.14l-0.272,0.14l-0.272,0.141l-0.203,0.106l-0.069,0.036l-0.273,0.14l-0.273,0.142l-0.272,0.142l-0.272,0.144l-0.271,0.144l-0.272,0.145l-0.27,0.147l-0.271,0.147l-0.27,0.149l-0.27,0.149l-0.269,0.151l-0.269,0.151l-0.269,0.153l-0.268,0.153l-0.268,0.155l-0.268,0.155l-0.267,0.157l-0.267,0.158l-0.266,0.158l-0.266,0.16l-0.266,0.16l-0.265,0.162l-0.265,0.163l-0.264,0.163l-0.264,0.165l-0.264,0.166l-0.221,0.14l-0.042,0.026l-0.264,0.166l-0.264,0.166l-0.264,0.167l-0.263,0.169l-0.262,0.169l-0.263,0.171l-0.261,0.171l-0.262,0.173l-0.261,0.173l-0.26,0.175l-0.26,0.176l-0.26,0.177l-0.259,0.178l-0.259,0.179l-0.258,0.18l-0.258,0.181l-0.257,0.182l-0.257,0.183l-0.256,0.184l-0.256,0.186l-0.255,0.186l-0.255,0.187l-0.255,0.189l-0.254,0.19l-0.03,0.023l-0.225,0.165l-0.255,0.189l-0.254,0.191l-0.254,0.191l-0.254,0.193l-0.253,0.193l-0.252,0.195l-0.252,0.196l-0.252,0.197l-0.251,0.198l-0.25,0.199l-0.25,0.2l-0.25,0.201l-0.249,0.203l-0.248,0.203l-0.248,0.205l-0.248,0.206l-0.246,0.207l-0.247,0.208l-0.246,0.209l-0.245,0.21l-0.244,0.212l-0.245,0.213l-0.012,0.011l-0.233,0.201l-0.244,0.213l-0.244,0.214l-0.244,0.215l-0.243,0.217l-0.242,0.217l-0.242,0.219l-0.242,0.22l-0.24,0.221l-0.241,0.223l-0.239,0.223l-0.239,0.225l-0.239,0.226l-0.238,0.227l-0.237,0.228l-0.237,0.229l-0.236,0.231l-0.235,0.232l-0.235,0.233l-0.234,0.234l-0.234,0.235l-0.233,0.236l-0.232,0.238l-0.049,0.05l-0.185,0.187l-0.233,0.238l-0.238,0.245l-0.393,0.404l-0.397,0.407l-0.398,0.404l-0.398,0.402l-0.398,0.399l-0.398,0.396l-0.399,0.393l-0.398,0.391l-0.399,0.388l-0.399,0.386l-0.399,0.383l-0.399,0.38l-0.399,0.378l-0.399,0.375l-0.4,0.372l-0.399,0.37l-0.4,0.368l-0.399,0.365l-0.4,0.362l-0.4,0.36l-0.399,0.358l-0.4,0.355l-0.4,0.352l-0.4,0.35l-0.4,0.348l-0.4,0.345l-0.4,0.343l-0.4,0.341l-0.4,0.338l-0.016,0.013l-0.387,0.319l-0.403,0.33l-0.403,0.327l-0.403,0.325l-0.403,0.323l-0.403,0.32l-0.403,0.319l-0.403,0.315l-0.402,0.314l-0.403,0.311l-0.402,0.309l-0.403,0.307l-0.402,0.305l-0.402,0.302l-0.402,0.3l-0.402,0.298l-0.402,0.296l-0.402,0.294l-0.401,0.291l-0.401,0.29l-0.402,0.287l-0.401,0.285l-0.401,0.283l-0.4,0.281l-0.401,0.279l-0.4,0.277l-0.4,0.275l-0.4,0.272l-0.4,0.271l-0.4,0.269l-0.399,0.267l-0.399,0.265l-0.399,0.263l-0.399,0.261l-0.2,0.13l-0.199,0.127l-0.4,0.255l-0.4,0.252l-0.399,0.251l-0.4,0.248l-0.399,0.247l-0.398,0.245l-0.399,0.243l-0.398,0.242l-0.397,0.239l-0.398,0.238l-0.397,0.236l-0.397,0.234l-0.396,0.232l-0.396,0.231l-0.396,0.229l-0.395,0.227l-0.395,0.226l-0.395,0.224l-0.394,0.222l-0.394,0.22l-0.394,0.219l-0.393,0.217l-0.393,0.216l-0.392,0.214l-0.392,0.212l-0.392,0.211l-0.391,0.209l-0.391,0.208l-0.39,0.206l-0.39,0.205l-0.39,0.203l-0.389,0.201l-0.389,0.2l-0.388,0.199l-0.388,0.197l-0.387,0.196l-0.335,0.168l-0.052,0.026l-0.388,0.19l-0.387,0.189l-0.387,0.187l-0.386,0.186l-0.386,0.185l-0.386,0.183l-0.384,0.182l-0.385,0.18l-0.384,0.18l-0.383,0.178l-0.383,0.176l-0.382,0.176l-0.382,0.174l-0.381,0.173l-0.38,0.172l-0.38,0.17l-0.38,0.17l-0.379,0.168l-0.378,0.167l-0.378,0.166l-0.377,0.164l-0.376,0.164l-0.376,0.163l-0.376,0.161l-0.375,0.161l-0.747,0.317l-0.745,0.313l-0.743,0.309l-0.74,0.305l-0.738,0.302l-0.735,0.297l-0.732,0.294l-0.73,0.291l-0.727,0.287l-0.724,0.284l-0.722,0.28l-0.718,0.278l-0.716,0.274l-0.713,0.272l-0.71,0.269l-0.706,0.267l-0.704,0.263l-0.701,0.262l-0.698,0.259l-0.695,0.257l-0.691,0.255l-1.373,0.504l-1.361,0.496l-1.344,0.489l-1.339,0.479l-1.323,0.473l-1.309,0.47l-0.649,0.233l-0.646,0.234l-0.641,0.232l-0.638,0.233l-0.635,0.232l-0.63,0.232l-0.627,0.232l-0.623,0.232l-0.619,0.232l-0.615,0.233l-0.612,0.233l-0.607,0.233l-0.604,0.235l-0.599,0.234l-0.596,0.236l-0.591,0.237l-0.587,0.238l-0.584,0.239l-0.579,0.24l-0.575,0.242l-0.285,0.121l-0.285,0.122l-0.284,0.123l-0.283,0.122l-0.281,0.123l-0.281,0.124l-0.28,0.124l-0.278,0.124l-0.277,0.125l-0.277,0.126l-0.275,0.126l-0.274,0.126l-0.273,0.128l-0.272,0.127l-0.271,0.128l-0.269,0.129l-0.269,0.13l-0.268,0.13l-0.266,0.13l-0.265,0.132l-0.264,0.132l-0.263,0.132l-0.083,0.042l-0.179,0.092l-0.261,0.133l0.246,-0.159l0.169,-0.109l0.078,-0.05l0.249,-0.158l0.25,-0.158l0.251,-0.157l0.253,-0.157l0.254,-0.156l0.255,-0.156l0.256,-0.155l0.258,-0.155l0.259,-0.155l0.26,-0.154l0.261,-0.154l0.263,-0.153l0.263,-0.153l0.265,-0.152l0.266,-0.152l0.267,-0.152l0.268,-0.152l0.27,-0.151l0.27,-0.151l0.272,-0.15l0.273,-0.15l0.274,-0.15l0.551,-0.3l0.556,-0.298l0.56,-0.297l0.564,-0.297l0.569,-0.296l0.573,-0.295l0.576,-0.295l0.581,-0.295l0.585,-0.294l0.588,-0.294l0.593,-0.294l0.596,-0.294l0.6,-0.294l0.604,-0.294l0.607,-0.295l0.611,-0.295l0.614,-0.295l0.618,-0.296l0.621,-0.297l0.624,-0.298l1.258,-0.598l1.271,-0.602l1.286,-0.609l1.295,-0.604l1.309,-0.612l1.321,-0.62l0.663,-0.313l0.667,-0.315l0.668,-0.317l0.671,-0.32l0.674,-0.322l0.676,-0.324l0.678,-0.327l0.68,-0.33l0.683,-0.333l0.684,-0.336l0.687,-0.339l0.688,-0.341l0.691,-0.345l0.692,-0.349l0.694,-0.352l0.696,-0.355l0.698,-0.359l0.699,-0.362l0.701,-0.367l0.702,-0.37l0.705,-0.375l0.351,-0.188l0.353,-0.19l0.353,-0.191l0.354,-0.192l0.354,-0.192l0.354,-0.194l0.354,-0.196l0.355,-0.196l0.355,-0.197l0.356,-0.198l0.355,-0.2l0.357,-0.201l0.356,-0.202l0.356,-0.203l0.357,-0.204l0.357,-0.205l0.358,-0.207l0.357,-0.208l0.358,-0.209l0.358,-0.211l0.359,-0.211l0.358,-0.213l0.359,-0.214l0.359,-0.216l0.359,-0.217l0.048,-0.029l0.313,-0.186l0.361,-0.217l0.361,-0.218l0.362,-0.22l0.362,-0.22l0.361,-0.223l0.363,-0.223l0.362,-0.225l0.362,-0.226l0.363,-0.228l0.363,-0.23l0.363,-0.23l0.363,-0.232l0.363,-0.234l0.363,-0.235l0.364,-0.237l0.363,-0.238l0.364,-0.24l0.364,-0.241l0.364,-0.243l0.364,-0.244l0.364,-0.246l0.364,-0.248l0.364,-0.249l0.365,-0.251l0.364,-0.252l0.365,-0.254l0.364,-0.256l0.365,-0.257l0.364,-0.259l0.365,-0.261l0.365,-0.262l0.365,-0.264l0.364,-0.266l0.365,-0.267l0.365,-0.27l0.365,-0.271l0.182,-0.136l0.184,-0.135l0.367,-0.272l0.366,-0.274l0.367,-0.275l0.367,-0.278l0.367,-0.279l0.366,-0.281l0.367,-0.283l0.367,-0.284l0.367,-0.287l0.366,-0.289l0.367,-0.29l0.366,-0.293l0.367,-0.294l0.367,-0.296l0.366,-0.298l0.366,-0.301l0.367,-0.302l0.366,-0.304l0.366,-0.306l0.366,-0.308l0.366,-0.311l0.366,-0.312l0.366,-0.314l0.366,-0.317l0.365,-0.318l0.366,-0.321l0.365,-0.323l0.366,-0.325l0.365,-0.327l0.365,-0.329l0.365,-0.331l0.364,-0.334l0.365,-0.335l0.35,-0.325l0.015,-0.013l0.367,-0.337l0.367,-0.339l0.367,-0.341l0.367,-0.343l0.367,-0.346l0.367,-0.348l0.366,-0.35l0.367,-0.352l0.366,-0.355l0.366,-0.357l0.366,-0.36l0.366,-0.362l0.365,-0.364l0.365,-0.367l0.365,-0.369l0.365,-0.371l0.365,-0.374l0.365,-0.377l0.364,-0.379l0.364,-0.381l0.364,-0.384l0.363,-0.386l0.364,-0.389l0.363,-0.391l0.363,-0.394l0.362,-0.397l0.363,-0.399l0.362,-0.401l0.367,-0.41l0.238,-0.265l0.245,-0.27l0.194,-0.213l0.051,-0.056l0.248,-0.265l0.249,-0.264l0.249,-0.263l0.251,-0.261l0.251,-0.261l0.251,-0.259l0.253,-0.257l0.253,-0.257l0.253,-0.255l0.255,-0.254l0.255,-0.253l0.256,-0.252l0.256,-0.25l0.258,-0.249l0.258,-0.248l0.258,-0.247l0.259,-0.245l0.26,-0.244l0.261,-0.243l0.261,-0.242l0.262,-0.24l0.263,-0.24l0.249,-0.225l0.014,-0.013l0.265,-0.234l0.266,-0.234l0.267,-0.233l0.267,-0.231l0.268,-0.23l0.269,-0.229l0.269,-0.227l0.269,-0.227l0.271,-0.225l0.27,-0.224l0.272,-0.223l0.272,-0.221l0.272,-0.22l0.273,-0.219l0.274,-0.218l0.274,-0.217l0.275,-0.215l0.275,-0.215l0.276,-0.213l0.277,-0.211l0.277,-0.211l0.277,-0.209l0.244,-0.184l0.034,-0.024l0.281,-0.205l0.281,-0.203l0.281,-0.202l0.282,-0.201l0.282,-0.199l0.283,-0.199l0.283,-0.197l0.284,-0.196l0.285,-0.195l0.284,-0.193l0.285,-0.193l0.286,-0.191l0.286,-0.19l0.287,-0.189l0.287,-0.187l0.287,-0.187l0.288,-0.185l0.288,-0.184l0.289,-0.183l0.289,-0.182l0.289,-0.181l0.29,-0.179l0.29,-0.179l0.291,-0.177l0.046,-0.028l0.246,-0.145l0.293,-0.173l0.294,-0.171l0.293,-0.17l0.294,-0.168l0.295,-0.168l0.294,-0.166l0.296,-0.166l0.295,-0.164l0.296,-0.163l0.296,-0.162l0.296,-0.16l0.297,-0.16l0.297,-0.158l0.297,-0.157l0.298,-0.156l0.298,-0.155l0.298,-0.154l0.299,-0.153l0.299,-0.151l0.299,-0.151l0.299,-0.149l0.3,-0.148l0.3,-0.147l0.3,-0.146l0.301,-0.145l0.301,-0.144l0.076,-0.036l0.226,-0.104l0.302,-0.139l0.303,-0.137l0.303,-0.137l0.304,-0.135l0.303,-0.135l0.304,-0.133l0.304,-0.132l0.304,-0.131l0.304,-0.129l0.305,-0.129l0.304,-0.128l0.305,-0.126l0.305,-0.126l0.306,-0.124l0.305,-0.123l0.306,-0.123l0.306,-0.121l0.306,-0.12l0.306,-0.119l0.306,-0.117l0.306,-0.117l0.307,-0.116l0.307,-0.115l0.306,-0.113l0.307,-0.113l0.307,-0.111l0.308,-0.11l0.307,-0.11l0.307,-0.108l0.308,-0.107l0.308,-0.106l0.307,-0.105l0.308,-0.104l0.308,-0.103l0.308,-0.102l0.309,-0.101l0.308,-0.1l0.308,-0.099l0.309,-0.098l0.308,-0.097l0.309,-0.095l0.308,-0.095l0.309,-0.094l0.309,-0.092l0.308,-0.092l0.309,-0.091l0.309,-0.089l0.309,-0.089l0.309,-0.087l0.309,-0.087l0.309,-0.085l0.309,-0.085l0.309,-0.084l0.309,-0.082l0.309,-0.082l0.31,-0.08l0.309,-0.08l0.309,-0.078l0.309,-0.078l0.309,-0.076l0.008,-0.002l0.302,-0.072l0.309,-0.072l0.31,-0.071l0.31,-0.07l0.309,-0.069l0.31,-0.068l0.31,-0.067l0.309,-0.067l0.309,-0.065l0.31,-0.064l0.309,-0.063l0.309,-0.063l0.309,-0.061l0.31,-0.06l0.309,-0.06l0.308,-0.058l0.309,-0.058l0.309,-0.057l0.309,-0.055l0.308,-0.055l0.309,-0.054l0.308,-0.053l0.308,-0.051l0.308,-0.051l0.308,-0.05l0.308,-0.049l0.308,-0.049l0.307,-0.047l0.308,-0.046l0.307,-0.046l0.307,-0.044l0.307,-0.044l0.307,-0.042l0.307,-0.042l0.306,-0.041l0.307,-0.04l0.306,-0.038l0.306,-0.039l0.306,-0.037l0.306,-0.036l0.305,-0.035l0.305,-0.035l0.306,-0.033l0.305,-0.033l0.304,-0.032l0.305,-0.031l0.304,-0.03l0.304,-0.029l0.304,-0.028l0.304,-0.027l0.303,-0.027l0.304,-0.025l0.303,-0.025l0.303,-0.024l0.302,-0.023l0.302,-0.022l0.303,-0.021l0.301,-0.021l0.302,-0.019l0.301,-0.019l0.301,-0.018l0.301,-0.017l0.301,-0.016l0.3,-0.015l0.3,-0.015l0.3,-0.013l0.197,-0.009l0.102,-0.003l0.3,-0.011l0.299,-0.009l0.298,-0.009l0.299,-0.007l0.298,-0.007l0.297,-0.006l0.298,-0.005l0.297,-0.005l0.297,-0.003l0.296,-0.003l0.296,-0.002l0.296,-0.001l0.296,0l0.295,0Z" style="fill:#ed43ff;"/></g></svg>