<?xml version="1.0" encoding="UTF-8" standalone="no"?><!DOCTYPE svg PUBLIC "-//W3C//DTD SVG 1.1//EN" "http://www.w3.org/Graphics/SVG/1.1/DTD/svg11.dtd"><svg width="100%" height="100%" viewBox="0 0 200 230" version="1.1" xmlns="http://www.w3.org/2000/svg" xmlns:xlink="http://www.w3.org/1999/xlink" xml:space="preserve" xmlns:serif="http://www.serif.com/" style="fill-rule:evenodd;clip-rule:evenodd;stroke-linecap:round;stroke-linejoin:round;stroke-miterlimit:1.5;"><path d="M99.593,0l99.593,57.5l0,115l-99.593,57.5l-99.593,-57.5l0,-115l99.593,-57.5Z" style="fill:none;"/><clipPath id="_clip1"><path d="M99.593,0l99.593,57.5l0,115l-99.593,57.5l-99.593,-57.5l0,-115l99.593,-57.5Z"/></clipPath><g clip-path="url(#_clip1)"><rect x="-59.916" y="-24.704" width="315.909" height="275.733" style="fill:#bdfdff;"/><path d="M11.622,50.832c1.403,-2.154 11.745,-4.265 18.37,-4.265c6.625,0 7.586,2.111 8.99,4.265c5.365,-0.932 7.253,-2.5 11.383,-0.558c4.131,1.942 9.29,6.825 5.675,8.579c5.287,0.992 8.055,7.249 6.581,9.671c-1.474,2.422 -6.757,0.298 -12.669,0.332c1.228,2.169 -4.109,4.16 -10.077,5.238c-5.969,1.078 -10.817,0.926 -14.573,-0.787c-3.756,1.713 -9.259,3.283 -15.227,2.205c-5.969,-1.078 -10.651,-4.487 -9.423,-6.656c-5.912,-0.034 -11.523,-1.728 -12.997,-4.15c-1.474,-2.422 1.621,-4.861 6.908,-5.853c-3.615,-1.754 1.545,-2.928 5.675,-4.87c4.131,-1.943 6.019,-4.083 11.384,-3.151Z" style="fill:#fcfcfc;"/><path d="M109.869,37.867c1.201,-1.268 8.359,-1.41 12.777,-0.597c4.419,0.814 4.8,2.344 5.471,3.956c3.693,0.036 5.145,-0.781 7.661,1.025c2.515,1.806 5.355,5.705 2.728,6.435c3.404,1.313 4.48,5.837 3.198,7.276c-1.281,1.439 -4.543,-0.631 -8.49,-1.334c0.552,1.601 -3.253,2.278 -7.366,2.266c-4.114,-0.012 -7.328,-0.709 -9.623,-2.315c-2.715,0.684 -6.579,1.059 -10.427,-0.395c-3.848,-1.454 -6.551,-4.309 -5.465,-5.609c-3.938,-0.749 -7.472,-2.57 -8.157,-4.371c-0.685,-1.801 1.68,-3.052 5.328,-3.067c-2.195,-1.617 1.391,-1.768 4.385,-2.56c2.994,-0.792 4.517,-1.992 7.98,-0.71Z" style="fill:#fcfcfc;"/><path d="M165.514,56.213c0.788,-2.429 9.261,-6.268 14.95,-7.345c5.69,-1.077 6.924,0.923 8.545,2.896c4.428,-1.824 5.745,-3.734 9.669,-2.421c3.923,1.313 9.298,5.463 6.533,7.844c4.733,0.154 8.321,6.098 7.523,8.813c-0.797,2.714 -5.745,1.403 -10.816,2.399c1.474,2.016 -2.723,4.92 -7.64,6.992c-4.918,2.072 -9.11,2.704 -12.667,1.566c-2.895,2.36 -7.316,4.86 -12.65,4.729c-5.335,-0.131 -10.015,-2.854 -9.381,-5.27c-5.083,0.927 -10.229,0.109 -11.964,-2.127c-1.734,-2.235 0.452,-5.231 4.8,-7.105c-3.444,-1.204 0.76,-3.243 3.931,-5.899c3.172,-2.657 4.379,-5.151 9.167,-5.072Z" style="fill:#fcfcfc;"/><g><g><path d="M139.928,130.005c0.761,-10.951 4.79,-20.506 11.384,-28.965c-5.62,4.698 -10.595,11.294 -13.977,22.578c3.026,-9.031 6.653,-17.953 12.016,-26.563c-4.307,4.302 -7.974,9.647 -10.245,17.266c1.052,-5.868 2.953,-11.637 6.071,-17.266c-3.253,4.506 -6.23,9.233 -8.475,14.546c1.581,-5.78 4.006,-11.68 8.222,-17.834c-3.823,5.225 -7.261,10.548 -9.676,16.127c0.795,-5.811 2.778,-11.555 6.514,-17.203c-4.13,2.932 -7.365,7.441 -9.487,13.914c0.935,-4.839 2.734,-9.75 5.439,-14.736c-2.88,2.645 -5.519,6.074 -7.715,10.941c0.992,-3.61 2.065,-7.277 3.225,-11.004c-2.067,3.861 -3.935,7.797 -5.059,12.016c-0.078,-6.915 0.607,-13.872 2.071,-20.874c-1.851,6.643 -3.433,13.408 -4.174,20.554c-0.552,-7.191 -0.408,-14.466 0.379,-21.819c-2.882,7.01 -4.546,14.067 -2.277,21.25l1.645,-20.554c-3.709,6.1 -6.32,12.496 -6.268,19.614c0.816,-7.384 1.79,-14.779 3.099,-22.198c-2.657,7.272 -4.83,14.563 -6.261,21.882c-0.731,-4.909 -0.474,-10.511 0.253,-16.443c-1.196,5.431 -2.417,10.858 -2.783,16.443c-0.53,-5.655 -0.888,-11.38 -1.011,-17.202c-1.008,5.512 -1.516,11.014 -1.518,16.506l-2.466,28.946l31.074,0.078Z" style="fill:#37610a;"/><ellipse cx="124.35" cy="130.147" rx="20.536" ry="1.615" style="fill:#37610a;"/><path d="M141.112,130.315c3.187,-13.147 8.145,-11.705 14.23,-0.988c-5.27,-14.745 -11.059,-14.621 -17.392,1.087l3.162,-0.099Z" style="fill:#52a10b;"/><path d="M141.387,130.355c2.269,-7.425 6.373,-15.619 12.446,-24.639c-7.34,5.358 -12.867,13.254 -15.938,24.589l3.492,0.05Z" style="fill:#53a20e;"/><path d="M134.469,130.256c2.27,-7.425 5.188,-20.362 11.261,-29.383c-7.34,5.359 -11.681,17.998 -14.752,29.333l3.491,0.05Z" style="fill:#53a20e;"/><path d="M132.381,130.254c-0.052,-10.637 2.558,-21.082 6.678,-31.419c-5.699,8.784 -9.829,18.819 -10.675,31.47l3.997,-0.051Z" style="fill:#50b207;"/><path d="M130.458,130.811c0.967,-12.748 2.973,-24.712 8.196,-34.253c-7.804,8.056 -10.649,20.751 -10.974,34.355l2.778,-0.102Z" style="fill:#519f0b;"/><path d="M126.161,129.962c0.967,-12.747 3.073,-29.659 8.297,-39.2c-7.805,8.056 -10.931,25.569 -11.257,39.172l2.96,0.028Z" style="fill:#519f0b;"/><path d="M123.567,129.489c-0.967,-12.747 -3.1,-29.582 -8.323,-39.123c7.805,8.057 10.931,25.596 11.256,39.199l-2.933,-0.076Z" style="fill:#519f0b;"/><path d="M125.053,130.139c-1.203,-17.239 -6.048,-28.919 -12.838,-37.63c5.578,9.511 9.164,21.429 9.043,37.819l3.795,-0.189Z" style="fill:#68bd0f;"/><path d="M112.902,129.692c0.711,-12.095 4.034,-24.7 9.677,-37.756c-7.47,9.796 -12.589,21.464 -13.724,36.301l4.047,1.455Z" style="fill:#91d00d;"/><path d="M139.336,130.755c0.711,-12.095 1.514,-15.387 7.157,-28.444c-7.115,11.654 -7.874,15.685 -9.383,28.567l2.226,-0.123Z" style="fill:#91d00d;"/><path d="M114.325,85.912c-1.615,14.201 -2.86,28.486 -3.731,42.855l-3.036,-1.02c0.466,-16.316 2.797,-30.161 6.767,-41.835Z" style="fill:#5aaa00;"/></g><g><path d="M184.105,131.505c0.762,-10.951 4.79,-20.506 11.384,-28.966c-5.62,4.698 -10.595,11.295 -13.977,22.578c3.026,-9.03 6.654,-17.952 12.017,-26.562c-4.308,4.302 -7.974,9.647 -10.246,17.266c1.052,-5.868 2.954,-11.637 6.072,-17.266c-3.254,4.506 -6.23,9.233 -8.475,14.546c1.58,-5.78 4.005,-11.68 8.222,-17.835c-3.824,5.226 -7.261,10.549 -9.677,16.128c0.796,-5.811 2.779,-11.556 6.514,-17.203c-4.129,2.932 -7.365,7.441 -9.486,13.914c0.934,-4.84 2.733,-9.75 5.439,-14.736c-2.881,2.645 -5.52,6.074 -7.716,10.941c0.992,-3.611 2.065,-7.277 3.226,-11.004c-2.067,3.86 -3.935,7.797 -5.06,12.016c-0.077,-6.915 0.608,-13.872 2.071,-20.874c-1.851,6.643 -3.433,13.408 -4.174,20.554c-0.552,-7.191 -0.407,-14.466 0.38,-21.819c-2.882,7.01 -4.546,14.067 -2.277,21.25l1.644,-20.554c-3.708,6.1 -6.32,12.496 -6.267,19.614c0.816,-7.384 1.789,-14.779 3.099,-22.198c-2.657,7.272 -4.831,14.563 -6.261,21.882c-0.732,-4.909 -0.475,-10.511 0.253,-16.443c-1.197,5.431 -2.417,10.858 -2.783,16.443c-0.531,-5.655 -0.888,-11.381 -1.012,-17.202c-1.008,5.512 -1.516,11.014 -1.518,16.506l-2.465,28.946l31.073,0.078Z" style="fill:#37610a;"/><ellipse cx="168.527" cy="131.647" rx="20.536" ry="1.615" style="fill:#37610a;"/><path d="M185.29,131.815c3.186,-13.147 8.145,-11.705 14.23,-0.988c-5.271,-14.746 -11.06,-14.621 -17.392,1.087l3.162,-0.099Z" style="fill:#52a10b;"/><path d="M185.564,131.855c2.27,-7.425 6.374,-15.619 12.446,-24.64c-7.339,5.358 -12.866,13.255 -15.937,24.59l3.491,0.05Z" style="fill:#53a20e;"/><path d="M178.647,131.756c2.27,-7.425 5.188,-20.362 11.26,-29.383c-7.339,5.358 -11.68,17.998 -14.751,29.333l3.491,0.05Z" style="fill:#53a20e;"/><path d="M176.558,131.754c-0.052,-10.637 2.558,-21.082 6.679,-31.419c-5.7,8.784 -9.829,18.819 -10.676,31.47l3.997,-0.051Z" style="fill:#50b207;"/><path d="M174.636,132.31c0.966,-12.747 2.973,-24.711 8.196,-34.252c-7.805,8.056 -10.649,20.751 -10.974,34.354l2.778,-0.102Z" style="fill:#519f0b;"/><path d="M170.338,131.462c0.967,-12.748 3.074,-29.659 8.297,-39.2c-7.805,8.056 -10.931,25.569 -11.256,39.172l2.959,0.028Z" style="fill:#519f0b;"/><path d="M167.745,130.989c-0.967,-12.748 -3.1,-29.582 -8.323,-39.123c7.804,8.057 10.931,25.596 11.256,39.199l-2.933,-0.076Z" style="fill:#519f0b;"/><path d="M169.231,131.639c-1.203,-17.24 -6.049,-28.919 -12.839,-37.63c5.579,9.511 9.165,21.429 9.044,37.819l3.795,-0.189Z" style="fill:#68bd0f;"/><path d="M157.08,131.192c0.711,-12.095 4.033,-24.7 9.676,-37.757c-7.469,9.797 -12.588,21.465 -13.724,36.302l4.048,1.455Z" style="fill:#91d00d;"/><path d="M183.513,132.255c0.711,-12.095 1.514,-15.387 7.157,-28.444c-7.114,11.654 -7.873,15.685 -9.383,28.566l2.226,-0.122Z" style="fill:#91d00d;"/><path d="M158.503,87.411c-1.615,14.202 -2.861,28.487 -3.732,42.856l-3.035,-1.02c0.466,-16.316 2.797,-30.162 6.767,-41.836Z" style="fill:#5aaa00;"/></g><g><path d="M69.188,131.232c-0.761,-10.951 -4.79,-20.506 -11.384,-28.965c5.62,4.698 10.595,11.294 13.977,22.578c-3.026,-9.031 -6.653,-17.953 -12.016,-26.563c4.307,4.302 7.973,9.647 10.245,17.266c-1.052,-5.868 -2.954,-11.637 -6.071,-17.266c3.253,4.506 6.23,9.233 8.474,14.546c-1.58,-5.78 -4.005,-11.68 -8.221,-17.834c3.823,5.226 7.261,10.548 9.676,16.127c-0.795,-5.811 -2.779,-11.555 -6.514,-17.202c4.13,2.931 7.365,7.44 9.486,13.913c-0.934,-4.839 -2.733,-9.75 -5.439,-14.736c2.881,2.645 5.52,6.074 7.716,10.942c-0.992,-3.611 -2.065,-7.278 -3.225,-11.005c2.067,3.861 3.935,7.797 5.059,12.017c0.078,-6.916 -0.607,-13.873 -2.071,-20.875c1.851,6.643 3.433,13.408 4.174,20.554c0.552,-7.19 0.407,-14.466 -0.379,-21.819c2.882,7.01 4.546,14.067 2.276,21.25l-1.644,-20.554c3.708,6.1 6.32,12.497 6.267,19.614c-0.816,-7.383 -1.789,-14.779 -3.098,-22.198c2.656,7.272 4.83,14.563 6.261,21.882c0.731,-4.909 0.474,-10.511 -0.253,-16.443c1.196,5.431 2.416,10.858 2.782,16.443c0.531,-5.654 0.888,-11.38 1.012,-17.202c1.008,5.512 1.516,11.014 1.518,16.507l2.466,28.945l-31.074,0.078Z" style="fill:#37610a;"/><ellipse cx="84.766" cy="131.374" rx="20.536" ry="1.615" style="fill:#37610a;"/><path d="M68.004,131.542c-3.187,-13.147 -8.145,-11.705 -14.23,-0.988c5.27,-14.745 11.059,-14.621 17.392,1.087l-3.162,-0.099Z" style="fill:#52a10b;"/><path d="M67.729,131.582c-2.27,-7.425 -6.373,-15.619 -12.446,-24.639c7.34,5.358 12.867,13.254 15.937,24.589l-3.491,0.05Z" style="fill:#53a20e;"/><path d="M74.647,131.484c-2.27,-7.425 -5.188,-20.363 -11.261,-29.383c7.34,5.358 11.681,17.997 14.752,29.332l-3.491,0.051Z" style="fill:#53a20e;"/><path d="M76.735,131.481c0.052,-10.636 -2.558,-21.082 -6.678,-31.419c5.699,8.784 9.829,18.82 10.675,31.47l-3.997,-0.051Z" style="fill:#50b207;"/><path d="M78.658,132.038c-0.967,-12.748 -2.973,-24.712 -8.197,-34.253c7.805,8.056 10.649,20.752 10.975,34.355l-2.778,-0.102Z" style="fill:#519f0b;"/><path d="M82.955,131.189c-0.967,-12.747 -3.074,-29.659 -8.297,-39.2c7.805,8.056 10.931,25.569 11.256,39.173l-2.959,0.027Z" style="fill:#519f0b;"/><path d="M85.549,130.716c0.967,-12.747 3.099,-29.581 8.323,-39.122c-7.805,8.056 -10.931,25.595 -11.257,39.198l2.934,-0.076Z" style="fill:#519f0b;"/><path d="M84.063,131.366c1.202,-17.239 6.048,-28.919 12.838,-37.63c-5.579,9.512 -9.164,21.429 -9.044,37.82l-3.794,-0.19Z" style="fill:#68bd0f;"/><path d="M96.213,130.919c-0.71,-12.095 -4.033,-24.699 -9.676,-37.756c7.47,9.797 12.588,21.464 13.724,36.302l-4.048,1.454Z" style="fill:#91d00d;"/><path d="M69.78,131.982c-0.711,-12.095 -1.514,-15.387 -7.157,-28.443c7.115,11.653 7.874,15.684 9.383,28.566l-2.226,-0.123Z" style="fill:#91d00d;"/><path d="M94.79,87.139c1.616,14.201 2.861,28.486 3.732,42.855l3.036,-1.02c-0.467,-16.316 -2.798,-30.161 -6.768,-41.835Z" style="fill:#5aaa00;"/></g><g><path d="M29.709,129.242c1.085,-15.615 6.829,-29.239 16.231,-41.3c-8.013,6.698 -15.106,16.104 -19.928,32.193c4.314,-12.876 9.486,-25.598 17.133,-37.874c-6.141,6.133 -11.369,13.755 -14.609,24.618c1.5,-8.367 4.212,-16.593 8.657,-24.618c-4.638,6.424 -8.882,13.164 -12.083,20.74c2.253,-8.241 5.711,-16.654 11.723,-25.429c-5.452,7.451 -10.353,15.04 -13.797,22.994c1.134,-8.285 3.961,-16.475 9.288,-24.527c-5.889,4.18 -10.502,10.609 -13.526,19.838c1.332,-6.9 3.897,-13.902 7.755,-21.011c-4.108,3.771 -7.871,8.661 -11.002,15.601c1.415,-5.149 2.945,-10.377 4.599,-15.691c-2.947,5.505 -5.61,11.117 -7.214,17.134c-0.11,-9.86 0.867,-19.78 2.953,-29.764c-2.639,9.472 -4.895,19.118 -5.951,29.307c-0.787,-10.253 -0.581,-20.626 0.541,-31.111c-4.109,9.995 -6.482,20.058 -3.246,30.299l2.344,-29.307c-5.287,8.698 -9.011,17.819 -8.936,27.968c1.163,-10.529 2.551,-21.073 4.418,-31.652c-3.788,10.369 -6.887,20.765 -8.927,31.201c-1.043,-7 -0.677,-14.987 0.361,-23.446c-1.706,7.744 -3.446,15.482 -3.968,23.446c-0.757,-8.063 -1.266,-16.227 -1.443,-24.528c-1.437,7.859 -2.161,15.705 -2.164,23.536l-3.515,41.272l44.306,0.111Z" style="fill:#37610a;"/><ellipse cx="7.497" cy="129.444" rx="29.281" ry="2.303" style="fill:#37610a;"/><path d="M31.397,129.684c4.544,-18.745 11.614,-16.69 20.29,-1.409c-7.515,-21.024 -15.769,-20.847 -24.798,1.55l4.508,-0.141Z" style="fill:#52a10b;"/><path d="M31.789,129.741c3.236,-10.586 9.088,-22.27 17.746,-35.132c-10.465,7.64 -18.346,18.898 -22.724,35.06l4.978,0.072Z" style="fill:#53a20e;"/><path d="M21.926,129.6c3.236,-10.586 7.397,-29.033 16.055,-41.895c-10.465,7.64 -16.655,25.661 -21.033,41.823l4.978,0.072Z" style="fill:#53a20e;"/><path d="M18.948,129.597c-0.074,-15.166 3.647,-30.06 9.522,-44.799c-8.126,12.525 -14.015,26.834 -15.222,44.871l5.7,-0.072Z" style="fill:#50b207;"/><path d="M16.206,130.391c1.379,-18.176 4.239,-35.235 11.687,-48.839c-11.128,11.487 -15.184,29.588 -15.648,48.984l3.961,-0.145Z" style="fill:#519f0b;"/><path d="M10.079,129.181c1.379,-18.176 4.382,-42.29 11.83,-55.894c-11.128,11.487 -15.586,36.458 -16.049,55.854l4.219,0.04Z" style="fill:#519f0b;"/><path d="M6.381,128.506c-1.379,-18.176 -4.42,-42.178 -11.867,-55.782c11.128,11.487 15.585,36.495 16.049,55.891l-4.182,-0.109Z" style="fill:#519f0b;"/><path d="M8.5,129.433c-1.715,-24.581 -8.624,-41.234 -18.306,-53.655c7.955,13.562 13.067,30.555 12.895,53.925l5.411,-0.27Z" style="fill:#68bd0f;"/><path d="M-8.825,128.796c1.013,-17.246 5.75,-35.218 13.797,-53.835c-10.651,13.969 -17.949,30.605 -19.569,51.761l5.772,2.074Z" style="fill:#91d00d;"/><path d="M28.864,130.312c1.014,-17.246 2.159,-21.94 10.205,-40.557c-10.144,16.616 -11.226,22.364 -13.379,40.731l3.174,-0.174Z" style="fill:#91d00d;"/></g><g><path d="M75.514,133.343c1.085,-15.614 6.83,-29.239 16.232,-41.3c-8.014,6.699 -15.107,16.104 -19.929,32.193c4.314,-12.876 9.486,-25.598 17.133,-37.874c-6.141,6.133 -11.369,13.755 -14.608,24.618c1.5,-8.366 4.211,-16.593 8.657,-24.618c-4.639,6.424 -8.883,13.164 -12.084,20.74c2.254,-8.241 5.711,-16.654 11.723,-25.429c-5.452,7.451 -10.353,15.04 -13.797,22.995c1.134,-8.285 3.962,-16.476 9.288,-24.528c-5.889,4.18 -10.502,10.609 -13.526,19.838c1.332,-6.9 3.897,-13.902 7.755,-21.01c-4.108,3.77 -7.87,8.66 -11.002,15.6c1.415,-5.149 2.945,-10.377 4.599,-15.691c-2.946,5.505 -5.61,11.117 -7.214,17.134c-0.11,-9.86 0.867,-19.78 2.954,-29.764c-2.64,9.472 -4.896,19.118 -5.952,29.307c-0.787,-10.253 -0.581,-20.626 0.541,-31.11c-4.109,9.994 -6.482,20.057 -3.246,30.299l2.344,-29.307c-5.287,8.697 -9.011,17.818 -8.936,27.967c1.163,-10.529 2.551,-21.073 4.419,-31.652c-3.789,10.369 -6.888,20.765 -8.928,31.201c-1.042,-7 -0.676,-14.987 0.361,-23.446c-1.706,7.745 -3.446,15.483 -3.968,23.446c-0.757,-8.063 -1.266,-16.227 -1.443,-24.528c-1.437,7.86 -2.161,15.705 -2.164,23.536l-3.515,41.272l44.306,0.111Z" style="fill:#37610a;"/><ellipse cx="53.302" cy="133.545" rx="29.281" ry="2.303" style="fill:#37610a;"/><path d="M77.203,133.785c4.543,-18.745 11.613,-16.689 20.289,-1.409c-7.515,-21.024 -15.769,-20.847 -24.798,1.55l4.509,-0.141Z" style="fill:#52a10b;"/><path d="M77.594,133.843c3.236,-10.587 9.088,-22.271 17.746,-35.133c-10.465,7.64 -18.345,18.898 -22.724,35.06l4.978,0.073Z" style="fill:#53a20e;"/><path d="M67.731,133.702c3.236,-10.587 7.397,-29.034 16.056,-41.896c-10.466,7.64 -16.655,25.662 -21.034,41.824l4.978,0.072Z" style="fill:#53a20e;"/><path d="M64.753,133.698c-0.074,-15.166 3.647,-30.06 9.522,-44.799c-8.126,12.526 -14.014,26.834 -15.221,44.871l5.699,-0.072Z" style="fill:#50b207;"/><path d="M62.011,134.492c1.379,-18.176 4.24,-35.235 11.687,-48.839c-11.128,11.487 -15.184,29.588 -15.647,48.984l3.96,-0.145Z" style="fill:#519f0b;"/><path d="M55.884,133.282c1.379,-18.176 4.383,-42.29 11.83,-55.894c-11.128,11.487 -15.585,36.458 -16.049,55.854l4.219,0.04Z" style="fill:#519f0b;"/><path d="M52.186,132.607c-1.379,-18.175 -4.42,-42.178 -11.867,-55.782c11.128,11.487 15.586,36.495 16.049,55.891l-4.182,-0.109Z" style="fill:#519f0b;"/><path d="M54.305,133.534c-1.715,-24.581 -8.624,-41.233 -18.306,-53.655c7.955,13.563 13.067,30.555 12.895,53.925l5.411,-0.27Z" style="fill:#68bd0f;"/><path d="M36.98,132.897c1.013,-17.246 5.751,-35.218 13.797,-53.835c-10.651,13.969 -17.949,30.605 -19.568,51.761l5.771,2.074Z" style="fill:#91d00d;"/><path d="M74.67,134.413c1.013,-17.246 2.158,-21.94 10.204,-40.557c-10.144,16.617 -11.226,22.364 -13.379,40.731l3.175,-0.174Z" style="fill:#91d00d;"/><path d="M39.009,70.473c-2.303,20.249 -4.079,40.617 -5.321,61.105l-4.328,-1.455c0.665,-23.264 3.988,-43.005 9.649,-59.65Z" style="fill:#5aaa00;"/></g><g><path d="M115.794,131.641c0.761,-10.951 4.79,-20.506 11.384,-28.965c-5.62,4.698 -10.595,11.294 -13.977,22.578c3.026,-9.03 6.653,-17.953 12.016,-26.563c-4.307,4.302 -7.974,9.647 -10.245,17.266c1.052,-5.868 2.953,-11.637 6.071,-17.266c-3.253,4.506 -6.23,9.233 -8.475,14.547c1.581,-5.781 4.006,-11.681 8.222,-17.835c-3.823,5.226 -7.261,10.548 -9.676,16.127c0.795,-5.811 2.778,-11.555 6.514,-17.202c-4.13,2.931 -7.365,7.44 -9.487,13.913c0.935,-4.839 2.734,-9.75 5.439,-14.735c-2.88,2.644 -5.519,6.073 -7.715,10.941c0.992,-3.611 2.065,-7.278 3.225,-11.005c-2.067,3.861 -3.935,7.797 -5.059,12.017c-0.078,-6.915 0.607,-13.873 2.071,-20.875c-1.851,6.643 -3.433,13.408 -4.174,20.554c-0.552,-7.19 -0.408,-14.466 0.379,-21.819c-2.882,7.01 -4.546,14.067 -2.277,21.25l1.645,-20.554c-3.709,6.1 -6.32,12.497 -6.268,19.615c0.816,-7.384 1.79,-14.78 3.099,-22.199c-2.657,7.272 -4.83,14.563 -6.261,21.882c-0.731,-4.909 -0.474,-10.511 0.253,-16.443c-1.196,5.431 -2.417,10.858 -2.783,16.443c-0.53,-5.654 -0.888,-11.38 -1.011,-17.202c-1.008,5.512 -1.516,11.014 -1.518,16.507l-2.466,28.945l31.074,0.078Z" style="fill:#37610a;"/><ellipse cx="100.216" cy="131.783" rx="20.536" ry="1.615" style="fill:#37610a;"/><path d="M116.978,131.951c3.187,-13.147 8.145,-11.705 14.23,-0.988c-5.27,-14.745 -11.059,-14.621 -17.392,1.087l3.162,-0.099Z" style="fill:#52a10b;"/><path d="M117.253,131.991c2.269,-7.425 6.373,-15.619 12.446,-24.639c-7.34,5.358 -12.867,13.254 -15.938,24.589l3.492,0.05Z" style="fill:#53a20e;"/><path d="M110.335,131.893c2.27,-7.425 5.188,-20.363 11.261,-29.383c-7.34,5.358 -11.681,17.997 -14.752,29.332l3.491,0.051Z" style="fill:#53a20e;"/><path d="M108.247,131.89c-0.052,-10.636 2.558,-21.082 6.678,-31.419c-5.699,8.785 -9.829,18.82 -10.675,31.47l3.997,-0.051Z" style="fill:#50b207;"/><path d="M106.324,132.447c0.967,-12.747 2.973,-24.712 8.196,-34.253c-7.804,8.056 -10.649,20.752 -10.974,34.355l2.778,-0.102Z" style="fill:#519f0b;"/><path d="M102.027,131.598c0.967,-12.747 3.073,-29.659 8.297,-39.2c-7.805,8.056 -10.931,25.569 -11.257,39.173l2.96,0.027Z" style="fill:#519f0b;"/><path d="M99.433,131.125c-0.967,-12.747 -3.1,-29.581 -8.323,-39.122c7.805,8.056 10.931,25.595 11.256,39.198l-2.933,-0.076Z" style="fill:#519f0b;"/><path d="M100.919,131.775c-1.203,-17.239 -6.048,-28.919 -12.838,-37.63c5.578,9.512 9.164,21.429 9.043,37.82l3.795,-0.19Z" style="fill:#68bd0f;"/><path d="M88.768,131.328c0.711,-12.095 4.034,-24.699 9.677,-37.756c-7.47,9.797 -12.589,21.464 -13.724,36.302l4.047,1.454Z" style="fill:#91d00d;"/><path d="M115.202,132.392c0.711,-12.096 1.514,-15.388 7.157,-28.444c-7.115,11.653 -7.874,15.684 -9.384,28.566l2.227,-0.122Z" style="fill:#91d00d;"/><path d="M90.191,87.548c-1.615,14.201 -2.86,28.486 -3.731,42.855l-3.036,-1.02c0.466,-16.316 2.797,-30.161 6.767,-41.835Z" style="fill:#5aaa00;"/></g><g><path d="M130.46,131.375c-0.761,-10.951 -4.789,-20.506 -11.383,-28.965c5.62,4.697 10.594,11.294 13.976,22.578c-3.025,-9.031 -6.653,-17.953 -12.016,-26.563c4.307,4.302 7.974,9.647 10.246,17.266c-1.052,-5.868 -2.954,-11.637 -6.072,-17.266c3.253,4.506 6.23,9.233 8.475,14.546c-1.581,-5.78 -4.006,-11.68 -8.222,-17.834c3.824,5.225 7.261,10.548 9.676,16.127c-0.795,-5.811 -2.778,-11.555 -6.514,-17.203c4.13,2.932 7.365,7.441 9.487,13.914c-0.934,-4.84 -2.733,-9.75 -5.439,-14.736c2.881,2.645 5.52,6.074 7.716,10.941c-0.993,-3.61 -2.066,-7.277 -3.226,-11.004c2.067,3.86 3.935,7.797 5.06,12.016c0.077,-6.915 -0.608,-13.872 -2.072,-20.874c1.851,6.643 3.434,13.408 4.175,20.554c0.552,-7.191 0.407,-14.466 -0.38,-21.819c2.882,7.01 4.546,14.067 2.277,21.25l-1.644,-20.554c3.708,6.1 6.319,12.496 6.267,19.614c-0.816,-7.384 -1.789,-14.779 -3.099,-22.198c2.657,7.272 4.83,14.563 6.261,21.882c0.731,-4.909 0.475,-10.511 -0.253,-16.443c1.197,5.431 2.417,10.858 2.783,16.443c0.531,-5.655 0.888,-11.381 1.012,-17.202c1.008,5.512 1.516,11.014 1.518,16.506l2.465,28.946l-31.074,0.078Z" style="fill:#37610a;"/><ellipse cx="146.038" cy="131.517" rx="20.536" ry="1.615" style="fill:#37610a;"/><path d="M129.276,131.685c-3.186,-13.147 -8.145,-11.705 -14.23,-0.988c5.271,-14.746 11.06,-14.621 17.392,1.087l-3.162,-0.099Z" style="fill:#52a10b;"/><path d="M129.002,131.725c-2.27,-7.425 -6.374,-15.619 -12.447,-24.64c7.34,5.359 12.867,13.255 15.938,24.59l-3.491,0.05Z" style="fill:#53a20e;"/><path d="M135.919,131.626c-2.27,-7.425 -5.188,-20.362 -11.261,-29.383c7.34,5.358 11.681,17.998 14.752,29.333l-3.491,0.05Z" style="fill:#53a20e;"/><path d="M138.008,131.624c0.051,-10.637 -2.559,-21.082 -6.679,-31.419c5.7,8.784 9.829,18.819 10.676,31.47l-3.997,-0.051Z" style="fill:#50b207;"/><path d="M139.93,132.181c-0.967,-12.748 -2.973,-24.712 -8.196,-34.253c7.804,8.056 10.649,20.751 10.974,34.355l-2.778,-0.102Z" style="fill:#519f0b;"/><path d="M144.228,131.332c-0.967,-12.747 -3.074,-29.659 -8.297,-39.2c7.804,8.056 10.93,25.569 11.256,39.172l-2.959,0.028Z" style="fill:#519f0b;"/><path d="M146.821,130.859c0.967,-12.747 3.1,-29.582 8.323,-39.123c-7.805,8.057 -10.931,25.596 -11.256,39.199l2.933,-0.076Z" style="fill:#519f0b;"/><path d="M145.335,131.509c1.203,-17.24 6.048,-28.919 12.839,-37.63c-5.579,9.511 -9.165,21.429 -9.044,37.819l-3.795,-0.189Z" style="fill:#68bd0f;"/><path d="M157.486,131.062c-0.711,-12.095 -4.033,-24.7 -9.676,-37.757c7.469,9.797 12.588,21.465 13.723,36.302l-4.047,1.455Z" style="fill:#91d00d;"/><path d="M131.053,132.125c-0.711,-12.095 -1.514,-15.387 -7.157,-28.444c7.114,11.654 7.873,15.685 9.383,28.567l-2.226,-0.123Z" style="fill:#91d00d;"/><path d="M156.063,87.282c1.615,14.201 2.86,28.486 3.731,42.855l3.036,-1.02c-0.466,-16.316 -2.797,-30.162 -6.767,-41.835Z" style="fill:#5aaa00;"/></g><g><path d="M183.142,133.797c-1.027,-14.777 -6.463,-27.671 -15.361,-39.085c7.584,6.339 14.297,15.24 18.86,30.466c-4.083,-12.185 -8.977,-24.225 -16.214,-35.843c5.812,5.804 10.759,13.017 13.825,23.298c-1.42,-7.918 -3.986,-15.703 -8.193,-23.298c4.39,6.08 8.407,12.458 11.436,19.628c-2.133,-7.799 -5.405,-15.761 -11.095,-24.065c5.16,7.051 9.798,14.233 13.058,21.761c-1.074,-7.84 -3.75,-15.592 -8.791,-23.212c5.573,3.955 9.939,10.04 12.801,18.775c-1.26,-6.531 -3.688,-13.157 -7.339,-19.885c3.887,3.569 7.448,8.196 10.412,14.764c-1.339,-4.872 -2.787,-9.82 -4.353,-14.849c2.789,5.209 5.31,10.521 6.828,16.215c0.104,-9.331 -0.82,-18.719 -2.795,-28.168c2.497,8.964 4.632,18.092 5.632,27.736c0.745,-9.704 0.55,-19.521 -0.512,-29.443c3.889,9.459 6.134,18.982 3.072,28.674l-2.219,-27.735c5.004,8.231 8.528,16.863 8.458,26.467c-1.101,-9.963 -2.415,-19.942 -4.182,-29.954c3.585,9.813 6.518,19.651 8.449,29.528c0.986,-6.624 0.64,-14.184 -0.342,-22.189c1.615,7.329 3.261,14.652 3.755,22.189c0.716,-7.631 1.198,-15.357 1.366,-23.213c1.36,7.438 2.045,14.863 2.048,22.274l3.327,39.059l-41.931,0.105Z" style="fill:#37610a;"/><ellipse cx="204.163" cy="133.988" rx="27.71" ry="2.179" style="fill:#37610a;"/><path d="M181.544,134.215c-4.3,-17.74 -10.99,-15.794 -19.201,-1.333c7.111,-19.897 14.923,-19.729 23.468,1.467l-4.267,-0.134Z" style="fill:#52a10b;"/><path d="M181.174,134.27c-3.063,-10.019 -8.601,-21.077 -16.795,-33.249c9.904,7.23 17.362,17.885 21.506,33.18l-4.711,0.069Z" style="fill:#53a20e;"/><path d="M190.508,134.136c-3.063,-10.019 -7,-27.477 -15.195,-39.649c9.904,7.23 15.762,24.286 19.906,39.581l-4.711,0.068Z" style="fill:#53a20e;"/><path d="M193.326,134.133c0.07,-14.353 -3.452,-28.448 -9.011,-42.397c7.69,11.854 13.263,25.395 14.405,42.465l-5.394,-0.068Z" style="fill:#50b207;"/><path d="M195.921,134.884c-1.305,-17.201 -4.012,-33.345 -11.06,-46.22c10.531,10.871 14.369,28.002 14.808,46.358l-3.748,-0.138Z" style="fill:#519f0b;"/><path d="M201.72,133.739c-1.305,-17.201 -4.148,-40.022 -11.196,-52.896c10.531,10.871 14.75,34.503 15.189,52.859l-3.993,0.037Z" style="fill:#519f0b;"/><path d="M183.941,134.809c-0.959,-16.321 -2.042,-20.763 -9.657,-38.381c9.6,15.725 10.624,21.164 12.661,38.547l-3.004,-0.166Z" style="fill:#91d00d;"/></g></g><g id="water"><rect x="-33.567" y="129.408" width="268.469" height="93.689" style="fill:#a5f1ee;"/><path d="M-16.157,156.438c31.261,2.06 61.256,0.881 90.024,-3.436c42.86,-7.01 72.012,-0.931 95.522,10.537c27.337,9.402 42.762,3.878 54.747,-5.955l7.331,64.826l-268.241,8.934l20.617,-74.906Z" style="fill:#78e0f9;"/><path d="M-17.761,174.306c34.716,-4.232 69.459,-3.263 104.227,2.519c42.219,5.353 73.932,2.189 101.477,-4.352l38.026,-5.039l3.207,63.223l-254.496,2.748l7.559,-59.099Z" style="fill:#50d2e8;"/></g><g><g><ellipse cx="20.203" cy="191.816" rx="15.914" ry="4.364" style="fill:#56b340;stroke:#388300;stroke-width:1px;"/><path d="M36.006,191.468l-15.958,0.39" style="fill:none;stroke:#388300;stroke-width:1px;"/></g><g><ellipse cx="34.913" cy="171.148" rx="6.084" ry="1.668" style="fill:#56b340;stroke:#388300;stroke-width:1px;"/><path d="M40.954,171.015l-6.1,0.15" style="fill:none;stroke:#388300;stroke-width:1px;"/></g><g><ellipse cx="126.749" cy="181.461" rx="10.544" ry="2.891" style="fill:#56b340;stroke:#388300;stroke-width:1px;"/><path d="M137.219,181.23l-10.572,0.259" style="fill:none;stroke:#388300;stroke-width:1px;"/></g><g><ellipse cx="150.599" cy="182.979" rx="13.001" ry="3.565" style="fill:#56b340;stroke:#388300;stroke-width:1px;"/><path d="M163.509,182.695l-13.036,0.319" style="fill:none;stroke:#388300;stroke-width:1px;"/></g><g><ellipse cx="162.138" cy="176.697" rx="10.279" ry="2.819" style="fill:#56b340;stroke:#388300;stroke-width:1px;"/><path d="M172.346,176.472l-10.307,0.252" style="fill:none;stroke:#388300;stroke-width:1px;"/></g><g><ellipse cx="157.536" cy="167.19" rx="8.679" ry="2.005" style="fill:#56b340;stroke:#388300;stroke-width:1px;"/><path d="M166.154,167.03l-8.703,0.18" style="fill:none;stroke:#388300;stroke-width:1px;"/></g><g><ellipse cx="145.543" cy="162.518" rx="5.753" ry="1.329" style="fill:#56b340;stroke:#388300;stroke-width:1px;"/><path d="M151.256,162.412l-5.769,0.119" style="fill:none;stroke:#388300;stroke-width:1px;"/></g><ellipse cx="59.128" cy="161.387" rx="2.909" ry="1.032" style="fill:#56b340;"/><ellipse cx="67.854" cy="160.449" rx="2.909" ry="1.032" style="fill:#56b340;"/><ellipse cx="71.513" cy="165.046" rx="2.909" ry="1.032" style="fill:#56b340;"/><ellipse cx="48.995" cy="162.513" rx="2.909" ry="1.032" style="fill:#56b340;"/><ellipse cx="55.797" cy="147.219" rx="2.111" ry="0.563" style="fill:#56b340;"/><ellipse cx="138.318" cy="204.5" rx="3.753" ry="1.548" style="fill:#56b340;"/><ellipse cx="127.152" cy="190.801" rx="3.753" ry="1.548" style="fill:#56b340;"/><ellipse cx="124.76" cy="162.888" rx="3.049" ry="1.032" style="fill:#56b340;"/><ellipse cx="8.203" cy="202.805" rx="3.049" ry="1.032" style="fill:#4f9c23;"/><ellipse cx="17.41" cy="205.972" rx="3.577" ry="1.267" style="fill:#4f9c23;"/><g><ellipse cx="31.463" cy="178.402" rx="9.952" ry="2.729" style="fill:#56b340;stroke:#388300;stroke-width:1px;"/><path d="M41.345,178.184l-9.979,0.244" style="fill:none;stroke:#388300;stroke-width:1px;"/></g><g><ellipse cx="40.517" cy="184.816" rx="12.814" ry="3.514" style="fill:#56b340;stroke:#388300;stroke-width:1px;"/><path d="M53.242,184.536l-12.849,0.314" style="fill:none;stroke:#388300;stroke-width:1px;"/></g><g><ellipse cx="23.246" cy="169.492" rx="4.832" ry="1.325" style="fill:#56b340;stroke:#388300;stroke-width:1px;"/><path d="M28.044,169.386l-4.845,0.118" style="fill:none;stroke:#388300;stroke-width:1px;"/></g><g><ellipse cx="68.233" cy="197.557" rx="18.062" ry="5.911" style="fill:#56b340;stroke:#388300;stroke-width:1px;"/><path d="M86.168,197.085l-18.111,0.529" style="fill:none;stroke:#388300;stroke-width:1px;"/></g><g><ellipse cx="36.383" cy="200.535" rx="18.062" ry="5.911" style="fill:#56b340;stroke:#388300;stroke-width:1px;"/><path d="M54.318,200.064l-18.111,0.528" style="fill:none;stroke:#388300;stroke-width:1px;"/></g></g><g><g><path d="M38.594,186.394c0.098,4.654 1.384,8.233 4.612,10.057c11.488,5.628 20.844,2.918 28.984,-4.548c-0.384,-0.486 -0.938,-0.781 -2.114,-0.384c1.085,-1.539 1.118,-3.456 0.769,-5.509c-0.885,0.009 -1.623,0.262 -2.05,1.025c0.353,-1.181 0.323,-2.355 0.032,-3.523c-1.821,0.395 -3.243,1.289 -4.131,2.85c0.184,-1.145 0.109,-2.299 -0.161,-3.458c-1.705,-0.039 -3.046,0.412 -4.003,1.377c-0.135,-1.74 -0.578,-2.824 -1.217,-3.491c-1.506,1.295 -2.285,2.473 -2.274,3.523c-0.679,-1.377 -1.582,-2.391 -2.69,-3.075c-0.641,0.885 -0.977,1.897 -0.993,3.043c-1.153,-0.096 -2.177,-0.94 -3.074,-2.53c-1.265,1.316 -1.94,2.856 -1.954,4.643c-0.995,-0.375 -2.285,-1.288 -3.843,-2.69c-0.495,1.618 -0.494,3.239 0.416,4.868c-2.131,0.341 -4.237,-0.298 -6.309,-2.178Z" style="fill:#fcfcff;stroke:#efefef;stroke-width:1px;"/><path d="M50.133,189.344c0.123,-1.182 0.682,-1.786 1.056,-2.842c1.571,-0.734 1.961,-0.451 3.331,0.384c1.112,-0.5 4.363,0.171 5.661,-0.08c1.706,0.481 1.516,0.661 2.346,1.673c0.139,1.286 -0.325,2.392 -1.345,3.331c-4.114,0.311 -7.902,-0.233 -11.049,-2.466Z" style="fill:#d9e785;"/><path d="M42.626,190.917c0.071,2.912 1.011,5.151 3.37,6.292c8.395,3.521 15.232,1.826 21.18,-2.845c-0.28,-0.304 -0.685,-0.489 -1.544,-0.241c0.793,-0.963 0.816,-2.162 0.561,-3.446c-0.646,0.005 -1.185,0.163 -1.498,0.641c0.259,-0.739 0.237,-1.473 0.024,-2.204c-1.331,0.246 -2.37,0.806 -3.019,1.783c0.135,-0.717 0.08,-1.438 -0.117,-2.164c-1.247,-0.024 -2.226,0.258 -2.926,0.862c-0.099,-1.089 -0.422,-1.767 -0.889,-2.185c-1.101,0.811 -1.67,1.548 -1.662,2.205c-0.496,-0.862 -1.156,-1.497 -1.966,-1.924c-0.468,0.553 -0.713,1.187 -0.725,1.904c-0.843,-0.061 -1.591,-0.588 -2.247,-1.583c-0.924,0.823 -1.417,1.786 -1.427,2.905c-0.728,-0.235 -1.67,-0.806 -2.809,-1.683c-0.362,1.012 -0.361,2.026 0.304,3.046c-1.557,0.213 -3.096,-0.187 -4.61,-1.363Z" style="fill:#fcfcff;stroke:#efefef;stroke-width:1px;"/></g><g><path d="M149.675,173.914c-0.075,2.86 -1.055,5.06 -3.517,6.18c-8.761,3.46 -15.896,1.794 -22.103,-2.795c0.292,-0.298 0.715,-0.48 1.612,-0.236c-0.828,-0.946 -0.853,-2.124 -0.587,-3.386c0.675,0.006 1.238,0.161 1.564,0.63c-0.27,-0.726 -0.247,-1.447 -0.025,-2.165c1.389,0.243 2.473,0.793 3.151,1.752c-0.141,-0.704 -0.084,-1.413 0.122,-2.126c1.301,-0.024 2.323,0.254 3.053,0.847c0.103,-1.07 0.441,-1.736 0.928,-2.146c1.149,0.796 1.743,1.52 1.734,2.165c0.518,-0.846 1.207,-1.469 2.052,-1.889c0.488,0.543 0.744,1.165 0.757,1.87c0.879,-0.06 1.66,-0.578 2.344,-1.556c0.965,0.81 1.48,1.756 1.49,2.855c0.759,-0.231 1.743,-0.792 2.931,-1.654c0.377,0.994 0.377,1.991 -0.318,2.992c1.626,0.21 3.232,-0.183 4.812,-1.338Z" style="fill:#fcfcff;stroke:#efefef;stroke-width:1px;"/><path d="M140.876,175.726c-0.094,-0.726 -0.521,-1.097 -0.806,-1.747c-1.198,-0.45 -1.495,-0.277 -2.54,0.237c-0.848,-0.308 -3.327,0.105 -4.317,-0.05c-1.301,0.296 -1.157,0.407 -1.789,1.029c-0.106,0.79 0.248,1.47 1.026,2.047c3.136,0.191 6.026,-0.143 8.426,-1.516Z" style="fill:#d9e785;"/><path d="M146.6,176.693c-0.054,1.79 -0.771,3.166 -2.57,3.867c-6.402,2.165 -11.616,1.123 -16.152,-1.748c0.214,-0.187 0.523,-0.301 1.178,-0.148c-0.605,-0.592 -0.623,-1.329 -0.428,-2.118c0.493,0.003 0.904,0.1 1.142,0.394c-0.197,-0.455 -0.18,-0.906 -0.018,-1.355c1.015,0.152 1.807,0.496 2.302,1.096c-0.103,-0.441 -0.061,-0.884 0.09,-1.33c0.95,-0.015 1.697,0.158 2.231,0.529c0.075,-0.669 0.322,-1.085 0.678,-1.342c0.839,0.498 1.273,0.951 1.267,1.355c0.379,-0.53 0.882,-0.92 1.499,-1.183c0.357,0.341 0.545,0.73 0.554,1.17c0.642,-0.036 1.213,-0.361 1.713,-0.972c0.705,0.506 1.081,1.098 1.089,1.785c0.554,-0.144 1.273,-0.495 2.141,-1.034c0.276,0.622 0.276,1.245 -0.232,1.872c1.188,0.131 2.362,-0.115 3.516,-0.838Z" style="fill:#fcfcff;stroke:#efefef;stroke-width:1px;"/></g></g><g><path d="M44.623,151.469c1.47,-21.155 9.253,-39.613 21.99,-55.954c-10.856,9.076 -20.466,21.819 -26.999,43.615c5.845,-17.444 12.852,-34.679 23.212,-51.311c-8.32,8.309 -15.403,18.635 -19.791,33.352c2.032,-11.335 5.705,-22.479 11.728,-33.352c-6.284,8.703 -12.035,17.835 -16.371,28.099c3.053,-11.166 7.737,-22.563 15.882,-34.452c-7.386,10.095 -14.026,20.377 -18.692,31.153c1.536,-11.224 5.368,-22.321 12.584,-33.23c-7.978,5.663 -14.228,14.373 -18.326,26.877c1.805,-9.348 5.28,-18.835 10.507,-28.465c-5.565,5.109 -10.663,11.733 -14.905,21.135c1.917,-6.975 3.99,-14.058 6.231,-21.257c-3.993,7.457 -7.601,15.061 -9.774,23.212c-0.149,-13.358 1.174,-26.797 4.001,-40.324c-3.575,12.833 -6.632,25.901 -8.063,39.705c-1.066,-13.89 -0.787,-27.944 0.733,-42.148c-5.567,13.541 -8.781,27.174 -4.398,41.049l3.176,-39.705c-7.163,11.783 -12.208,24.14 -12.107,37.89c1.577,-14.264 3.457,-28.55 5.987,-42.882c-5.133,14.048 -9.331,28.132 -12.095,42.271c-1.413,-9.483 -0.917,-20.305 0.489,-31.764c-2.312,10.492 -4.669,20.975 -5.376,31.764c-1.025,-10.924 -1.715,-21.984 -1.955,-33.23c-1.947,10.647 -2.928,21.276 -2.932,31.886l-4.762,55.916l60.026,0.15Z" style="fill:#37610a;"/><ellipse cx="14.53" cy="151.743" rx="39.669" ry="3.12" style="fill:#37610a;"/><path d="M46.911,152.068c6.155,-25.396 15.733,-22.611 27.488,-1.909c-10.181,-28.484 -21.364,-28.244 -33.597,2.099l6.109,-0.19Z" style="fill:#52a10b;"/><path d="M47.441,152.145c4.385,-14.343 12.312,-30.172 24.043,-47.597c-14.179,10.35 -24.855,25.603 -30.787,47.5l6.744,0.097Z" style="fill:#53a20e;"/><path d="M34.078,151.955c4.385,-14.344 10.022,-39.336 21.753,-56.761c-14.179,10.351 -22.565,34.767 -28.497,56.663l6.744,0.098Z" style="fill:#53a20e;"/><path d="M30.044,151.95c-0.1,-20.547 4.941,-40.725 12.901,-60.694c-11.01,16.97 -18.987,36.355 -20.623,60.792l7.722,-0.098Z" style="fill:#50b207;"/><path d="M26.33,153.025c1.867,-24.624 5.743,-47.736 15.833,-66.167c-15.077,15.562 -20.571,40.086 -21.2,66.364l5.367,-0.197Z" style="fill:#519f0b;"/><path d="M18.028,151.386c1.868,-24.625 5.938,-57.294 16.028,-75.725c-15.077,15.563 -21.116,49.394 -21.744,75.671l5.716,0.054Z" style="fill:#519f0b;"/><path d="M13.018,150.472c-1.868,-24.625 -5.988,-57.144 -16.078,-75.574c15.077,15.562 21.116,49.443 21.744,75.721l-5.666,-0.147Z" style="fill:#519f0b;"/><path d="M15.889,151.727c-2.324,-33.301 -11.684,-55.863 -24.801,-72.691c10.777,18.374 17.703,41.395 17.47,73.058l7.331,-0.367Z" style="fill:#68bd0f;"/><path d="M-7.583,150.864c1.373,-23.365 7.791,-47.713 18.692,-72.935c-14.43,18.925 -24.318,41.464 -26.511,70.125l7.819,2.81Z" style="fill:#91d00d;"/><path d="M43.479,152.918c1.373,-23.365 2.924,-29.723 13.825,-54.946c-13.743,22.512 -15.209,30.298 -18.126,55.183l4.301,-0.237Z" style="fill:#91d00d;"/></g><g><path d="M174.176,166.601c-1.168,-16.808 -7.352,-31.473 -17.472,-44.456c8.626,7.21 16.261,17.335 21.451,34.652c-4.643,-13.859 -10.211,-27.553 -18.442,-40.767c6.611,6.602 12.238,14.806 15.725,26.499c-1.615,-9.006 -4.534,-17.86 -9.319,-26.499c4.993,6.915 9.562,14.17 13.007,22.325c-2.426,-8.872 -6.147,-17.927 -12.618,-27.372c5.868,8.02 11.144,16.189 14.851,24.751c-1.221,-8.918 -4.265,-17.734 -9.998,-26.402c6.338,4.5 11.304,11.42 14.56,21.355c-1.434,-7.428 -4.195,-14.965 -8.348,-22.616c4.421,4.059 8.472,9.322 11.842,16.792c-1.523,-5.542 -3.17,-11.169 -4.95,-16.889c3.172,5.924 6.039,11.966 7.765,18.442c0.119,-10.613 -0.933,-21.291 -3.179,-32.038c2.841,10.196 5.269,20.578 6.406,31.546c0.848,-11.036 0.625,-22.202 -0.582,-33.487c4.423,10.758 6.977,21.59 3.494,32.614l-2.524,-31.546c5.692,9.362 9.7,19.179 9.619,30.104c-1.252,-11.333 -2.746,-22.683 -4.756,-34.07c4.078,11.161 7.414,22.351 9.61,33.584c1.122,-7.534 0.728,-16.132 -0.389,-25.236c1.837,8.335 3.71,16.665 4.271,25.236c0.815,-8.678 1.363,-17.466 1.553,-26.401c1.547,8.46 2.327,16.904 2.33,25.334l3.784,44.425l-47.691,0.12Z" style="fill:#37610a;"/><ellipse cx="198.084" cy="166.818" rx="31.518" ry="2.479" style="fill:#37610a;"/><path d="M172.358,167.076c-4.89,-20.177 -12.5,-17.965 -21.839,-1.517c8.088,-22.63 16.973,-22.439 26.692,1.669l-4.853,-0.152Z" style="fill:#52a10b;"/><path d="M171.937,167.138c-3.484,-11.396 -9.782,-23.972 -19.102,-37.817c11.264,8.224 19.747,20.342 24.46,37.739l-5.358,0.078Z" style="fill:#53a20e;"/><path d="M182.554,166.986c-3.484,-11.396 -7.963,-31.252 -17.283,-45.096c11.265,8.223 17.927,27.622 22.641,45.018l-5.358,0.078Z" style="fill:#53a20e;"/><path d="M185.759,166.982c0.079,-16.324 -3.926,-32.356 -10.25,-48.221c8.747,13.482 15.085,28.884 16.385,48.299l-6.135,-0.078Z" style="fill:#50b207;"/><path d="M188.71,167.837c-1.484,-19.565 -4.563,-37.927 -12.58,-52.571c11.979,12.365 16.344,31.849 16.843,52.727l-4.263,-0.156Z" style="fill:#519f0b;"/><path d="M195.305,166.534c-1.484,-19.564 -4.717,-45.52 -12.734,-60.163c11.979,12.364 16.777,39.243 17.276,60.121l-4.542,0.042Z" style="fill:#519f0b;"/><path d="M199.286,165.808c1.484,-19.564 4.757,-45.401 12.774,-60.044c-11.979,12.365 -16.777,39.283 -17.276,60.161l4.502,-0.117Z" style="fill:#519f0b;"/><path d="M197.005,166.805c1.846,-26.458 9.283,-44.383 19.704,-57.753c-8.562,14.598 -14.065,32.889 -13.88,58.045l-5.824,-0.292Z" style="fill:#68bd0f;"/><path d="M215.654,166.12c-1.091,-18.564 -6.19,-37.909 -14.851,-57.948c11.464,15.036 19.32,32.943 21.063,55.715l-6.212,2.233Z" style="fill:#91d00d;"/><path d="M175.085,167.752c-1.091,-18.564 -2.324,-23.616 -10.985,-43.655c10.919,17.885 12.084,24.072 14.401,43.842l-3.416,-0.187Z" style="fill:#91d00d;"/></g><g><path d="M4.873,112.159c-14.679,32.447 -24.501,66.602 -31.616,101.709" style="fill:none;stroke:#69b54d;stroke-width:2px;"/><path d="M2.785,155.706c-8.523,16.364 -14.113,35.833 -17.001,58.162" style="fill:none;stroke:#69b54d;stroke-width:2px;"/><path d="M171.306,141.091c-0.876,22.731 0.438,47.019 2.982,72.181" style="fill:none;stroke:#69b54d;stroke-width:2px;"/><path d="M182.043,149.741c-3.385,21.526 -4.867,43.42 -4.772,65.619" style="fill:none;stroke:#69b54d;stroke-width:2px;"/><path d="M187.71,104.106c9.955,36.743 14.606,74.379 16.703,112.447" style="fill:none;stroke:#69b54d;stroke-width:2px;"/><ellipse cx="171.111" cy="128.793" rx="3.153" ry="12.423" style="fill:#713014;"/><path d="M184.821,125.509c1.732,0.164 2.612,5.839 1.963,12.665c-0.648,6.825 -2.581,12.233 -4.313,12.069c-1.732,-0.165 -2.612,-5.84 -1.964,-12.665c0.649,-6.826 2.581,-12.234 4.314,-12.069Z" style="fill:#713014;"/><path d="M177.724,67.453c2.517,-0.676 6.803,7.125 9.566,17.41c2.763,10.285 2.962,19.184 0.445,19.86c-2.517,0.676 -6.803,-7.125 -9.566,-17.41c-2.762,-10.285 -2.962,-19.184 -0.445,-19.86Z" style="fill:#713014;"/><path d="M200.989,46.361c2.593,-0.256 5.549,8.139 6.598,18.737c1.048,10.598 -0.207,19.411 -2.8,19.667c-2.594,0.257 -5.55,-8.139 -6.598,-18.737c-1.048,-10.598 0.206,-19.41 2.8,-19.667Z" style="fill:#713014;"/><path d="M22.378,119.785c2.728,1.489 0.386,11.043 -5.225,21.32c-5.612,10.278 -12.382,17.413 -15.11,15.924c-2.727,-1.489 -0.386,-11.042 5.226,-21.32c5.611,-10.278 12.382,-17.413 15.109,-15.924Z" style="fill:#713014;"/><path d="M25.524,67.066c3.196,1.457 1.05,13.037 -4.789,25.843c-5.839,12.807 -13.174,22.021 -16.37,20.564c-3.195,-1.457 -1.049,-13.037 4.79,-25.843c5.839,-12.807 13.174,-22.021 16.369,-20.564Z" style="fill:#713014;"/></g><g><path d="M1.537,206.665c0.704,-17.238 12.248,-35.186 29.086,-53.481c-25.313,20.42 -35.807,36.93 -38.281,51.323l-0.657,5.442l9.007,1.408l0.845,-4.692Z" style="fill:#92b419;"/><path d="M-1.56,207.51c-1.2,-24.93 8.312,-49.888 28.242,-74.874c-22.34,19.539 -37.14,43.141 -39.853,73.255l11.611,1.619Z" style="fill:#60b708;"/><path d="M-14.62,188.318c23.581,-28.541 43.031,-33.746 58.935,-18.912c-12.51,-20.099 -34.11,-13.262 -60.401,7.477l1.466,11.435Z" style="fill:#6bc605;"/><path d="M-16.672,190.957c19.631,-17.646 36.561,-14.585 50.725,9.676c-7.988,-28.296 -25.964,-33.673 -54.244,-19.938l3.519,10.262Z" style="fill:#97da00;"/><path d="M174.621,214.341c8.748,-29.479 22.071,-41.03 39.783,-35.372c-15.97,-0.656 -28.352,7.369 -32.089,36.311l-7.694,-0.939Z" style="fill:#388300;"/><path d="M170.211,213.778c-8.945,-22.821 -20.888,-43.662 -36.592,-62.019c23.119,15.712 34.98,37.452 42.785,61.363l-6.193,0.656" style="fill:#489d01;"/><path d="M168.522,212.371c0.292,-15.988 9.112,-26.481 22.894,-33.778c-7.929,9.586 -14.559,20.068 -14.074,35.467l-8.82,-1.689Z" style="fill:#4f9c23;"/><path d="M170.493,212.183c6.009,-27.912 19.443,-45.859 39.032,-55.545c-19.337,17.542 -30.947,36.326 -29.931,57.14l-9.101,-1.595Z" style="fill:#8dd316;"/><path d="M169.554,214.154c-0.954,-25.538 -6.433,-49.614 -17.545,-71.872c16.066,17.236 22.544,42.724 24.77,71.872l-7.225,0Z" style="fill:#69bb0f;"/><path d="M163.831,210.964c-5.951,-27.865 -16.875,-32.267 -34.059,-7.131c16.829,-30.924 29.467,-26.679 38.469,8.069l-4.41,-0.938Z" style="fill:#8bc204;"/><path d="M196.842,217.942c8.243,-55.388 8.191,-111.075 -6.158,-167.275c19.049,56.973 23.785,113.599 21.698,170.061l-15.54,-2.786Z" style="fill:#8fca0d;"/><path d="M194.672,214.922c1.432,-58.097 -11.84,-103.143 -29.673,-144.141c29.599,41.541 41.995,90.288 43.043,143.789l-13.37,0.352Z" style="fill:#69ba15;"/><path d="M191.975,209.527c-0.524,-28.226 -7.847,-54.18 -21.932,-77.876c19.706,20.295 28.871,46.816 29.555,78.345l-7.623,-0.469Z" style="fill:#8bbb06;"/></g></g></svg>