<?xml version="1.0" encoding="UTF-8" standalone="no"?><!DOCTYPE svg PUBLIC "-//W3C//DTD SVG 1.1//EN" "http://www.w3.org/Graphics/SVG/1.1/DTD/svg11.dtd"><svg width="100%" height="100%" viewBox="0 0 149 218" version="1.1" xmlns="http://www.w3.org/2000/svg" xmlns:xlink="http://www.w3.org/1999/xlink" xml:space="preserve" xmlns:serif="http://www.serif.com/" style="fill-rule:evenodd;clip-rule:evenodd;stroke-linecap:round;stroke-linejoin:round;stroke-miterlimit:1.5;"><g id="worker"><g id="legs"><path id="back-right" d="M99.967,111.994c2.76,-1.608 5.849,-2.27 9.173,-2.252c0.429,7.778 1.387,15.578 3.652,23.434l0.159,0.904c3.284,10.389 7.126,20.119 12.744,27.745c1.155,2.449 1.745,4.887 1.217,7.304l0.731,1.096c4.55,4.175 8.502,8.683 11.443,13.756l0.924,3.051c3.705,3.068 6.655,9.201 8.925,18.1c0.271,2.97 -0.711,3.859 -3.59,1.595c-3.505,-3.816 -6.65,-7.934 -9.125,-12.615l-1.346,-1.645c-2.494,0.436 -3.497,-1.425 -4.238,-3.69c-3.227,-3.681 -5.911,-7.912 -8.128,-12.615l-0.648,-2.344c-1.587,-0.603 -2.745,-1.621 -3.54,-2.991c-4.897,-9.518 -8.782,-19.586 -11.259,-30.419l-0.152,-2.13l-1.522,-1.37l-4.109,-0.913l-1.311,-24.001Z" style="fill:#1d1f23;"/><path id="back-left" d="M51.898,111.123c-2.71,-1.693 -5.777,-2.45 -9.1,-2.535c-0.669,7.761 -1.868,15.528 -4.374,23.31l-0.187,0.899c-3.604,10.283 -7.744,19.889 -13.596,27.338c-1.23,2.412 -1.895,4.831 -1.443,7.263l-0.764,1.073c-4.676,4.032 -8.766,8.416 -11.862,13.395l-1.018,3.021c-3.798,2.952 -6.937,8.991 -9.481,17.816c-0.362,2.96 0.591,3.879 3.539,1.705c3.622,-3.705 6.893,-7.724 9.511,-12.327l1.396,-1.603c2.479,0.514 3.539,-1.316 4.35,-3.557c3.34,-3.579 6.153,-7.725 8.514,-12.358l0.72,-2.322c1.605,-0.554 2.795,-1.536 3.631,-2.881c5.189,-9.362 9.384,-19.304 12.195,-30.056l0.218,-2.124l1.563,-1.322l4.135,-0.786l2.053,-23.949Z" style="fill:#1d1f23;"/><path id="mid-right" d="M93.952,107.009c8.951,-5.57 18.022,-8.436 27.171,-9.544c1.023,-0.274 1.592,-0.895 1.85,-1.753l1.362,-1.134c2.385,-0.636 4.125,-2.563 5.034,-6.149l0.935,-1.558c5.675,-4.789 11.267,-8.786 16.767,-11.904c0.446,-2.128 -0.447,-2.918 -2.618,-2.431c-4.903,4.128 -10.065,7.929 -15.831,10.97l-0.499,1.745l-0.686,0.81c-1.683,1.182 -2.989,2.781 -4.002,4.7l-1.328,0.858c-1.012,-1.18 -2.325,-1.917 -4.001,-2.121c-7.845,2.244 -13.846,4.575 -16.864,7.048l-5.808,2.927l-1.482,7.536Z" style="fill:#1d1f23;"/><path id="mid-left" d="M59.183,105.456c-8.629,-6.056 -17.527,-9.421 -26.6,-11.034c-1.007,-0.33 -1.541,-0.982 -1.751,-1.853l-1.297,-1.207c-2.346,-0.767 -3.976,-2.788 -4.686,-6.418l-0.847,-1.608c-5.401,-5.096 -10.763,-9.396 -16.082,-12.814c-0.328,-2.149 0.607,-2.889 2.749,-2.282c4.666,4.393 9.61,8.474 15.199,11.829l0.401,1.77l0.64,0.847c1.616,1.274 2.831,2.942 3.736,4.914l1.278,0.93c1.076,-1.121 2.428,-1.785 4.112,-1.896c7.709,2.675 13.572,5.336 16.449,7.972l5.637,3.244l1.062,7.606Z" style="fill:#1d1f23;"/><path id="front-right" d="M100.497,60.26c3.272,-3.522 6.738,-6.536 10.518,-8.726l0.967,-0.534c-0.051,-0.595 0.061,-1.119 0.429,-1.532c2.756,-1.075 6.032,-1.437 9.779,-1.15l0.991,-0.109c4.171,-4.137 8.049,-8.421 11.388,-12.979c1.336,-0.559 2.263,-0.172 2.593,1.596c-4.284,4.382 -8.306,8.976 -11.967,13.861l-1.396,0.1c-3.014,1.51 -6.078,2.641 -9.224,3.141l-0.599,0.649c-0.691,3.845 -4.483,8.125 -8.476,11.318l-3.341,0.848l-2.144,-3.391l0.482,-3.092Z" style="fill:#1d1f23;"/><path id="front-left" d="M57.662,60.004c-2.908,-3.829 -6.059,-7.171 -9.603,-9.724l-0.909,-0.627c0.109,-0.587 0.049,-1.119 -0.275,-1.567c-2.637,-1.342 -5.861,-2.026 -9.618,-2.112l-0.975,-0.206c-3.741,-4.529 -7.177,-9.177 -10.049,-14.042c-1.274,-0.688 -2.235,-0.396 -2.738,1.331c3.83,4.785 7.377,9.754 10.537,14.978l1.379,0.237c2.851,1.8 5.788,3.229 8.869,4.038l0.531,0.705c0.308,3.895 3.658,8.529 7.316,12.101l3.24,1.174l2.469,-3.162l-0.174,-3.124Z" style="fill:#1d1f23;"/></g><g id="body"><path id="butt-outline" d="M69.144,95.65l-13.269,6.573c-23.087,40.917 -14.348,97.818 11.2,111.996c3.103,1.798 6.186,2.67 9.252,2.8c4.485,-0.006 8.418,-1.146 11.686,-3.652c19.395,-19.723 29.859,-59.143 10.104,-106.031l-11.686,-9.495l-17.287,-2.191" style="fill:url(#_Radial1);"/><path id="head-outline" d="M67.318,26.139c8.367,-2.237 16.769,-1.656 25.199,1.218c6.639,2.31 12.335,5.512 16.434,10.225c2.231,3.55 2.696,7.259 0.366,11.2c-1.611,2.723 -4.847,5.407 -10.348,8.034l-32.868,0.122c-8.347,-0.029 -13.24,-4.594 -15.095,-13.147c0.168,-8.263 5.533,-14.18 16.312,-17.652Z" style="fill:url(#_Radial2);"/><path id="middle-outline" d="M74.42,48.553c-5.821,0.501 -11.45,1.742 -16.586,4.869c-5.109,6.053 -8.221,12.959 -8.674,20.999c-0.355,10.673 1.113,20.341 6.594,27.802c4.866,6.137 12.612,8.982 22.399,9.495c12.147,1.069 19.935,-3.776 24.833,-12.538c4.434,-7.564 5.958,-16.823 5.235,-27.39c-0.198,-5.782 -2.033,-11.052 -5.843,-15.704c-7.312,-5.737 -16.432,-8.569 -27.958,-7.533" style="fill:url(#_Radial3);"/></g><g id="higher-body"><path id="back" d="M70.706,54.957c-10.998,3.826 -15.844,11.475 -14.243,23.129c1.08,19.336 8.304,28.862 21.426,28.973c13.293,-1.166 21.932,-9.496 23.251,-29.094c0.291,-11.357 -4.134,-18.76 -12.904,-22.521c-5.851,-1.255 -11.694,-1.479 -17.53,-0.487Z" style="fill:#120f0e;"/><path id="eyes-area" d="M59.457,32.717c-5.913,2.721 -8.175,5.455 -6.639,10.87c2.333,4.496 5.99,5.91 10.56,6.205c11.243,-2.723 22.072,-2.796 32.649,0.682c3.833,-0.157 5.947,-1.076 8.907,-2.579c4.309,-4.758 5.506,-7.839 -0.505,-13.571c-16.31,1.681 -30.595,1.383 -44.972,-1.607Z" style="fill:#1b1815;"/><path id="left-eye" d="M63.54,34.441c5.606,-0.343 10.337,2.315 10.558,5.93c0.22,3.615 -4.152,6.828 -9.758,7.17c-5.606,0.342 -10.336,-2.315 -10.557,-5.93c-0.221,-3.615 4.151,-6.828 9.757,-7.17Z"/><path id="right-eye" d="M97.493,35.668c-5.606,-0.342 -10.336,2.315 -10.557,5.93c-0.22,3.616 4.152,6.828 9.758,7.17c5.606,0.343 10.336,-2.315 10.557,-5.93c0.22,-3.615 -4.152,-6.827 -9.758,-7.17Z"/><path id="stripe-1" d="M48.807,117.841c-0.664,1.722 -1.17,3.464 -1.667,5.132c18.097,7.143 36.979,7.081 56.944,1.337c-0.451,-1.628 -1.044,-3.572 -1.584,-5.227c-18.267,4.682 -36.086,5.083 -53.693,-1.242Z" style="fill:#26221e;"/><path id="stripe-2" d="M43.399,140.843c-0.274,1.856 -0.415,3.683 -0.56,5.468c23.055,5.359 44.92,6.85 65.391,-0.032c-0.113,-1.443 -0.295,-3.403 -0.586,-5.053c-21.772,5.428 -43.265,3.249 -64.245,-0.383Z" style="fill:#26221e;"/><path id="stripe-3" d="M42.533,158.585c0.064,2.602 0.104,5.115 0.509,7.88c22.678,13.12 44.491,12.509 65.073,1.136c0.294,-2.54 0.499,-5.091 0.544,-7.662c-22.948,9.79 -45.035,10.063 -66.126,-1.354Z" style="fill:#26221e;"/><path id="stripe-4" d="M44.823,177.781c0.483,2.525 0.973,5.321 2.251,8.377c19.086,10.616 38.118,11.492 56.163,2.499c1.018,-2.539 1.81,-5.157 2.453,-7.827c-20.096,9.423 -40.391,8.701 -60.867,-3.049Z" style="fill:#26221e;"/><path id="stripe-5" d="M49.645,192.977c-0.085,0.057 3.067,6.862 5.546,10.051c13.703,3.316 27.531,3.35 41.042,-0.088c1.3,-2.036 2.494,-4.175 3.601,-6.389c-16.929,4.585 -33.693,4.082 -50.189,-3.574Z" style="fill:#26221e;"/><path id="stripe-6" d="M58.924,207.693c3.75,4.047 8.038,7.202 12.844,8.565c3.193,1.074 6.606,1.204 9.855,0.205c4.587,-1.005 7.821,-3.448 10.929,-8.287c-10.318,3.202 -21.624,3.193 -33.628,-0.483Z" style="fill:#26221e;"/><path id="right-antenna" d="M91.851,29.074c5.225,-2.474 10.225,-5.199 14.896,-8.29c4.581,-9.361 13.797,-16.077 26.945,-20.549c1.789,-0.147 2.286,0.381 1.169,1.753c-12.596,4.687 -21.779,11.223 -25.518,20.709l-0.898,0.997c-4.638,2.216 -9.091,4.588 -13.163,7.28l-2.743,0.599l-1.396,-0.898l0.708,-1.601Z" style="fill:#07080b;"/><path id="left-antenna" d="M67.827,27.178c-4.745,-2.234 -9.097,-4.561 -12.933,-7.012l-1.869,-1.247c-5.021,-8.596 -12.816,-14.764 -22.984,-18.854c-2.145,-0.232 -3.103,0.122 -1.714,1.636c9.042,4.415 16.795,10.281 22.381,18.585l0.947,1.147c4.515,3.061 9.088,5.744 13.762,7.778l1.945,0.1l0.798,-0.997l-0.333,-1.136Z" style="fill:#07080b;"/></g><g id="wings"><g id="left-wing"><path id="left-wing-joint" d="M50.508,75.283c0.634,-0.137 1.397,0.893 1.703,2.301c0.306,1.408 0.041,2.662 -0.593,2.8c-0.633,0.138 -1.396,-0.893 -1.702,-2.301c-0.307,-1.407 -0.041,-2.662 0.592,-2.8Z" style="fill:#1b1815;"/><path id="left-wing-outline" d="M51.772,78.433c2.011,10.867 5.716,19.546 11.045,26.127c3.094,7.02 4.515,14.236 4.065,21.67c-0.032,1.935 -0.491,3.667 -1.641,5.071c1.273,6.998 2.122,13.649 -0.994,17.053c-1.542,2.759 -2.579,5.513 -2.337,8.253c0.934,7.429 2.804,12.722 5.966,15.064c0.604,6.49 -0.291,12.553 -2.486,18.245c-2.93,5.165 -6.224,9.625 -10.142,12.877c-4.027,7.092 -8.352,11.939 -13.274,12.28c-3.99,0.089 -7.083,-1.319 -8.949,-4.773c-4.313,-12.71 -4.415,-26.518 -0.944,-41.258c2.482,-19.937 6.675,-39.516 11.742,-58.911c0.995,-12.714 3.653,-23.476 6.373,-32.697l1.576,0.999Z" style="fill:#ecf0f4;fill-opacity:0.435294;stroke:#382000;stroke-opacity:0.423529;stroke-width:0.6px;"/><path d="M50.952,77.913c-0.515,28.609 3.837,48.032 14.289,53.388" style="fill:none;stroke:#382000;stroke-opacity:0.423529;stroke-width:0.6px;"/><path d="M43.635,110.851c2.932,4.27 6.838,6.162 11.118,5.212" style="fill:none;stroke:#382000;stroke-opacity:0.423529;stroke-width:0.6px;"/><path d="M51.852,116.272l0.586,43.077c0.439,3.937 1.731,7.485 2.833,9.764" style="fill:none;stroke:#382000;stroke-opacity:0.423529;stroke-width:0.6px;"/><path d="M52.14,137.462c3.241,4.295 7.885,8.086 12.107,10.892" style="fill:none;stroke:#382000;stroke-opacity:0.423529;stroke-width:0.6px;"/><path d="M44.026,111.4c-2.778,16.185 -4.55,32.399 -3.858,48.164c-0.09,7.223 1.79,12.22 6.603,13.905c1.139,0.57 2.278,0.622 3.418,0.156c5.342,-3.608 9.762,-9.798 11.721,-17.018" style="fill:none;stroke:#382000;stroke-opacity:0.423529;stroke-width:0.6px;"/><path d="M40.867,134.837c2.954,7.279 7.376,13.385 11.473,17.274" style="fill:none;stroke:#382000;stroke-opacity:0.423529;stroke-width:0.6px;"/><path d="M56.454,167.524c-0.873,5.172 -0.889,10.182 0.606,14.838c1.617,3.863 4.545,7.349 7.18,9.512" style="fill:none;stroke:#382000;stroke-opacity:0.423529;stroke-width:0.6px;"/><path d="M40.47,164.451c-1.825,12.822 -2.807,25.979 -2.536,39.095c-0.664,2.15 -2.41,4.898 -4.909,6.754" style="fill:none;stroke:#382000;stroke-opacity:0.423529;stroke-width:0.6px;"/><path d="M38.346,184.965c3.037,5.253 6.594,8.808 10.735,8.705c1.935,3.11 3.812,6.422 6.167,9.123" style="fill:none;stroke:#382000;stroke-opacity:0.423529;stroke-width:0.6px;"/><path d="M49.081,193.67c-0.387,-6.817 2.122,-10.77 7.979,-11.308" style="fill:none;stroke:#382000;stroke-opacity:0.423529;stroke-width:0.6px;"/></g><g id="right-wing"><path id="right-wing-joint" d="M105.658,75.283c-0.634,-0.137 -1.397,0.893 -1.703,2.301c-0.306,1.408 -0.04,2.662 0.593,2.8c0.634,0.138 1.396,-0.893 1.703,-2.301c0.306,-1.407 0.04,-2.662 -0.593,-2.8Z" style="fill:#1b1815;"/><path id="right-wing-outline" d="M104.394,78.433c-2.011,10.867 -5.716,19.546 -11.045,26.127c-3.094,7.02 -4.515,14.236 -4.064,21.67c0.031,1.935 0.49,3.667 1.64,5.071c-1.273,6.998 -2.122,13.649 0.995,17.053c1.541,2.759 2.578,5.513 2.336,8.253c-0.934,7.429 -2.804,12.722 -5.966,15.064c-0.604,6.49 0.291,12.553 2.486,18.245c2.931,5.165 6.224,9.625 10.142,12.877c4.027,7.092 8.352,11.939 13.275,12.28c3.989,0.089 7.082,-1.319 8.948,-4.773c4.313,-12.71 4.415,-26.518 0.944,-41.258c-2.482,-19.937 -6.675,-39.516 -11.742,-58.911c-0.995,-12.714 -3.653,-23.476 -6.373,-32.697l-1.576,0.999Z" style="fill:#ecf0f4;fill-opacity:0.435294;stroke:#382000;stroke-opacity:0.423529;stroke-width:0.6px;"/><path d="M105.215,77.913c0.514,28.609 -3.837,48.032 -14.29,53.388" style="fill:none;stroke:#382000;stroke-opacity:0.423529;stroke-width:0.6px;"/><path d="M112.531,110.851c-2.932,4.27 -6.838,6.162 -11.118,5.212" style="fill:none;stroke:#382000;stroke-opacity:0.423529;stroke-width:0.6px;"/><path d="M104.315,116.272l-0.587,43.077c-0.439,3.937 -1.731,7.485 -2.832,9.764" style="fill:none;stroke:#382000;stroke-opacity:0.423529;stroke-width:0.6px;"/><path d="M104.026,137.462c-3.241,4.295 -7.884,8.086 -12.106,10.892" style="fill:none;stroke:#382000;stroke-opacity:0.423529;stroke-width:0.6px;"/><path d="M112.141,111.4c2.778,16.185 4.549,32.399 3.857,48.164c0.09,7.223 -1.79,12.22 -6.602,13.905c-1.14,0.57 -2.279,0.622 -3.418,0.156c-5.343,-3.608 -9.763,-9.798 -11.722,-17.018" style="fill:none;stroke:#382000;stroke-opacity:0.423529;stroke-width:0.6px;"/><path d="M115.299,134.837c-2.954,7.279 -7.376,13.385 -11.472,17.274" style="fill:none;stroke:#382000;stroke-opacity:0.423529;stroke-width:0.6px;"/><path d="M99.712,167.524c0.873,5.172 0.889,10.182 -0.605,14.838c-1.618,3.863 -4.546,7.349 -7.181,9.512" style="fill:none;stroke:#382000;stroke-opacity:0.423529;stroke-width:0.6px;"/><path d="M115.696,164.451c1.825,12.822 2.807,25.979 2.536,39.095c0.664,2.15 2.41,4.898 4.909,6.754" style="fill:none;stroke:#382000;stroke-opacity:0.423529;stroke-width:0.6px;"/><path d="M117.82,184.965c-3.036,5.253 -6.594,8.808 -10.735,8.705c-1.935,3.11 -3.812,6.422 -6.167,9.123" style="fill:none;stroke:#382000;stroke-opacity:0.423529;stroke-width:0.6px;"/><path d="M107.085,193.67c0.387,-6.817 -2.121,-10.77 -7.978,-11.308" style="fill:none;stroke:#382000;stroke-opacity:0.423529;stroke-width:0.6px;"/></g></g></g><defs><radialGradient id="_Radial1" cx="0" cy="0" r="1" gradientUnits="userSpaceOnUse" gradientTransform="matrix(34.1862,0,0,96.1231,76.6721,120.896)"><stop offset="0" style="stop-color:#ffa000;stop-opacity:1"/><stop offset="0.5" style="stop-color:#ffc900;stop-opacity:1"/><stop offset="1" style="stop-color:#ffd700;stop-opacity:1"/></radialGradient><radialGradient id="_Radial2" cx="0" cy="0" r="1" gradientUnits="userSpaceOnUse" gradientTransform="matrix(34.1862,0,0,96.1231,76.6721,120.896)"><stop offset="0" style="stop-color:#ffa000;stop-opacity:1"/><stop offset="0.5" style="stop-color:#ffc900;stop-opacity:1"/><stop offset="1" style="stop-color:#ffd700;stop-opacity:1"/></radialGradient><radialGradient id="_Radial3" cx="0" cy="0" r="1" gradientUnits="userSpaceOnUse" gradientTransform="matrix(34.1862,0,0,96.1231,76.6721,120.896)"><stop offset="0" style="stop-color:#ffa000;stop-opacity:1"/><stop offset="0.5" style="stop-color:#ffc900;stop-opacity:1"/><stop offset="1" style="stop-color:#ffd700;stop-opacity:1"/></radialGradient></defs></svg>